<svg xmlns="http://www.w3.org/2000/svg" xmlns:xlink="http://www.w3.org/1999/xlink" width="500" zoomAndPan="magnify" viewBox="0 0 375 374.999991" height="500" preserveAspectRatio="xMidYMid meet" version="1.0"><defs><clipPath id="a05ecc6529"><path d="M 90 311 L 292 311 L 292 337.824219 L 90 337.824219 Z M 90 311 " clip-rule="nonzero"/></clipPath></defs><rect x="-37.5" width="450" fill="#ffffff" y="-37.499999" height="449.999989" fill-opacity="1"/><rect x="-37.5" width="450" fill="#ff5757" y="-37.499999" height="449.999989" fill-opacity="1"/><path fill="#42424c" d="M 284.375 324.625 C 284.375 330.492188 242.636719 335.25 191.046875 335.25 C 139.460938 335.25 97.722656 330.492188 97.722656 324.625 C 97.722656 318.761719 139.460938 314.019531 191.046875 314.019531 C 242.636719 314.019531 284.375 318.761719 284.375 324.625 Z M 284.375 324.625 " fill-opacity="0.098" fill-rule="nonzero"/><g clip-path="url(#a05ecc6529)"><path fill="#42424c" d="M 191.046875 337.65625 C 165.4375 337.859375 139.761719 337.257812 114.25 333.847656 C 107.820312 333.097656 101.53125 331.710938 95.382812 329.6875 C 93.738281 329.136719 92.265625 328.277344 90.976562 327.117188 C 90.800781 326.9375 90.648438 326.734375 90.523438 326.515625 C 90.367188 326.289062 90.265625 326.035156 90.226562 325.761719 C 90.0625 325.183594 90.117188 324.628906 90.390625 324.09375 C 90.523438 323.859375 90.660156 323.640625 90.808594 323.425781 L 91.308594 322.941406 C 91.632812 322.632812 91.984375 322.359375 92.363281 322.121094 C 95.277344 320.578125 98.351562 319.464844 101.578125 318.78125 C 107.855469 317.347656 114.195312 316.261719 120.59375 315.523438 C 126.972656 314.742188 133.355469 314.113281 139.742188 313.632812 C 152.546875 312.730469 165.355469 312.246094 178.144531 312.0625 C 190.929688 311.878906 203.769531 311.980469 216.542969 312.5 C 229.3125 313.015625 242.136719 313.800781 254.941406 315.1875 C 261.300781 315.921875 267.664062 316.859375 273.957031 317.996094 C 277.113281 318.589844 280.226562 319.339844 283.308594 320.25 C 284.84375 320.699219 286.339844 321.253906 287.796875 321.921875 C 288.527344 322.273438 289.21875 322.691406 289.867188 323.171875 C 290.574219 323.652344 290.984375 324.316406 291.101562 325.160156 C 290.96875 324.324219 290.542969 323.671875 289.835938 323.207031 C 289.183594 322.746094 288.492188 322.351562 287.765625 322.019531 C 286.300781 321.363281 284.796875 320.808594 283.257812 320.351562 C 280.167969 319.5 277.03125 318.863281 273.890625 318.3125 C 267.578125 317.242188 261.21875 316.507812 254.859375 315.921875 C 242.121094 314.703125 229.332031 314.035156 216.457031 313.703125 C 190.882812 313.050781 165.253906 313.332031 139.761719 315.222656 C 133.382812 315.667969 127.019531 316.261719 120.675781 317.007812 C 114.335938 317.71875 108.050781 318.777344 101.828125 320.183594 C 98.75 320.804688 95.816406 321.839844 93.03125 323.289062 C 92.441406 323.621094 91.96875 324.070312 91.609375 324.644531 C 91.375 325.09375 91.511719 325.511719 91.945312 326.011719 C 93.078125 327.007812 94.355469 327.742188 95.785156 328.21875 C 101.875 330.289062 108.109375 331.765625 114.484375 332.644531 C 127.121094 334.566406 139.894531 335.601562 152.664062 336.371094 C 165.4375 337.140625 178.242188 337.65625 191.046875 337.65625 Z M 191.046875 337.65625 " fill-opacity="0.098" fill-rule="nonzero"/></g><path fill="#c97c5d" d="M 133.75 281.527344 C 128.308594 279.539062 116.535156 276.515625 114.699219 259.589844 C 112.863281 242.667969 122.429688 202.003906 109.84375 165.835938 C 97.253906 129.667969 59.503906 88.355469 46.25 82.609375 C 46.25 82.609375 54.597656 116.019531 51.773438 143.167969 C 48.953125 170.3125 40.4375 221.234375 62.375 253.84375 C 86.433594 289.628906 125.433594 294.054688 133.75 294.054688 Z M 133.75 281.527344 " fill-opacity="1" fill-rule="nonzero"/><path fill="#eed7c5" d="M 97.152344 148.78125 C 94.78125 150.617188 86.851562 138.757812 86.433594 138.203125 C 86.601562 139.089844 90.339844 159.085938 87.085938 159.605469 C 83.832031 160.125 77.96875 145.222656 77.621094 144.300781 C 77.753906 145.253906 80.058594 161.007812 77.621094 161.277344 C 75.183594 161.542969 72.210938 152.773438 72.210938 152.773438 C 72.210938 152.773438 72.761719 170.113281 68.570312 170.113281 C 62.394531 170.113281 59.855469 146.726562 59.855469 146.726562 C 59.855469 146.726562 59.136719 160.574219 55.632812 161.042969 C 53.960938 161.277344 51.660156 156.179688 51.660156 144.335938 C 51.660156 143.96875 51.660156 143.585938 51.773438 143.234375 C 54.597656 116.019531 46.25 82.609375 46.25 82.609375 C 55.832031 86.75 78.222656 109.503906 94.664062 135.515625 C 96.617188 140.726562 98.773438 147.542969 97.152344 148.78125 Z M 97.152344 148.78125 " fill-opacity="1" fill-rule="nonzero"/><path fill="#af6348" d="M 63.09375 245.308594 C 62.792969 244.539062 62.476562 243.785156 62.125 243.035156 C 61.570312 241.585938 60.867188 240.210938 60.023438 238.910156 C 59.902344 238.757812 59.753906 238.652344 59.570312 238.59375 C 59.386719 238.535156 59.203125 238.53125 59.015625 238.585938 C 58.832031 238.644531 58.679688 238.746094 58.558594 238.894531 C 58.4375 239.046875 58.367188 239.21875 58.351562 239.410156 C 58.515625 241.140625 59.027344 242.761719 59.890625 244.269531 C 60.238281 244.980469 60.640625 245.660156 61.089844 246.308594 C 61.515625 247.035156 62.074219 247.644531 62.761719 248.128906 C 62.863281 248.183594 62.96875 248.207031 63.085938 248.203125 C 63.199219 248.199219 63.304688 248.167969 63.402344 248.109375 C 63.5 248.046875 63.574219 247.96875 63.632812 247.867188 C 63.6875 247.765625 63.714844 247.660156 63.710938 247.546875 C 63.636719 246.761719 63.433594 246.015625 63.09375 245.308594 Z M 63.09375 245.308594 " fill-opacity="1" fill-rule="nonzero"/><path fill="#af6348" d="M 57.117188 230.988281 C 56.917969 230.371094 56.765625 229.753906 56.582031 229.136719 C 56.421875 228.421875 56.109375 227.78125 55.648438 227.214844 C 55.554688 227.132812 55.449219 227.074219 55.328125 227.039062 C 55.210938 227.003906 55.089844 226.996094 54.96875 227.015625 C 54.84375 227.035156 54.730469 227.082031 54.628906 227.148438 C 54.527344 227.21875 54.441406 227.308594 54.378906 227.414062 C 53.984375 228.910156 54.117188 230.359375 54.78125 231.757812 C 55.191406 233.1875 55.894531 234.453125 56.902344 235.550781 C 57.042969 235.675781 57.207031 235.746094 57.394531 235.761719 C 57.582031 235.78125 57.757812 235.742188 57.917969 235.652344 C 58.078125 235.542969 58.1875 235.402344 58.253906 235.222656 C 58.324219 235.046875 58.332031 234.867188 58.285156 234.683594 C 57.972656 233.425781 57.582031 232.195312 57.117188 230.988281 Z M 57.117188 230.988281 " fill-opacity="1" fill-rule="nonzero"/><path fill="#af6348" d="M 54.445312 221.75 C 54.445312 221.300781 54.445312 220.847656 54.3125 220.382812 C 54.179688 219.914062 54.144531 219.347656 54.027344 218.84375 C 53.921875 218.355469 53.753906 217.886719 53.527344 217.441406 C 53.332031 217.140625 53.054688 217.019531 52.703125 217.074219 C 52.347656 217.128906 52.121094 217.328125 52.027344 217.675781 C 51.941406 218.175781 51.941406 218.675781 52.027344 219.179688 C 52.085938 219.746094 52.191406 220.300781 52.34375 220.847656 C 52.472656 221.300781 52.632812 221.742188 52.828125 222.167969 C 53.027344 222.621094 53.210938 223.222656 53.679688 223.472656 C 53.808594 223.539062 53.941406 223.554688 54.082031 223.511719 C 54.222656 223.46875 54.328125 223.382812 54.398438 223.253906 C 54.566406 222.757812 54.585938 222.257812 54.445312 221.75 Z M 54.445312 221.75 " fill-opacity="1" fill-rule="nonzero"/><path fill="#af6348" d="M 62.511719 236.636719 C 62.519531 236.507812 62.519531 236.378906 62.511719 236.253906 L 62.410156 235.933594 C 62.410156 235.699219 62.261719 235.449219 62.191406 235.199219 C 62.125 234.949219 61.875 234.265625 61.742188 233.78125 C 61.609375 233.296875 61.476562 232.828125 61.308594 232.359375 C 61.214844 232.066406 61.085938 231.789062 60.925781 231.523438 C 60.839844 231.40625 60.746094 231.292969 60.640625 231.191406 L 60.390625 231.007812 C 60.324219 230.894531 60.230469 230.816406 60.109375 230.773438 C 59.988281 230.726562 59.867188 230.722656 59.742188 230.757812 C 59.617188 230.796875 59.519531 230.867188 59.445312 230.972656 C 59.367188 231.078125 59.332031 231.195312 59.339844 231.324219 C 59.058594 232.414062 59.167969 233.460938 59.671875 234.464844 C 59.8125 234.957031 59.980469 235.441406 60.171875 235.917969 C 60.34375 236.539062 60.632812 237.09375 61.042969 237.589844 C 61.199219 237.730469 61.386719 237.8125 61.597656 237.835938 C 61.808594 237.855469 62.007812 237.8125 62.191406 237.707031 C 62.367188 237.589844 62.492188 237.433594 62.566406 237.238281 C 62.640625 237.039062 62.648438 236.839844 62.59375 236.636719 C 62.511719 236.769531 62.527344 236.769531 62.511719 236.636719 Z M 62.511719 236.636719 " fill-opacity="1" fill-rule="nonzero"/><path fill="#af6348" d="M 52.375 210.058594 C 52.375 209.621094 52.375 209.1875 52.242188 208.753906 C 52.222656 208.148438 51.980469 207.648438 51.523438 207.25 C 51.410156 207.1875 51.285156 207.167969 51.15625 207.191406 C 51.023438 207.210938 50.914062 207.269531 50.824219 207.367188 C 50.511719 207.792969 50.394531 208.265625 50.472656 208.789062 C 50.472656 209.222656 50.574219 209.671875 50.640625 210.109375 C 50.707031 210.542969 50.808594 211.058594 50.90625 211.527344 C 50.957031 211.925781 51.078125 212.296875 51.273438 212.648438 L 51.359375 212.847656 C 51.429688 213.078125 51.585938 213.191406 51.824219 213.199219 C 52.007812 213.199219 52.257812 213.03125 52.277344 212.832031 C 52.292969 212.628906 52.375 212.347656 52.394531 212.09375 C 52.410156 211.84375 52.394531 211.628906 52.394531 211.378906 C 52.394531 211.125 52.410156 210.507812 52.375 210.058594 Z M 52.375 210.058594 " fill-opacity="1" fill-rule="nonzero"/><path fill="#af6348" d="M 69.472656 255.480469 L 69.320312 255.148438 C 69.320312 254.902344 69.242188 254.6875 69.089844 254.496094 L 68.804688 254.09375 C 68.664062 253.914062 68.511719 253.742188 68.355469 253.578125 L 68.21875 253.410156 L 68.121094 253.292969 C 67.988281 253.105469 67.851562 252.929688 67.703125 252.757812 L 67.570312 252.609375 L 67.570312 252.492188 C 67.328125 252.140625 67.046875 251.828125 66.71875 251.554688 C 66.5 251.4375 66.285156 251.4375 66.066406 251.554688 C 65.863281 251.691406 65.757812 251.878906 65.75 252.121094 C 65.75 252.523438 65.84375 252.902344 66.03125 253.257812 C 66.199219 253.644531 66.402344 254.011719 66.632812 254.363281 C 66.878906 254.691406 67.144531 255.003906 67.4375 255.296875 C 67.621094 255.449219 67.820312 255.5625 68.019531 255.699219 C 68.128906 255.78125 68.253906 255.84375 68.386719 255.882812 C 68.53125 255.925781 68.675781 255.925781 68.820312 255.882812 L 69.207031 255.882812 C 69.402344 255.820312 69.492188 255.6875 69.472656 255.480469 Z M 69.472656 255.480469 " fill-opacity="1" fill-rule="nonzero"/><path fill="#af6348" d="M 68.121094 248.398438 L 67.96875 248.097656 C 67.96875 248.097656 67.96875 247.914062 67.835938 247.8125 C 67.703125 247.710938 67.621094 247.445312 67.519531 247.246094 L 67.386719 246.976562 C 67.390625 246.925781 67.390625 246.878906 67.386719 246.828125 L 67.285156 246.609375 C 67.261719 246.5625 67.234375 246.519531 67.203125 246.476562 L 67.035156 246.191406 C 66.917969 246.007812 66.835938 245.839844 66.71875 245.675781 C 66.640625 245.527344 66.535156 245.40625 66.402344 245.308594 L 66.132812 245.140625 C 66.015625 245.078125 65.894531 245.066406 65.765625 245.105469 C 65.640625 245.144531 65.542969 245.222656 65.480469 245.339844 C 65.359375 245.5625 65.300781 245.804688 65.316406 246.058594 C 65.339844 246.324219 65.390625 246.585938 65.464844 246.84375 C 65.585938 247.332031 65.769531 247.792969 66.015625 248.230469 C 66.207031 248.621094 66.4375 248.988281 66.699219 249.332031 C 67.019531 249.75 67.386719 250.320312 67.9375 250.453125 C 68.03125 250.472656 68.128906 250.472656 68.222656 250.449219 C 68.316406 250.425781 68.402344 250.382812 68.480469 250.320312 C 68.554688 250.261719 68.613281 250.183594 68.65625 250.097656 C 68.699219 250.007812 68.71875 249.914062 68.722656 249.816406 C 68.6875 249.28125 68.320312 248.816406 68.121094 248.398438 Z M 68.121094 248.398438 " fill-opacity="1" fill-rule="nonzero"/><path fill="#af6348" d="M 68.269531 243 C 68.121094 242.667969 67.96875 242.332031 67.804688 242.015625 C 67.636719 241.699219 67.621094 241.714844 67.519531 241.582031 C 67.425781 241.425781 67.304688 241.296875 67.152344 241.199219 L 66.902344 241.199219 C 66.808594 241.113281 66.699219 241.070312 66.574219 241.070312 C 66.449219 241.070312 66.34375 241.113281 66.25 241.199219 C 66.125 241.359375 66.066406 241.542969 66.082031 241.75 C 66.011719 242.085938 66.050781 242.40625 66.199219 242.71875 C 66.285156 242.96875 66.402344 243.203125 66.5 243.453125 C 66.601562 243.703125 66.75 244.039062 66.882812 244.320312 C 67.03125 244.597656 67.210938 244.855469 67.417969 245.089844 C 67.546875 245.210938 67.699219 245.285156 67.878906 245.300781 C 68.054688 245.320312 68.21875 245.285156 68.371094 245.191406 C 68.519531 245.089844 68.621094 244.960938 68.683594 244.792969 C 68.746094 244.628906 68.753906 244.457031 68.703125 244.289062 C 68.628906 243.835938 68.484375 243.40625 68.269531 243 Z M 68.269531 243 " fill-opacity="1" fill-rule="nonzero"/><path fill="#af6348" d="M 58.519531 224.660156 L 58.519531 224.441406 C 58.53125 224.300781 58.53125 224.164062 58.519531 224.023438 C 58.519531 223.804688 58.421875 223.589844 58.386719 223.371094 C 58.351562 223.15625 58.238281 222.570312 58.136719 222.167969 C 58.035156 221.769531 57.902344 221.351562 57.734375 221.367188 C 57.570312 221.382812 57.734375 221.367188 57.734375 221.367188 C 57.691406 221.289062 57.636719 221.222656 57.570312 221.167969 L 57.453125 221.082031 C 57.410156 221.011719 57.351562 220.957031 57.28125 220.917969 C 57.210938 220.875 57.132812 220.855469 57.050781 220.855469 C 56.96875 220.855469 56.890625 220.875 56.820312 220.917969 C 56.75 220.957031 56.691406 221.011719 56.648438 221.082031 L 56.648438 221.285156 C 56.585938 221.339844 56.535156 221.40625 56.5 221.484375 C 56.5 221.683594 56.5 221.734375 56.5 221.601562 C 56.375 221.882812 56.320312 222.179688 56.332031 222.488281 C 56.378906 222.988281 56.476562 223.476562 56.632812 223.957031 C 56.765625 224.425781 56.9375 224.875 57.152344 225.308594 C 57.335938 225.730469 57.574219 226.113281 57.867188 226.460938 C 58.074219 226.652344 58.300781 226.691406 58.558594 226.582031 C 58.8125 226.46875 58.941406 226.273438 58.9375 225.996094 C 58.835938 225.535156 58.699219 225.089844 58.519531 224.660156 Z M 58.519531 224.660156 " fill-opacity="1" fill-rule="nonzero"/><path fill="#af6348" d="M 56.71875 214.285156 C 56.730469 213.890625 56.632812 213.527344 56.417969 213.199219 C 56.375 213.082031 56.324219 212.972656 56.265625 212.863281 L 56.132812 212.695312 C 56.050781 212.601562 55.949219 212.550781 55.824219 212.550781 C 55.699219 212.550781 55.59375 212.601562 55.515625 212.695312 C 55.453125 212.730469 55.394531 212.777344 55.347656 212.832031 C 55.246094 212.980469 55.230469 212.996094 55.347656 212.832031 L 55.246094 212.949219 C 55.246094 212.949219 55.046875 213.28125 55.246094 213.046875 C 55.109375 213.203125 55.007812 213.382812 54.949219 213.582031 C 54.914062 213.8125 54.914062 214.039062 54.949219 214.265625 C 54.949219 214.5 54.949219 214.734375 54.949219 214.953125 C 55.070312 215.703125 55.402344 216.34375 55.949219 216.875 C 56.011719 216.929688 56.082031 216.964844 56.160156 216.984375 C 56.242188 217.003906 56.320312 217 56.402344 216.980469 C 56.480469 216.957031 56.550781 216.917969 56.609375 216.859375 C 56.667969 216.804688 56.710938 216.734375 56.734375 216.65625 C 56.882812 216.109375 56.941406 215.550781 56.902344 214.984375 C 56.765625 214.800781 56.734375 214.550781 56.71875 214.285156 Z M 56.71875 214.285156 " fill-opacity="1" fill-rule="nonzero"/><path fill="#af6348" d="M 54.378906 206.015625 C 54.40625 205.71875 54.40625 205.425781 54.378906 205.128906 C 54.375 204.792969 54.335938 204.457031 54.261719 204.125 C 54.234375 203.953125 54.171875 203.792969 54.078125 203.640625 L 53.980469 203.507812 C 53.949219 203.445312 53.910156 203.390625 53.863281 203.339844 C 53.816406 203.292969 53.761719 203.257812 53.695312 203.242188 C 53.636719 203.183594 53.566406 203.15625 53.488281 203.15625 C 53.40625 203.15625 53.335938 203.183594 53.277344 203.242188 C 53.023438 203.46875 52.878906 203.753906 52.84375 204.09375 C 52.820312 204.289062 52.820312 204.484375 52.84375 204.679688 C 52.84375 204.84375 52.84375 205.011719 52.84375 205.179688 C 52.855469 205.53125 52.894531 205.882812 52.960938 206.230469 C 52.976562 206.589844 53.109375 206.894531 53.363281 207.152344 C 53.554688 207.347656 53.777344 207.386719 54.027344 207.265625 C 54.289062 207.160156 54.410156 206.964844 54.398438 206.683594 C 54.398438 206.683594 54.398438 206.550781 54.398438 206.480469 Z M 54.378906 206.015625 " fill-opacity="1" fill-rule="nonzero"/><path fill="#af6348" d="M 61.390625 219.847656 C 61.363281 219.609375 61.320312 219.375 61.257812 219.144531 L 61.257812 219.347656 C 61.257812 219.09375 61.257812 218.84375 61.140625 218.59375 C 61.128906 218.285156 61.046875 217.996094 60.890625 217.726562 C 60.757812 217.53125 60.574219 217.429688 60.339844 217.425781 C 60.101562 217.441406 59.925781 217.550781 59.804688 217.757812 C 59.660156 218.042969 59.609375 218.34375 59.65625 218.660156 C 59.671875 218.917969 59.707031 219.175781 59.753906 219.429688 C 59.753906 219.648438 59.855469 219.847656 59.921875 220.046875 C 59.984375 220.195312 60.0625 220.335938 60.15625 220.464844 C 60.261719 220.660156 60.417969 220.792969 60.625 220.867188 C 60.902344 220.921875 61.113281 220.828125 61.257812 220.582031 C 61.375 220.351562 61.417969 220.105469 61.390625 219.847656 Z M 61.390625 219.847656 " fill-opacity="1" fill-rule="nonzero"/><path fill="#af6348" d="M 51.257812 195.472656 C 51.25 195.273438 51.171875 195.101562 51.027344 194.964844 C 50.878906 194.824219 50.707031 194.753906 50.507812 194.753906 C 50.3125 194.773438 50.144531 194.851562 50.011719 194.996094 C 49.878906 195.140625 49.808594 195.308594 49.804688 195.507812 C 49.804688 196.007812 49.804688 196.542969 49.804688 197.058594 C 49.765625 197.621094 49.804688 198.179688 49.921875 198.730469 C 50.023438 199.023438 50.230469 199.175781 50.539062 199.183594 C 50.855469 199.164062 51.054688 199 51.140625 198.699219 C 51.207031 198.40625 51.246094 198.109375 51.257812 197.8125 C 51.257812 197.5625 51.257812 197.292969 51.257812 197.027344 C 51.257812 196.757812 51.257812 195.972656 51.257812 195.472656 Z M 51.257812 195.472656 " fill-opacity="1" fill-rule="nonzero"/><path fill="#af6348" d="M 113.714844 267.226562 L 113.714844 266.890625 C 113.714844 266.742188 113.632812 266.589844 113.597656 266.457031 C 113.566406 266.324219 113.449219 265.871094 113.382812 265.570312 C 113.3125 265.269531 113.082031 264.46875 112.945312 263.902344 C 112.8125 263.332031 112.679688 262.730469 112.53125 262.148438 C 112.480469 261.847656 112.375 261.566406 112.210938 261.3125 C 112.152344 261.210938 112.078125 261.125 111.984375 261.054688 C 111.890625 260.984375 111.785156 260.9375 111.671875 260.910156 C 111.558594 260.882812 111.445312 260.878906 111.328125 260.902344 C 111.214844 260.921875 111.109375 260.964844 111.011719 261.027344 C 110.410156 261.394531 110.441406 262.398438 110.492188 263.03125 C 110.539062 263.703125 110.660156 264.359375 110.859375 265.003906 C 111.03125 265.585938 111.261719 266.144531 111.5625 266.675781 C 111.863281 267.257812 112.179688 267.925781 112.863281 268.144531 C 112.988281 268.160156 113.105469 268.148438 113.222656 268.105469 C 113.339844 268.0625 113.441406 267.996094 113.527344 267.90625 C 113.609375 267.8125 113.671875 267.707031 113.703125 267.585938 C 113.738281 267.46875 113.742188 267.347656 113.714844 267.226562 Z M 113.714844 267.226562 " fill-opacity="1" fill-rule="nonzero"/><path fill="#af6348" d="M 111.710938 256.066406 C 111.710938 255.515625 111.710938 254.980469 111.710938 254.394531 C 111.710938 253.808594 111.710938 253.277344 111.59375 252.722656 C 111.539062 252.402344 111.4375 252.097656 111.292969 251.804688 C 111.292969 251.804688 111.292969 251.621094 111.160156 251.503906 C 111.09375 251.40625 111.019531 251.3125 110.945312 251.222656 C 110.863281 251.109375 110.753906 251.054688 110.617188 251.054688 C 110.480469 251.054688 110.371094 251.109375 110.292969 251.222656 L 110.027344 251.453125 C 109.960938 251.527344 109.90625 251.605469 109.859375 251.6875 C 109.859375 251.789062 109.859375 251.804688 109.859375 251.6875 L 109.65625 251.972656 C 109.605469 252.085938 109.5625 252.203125 109.523438 252.324219 C 109.460938 252.457031 109.417969 252.597656 109.390625 252.742188 C 109.316406 253.371094 109.316406 254 109.390625 254.628906 C 109.390625 255.464844 109.910156 258.554688 111.328125 257.785156 C 111.777344 257.46875 111.710938 256.632812 111.710938 256.066406 Z M 111.710938 256.066406 " fill-opacity="1" fill-rule="nonzero"/><path fill="#af6348" d="M 111.660156 242.601562 C 111.574219 242.464844 111.476562 242.34375 111.359375 242.234375 C 111.21875 242.09375 111.050781 242.054688 110.859375 242.117188 C 110.859375 242.117188 110.527344 242.285156 110.726562 242.117188 L 110.441406 242.234375 C 110.214844 242.40625 110.0625 242.628906 109.976562 242.902344 C 109.804688 243.34375 109.710938 243.796875 109.691406 244.269531 C 109.640625 244.671875 109.640625 245.074219 109.691406 245.472656 C 109.71875 245.863281 109.824219 246.230469 110.007812 246.578125 C 110.078125 246.683594 110.164062 246.765625 110.273438 246.824219 C 110.382812 246.882812 110.5 246.914062 110.625 246.914062 C 110.75 246.914062 110.867188 246.882812 110.976562 246.824219 C 111.089844 246.765625 111.175781 246.683594 111.246094 246.578125 C 111.34375 246.386719 111.410156 246.1875 111.445312 245.976562 L 111.542969 245.539062 C 111.5625 245.378906 111.5625 245.21875 111.542969 245.054688 C 111.542969 244.890625 111.542969 244.722656 111.542969 244.554688 C 111.613281 244.164062 111.644531 243.765625 111.644531 243.367188 C 111.71875 243.113281 111.722656 242.859375 111.660156 242.601562 Z M 111.660156 242.601562 " fill-opacity="1" fill-rule="nonzero"/><path fill="#af6348" d="M 113.113281 232.894531 C 113.050781 232.394531 112.914062 231.914062 112.695312 231.457031 C 112.648438 231.285156 112.535156 231.191406 112.355469 231.171875 C 112.179688 231.152344 112.046875 231.21875 111.960938 231.375 C 111.671875 231.78125 111.449219 232.21875 111.292969 232.695312 C 111.167969 233.199219 111.089844 233.710938 111.0625 234.230469 C 111.011719 234.691406 111.011719 235.15625 111.0625 235.617188 L 111.0625 236.136719 C 111.0625 236.289062 111.109375 236.425781 111.195312 236.554688 C 111.242188 236.761719 111.335938 236.945312 111.476562 237.105469 C 111.683594 237.25 111.890625 237.25 112.09375 237.105469 C 112.304688 236.953125 112.453125 236.757812 112.546875 236.519531 C 112.675781 236.277344 112.769531 236.019531 112.832031 235.75 C 112.964844 235.246094 113.042969 234.734375 113.0625 234.214844 C 113.125 233.777344 113.144531 233.335938 113.113281 232.894531 Z M 113.113281 232.894531 " fill-opacity="1" fill-rule="nonzero"/><path fill="#af6348" d="M 108.808594 263.265625 C 108.847656 262.792969 108.847656 262.320312 108.808594 261.847656 C 108.808594 261.3125 108.691406 260.777344 108.640625 260.175781 C 108.589844 259.574219 108.488281 259.007812 108.390625 258.503906 C 108.335938 258.234375 108.257812 257.972656 108.15625 257.71875 C 108.011719 257.488281 107.882812 257.25 107.773438 257 C 107.722656 256.855469 107.621094 256.785156 107.472656 256.785156 C 107.320312 256.785156 107.21875 256.855469 107.171875 257 C 107.070312 257.269531 106.886719 257.46875 106.785156 257.734375 C 106.683594 258.035156 106.621094 258.339844 106.601562 258.65625 C 106.5625 259.285156 106.609375 259.910156 106.738281 260.527344 C 106.820312 261.097656 106.960938 261.652344 107.152344 262.195312 C 107.332031 262.777344 107.621094 263.296875 108.023438 263.75 C 108.324219 264.066406 108.691406 263.75 108.808594 263.515625 C 108.816406 263.457031 108.816406 263.394531 108.808594 263.332031 Z M 108.808594 263.265625 " fill-opacity="1" fill-rule="nonzero"/><path fill="#af6348" d="M 108.023438 245.257812 C 107.957031 245.15625 107.871094 245.074219 107.773438 245.007812 C 107.539062 244.890625 107.304688 244.890625 107.070312 245.007812 C 106.671875 245.113281 106.433594 245.371094 106.351562 245.773438 C 106.351562 245.976562 106.351562 246.175781 106.351562 246.375 C 106.328125 246.632812 106.328125 246.886719 106.351562 247.144531 C 106.351562 247.460938 106.4375 247.78125 106.503906 248.082031 C 106.566406 248.371094 106.671875 248.640625 106.820312 248.898438 C 106.9375 249.066406 107.097656 249.152344 107.304688 249.148438 C 107.515625 249.144531 107.667969 249.050781 107.773438 248.867188 C 107.910156 248.566406 108 248.257812 108.039062 247.929688 C 108.039062 247.628906 108.171875 247.34375 108.207031 247.042969 C 108.273438 246.683594 108.320312 246.324219 108.339844 245.957031 C 108.339844 245.675781 108.234375 245.441406 108.023438 245.257812 Z M 108.023438 245.257812 " fill-opacity="1" fill-rule="nonzero"/><path fill="#af6348" d="M 107.035156 244.972656 C 106.890625 245.019531 106.761719 245.097656 106.652344 245.207031 Z M 107.035156 244.972656 " fill-opacity="1" fill-rule="nonzero"/><path fill="#af6348" d="M 109.472656 236.484375 L 109.359375 236.335938 L 109.359375 236.019531 C 109.335938 235.957031 109.304688 235.90625 109.257812 235.863281 C 109.210938 235.824219 109.160156 235.792969 109.097656 235.777344 C 109.039062 235.761719 108.976562 235.761719 108.914062 235.78125 C 108.855469 235.796875 108.800781 235.824219 108.757812 235.867188 L 108.625 236.019531 C 108.570312 236.046875 108.527344 236.085938 108.488281 236.136719 L 108.390625 236.136719 C 108.226562 236.230469 108.105469 236.367188 108.023438 236.535156 C 107.929688 236.722656 107.863281 236.917969 107.820312 237.121094 C 107.738281 237.519531 107.683594 237.917969 107.65625 238.324219 C 107.628906 238.652344 107.628906 238.980469 107.65625 239.308594 C 107.671875 239.523438 107.707031 239.734375 107.753906 239.945312 C 107.8125 240.164062 107.921875 240.359375 108.070312 240.527344 C 108.1875 240.640625 108.328125 240.699219 108.488281 240.699219 C 108.652344 240.699219 108.789062 240.640625 108.90625 240.527344 C 109.105469 240.246094 109.230469 239.933594 109.289062 239.59375 C 109.289062 239.277344 109.40625 238.976562 109.457031 238.65625 C 109.507812 238.339844 109.558594 238.023438 109.589844 237.707031 C 109.609375 237.496094 109.609375 237.28125 109.589844 237.070312 C 109.601562 236.867188 109.5625 236.671875 109.472656 236.484375 Z M 109.472656 236.484375 " fill-opacity="1" fill-rule="nonzero"/><path fill="#af6348" d="M 105.566406 254.8125 C 105.566406 254.8125 105.566406 254.410156 105.566406 254.546875 C 105.574219 254.445312 105.574219 254.34375 105.566406 254.246094 C 105.515625 254.0625 105.4375 253.886719 105.335938 253.726562 C 105.265625 253.636719 105.179688 253.59375 105.066406 253.59375 C 104.957031 253.59375 104.867188 253.636719 104.800781 253.726562 L 104.582031 253.945312 C 104.488281 254.058594 104.421875 254.1875 104.382812 254.328125 C 104.316406 254.46875 104.261719 254.613281 104.214844 254.761719 C 104.222656 254.886719 104.222656 255.007812 104.214844 255.128906 C 104.128906 255.6875 104.128906 256.242188 104.214844 256.800781 C 104.257812 257.0625 104.335938 257.3125 104.449219 257.550781 C 104.566406 257.753906 104.648438 257.988281 104.898438 258.035156 C 105.007812 258.046875 105.105469 258.011719 105.183594 257.9375 C 105.183594 257.9375 105.183594 257.9375 105.183594 257.851562 C 105.246094 257.746094 105.296875 257.636719 105.335938 257.519531 C 105.390625 257.363281 105.429688 257.199219 105.449219 257.035156 C 105.457031 256.902344 105.457031 256.765625 105.449219 256.632812 C 105.449219 256.632812 105.449219 256.417969 105.449219 256.535156 C 105.46875 256.304688 105.46875 256.078125 105.449219 255.847656 C 105.550781 255.515625 105.585938 255.164062 105.566406 254.8125 Z M 105.566406 254.8125 " fill-opacity="1" fill-rule="nonzero"/><path fill="#af6348" d="M 117.40625 273.90625 C 117.140625 273.40625 116.835938 272.933594 116.488281 272.488281 C 116.300781 272.195312 116.089844 271.921875 115.851562 271.667969 C 115.652344 271.4375 115.441406 271.222656 115.21875 271.015625 C 115.019531 270.832031 114.796875 270.800781 114.550781 270.917969 C 114.300781 271.023438 114.183594 271.214844 114.199219 271.484375 C 114.300781 272.082031 114.511719 272.640625 114.832031 273.15625 C 114.96875 273.390625 115.117188 273.605469 115.269531 273.824219 C 115.441406 274.105469 115.640625 274.367188 115.867188 274.609375 C 116.164062 274.988281 116.550781 275.132812 117.019531 275.042969 C 117.523438 274.960938 117.589844 274.324219 117.40625 273.90625 Z M 117.40625 273.90625 " fill-opacity="1" fill-rule="nonzero"/><path fill="#af6348" d="M 112.210938 228.167969 C 112.210938 228.167969 112.261719 228.214844 112.210938 228.167969 Z M 112.210938 228.167969 " fill-opacity="1" fill-rule="nonzero"/><path fill="#af6348" d="M 113.597656 225.726562 C 113.589844 225.578125 113.539062 225.445312 113.449219 225.328125 C 113.351562 225.207031 113.230469 225.128906 113.082031 225.09375 C 112.964844 225.066406 112.847656 225.066406 112.730469 225.09375 C 112.5625 225.152344 112.433594 225.257812 112.347656 225.410156 C 112.246094 225.632812 112.179688 225.867188 112.144531 226.113281 C 112.128906 226.363281 112.128906 226.613281 112.144531 226.863281 C 112.144531 227.046875 112.144531 227.246094 112.144531 227.429688 C 112.144531 227.617188 112.144531 227.617188 112.144531 227.714844 C 112.136719 227.789062 112.136719 227.859375 112.144531 227.933594 C 112.121094 228.003906 112.121094 228.078125 112.144531 228.148438 C 112.3125 228.351562 112.628906 228.5 112.847656 228.316406 L 113.015625 228.183594 C 113.105469 228.089844 113.160156 227.976562 113.179688 227.847656 L 113.28125 227.582031 C 113.34375 227.390625 113.386719 227.195312 113.414062 226.996094 C 113.535156 226.582031 113.597656 226.160156 113.597656 225.726562 Z M 113.597656 225.726562 " fill-opacity="1" fill-rule="nonzero"/><path fill="#af6348" d="M 133.75 281.527344 L 133.75 294.039062 C 129.140625 293.929688 124.589844 293.375 120.09375 292.367188 C 120.792969 287.65625 124.382812 282.34375 127.019531 278.902344 C 129.207031 279.917969 131.453125 280.792969 133.75 281.527344 Z M 133.75 281.527344 " fill-opacity="1" fill-rule="nonzero"/><path fill="#af6348" d="M 126.605469 278.617188 C 124.960938 280.351562 123.472656 282.210938 122.144531 284.199219 C 121.25 285.515625 120.488281 286.910156 119.859375 288.375 C 119.34375 289.566406 118.925781 290.792969 118.605469 292.050781 L 118.222656 291.964844 C 118.121094 290.605469 118.257812 289.269531 118.625 287.957031 C 119.074219 286.277344 119.789062 284.71875 120.761719 283.28125 C 121.703125 281.855469 122.816406 280.578125 124.101562 279.453125 C 124.628906 279.015625 125.1875 278.613281 125.769531 278.25 Z M 126.605469 278.617188 " fill-opacity="1" fill-rule="nonzero"/><path fill="#af6348" d="M 207.308594 272.722656 C 207.308594 273.054688 220.015625 302.558594 222.335938 306.535156 C 224.65625 310.511719 232.167969 323.425781 233.488281 323.425781 L 247.078125 323.425781 C 248.398438 323.425781 249.699219 320.449219 248.03125 318.128906 C 246.359375 315.804688 242.351562 312.296875 241.984375 311.613281 C 241.21875 310.175781 238.246094 291.179688 237.359375 285.21875 C 236.476562 279.253906 237.578125 255.832031 237.578125 255.832031 Z M 207.308594 272.722656 " fill-opacity="1" fill-rule="nonzero"/><path fill="#c97c5d" d="M 177.109375 202.222656 C 176.957031 207.082031 177.109375 214.734375 173.769531 219.296875 C 170.429688 223.855469 136.402344 254.945312 133.984375 261.277344 C 131.5625 267.609375 127.503906 295.007812 131.628906 306.050781 C 135.753906 317.09375 157.675781 321.953125 164.886719 323.726562 C 172.097656 325.496094 206.625 312.832031 206.625 312.832031 C 206.625 312.832031 227.261719 299.46875 234.90625 283.511719 C 242.554688 267.558594 245.339844 244.304688 245.359375 239.328125 C 245.359375 228 231.667969 202.222656 231.667969 202.222656 Z M 177.109375 202.222656 " fill-opacity="1" fill-rule="nonzero"/><path fill="#c97c5d" d="M 164.785156 262.5625 C 180.964844 257.6875 217.226562 253.175781 216.339844 271.066406 C 215.457031 288.960938 200.816406 317.359375 200.816406 317.359375 C 204.578125 316.75 208.359375 316.53125 212.167969 316.707031 C 220.113281 316.808594 226.859375 325.546875 225.859375 326.648438 C 224.855469 327.75 171.632812 326.648438 168.757812 326.648438 C 165.886719 326.648438 169.3125 322.671875 172.300781 321.785156 C 172.300781 321.785156 141.53125 316.472656 141.078125 301.019531 C 140.628906 285.570312 148.589844 267.492188 164.785156 262.5625 Z M 164.785156 262.5625 " fill-opacity="1" fill-rule="nonzero"/><path fill="#af6348" d="M 217.007812 268.914062 C 216.765625 267.351562 216.203125 265.917969 215.328125 264.605469 C 214.453125 263.289062 213.34375 262.222656 212 261.394531 C 209.066406 259.726562 205.933594 258.613281 202.601562 258.054688 C 199.109375 257.347656 195.578125 257.007812 192.015625 257.035156 C 187.753906 257.050781 183.539062 257.523438 179.378906 258.453125 C 178.847656 258.210938 178.289062 258.066406 177.707031 258.019531 C 176.964844 257.929688 176.21875 257.890625 175.472656 257.902344 C 173.996094 258.03125 172.542969 258.292969 171.113281 258.6875 C 170.945312 258.6875 171.113281 258.972656 171.113281 258.9375 C 172.535156 258.707031 173.964844 258.632812 175.40625 258.722656 C 176.089844 258.722656 176.773438 258.722656 177.457031 258.722656 L 177.742188 258.722656 C 174.402344 259.507812 171.0625 260.476562 167.890625 261.578125 C 167.832031 261.601562 167.804688 261.640625 167.804688 261.703125 C 167.804688 261.765625 167.832031 261.808594 167.890625 261.828125 C 174.617188 259.890625 181.480469 258.863281 188.476562 258.753906 C 195.261719 258.527344 201.816406 259.640625 208.144531 262.097656 C 209.5625 262.550781 210.808594 263.300781 211.878906 264.339844 C 212.945312 265.378906 213.726562 266.601562 214.222656 268.011719 C 214.988281 271.492188 214.988281 274.972656 214.222656 278.453125 C 213.082031 285.058594 211.335938 291.503906 208.980469 297.78125 C 206.523438 304.964844 203.503906 310.777344 200.347656 317.609375 C 200.246094 317.84375 200.546875 318.09375 200.730469 317.878906 C 205.027344 312.667969 208.3125 306.882812 210.582031 300.519531 C 213.292969 293.886719 215.308594 287.050781 216.625 280.003906 C 217.425781 276.332031 217.554688 272.632812 217.007812 268.914062 Z M 217.007812 268.914062 " fill-opacity="1" fill-rule="nonzero"/><path fill="#af6348" d="M 184.167969 321.652344 C 176.785156 321.492188 169.589844 320.242188 162.582031 317.910156 C 159.164062 316.734375 155.878906 315.253906 152.730469 313.46875 C 149.558594 311.785156 146.832031 309.558594 144.550781 306.785156 C 143.28125 305.132812 142.320312 303.316406 141.660156 301.335938 C 141.003906 299.359375 140.6875 297.328125 140.710938 295.242188 C 140.710938 295.074219 140.460938 295.089844 140.460938 295.242188 C 140.179688 297.242188 140.140625 299.246094 140.34375 301.253906 C 140.683594 302.949219 141.292969 304.542969 142.164062 306.03125 C 144.046875 309.144531 146.511719 311.6875 149.558594 313.667969 C 152.785156 315.800781 156.207031 317.554688 159.820312 318.929688 C 163.433594 320.304688 167.152344 321.269531 170.980469 321.820312 C 175.371094 322.492188 179.765625 322.542969 184.167969 321.96875 C 184.230469 321.933594 184.261719 321.882812 184.261719 321.8125 C 184.261719 321.742188 184.230469 321.6875 184.167969 321.652344 Z M 184.167969 321.652344 " fill-opacity="1" fill-rule="nonzero"/><path fill="#af6348" d="M 164 315.339844 C 163.878906 315.023438 163.683594 314.761719 163.417969 314.554688 C 163.164062 314.324219 162.890625 314.117188 162.597656 313.933594 C 162.058594 313.636719 161.5 313.367188 160.929688 313.132812 C 160.296875 312.867188 159.644531 312.648438 158.992188 312.429688 C 158.710938 312.324219 158.417969 312.234375 158.125 312.164062 C 157.878906 312.113281 157.636719 312.113281 157.390625 312.164062 L 156.988281 312.246094 C 156.902344 312.277344 156.828125 312.320312 156.761719 312.382812 C 156.699219 312.445312 156.648438 312.519531 156.617188 312.601562 C 156.585938 312.6875 156.570312 312.773438 156.578125 312.863281 C 156.585938 312.953125 156.609375 313.039062 156.65625 313.117188 C 156.84375 313.425781 157.082031 313.6875 157.375 313.902344 C 157.652344 314.078125 157.941406 314.242188 158.242188 314.386719 C 158.792969 314.652344 159.328125 314.9375 159.910156 315.171875 C 160.523438 315.441406 161.144531 315.683594 161.78125 315.890625 C 162.078125 315.964844 162.378906 316.015625 162.683594 316.039062 C 162.867188 316.039062 163.082031 316.039062 163.265625 316.039062 C 163.4375 316.019531 163.597656 315.96875 163.75 315.890625 C 163.980469 315.773438 164.066406 315.589844 164 315.339844 Z M 164 315.339844 " fill-opacity="1" fill-rule="nonzero"/><path fill="#af6348" d="M 153.96875 310.210938 L 153.28125 309.660156 L 152.832031 309.289062 L 152.632812 309.15625 L 152.265625 308.875 L 151.914062 308.621094 L 151.246094 308.089844 L 150.980469 307.886719 L 150.863281 307.886719 C 150.695312 307.75 150.523438 307.621094 150.34375 307.503906 C 150.289062 307.453125 150.230469 307.414062 150.160156 307.386719 C 150 307.257812 149.828125 307.148438 149.644531 307.050781 C 149.363281 306.90625 149.070312 306.796875 148.757812 306.734375 C 148.292969 306.601562 147.992188 307.070312 148.058594 307.46875 C 148.058594 307.46875 148.058594 307.789062 148.058594 307.921875 C 148.128906 308.117188 148.21875 308.308594 148.324219 308.488281 C 148.429688 308.675781 148.558594 308.839844 148.707031 308.988281 C 148.609375 308.875 148.707031 308.988281 148.707031 308.988281 L 148.976562 309.324219 C 149.472656 309.847656 150.03125 310.296875 150.644531 310.675781 C 151.230469 311.0625 151.859375 311.351562 152.53125 311.546875 C 153.082031 311.714844 154.433594 312.132812 154.46875 311.160156 C 154.519531 310.644531 154.234375 310.445312 153.96875 310.210938 Z M 153.96875 310.210938 " fill-opacity="1" fill-rule="nonzero"/><path fill="#af6348" d="M 146.621094 304.128906 L 146.621094 304.046875 C 146.621094 304.046875 146.621094 303.910156 146.539062 303.828125 C 146.453125 303.746094 146.371094 303.476562 146.289062 303.292969 C 146.203125 303.109375 146.003906 302.742188 145.835938 302.476562 C 145.695312 302.214844 145.542969 301.964844 145.371094 301.722656 C 145.253906 301.550781 145.125 301.390625 144.984375 301.238281 C 144.832031 301.066406 144.640625 300.957031 144.417969 300.90625 C 144.140625 300.84375 143.933594 300.941406 143.800781 301.1875 C 143.605469 301.59375 143.605469 302 143.800781 302.40625 C 143.949219 302.761719 144.125 303.101562 144.335938 303.425781 C 144.542969 303.738281 144.78125 304.023438 145.050781 304.277344 C 145.183594 304.421875 145.328125 304.546875 145.488281 304.664062 L 145.601562 304.664062 L 145.871094 304.847656 C 146.125 304.980469 146.351562 304.949219 146.554688 304.746094 C 146.691406 304.554688 146.714844 304.347656 146.621094 304.128906 Z M 146.621094 304.128906 " fill-opacity="1" fill-rule="nonzero"/><path fill="#af6348" d="M 172.25 317.359375 C 172.097656 317.117188 171.890625 316.941406 171.632812 316.824219 C 171.414062 316.710938 171.183594 316.621094 170.945312 316.558594 C 170.546875 316.441406 170.144531 316.375 169.726562 316.289062 C 169.3125 316.207031 169.3125 316.207031 169.09375 316.191406 L 168.492188 316.191406 L 167.792969 316.105469 C 167.5625 316.109375 167.351562 316.167969 167.15625 316.289062 C 167.082031 316.3125 167.027344 316.355469 166.988281 316.425781 C 166.789062 316.910156 167.324219 317.308594 167.707031 317.492188 C 168.160156 317.738281 168.628906 317.949219 169.109375 318.128906 C 169.546875 318.273438 169.992188 318.382812 170.445312 318.460938 C 171.046875 318.605469 171.601562 318.503906 172.117188 318.160156 C 172.238281 318.066406 172.3125 317.941406 172.339844 317.785156 C 172.363281 317.632812 172.335938 317.492188 172.25 317.359375 Z M 172.25 317.359375 " fill-opacity="1" fill-rule="nonzero"/><path fill="#af6348" d="M 168.84375 314 C 168.691406 313.703125 168.242188 313.535156 167.957031 313.382812 C 167.625 313.222656 167.28125 313.09375 166.921875 313 C 166.5625 312.886719 166.195312 312.84375 165.820312 312.867188 L 165.621094 312.867188 C 165.621094 312.867188 164.902344 313 164.96875 313.132812 C 165.035156 313.265625 164.96875 313.132812 164.96875 313.132812 C 164.902344 313.179688 164.839844 313.234375 164.785156 313.300781 C 164.664062 313.367188 164.625 313.46875 164.667969 313.601562 C 164.664062 313.691406 164.664062 313.777344 164.667969 313.867188 C 164.667969 313.867188 164.667969 313.984375 164.667969 313.867188 C 164.683594 313.953125 164.71875 314.03125 164.769531 314.101562 C 164.84375 314.222656 164.945312 314.316406 165.070312 314.386719 L 165.238281 314.503906 C 165.570312 314.71875 165.933594 314.855469 166.320312 314.921875 C 166.707031 314.960938 167.089844 314.960938 167.472656 314.921875 C 167.914062 314.960938 168.316406 314.855469 168.675781 314.601562 C 168.847656 314.433594 168.90625 314.234375 168.84375 314 Z M 168.84375 314 " fill-opacity="1" fill-rule="nonzero"/><path fill="#af6348" d="M 177.707031 317.929688 C 177.730469 317.695312 177.648438 317.511719 177.457031 317.375 C 177.339844 317.199219 177.175781 317.078125 176.972656 317.007812 L 176.605469 317.007812 C 176.324219 317.007812 176.054688 316.890625 175.773438 316.859375 C 175.460938 316.832031 175.148438 316.832031 174.835938 316.859375 C 174.726562 316.84375 174.613281 316.84375 174.503906 316.859375 L 174.253906 316.859375 L 174.019531 316.976562 C 173.929688 317.054688 173.882812 317.15625 173.882812 317.277344 C 173.882812 317.398438 173.929688 317.496094 174.019531 317.578125 L 174.167969 317.726562 L 174.386719 317.859375 C 174.457031 317.933594 174.539062 317.984375 174.636719 318.011719 C 174.921875 318.144531 175.214844 318.25 175.519531 318.328125 L 176.304688 318.460938 L 176.671875 318.460938 C 176.882812 318.488281 177.085938 318.457031 177.273438 318.363281 C 177.5 318.296875 177.644531 318.152344 177.707031 317.929688 Z M 177.707031 317.929688 " fill-opacity="1" fill-rule="nonzero"/><path fill="#af6348" d="M 159.527344 310.34375 C 159.1875 310.015625 158.808594 309.746094 158.390625 309.523438 L 157.238281 308.972656 C 157.039062 308.875 156.839844 308.757812 156.640625 308.671875 L 156.40625 308.554688 C 156.3125 308.511719 156.21875 308.480469 156.121094 308.457031 C 156.019531 308.457031 156.019531 308.457031 156.121094 308.457031 C 155.6875 308.164062 155.207031 308.035156 154.6875 308.070312 C 154.453125 308.148438 154.335938 308.3125 154.335938 308.554688 C 154.429688 309.082031 154.710938 309.484375 155.167969 309.757812 C 155.386719 309.925781 155.570312 310.109375 155.804688 310.261719 C 155.988281 310.386719 156.183594 310.5 156.386719 310.59375 C 156.839844 310.824219 157.304688 311.015625 157.789062 311.160156 C 158.242188 311.292969 158.707031 311.347656 159.175781 311.328125 C 159.425781 311.3125 159.59375 311.1875 159.679688 310.953125 C 159.761719 310.714844 159.710938 310.511719 159.527344 310.34375 Z M 159.527344 310.34375 " fill-opacity="1" fill-rule="nonzero"/><path fill="#af6348" d="M 149.210938 302.390625 L 149.210938 302.273438 C 149.210938 302.074219 149.027344 301.875 148.925781 301.671875 C 148.824219 301.472656 148.542969 301.089844 148.375 300.804688 C 148.25 300.558594 148.054688 300.390625 147.789062 300.304688 C 147.59375 300.234375 147.402344 300.234375 147.207031 300.304688 C 147.03125 300.40625 146.90625 300.546875 146.828125 300.734375 C 146.753906 300.921875 146.738281 301.109375 146.789062 301.304688 C 146.839844 301.449219 146.914062 301.582031 147.003906 301.707031 C 147.308594 302.292969 147.75 302.75 148.324219 303.078125 C 148.464844 303.175781 148.621094 303.230469 148.792969 303.242188 C 149.066406 303.246094 149.242188 303.121094 149.328125 302.859375 C 149.347656 302.6875 149.308594 302.53125 149.210938 302.390625 Z M 149.210938 302.390625 " fill-opacity="1" fill-rule="nonzero"/><path fill="#af6348" d="M 144.835938 296.980469 L 144.835938 297.164062 C 144.835938 297.011719 144.835938 296.863281 144.835938 296.726562 C 144.828125 296.628906 144.828125 296.527344 144.835938 296.425781 C 144.824219 296.296875 144.785156 296.171875 144.71875 296.058594 L 144.71875 295.925781 C 144.601562 295.714844 144.425781 295.617188 144.183594 295.625 C 143.953125 295.636719 143.78125 295.742188 143.667969 295.941406 L 143.667969 296.042969 C 143.601562 296.167969 143.5625 296.304688 143.550781 296.445312 C 143.550781 296.527344 143.550781 296.609375 143.550781 296.695312 C 143.5625 296.917969 143.601562 297.132812 143.667969 297.347656 C 143.710938 297.464844 143.757812 297.582031 143.816406 297.695312 C 143.867188 297.8125 143.933594 297.917969 144.015625 298.015625 L 144.199219 298.148438 C 144.292969 298.230469 144.398438 298.28125 144.519531 298.296875 C 144.675781 298.328125 144.808594 298.285156 144.917969 298.164062 C 145.019531 298.042969 145.074219 297.90625 145.085938 297.746094 L 145.085938 297.5625 C 145.023438 297.359375 144.941406 297.164062 144.835938 296.980469 Z M 144.835938 296.980469 " fill-opacity="1" fill-rule="nonzero"/><path fill="#af6348" d="M 155.136719 305.164062 C 155.09375 305.15625 155.046875 305.15625 155.003906 305.164062 L 154.734375 305.0625 C 154.484375 304.964844 154.25 304.828125 154.035156 304.664062 L 153.816406 304.496094 C 153.722656 304.414062 153.613281 304.375 153.492188 304.375 C 153.367188 304.375 153.261719 304.414062 153.167969 304.496094 C 153.066406 304.574219 153.007812 304.675781 152.984375 304.800781 C 152.960938 304.925781 152.984375 305.039062 153.050781 305.148438 L 153.148438 305.28125 C 153.222656 305.410156 153.3125 305.527344 153.417969 305.632812 L 153.835938 305.949219 C 153.949219 306.03125 154.070312 306.097656 154.203125 306.148438 L 154.703125 306.351562 C 154.859375 306.410156 155.015625 306.410156 155.167969 306.351562 C 155.273438 306.269531 155.347656 306.167969 155.402344 306.050781 C 155.453125 305.921875 155.453125 305.792969 155.402344 305.664062 C 155.441406 305.429688 155.351562 305.261719 155.136719 305.164062 Z M 155.136719 305.164062 " fill-opacity="1" fill-rule="nonzero"/><path fill="#eed7c5" d="M 245.390625 239.34375 C 245.390625 244.355469 242.601562 267.609375 234.957031 283.511719 C 227.308594 299.417969 206.574219 312.832031 206.574219 312.832031 C 206.574219 312.832031 213.835938 302.992188 217.160156 298.683594 C 220.480469 294.371094 225.992188 275.160156 225.507812 270.082031 C 225.023438 265.003906 220.648438 251.40625 216.675781 242.015625 C 212.902344 233.144531 198.210938 214.402344 195.40625 202.207031 L 231.566406 202.207031 C 231.566406 202.207031 245.457031 227.984375 245.390625 239.34375 Z M 245.390625 239.34375 " fill-opacity="1" fill-rule="nonzero"/><path fill="#ddc1af" d="M 235.773438 231.675781 C 234.957031 227.128906 233.34375 222.886719 230.933594 218.945312 C 228.5625 215.167969 224.839844 212.144531 223.46875 207.800781 C 223.488281 207.757812 223.480469 207.71875 223.453125 207.679688 C 223.429688 207.640625 223.390625 207.621094 223.34375 207.621094 C 223.296875 207.621094 223.261719 207.640625 223.234375 207.679688 C 223.210938 207.71875 223.203125 207.757812 223.21875 207.800781 C 224.1875 211.980469 227.160156 215.421875 229.265625 219.0625 C 230.976562 222.019531 232.382812 225.117188 233.488281 228.351562 C 232.242188 226.742188 230.871094 225.242188 229.378906 223.855469 C 229.203125 223.710938 229.027344 223.710938 228.851562 223.855469 C 228.675781 224 228.640625 224.171875 228.746094 224.375 C 230.679688 228.070312 232.027344 231.96875 232.785156 236.070312 C 233.640625 240.132812 233.90625 244.238281 233.589844 248.378906 C 233.589844 248.796875 234.253906 248.882812 234.304688 248.378906 C 234.835938 244.175781 234.71875 239.988281 233.957031 235.816406 C 233.574219 233.699219 233.019531 231.628906 232.285156 229.601562 C 231.914062 228.621094 231.492188 227.664062 231.015625 226.730469 C 232.410156 228.382812 233.636719 230.148438 234.707031 232.027344 C 235.023438 232.859375 235.910156 232.410156 235.773438 231.675781 Z M 235.773438 231.675781 " fill-opacity="1" fill-rule="nonzero"/><path fill="#c97c5d" d="M 184.019531 258.371094 C 184.019531 258.371094 196.15625 275.59375 202.566406 279.46875 C 208.980469 283.347656 238.546875 291.617188 241.75 293.605469 C 244.957031 295.59375 245.507812 300.789062 249.480469 301.671875 C 253.457031 302.558594 257.429688 291.832031 255.324219 287.421875 C 251.433594 279.203125 229.0625 263.667969 225.742188 258.371094 C 222.417969 253.074219 211.683594 233.3125 211.683594 233.3125 " fill-opacity="1" fill-rule="nonzero"/><path fill="#af6348" d="M 221.953125 286.585938 C 218.363281 285.417969 214.824219 284.066406 211.316406 282.710938 C 208.0625 281.617188 204.960938 280.1875 202.015625 278.417969 C 199.25 276.378906 196.929688 273.917969 195.054688 271.035156 C 192.902344 268.175781 190.699219 265.355469 188.375 262.679688 C 185.808594 259.515625 182.953125 256.628906 179.8125 254.027344 C 179.578125 253.84375 179.175781 254.027344 179.378906 254.378906 C 181.347656 257.152344 183.484375 259.773438 185.640625 262.398438 C 183.96875 261.109375 182.464844 259.757812 180.929688 258.40625 C 180.863281 258.34375 180.800781 258.347656 180.738281 258.414062 C 180.679688 258.480469 180.679688 258.542969 180.746094 258.605469 C 181.90625 259.929688 183.175781 261.136719 184.554688 262.230469 C 185.285156 262.828125 186.050781 263.382812 186.839844 263.902344 C 189.011719 266.507812 191.183594 269.113281 193.21875 271.820312 C 195.097656 274.621094 197.351562 277.074219 199.980469 279.1875 C 202.804688 281.046875 205.835938 282.457031 209.078125 283.414062 C 213.285156 284.789062 217.554688 285.933594 221.882812 286.855469 C 222.050781 286.886719 222.101562 286.636719 221.953125 286.585938 Z M 221.953125 286.585938 " fill-opacity="1" fill-rule="nonzero"/><path fill="#af6348" d="M 204.171875 276.347656 C 204.078125 276.101562 203.960938 275.867188 203.820312 275.644531 C 203.636719 275.394531 203.453125 275.160156 203.253906 274.925781 C 203.050781 274.691406 203.070312 274.691406 203.253906 274.925781 L 203.050781 274.660156 C 202.953125 274.660156 202.867188 274.476562 202.769531 274.375 C 202.667969 274.273438 202.402344 273.957031 202.199219 273.757812 C 202 273.558594 201.449219 273.003906 201.046875 272.65625 C 200.835938 272.457031 200.605469 272.28125 200.363281 272.121094 C 200.320312 272.109375 200.273438 272.109375 200.230469 272.121094 C 200.164062 272.078125 200.101562 272.027344 200.046875 271.96875 L 199.664062 271.734375 C 199.445312 271.628906 199.242188 271.652344 199.054688 271.804688 C 198.863281 271.957031 198.800781 272.152344 198.863281 272.386719 C 198.863281 272.503906 198.863281 272.621094 198.945312 272.738281 C 199.027344 272.855469 199.0625 273.003906 199.09375 273.039062 C 199.078125 273.089844 199.078125 273.140625 199.09375 273.1875 C 199.210938 273.46875 199.351562 273.734375 199.511719 273.992188 C 199.875 274.484375 200.273438 274.941406 200.714844 275.359375 C 201.144531 275.78125 201.617188 276.140625 202.132812 276.445312 C 202.363281 276.582031 202.605469 276.699219 202.851562 276.796875 C 203.019531 276.890625 203.195312 276.953125 203.386719 276.980469 L 203.785156 276.980469 C 203.863281 276.980469 203.933594 276.960938 204 276.925781 C 204.066406 276.886719 204.117188 276.835938 204.15625 276.773438 C 204.195312 276.707031 204.21875 276.636719 204.21875 276.5625 C 204.222656 276.484375 204.207031 276.414062 204.171875 276.347656 Z M 204.171875 276.347656 " fill-opacity="1" fill-rule="nonzero"/><path fill="#af6348" d="M 196.976562 268.878906 L 196.640625 268.292969 C 196.640625 268.195312 196.523438 268.09375 196.457031 268.011719 L 196.324219 267.828125 L 195.890625 267.273438 C 195.558594 266.867188 195.183594 266.511719 194.753906 266.207031 C 194.753906 266.207031 194.539062 266.039062 194.65625 266.207031 L 194.539062 266.105469 C 194.429688 266.011719 194.3125 265.929688 194.1875 265.855469 L 193.535156 265.621094 C 193.457031 265.601562 193.382812 265.609375 193.3125 265.648438 C 193.238281 265.6875 193.191406 265.746094 193.167969 265.820312 C 193.144531 266.042969 193.144531 266.265625 193.167969 266.488281 C 193.203125 266.628906 193.25 266.765625 193.320312 266.890625 L 193.320312 267.042969 C 193.539062 267.578125 193.839844 268.0625 194.21875 268.496094 C 194.527344 268.84375 194.859375 269.160156 195.222656 269.445312 C 195.433594 269.613281 195.65625 269.761719 195.890625 269.898438 C 196.109375 270.074219 196.359375 270.179688 196.640625 270.214844 C 196.789062 270.210938 196.914062 270.15625 197.015625 270.046875 C 197.113281 269.941406 197.164062 269.8125 197.160156 269.664062 C 197.15625 269.386719 197.097656 269.125 196.976562 268.878906 Z M 196.976562 268.878906 " fill-opacity="1" fill-rule="nonzero"/><path fill="#af6348" d="M 191.75 262.949219 C 191.660156 262.753906 191.558594 262.566406 191.449219 262.378906 L 191.265625 262.097656 C 191.179688 261.976562 191.085938 261.867188 190.980469 261.761719 C 190.839844 261.589844 190.683594 261.425781 190.515625 261.277344 C 190.324219 261.125 190.125 260.984375 189.914062 260.859375 C 189.75 260.75 189.589844 260.75 189.429688 260.859375 C 189.28125 260.980469 189.238281 261.128906 189.296875 261.3125 C 189.382812 261.535156 189.488281 261.753906 189.613281 261.960938 C 189.765625 262.179688 189.933594 262.386719 190.113281 262.582031 C 190.429688 262.941406 190.789062 263.246094 191.199219 263.5 C 191.367188 263.632812 191.53125 263.632812 191.699219 263.5 C 191.859375 263.328125 191.875 263.144531 191.75 262.949219 Z M 191.75 262.949219 " fill-opacity="1" fill-rule="nonzero"/><path fill="#af6348" d="M 212.667969 280.003906 C 212.492188 279.78125 212.269531 279.617188 212 279.519531 C 211.761719 279.402344 211.519531 279.304688 211.265625 279.21875 L 210.714844 279.019531 L 210.5 278.9375 L 210.230469 278.820312 C 209.800781 278.648438 209.359375 278.503906 208.914062 278.386719 L 208.277344 278.269531 C 208.0625 278.21875 207.84375 278.21875 207.625 278.269531 C 207.542969 278.289062 207.476562 278.335938 207.433594 278.414062 C 207.390625 278.488281 207.382812 278.570312 207.410156 278.652344 C 207.410156 278.753906 207.410156 278.800781 207.527344 278.871094 L 207.777344 279.203125 C 207.910156 279.367188 208.0625 279.511719 208.226562 279.636719 C 208.605469 279.945312 209.015625 280.195312 209.464844 280.390625 C 209.914062 280.574219 210.382812 280.757812 210.847656 280.90625 L 211.5 281.023438 C 211.816406 281.136719 212.132812 281.136719 212.453125 281.023438 C 212.539062 280.976562 212.613281 280.914062 212.671875 280.832031 C 212.734375 280.753906 212.773438 280.664062 212.796875 280.566406 C 212.816406 280.46875 212.816406 280.367188 212.792969 280.269531 C 212.769531 280.171875 212.730469 280.085938 212.667969 280.003906 Z M 212.667969 280.003906 " fill-opacity="1" fill-rule="nonzero"/><path fill="#af6348" d="M 208.460938 276.078125 C 208.015625 275.488281 207.460938 275.039062 206.792969 274.726562 L 206.40625 274.492188 L 205.972656 274.273438 C 205.789062 274.175781 205.605469 274.125 205.421875 274.042969 C 205.554688 274.042969 205.421875 274.042969 205.421875 274.042969 L 204.921875 274.042969 C 204.78125 274.046875 204.671875 274.105469 204.589844 274.21875 C 204.503906 274.332031 204.484375 274.457031 204.519531 274.59375 C 204.597656 274.980469 204.78125 275.308594 205.070312 275.578125 C 205.1875 275.679688 205.289062 275.8125 205.421875 275.914062 C 205.597656 276.054688 205.78125 276.183594 205.972656 276.296875 C 206.25 276.476562 206.539062 276.632812 206.84375 276.765625 C 207.054688 276.839844 207.269531 276.886719 207.492188 276.914062 L 207.84375 276.914062 C 207.960938 276.929688 208.078125 276.929688 208.195312 276.914062 C 208.277344 276.890625 208.351562 276.84375 208.414062 276.785156 C 208.472656 276.722656 208.519531 276.648438 208.546875 276.566406 C 208.570312 276.484375 208.578125 276.398438 208.5625 276.3125 C 208.546875 276.226562 208.515625 276.148438 208.460938 276.078125 Z M 208.460938 276.078125 " fill-opacity="1" fill-rule="nonzero"/><path fill="#af6348" d="M 200.699219 269.664062 C 200.617188 269.449219 200.5 269.253906 200.347656 269.078125 L 200.179688 268.878906 C 199.945312 268.59375 199.679688 268.328125 199.429688 268.042969 L 199.128906 267.675781 L 199.128906 267.59375 L 198.894531 267.324219 L 198.542969 266.992188 C 198.394531 266.8125 198.203125 266.6875 197.976562 266.625 C 197.828125 266.589844 197.691406 266.613281 197.5625 266.691406 C 197.433594 266.769531 197.347656 266.878906 197.308594 267.023438 C 197.304688 267.464844 197.441406 267.855469 197.726562 268.195312 C 197.945312 268.515625 198.1875 268.816406 198.460938 269.097656 C 198.671875 269.347656 198.894531 269.585938 199.128906 269.816406 C 199.25 269.929688 199.378906 270.035156 199.511719 270.132812 C 199.691406 270.304688 199.90625 270.421875 200.148438 270.484375 C 200.316406 270.523438 200.46875 270.496094 200.613281 270.398438 C 200.757812 270.304688 200.839844 270.167969 200.863281 270 C 200.832031 269.875 200.773438 269.765625 200.699219 269.664062 Z M 200.699219 269.664062 " fill-opacity="1" fill-rule="nonzero"/><path fill="#af6348" d="M 194.539062 263.082031 C 194.539062 263.082031 194.539062 263 194.539062 262.964844 L 194.539062 262.847656 L 194.355469 262.582031 C 194.285156 262.460938 194.207031 262.351562 194.121094 262.246094 C 194.007812 262.113281 193.863281 262.035156 193.6875 262.011719 C 193.542969 262.015625 193.441406 262.082031 193.386719 262.214844 C 193.359375 262.324219 193.359375 262.4375 193.386719 262.546875 C 193.425781 262.675781 193.476562 262.796875 193.535156 262.914062 L 193.835938 263.484375 C 193.871094 263.5625 193.921875 263.628906 193.988281 263.683594 L 194.136719 263.800781 L 194.335938 263.800781 C 194.464844 263.859375 194.59375 263.859375 194.722656 263.800781 L 194.621094 263.800781 L 194.769531 263.800781 C 194.894531 263.722656 194.957031 263.613281 194.953125 263.464844 C 194.898438 263.246094 194.761719 263.117188 194.539062 263.082031 Z M 194.539062 263.082031 " fill-opacity="1" fill-rule="nonzero"/><path fill="#af6348" d="M 194.386719 262.933594 L 194.402344 262.949219 Z M 194.386719 262.933594 " fill-opacity="1" fill-rule="nonzero"/><path fill="#af6348" d="M 216.707031 279.605469 C 216.613281 279.503906 216.507812 279.414062 216.390625 279.335938 C 216.1875 279.230469 215.976562 279.140625 215.757812 279.070312 C 215.597656 278.996094 215.429688 278.941406 215.257812 278.902344 L 215.007812 278.902344 C 214.832031 278.832031 214.660156 278.832031 214.488281 278.902344 C 214.402344 278.929688 214.335938 278.984375 214.289062 279.066406 C 214.246094 279.144531 214.234375 279.230469 214.253906 279.320312 L 214.253906 279.453125 C 214.304688 279.570312 214.371094 279.675781 214.453125 279.769531 L 214.589844 279.9375 C 214.761719 280.097656 214.945312 280.242188 215.140625 280.371094 C 215.269531 280.4375 215.402344 280.492188 215.539062 280.539062 L 215.808594 280.640625 C 215.941406 280.664062 216.074219 280.664062 216.207031 280.640625 C 216.382812 280.652344 216.542969 280.613281 216.691406 280.523438 C 216.890625 280.386719 216.957031 280.203125 216.890625 279.972656 C 216.855469 279.835938 216.796875 279.714844 216.707031 279.605469 Z M 216.707031 279.605469 " fill-opacity="1" fill-rule="nonzero"/><path fill="#42424c" d="M 235.839844 210.558594 C 227.058594 213.199219 216.324219 215.835938 210.082031 215.1875 C 200.980469 214.21875 184.269531 208.855469 176.972656 206.398438 C 176.972656 204.894531 176.972656 203.457031 177.089844 202.207031 L 231.683594 202.207031 C 231.683594 202.207031 233.519531 205.679688 235.839844 210.558594 Z M 235.839844 210.558594 " fill-opacity="0.098" fill-rule="nonzero"/><path fill="#42424c" d="M 236.578125 211.660156 L 236.410156 211.660156 C 231.417969 213.765625 226.304688 215.507812 221.066406 216.890625 C 218.375 217.628906 215.640625 218.152344 212.867188 218.460938 C 212.160156 218.554688 211.449219 218.601562 210.730469 218.59375 L 209.648438 218.59375 L 208.542969 218.476562 C 207.160156 218.246094 205.789062 217.941406 204.4375 217.558594 C 199.128906 216.070312 193.953125 214.351562 188.8125 212.546875 C 184.820312 211.125 180.832031 209.640625 176.890625 208.070312 C 176.890625 207.9375 176.890625 207.820312 176.890625 207.703125 L 181.480469 209.023438 L 189.296875 211.445312 C 194.519531 213.015625 199.730469 214.785156 204.957031 216.121094 C 206.238281 216.507812 207.539062 216.808594 208.863281 217.023438 L 209.796875 217.140625 L 210.78125 217.140625 C 211.433594 217.140625 212.101562 217.140625 212.769531 217.039062 C 215.464844 216.777344 218.136719 216.359375 220.78125 215.789062 C 223.453125 215.21875 226.089844 214.535156 228.730469 213.816406 C 231.367188 213.097656 233.871094 212.394531 236.460938 211.660156 Z M 236.578125 211.660156 " fill-opacity="0.098" fill-rule="nonzero"/><path fill="#c97c5d" d="M 128.054688 133.542969 C 128.054688 133.542969 122.746094 132.242188 120.996094 130.402344 C 119.242188 128.566406 105.867188 82.191406 104.867188 56.011719 C 103.863281 29.832031 109.84375 19.109375 120.210938 25.257812 C 130.578125 31.402344 175.855469 62.628906 179.042969 65.835938 C 180.027344 66.867188 180.832031 68.027344 181.457031 69.308594 C 182.078125 70.59375 182.496094 71.941406 182.699219 73.351562 Z M 128.054688 133.542969 " fill-opacity="1" fill-rule="nonzero"/><path fill="#eed7c5" d="M 177.976562 78.546875 L 128.539062 133.007812 C 126.203125 132.507812 123.113281 131.691406 122.195312 130.722656 C 120.628906 129.050781 108.839844 87.167969 107.957031 63.527344 C 107.070312 39.890625 112.328125 30.269531 121.511719 35.78125 C 130.695312 41.292969 170.679688 69.511719 173.519531 72.398438 C 175.199219 74.308594 176.6875 76.355469 177.976562 78.546875 Z M 177.976562 78.546875 " fill-opacity="1" fill-rule="nonzero"/><path fill="#42424c" d="M 127.203125 33.339844 C 123.730469 34.828125 115.71875 26.109375 115.71875 26.109375 C 115.71875 26.109375 114.535156 33.410156 112.378906 33.660156 C 110.226562 33.910156 110.710938 28.480469 110.710938 28.480469 C 110.710938 28.480469 108.023438 37.417969 107.136719 39.472656 C 106.554688 40.808594 105.835938 41.726562 105.152344 41.511719 C 106.585938 26.058594 112.027344 20.410156 120.210938 25.257812 C 121.378906 26.007812 123.046875 27.058594 125.101562 28.363281 C 127.488281 30.484375 129.042969 32.539062 127.203125 33.339844 Z M 127.203125 33.339844 " fill-opacity="1" fill-rule="nonzero"/><path fill="#ddc1af" d="M 147.171875 75.757812 C 144.871094 71.835938 142.148438 68.234375 139.003906 64.953125 C 135.859375 61.667969 132.375 58.796875 128.558594 56.328125 C 124.304688 53.542969 119.78125 51.316406 114.984375 49.648438 C 114.785156 49.648438 114.667969 49.914062 114.851562 49.996094 C 130.492188 57.664062 142.566406 71.449219 150.277344 86.882812 C 148.167969 83.4375 145.617188 80.359375 142.628906 77.640625 C 139.636719 74.925781 136.328125 72.683594 132.699219 70.914062 C 129.710938 69.476562 126.019531 68.171875 122.832031 69.777344 C 122.648438 69.859375 122.832031 70.160156 122.980469 70.09375 C 126.238281 69.007812 129.324219 70.730469 132.0625 72.382812 C 134.4375 73.855469 136.699219 75.488281 138.839844 77.277344 C 143.074219 80.78125 146.714844 84.816406 149.761719 89.390625 C 151.328125 91.710938 152.703125 94.136719 153.882812 96.675781 C 154.316406 98.34375 154.703125 99.882812 155.003906 101.484375 C 155.003906 101.753906 155.519531 101.6875 155.488281 101.402344 C 154.496094 92.277344 151.722656 83.726562 147.171875 75.757812 Z M 147.171875 75.757812 " fill-opacity="1" fill-rule="nonzero"/><path fill="#c97c5d" d="M 282.707031 133.542969 C 282.707031 133.542969 288 132.242188 289.769531 130.402344 C 291.539062 128.566406 304.894531 82.191406 305.878906 56.011719 C 306.863281 29.832031 300.871094 19.109375 290.535156 25.289062 C 280.203125 31.46875 234.90625 62.628906 231.703125 65.835938 C 230.71875 66.867188 229.914062 68.023438 229.292969 69.308594 C 228.671875 70.59375 228.261719 71.941406 228.0625 73.351562 Z M 282.707031 133.542969 " fill-opacity="1" fill-rule="nonzero"/><path fill="#eed7c5" d="M 232.785156 78.546875 L 282.222656 133.007812 C 284.558594 132.507812 287.628906 131.691406 288.566406 130.722656 C 290.117188 129.050781 301.921875 87.167969 302.808594 63.527344 C 303.691406 39.890625 298.347656 30.269531 289.234375 35.78125 C 280.117188 41.292969 240.066406 69.511719 237.246094 72.398438 C 235.5625 74.308594 234.078125 76.355469 232.785156 78.546875 Z M 232.785156 78.546875 " fill-opacity="1" fill-rule="nonzero"/><path fill="#42424c" d="M 283.539062 33.339844 C 287.03125 34.828125 295.027344 26.109375 295.027344 26.109375 C 295.027344 26.109375 296.210938 33.410156 298.449219 33.660156 C 300.6875 33.910156 300.117188 28.480469 300.117188 28.480469 C 300.117188 28.480469 302.640625 37.417969 303.558594 39.472656 C 304.160156 40.808594 304.878906 41.726562 305.546875 41.511719 C 304.109375 26.058594 298.667969 20.410156 290.519531 25.289062 C 289.332031 26.007812 287.664062 27.058594 285.644531 28.363281 C 283.324219 30.484375 281.652344 32.539062 283.539062 33.339844 Z M 283.539062 33.339844 " fill-opacity="1" fill-rule="nonzero"/><path fill="#c97c5d" d="M 204.519531 64.199219 C 182.449219 64.816406 159.445312 71.796875 153.097656 72.167969 C 150.042969 72.203125 147.054688 71.78125 144.125 70.902344 C 141.199219 70.027344 138.46875 68.730469 135.9375 67.019531 C 132.097656 64.332031 128.105469 65.066406 130.160156 70.160156 C 132.214844 75.257812 140.175781 77.878906 147.640625 77.945312 C 143.5625 79.609375 139.355469 80.820312 135.019531 81.589844 C 128.492188 82.625 128.65625 88.488281 132.730469 89.523438 C 136.804688 90.558594 143.265625 85.75 143.265625 85.75 C 143.265625 85.75 137.390625 87.785156 130.542969 111.59375 C 123.699219 135.398438 116.019531 160.507812 121.761719 176.460938 C 127.503906 192.414062 155.121094 205.210938 204.855469 205.679688 C 253.6875 206.199219 285.308594 194.21875 292.289062 171.464844 C 296.496094 157.800781 278.933594 105.644531 274.609375 95.890625 C 271.597656 89.445312 267.730469 83.5625 263.003906 78.246094 C 263.003906 78.246094 272.269531 81.871094 273.625 78.898438 C 274.976562 75.925781 273.355469 72.601562 259.132812 70.8125 C 259.132812 70.8125 268.097656 67.804688 271.804688 61.089844 C 275.511719 54.375 269.449219 53.121094 265.875 57.832031 C 262.304688 62.542969 248.898438 67.503906 248.898438 67.503906 C 234.207031 65.046875 219.414062 63.945312 204.519531 64.199219 Z M 204.519531 64.199219 " fill-opacity="1" fill-rule="nonzero"/><path fill="#eed7c5" d="M 241.96875 199.714844 C 240.683594 201.554688 237.578125 203.058594 233.621094 204.378906 C 224.058594 205.394531 214.46875 205.832031 204.855469 205.679688 C 194.617188 205.621094 184.429688 204.898438 174.285156 203.507812 C 172.21875 202.75 170.367188 201.636719 168.726562 200.167969 C 162.046875 193.683594 174.621094 156.867188 183.453125 149.648438 C 192.285156 142.429688 219.480469 143.835938 226.273438 148.480469 C 235.242188 154.726562 247.410156 191.914062 241.96875 199.714844 Z M 241.96875 199.714844 " fill-opacity="1" fill-rule="nonzero"/><path fill="#42424c" d="M 175.703125 149.265625 C 175.085938 153.890625 171.933594 157.234375 168.660156 156.714844 C 165.386719 156.199219 163.21875 152.222656 163.835938 147.660156 C 164.453125 143.101562 167.609375 139.742188 170.878906 140.191406 C 174.152344 140.644531 176.324219 144.6875 175.703125 149.265625 Z M 175.703125 149.265625 " fill-opacity="1" fill-rule="nonzero"/><path fill="#42424c" d="M 175.65625 145.871094 C 175.65625 145.6875 175.253906 146.105469 175.253906 146.308594 C 175.253906 151.320312 174.269531 157.183594 169.628906 158.667969 C 169.476562 158.667969 169.476562 158.96875 169.628906 158.953125 C 175.269531 158.402344 176.472656 150.699219 175.65625 145.871094 Z M 175.65625 145.871094 " fill-opacity="1" fill-rule="nonzero"/><path fill="#42424c" d="M 235.558594 149.414062 C 236.292969 153.957031 239.53125 157.214844 242.804688 156.683594 C 246.074219 156.148438 248.113281 152.039062 247.378906 147.492188 C 246.644531 142.949219 243.386719 139.691406 240.132812 140.226562 C 236.875 140.761719 234.90625 144.871094 235.558594 149.414062 Z M 235.558594 149.414062 " fill-opacity="1" fill-rule="nonzero"/><path fill="#42424c" d="M 235.507812 146.039062 C 235.507812 145.839844 235.910156 146.257812 235.925781 146.457031 C 236.125 151.46875 237.195312 157.300781 241.886719 158.652344 C 242.035156 158.652344 242.035156 158.953125 241.886719 158.9375 C 236.226562 158.554688 234.90625 150.867188 235.507812 146.039062 Z M 235.507812 146.039062 " fill-opacity="1" fill-rule="nonzero"/><path fill="#42424c" d="M 216.226562 146.222656 C 216.757812 148.328125 207.625 155.128906 205.054688 155.128906 C 202.484375 155.128906 193.367188 148.328125 193.886719 146.222656 C 194.402344 144.117188 200.949219 143.300781 205.054688 143.300781 C 209.164062 143.300781 215.707031 144.117188 216.226562 146.222656 Z M 216.226562 146.222656 " fill-opacity="1" fill-rule="nonzero"/><path fill="#42424c" d="M 249.480469 127.8125 C 249.316406 130.46875 239.648438 128.964844 239.246094 125.425781 C 238.847656 121.882812 249.730469 123.820312 249.480469 127.8125 Z M 249.480469 127.8125 " fill-opacity="1" fill-rule="nonzero"/><path fill="#42424c" d="M 163.117188 127.8125 C 163.285156 130.46875 172.933594 128.964844 173.335938 125.425781 C 173.734375 121.882812 162.917969 123.820312 163.117188 127.8125 Z M 163.117188 127.8125 " fill-opacity="1" fill-rule="nonzero"/><path fill="#af6348" d="M 126.070312 173.320312 C 126.070312 172.851562 125.953125 172.402344 125.871094 171.933594 C 125.785156 171.464844 125.753906 171.117188 125.667969 170.664062 C 125.585938 170.214844 125.519531 169.945312 125.46875 169.59375 C 125.351562 168.742188 125.269531 167.925781 125.152344 167.039062 C 125.160156 166.507812 125.050781 166 124.816406 165.519531 C 124.691406 165.289062 124.507812 165.128906 124.265625 165.035156 C 124.023438 164.9375 123.777344 164.933594 123.53125 165.019531 C 122.546875 165.402344 122.597656 166.6875 122.5625 167.589844 C 122.546875 168.515625 122.648438 169.429688 122.863281 170.332031 C 123.039062 171.226562 123.320312 172.082031 123.714844 172.902344 C 124.019531 173.71875 124.519531 174.386719 125.21875 174.90625 C 125.300781 174.953125 125.390625 174.976562 125.484375 174.980469 C 125.578125 174.984375 125.667969 174.964844 125.753906 174.929688 C 125.839844 174.890625 125.914062 174.835938 125.972656 174.765625 C 126.035156 174.695312 126.078125 174.613281 126.101562 174.523438 C 126.160156 174.121094 126.148438 173.71875 126.070312 173.320312 Z M 126.070312 173.320312 " fill-opacity="1" fill-rule="nonzero"/><path fill="#af6348" d="M 124.71875 153.890625 C 124.714844 153.734375 124.664062 153.589844 124.5625 153.464844 C 124.460938 153.34375 124.335938 153.261719 124.179688 153.222656 C 124.023438 153.1875 123.875 153.199219 123.730469 153.265625 C 123.585938 153.332031 123.472656 153.433594 123.398438 153.574219 C 123.039062 154.203125 122.753906 154.867188 122.546875 155.5625 C 122.375 156.328125 122.269531 157.101562 122.230469 157.882812 C 122.164062 158.585938 122.164062 159.289062 122.230469 159.988281 C 122.261719 160.386719 122.34375 160.769531 122.480469 161.140625 C 122.570312 161.558594 122.761719 161.925781 123.046875 162.246094 C 123.117188 162.308594 123.199219 162.351562 123.289062 162.378906 C 123.382812 162.40625 123.472656 162.414062 123.566406 162.398438 C 123.660156 162.382812 123.746094 162.351562 123.824219 162.296875 C 123.90625 162.242188 123.96875 162.175781 124.015625 162.09375 C 124.191406 161.792969 124.300781 161.46875 124.351562 161.125 C 124.441406 160.746094 124.492188 160.363281 124.5 159.972656 C 124.5 159.320312 124.5 158.652344 124.617188 158 C 124.734375 157.351562 124.734375 156.714844 124.785156 156.0625 C 124.835938 155.414062 124.71875 154.644531 124.71875 153.890625 Z M 124.71875 153.890625 " fill-opacity="1" fill-rule="nonzero"/><path fill="#af6348" d="M 124.800781 150.433594 C 124.800781 150.433594 124.71875 150.550781 124.800781 150.433594 Z M 124.800781 150.433594 " fill-opacity="1" fill-rule="nonzero"/><path fill="#af6348" d="M 125.351562 146.171875 C 125.320312 146.066406 125.269531 145.972656 125.195312 145.890625 C 125.121094 145.808594 125.03125 145.75 124.925781 145.707031 C 124.824219 145.667969 124.714844 145.65625 124.605469 145.667969 C 124.496094 145.675781 124.394531 145.714844 124.300781 145.773438 C 123.960938 146.027344 123.71875 146.347656 123.566406 146.742188 C 123.410156 147.109375 123.289062 147.488281 123.199219 147.878906 C 123.121094 148.285156 123.09375 148.699219 123.113281 149.113281 C 123.105469 149.347656 123.140625 149.578125 123.214844 149.800781 C 123.261719 149.9375 123.324219 150.074219 123.398438 150.199219 C 123.492188 150.335938 123.609375 150.449219 123.75 150.535156 C 124.039062 150.632812 124.070312 150.632812 123.847656 150.535156 C 124.136719 150.730469 124.425781 150.738281 124.71875 150.550781 L 124.851562 150.433594 C 124.929688 150.363281 124.992188 150.28125 125.035156 150.183594 C 125.089844 150.070312 125.132812 149.953125 125.167969 149.832031 C 125.183594 149.605469 125.183594 149.375 125.167969 149.148438 C 125.167969 148.828125 125.167969 148.511719 125.167969 148.195312 L 125.167969 147.742188 C 125.175781 147.675781 125.175781 147.609375 125.167969 147.542969 C 125.152344 147.453125 125.152344 147.367188 125.167969 147.277344 C 125.167969 147.410156 125.167969 147.445312 125.167969 147.359375 L 125.167969 147.210938 C 125.183594 147.066406 125.183594 146.921875 125.167969 146.773438 C 125.269531 146.585938 125.328125 146.386719 125.351562 146.171875 Z M 125.351562 146.171875 " fill-opacity="1" fill-rule="nonzero"/><path fill="#af6348" d="M 127.523438 150.417969 C 127.464844 150.214844 127.429688 150.007812 127.421875 149.800781 C 127.421875 149.652344 127.355469 149.554688 127.222656 149.5 C 127.085938 149.449219 126.96875 149.476562 126.871094 149.582031 C 126.703125 149.78125 126.503906 149.949219 126.335938 150.132812 C 126.167969 150.339844 126.035156 150.570312 125.9375 150.816406 C 125.683594 151.347656 125.523438 151.90625 125.453125 152.488281 C 125.390625 153.046875 125.390625 153.601562 125.453125 154.160156 C 125.476562 154.453125 125.527344 154.742188 125.601562 155.027344 C 125.675781 155.351562 125.824219 155.636719 126.054688 155.878906 C 126.179688 156.007812 126.332031 156.070312 126.511719 156.070312 C 126.691406 156.070312 126.84375 156.007812 126.972656 155.878906 C 127.285156 155.367188 127.421875 154.808594 127.386719 154.210938 C 127.398438 154.140625 127.398438 154.074219 127.386719 154.007812 L 127.386719 152.121094 C 127.386719 151.871094 127.386719 151.636719 127.386719 151.402344 C 127.472656 151.078125 127.515625 150.75 127.523438 150.417969 Z M 127.523438 150.417969 " fill-opacity="1" fill-rule="nonzero"/><path fill="#af6348" d="M 127.65625 163.914062 C 127.714844 163.476562 127.714844 163.035156 127.65625 162.597656 C 127.554688 162.109375 127.238281 161.410156 126.636719 161.425781 C 126.304688 161.476562 126.0625 161.65625 125.917969 161.960938 C 125.796875 162.222656 125.726562 162.492188 125.703125 162.78125 C 125.671875 163.238281 125.699219 163.695312 125.785156 164.148438 C 125.851562 164.539062 125.941406 164.921875 126.054688 165.300781 C 126.109375 165.707031 126.277344 166.054688 126.554688 166.355469 C 126.617188 166.429688 126.699219 166.46875 126.796875 166.46875 C 126.894531 166.46875 126.976562 166.429688 127.039062 166.355469 C 127.269531 166.042969 127.390625 165.691406 127.40625 165.300781 C 127.515625 164.84375 127.597656 164.382812 127.65625 163.914062 Z M 127.65625 163.914062 " fill-opacity="1" fill-rule="nonzero"/><path fill="#af6348" d="M 130.109375 176.445312 C 130.144531 176.226562 130.125 176.34375 130.109375 176.445312 Z M 130.109375 176.445312 " fill-opacity="1" fill-rule="nonzero"/><path fill="#af6348" d="M 129.941406 175.324219 C 129.808594 174.988281 129.660156 174.660156 129.492188 174.339844 L 129.609375 174.605469 C 129.523438 174.402344 129.417969 174.207031 129.292969 174.023438 L 129.074219 173.636719 C 128.792969 173.203125 128.238281 172.703125 127.707031 173.035156 C 127.171875 173.371094 127.222656 174.472656 127.371094 175.089844 C 127.480469 175.394531 127.621094 175.6875 127.789062 175.960938 C 127.972656 176.253906 128.203125 176.5 128.492188 176.695312 C 128.78125 176.953125 129.121094 177.082031 129.507812 177.078125 C 129.730469 177.082031 129.898438 176.988281 130.011719 176.796875 C 130.027344 176.722656 130.027344 176.652344 130.011719 176.578125 L 130.011719 176.445312 C 130.058594 176.199219 130.058594 175.953125 130.011719 175.710938 C 130.027344 175.609375 129.976562 175.460938 129.941406 175.324219 Z M 129.941406 175.324219 " fill-opacity="1" fill-rule="nonzero"/><path fill="#af6348" d="M 132.898438 183.777344 L 132.898438 183.914062 L 132.796875 183.660156 C 132.707031 183.53125 132.605469 183.410156 132.496094 183.292969 L 132.128906 182.910156 C 131.875 182.664062 131.640625 182.414062 131.429688 182.160156 C 131.167969 181.878906 130.886719 181.617188 130.59375 181.375 C 130.277344 181.105469 129.574219 180.570312 129.191406 180.988281 C 128.976562 181.394531 128.976562 181.800781 129.191406 182.207031 C 129.335938 182.589844 129.527344 182.945312 129.757812 183.277344 L 130.527344 184.230469 C 130.785156 184.5625 131.089844 184.839844 131.445312 185.066406 C 131.730469 185.164062 131.78125 185.199219 131.628906 185.066406 C 131.480469 184.929688 131.628906 185.066406 131.628906 185.066406 C 131.699219 185.121094 131.769531 185.171875 131.847656 185.214844 C 132.125 185.421875 132.429688 185.476562 132.765625 185.382812 C 132.960938 185.308594 133.109375 185.179688 133.210938 184.996094 C 133.3125 184.8125 133.339844 184.617188 133.296875 184.414062 C 133.222656 184.167969 133.085938 183.957031 132.898438 183.777344 Z M 132.898438 183.777344 " fill-opacity="1" fill-rule="nonzero"/><path fill="#af6348" d="M 137.921875 185.199219 C 137.863281 185.011719 137.746094 184.875 137.574219 184.78125 L 137.4375 184.78125 C 137.4375 184.78125 137.4375 184.679688 137.304688 184.648438 L 137.140625 184.5625 L 136.820312 184.398438 C 136.664062 184.308594 136.503906 184.230469 136.335938 184.164062 C 136.226562 184.179688 136.113281 184.179688 136.003906 184.164062 L 136.171875 184.164062 L 135.871094 184.164062 C 135.757812 184.121094 135.648438 184.121094 135.535156 184.164062 C 135.414062 184.179688 135.308594 184.230469 135.21875 184.3125 C 135.070312 184.535156 135.070312 184.757812 135.21875 184.980469 C 135.25 185.042969 135.289062 185.101562 135.335938 185.148438 C 135.328125 185.183594 135.328125 185.214844 135.335938 185.25 C 135.378906 185.300781 135.417969 185.355469 135.453125 185.417969 C 135.542969 185.535156 135.648438 185.632812 135.769531 185.714844 L 135.953125 185.832031 C 136.117188 185.945312 136.296875 186.027344 136.488281 186.085938 L 136.6875 186.167969 L 137.054688 186.167969 C 137.230469 186.210938 137.394531 186.1875 137.554688 186.105469 C 137.710938 186.023438 137.824219 185.898438 137.890625 185.734375 C 137.980469 185.558594 137.992188 185.382812 137.921875 185.199219 Z M 137.921875 185.199219 " fill-opacity="1" fill-rule="nonzero"/><path fill="#af6348" d="M 130.210938 166.488281 C 130.191406 166.058594 130.132812 165.636719 130.042969 165.21875 C 130.011719 165.082031 129.960938 164.957031 129.894531 164.835938 L 129.894531 164.699219 L 129.777344 164.535156 L 129.777344 164.433594 L 129.609375 164.167969 C 129.570312 164.097656 129.515625 164.046875 129.449219 164.007812 C 129.382812 163.96875 129.3125 163.949219 129.234375 163.949219 C 129.15625 163.949219 129.082031 163.96875 129.015625 164.007812 C 128.949219 164.046875 128.898438 164.097656 128.859375 164.167969 L 128.742188 164.417969 C 128.742188 164.417969 128.742188 164.632812 128.742188 164.566406 C 128.742188 164.5 128.742188 164.566406 128.640625 164.71875 C 128.59375 164.800781 128.558594 164.890625 128.539062 164.984375 C 128.472656 165.128906 128.441406 165.277344 128.441406 165.4375 C 128.414062 165.8125 128.414062 166.191406 128.441406 166.570312 C 128.460938 166.996094 128.503906 167.421875 128.574219 167.839844 C 128.574219 168.007812 128.574219 168.191406 128.65625 168.359375 C 128.742188 168.527344 128.839844 168.792969 128.890625 168.925781 C 128.933594 169.074219 129.015625 169.195312 129.136719 169.289062 C 129.257812 169.382812 129.398438 169.429688 129.550781 169.429688 C 129.703125 169.429688 129.84375 169.382812 129.964844 169.289062 C 130.085938 169.195312 130.167969 169.074219 130.210938 168.925781 C 130.210938 168.925781 130.210938 168.792969 130.210938 168.644531 C 130.21875 168.558594 130.21875 168.476562 130.210938 168.394531 C 130.226562 168.152344 130.226562 167.914062 130.210938 167.675781 C 130.242188 167.257812 130.226562 166.855469 130.210938 166.488281 Z M 130.210938 166.488281 " fill-opacity="1" fill-rule="nonzero"/><path fill="#af6348" d="M 129.992188 141.832031 C 129.726562 141.597656 129.417969 141.523438 129.074219 141.613281 C 128.742188 141.71875 128.527344 141.941406 128.441406 142.28125 C 128.335938 142.6875 128.28125 143.097656 128.273438 143.515625 C 128.273438 143.851562 128.273438 144.203125 128.273438 144.519531 C 128.304688 144.898438 128.359375 145.269531 128.441406 145.640625 C 128.496094 145.828125 128.574219 146.003906 128.675781 146.171875 C 128.773438 146.324219 128.976562 146.523438 129.191406 146.441406 C 129.558594 146.253906 129.738281 145.953125 129.726562 145.539062 L 129.875 144.585938 C 129.976562 143.953125 130.160156 143.332031 130.261719 142.699219 C 130.332031 142.359375 130.242188 142.070312 129.992188 141.832031 Z M 129.992188 141.832031 " fill-opacity="1" fill-rule="nonzero"/><path fill="#af6348" d="M 127.019531 136.851562 C 127.023438 136.722656 126.984375 136.609375 126.898438 136.511719 C 126.816406 136.414062 126.714844 136.355469 126.585938 136.332031 C 126.324219 136.316406 126.128906 136.421875 126.003906 136.652344 L 125.917969 136.769531 C 125.84375 136.847656 125.773438 136.9375 125.71875 137.035156 C 125.550781 137.285156 125.40625 137.546875 125.285156 137.820312 C 125.148438 138.15625 125.054688 138.5 125 138.855469 C 124.933594 139.234375 124.933594 139.613281 125 139.992188 C 125.007812 140.175781 125.074219 140.335938 125.195312 140.472656 C 125.320312 140.605469 125.472656 140.6875 125.652344 140.710938 C 125.835938 140.726562 126 140.683594 126.152344 140.578125 C 126.300781 140.476562 126.402344 140.335938 126.453125 140.160156 C 126.566406 139.859375 126.660156 139.550781 126.738281 139.242188 C 126.738281 139.089844 126.738281 138.957031 126.738281 138.824219 C 126.738281 138.691406 126.738281 138.539062 126.738281 138.40625 L 126.738281 137.703125 C 126.746094 137.570312 126.746094 137.4375 126.738281 137.304688 L 126.738281 137.1875 C 126.988281 137.035156 127.019531 136.953125 127.019531 136.851562 Z M 127.019531 136.851562 " fill-opacity="1" fill-rule="nonzero"/></svg>