<svg xmlns="http://www.w3.org/2000/svg" xmlns:xlink="http://www.w3.org/1999/xlink" width="500" zoomAndPan="magnify" viewBox="0 0 375 374.999991" height="500" preserveAspectRatio="xMidYMid meet" version="1.0"><defs><clipPath id="3bed024400"><path d="M 25 35.148438 L 349.695312 35.148438 L 349.695312 337.398438 L 25 337.398438 Z M 25 35.148438 " clip-rule="nonzero"/></clipPath></defs><rect x="-37.5" width="450" fill="#ffffff" y="-37.499999" height="449.999989" fill-opacity="1"/><rect x="-37.5" width="450" fill="#ffffff" y="-37.499999" height="449.999989" fill-opacity="1"/><rect x="-37.5" width="450" fill="#d9d9d9" y="-37.499999" height="449.999989" fill-opacity="1"/><g clip-path="url(#3bed024400)"><path fill="#959799" d="M 94.246094 37.515625 C 90.101562 38.097656 88.9375 41.207031 88.289062 44.515625 C 86.214844 55.273438 82.460938 65.515625 78.507812 75.628906 C 68.597656 101.230469 59.597656 127.09375 51.4375 153.28125 C 47.484375 165.921875 42.496094 178.171875 38.15625 190.679688 C 36.148438 196.449219 34.464844 202.414062 32.847656 208.3125 C 32.328125 210.125 32.457031 212.199219 32.71875 214.082031 C 33.300781 218.035156 34.660156 221.730469 37.058594 225.035156 C 42.238281 232.101562 47.355469 239.164062 52.535156 246.230469 C 53.574219 247.65625 54.738281 249.015625 55.96875 250.25 C 66.398438 260.425781 75.917969 271.445312 85.632812 282.269531 C 90.167969 287.324219 94.507812 292.640625 98.910156 297.824219 C 101.242188 300.546875 104.15625 302.492188 107.460938 303.855469 C 109.53125 304.761719 111.863281 305.34375 113.417969 307.226562 C 113.613281 307.417969 114.066406 307.484375 114.390625 307.484375 C 124.234375 307.03125 134.015625 308.066406 143.796875 309.234375 C 149.820312 309.945312 155.84375 310.335938 161.800781 311.308594 C 171.0625 312.800781 180.261719 314.875 189.523438 316.363281 C 199.5625 317.984375 209.601562 319.410156 219.640625 320.707031 C 229.289062 322.003906 238.941406 322.976562 248.527344 324.207031 C 255.78125 325.113281 263.035156 326.214844 270.222656 327.253906 C 270.417969 327.253906 270.613281 327.253906 270.9375 327.253906 C 267.050781 322.976562 264.265625 318.050781 261.089844 313.445312 C 259.992188 311.828125 258.304688 310.53125 256.816406 309.105469 C 254.9375 307.355469 252.800781 305.863281 251.117188 303.917969 C 240.753906 291.796875 230.457031 279.613281 220.15625 267.425781 C 218.085938 264.964844 216.078125 262.371094 214.132812 259.777344 C 213.550781 259 213.097656 258.09375 212.578125 257.25 C 212.710938 257.183594 212.839844 257.054688 212.902344 256.988281 C 213.164062 257.183594 213.421875 257.3125 213.617188 257.507812 C 223.394531 267.039062 233.242188 276.628906 243.019531 286.160156 C 249.238281 292.25 254.679688 298.992188 259.796875 306.058594 C 261.480469 308.390625 262.582031 311.113281 264.070312 313.578125 C 267.890625 320.125 273.269531 325.113281 280.132812 328.355469 C 281.429688 328.9375 282.855469 329.394531 284.214844 329.714844 C 284.601562 329.847656 285.378906 329.523438 285.507812 329.199219 C 286.09375 328.03125 286.738281 326.863281 287 325.632812 C 288.554688 315.910156 291.597656 306.578125 294.253906 297.179688 C 296.585938 288.945312 299.628906 280.84375 301.960938 272.613281 C 305.585938 260.035156 308.824219 247.332031 312.324219 234.691406 C 316.402344 220.042969 320.679688 205.460938 324.824219 190.808594 C 327.089844 182.773438 329.617188 174.800781 333.113281 167.152344 C 335.25 162.550781 337.648438 158.011719 340.109375 153.539062 C 341.921875 150.296875 343.023438 146.929688 343.671875 143.363281 C 343.800781 142.84375 343.476562 142.132812 343.152344 141.613281 C 342.050781 140.121094 340.820312 138.695312 339.722656 137.207031 C 338.035156 134.871094 336.417969 132.472656 334.734375 130.140625 C 333.242188 128.195312 331.753906 126.25 330.070312 124.5 C 323.140625 117.304688 316.082031 110.242188 309.148438 103.109375 C 306.625 100.519531 304.226562 97.730469 301.832031 94.945312 C 294.578125 86.453125 286.738281 78.542969 278.449219 71.089844 C 275.859375 68.757812 272.816406 67.265625 269.382812 66.554688 C 267.761719 66.230469 266.339844 65.257812 264.785156 64.671875 C 261.027344 63.3125 257.207031 62.015625 253.382812 60.785156 C 252.929688 60.65625 252.21875 60.589844 251.828125 60.785156 C 247.425781 62.921875 242.828125 64.867188 239.265625 68.367188 C 238.488281 69.144531 237.773438 69.988281 237.0625 70.765625 C 236.738281 71.089844 236.480469 71.414062 236.15625 71.738281 C 235.183594 70.703125 235.703125 69.859375 236.15625 69.082031 C 238.359375 65.320312 241.144531 62.082031 245.09375 60.070312 C 245.480469 59.875 245.804688 59.683594 246.128906 59.488281 C 246.195312 59.421875 246.257812 59.359375 246.390625 59.164062 C 245.871094 59.035156 245.351562 58.839844 244.835938 58.710938 C 233.5 55.921875 222.101562 53.523438 210.570312 52.035156 C 206.492188 51.515625 202.28125 51.449219 198.136719 51.253906 C 189.910156 50.867188 181.683594 51.191406 173.589844 49.570312 C 167.242188 48.339844 160.894531 46.652344 154.484375 45.617188 C 144.183594 43.867188 133.886719 42.503906 123.523438 40.949219 C 116.140625 39.847656 108.753906 38.8125 101.371094 37.839844 C 99.816406 37.644531 98.199219 37.644531 96.644531 37.449219 C 96.191406 37.382812 95.738281 36.929688 95.285156 36.671875 C 95.738281 36.28125 96.125 35.570312 96.578125 35.570312 C 99.625 35.503906 102.601562 35.375 105.648438 35.632812 C 118.082031 36.800781 130.453125 37.902344 142.824219 39.328125 C 153.25 40.496094 163.679688 42.117188 174.105469 43.414062 C 180.648438 44.253906 187.191406 44.839844 193.796875 45.488281 C 211.027344 47.042969 227.996094 49.765625 244.835938 53.652344 C 252.867188 55.46875 260.898438 57.089844 268.929688 58.773438 C 269.253906 58.839844 269.640625 58.90625 270.03125 58.90625 C 274.691406 58.515625 278.449219 60.65625 281.816406 63.507812 C 286.285156 67.332031 290.171875 71.609375 293.539062 76.40625 C 298.074219 82.824219 303.839844 88.136719 309.34375 93.648438 C 316.402344 100.710938 323.660156 107.582031 330.71875 114.648438 C 332.984375 116.917969 334.992188 119.445312 336.9375 121.972656 C 340.109375 126.121094 343.089844 130.335938 346.132812 134.546875 C 349.175781 138.761719 349.695312 143.492188 348.917969 148.484375 C 348.53125 150.882812 347.492188 153.085938 346.003906 154.964844 C 342.507812 159.4375 340.367188 164.558594 338.621094 169.9375 C 332.660156 188.414062 326.703125 206.886719 320.484375 225.292969 C 316.988281 235.664062 312.90625 245.90625 309.472656 256.34375 C 306.171875 266.257812 303.320312 276.371094 300.148438 286.351562 C 297.234375 295.621094 295.226562 305.019531 293.734375 314.613281 C 293.152344 318.179688 293.347656 321.808594 293.21875 325.4375 C 293.152344 327.707031 292.632812 329.847656 291.339844 331.726562 C 290.300781 333.28125 288.941406 334.382812 287.0625 334.835938 C 284.277344 335.550781 281.558594 336.71875 278.707031 336.910156 C 275.40625 337.171875 271.972656 337.171875 268.734375 336.457031 C 257.464844 334.058594 246.324219 331.273438 235.121094 328.679688 C 226.699219 326.734375 218.28125 324.921875 209.925781 322.976562 C 199.5625 320.578125 189.199219 317.984375 178.835938 315.585938 C 168.667969 313.316406 158.367188 312.734375 147.875 313.125 C 135.894531 313.578125 123.847656 313.640625 111.996094 311.179688 C 110.570312 310.855469 109.144531 310.789062 107.71875 310.464844 C 103.054688 309.363281 99.039062 307.09375 95.933594 303.402344 C 92.304688 299.058594 88.808594 294.648438 85.4375 290.113281 C 77.277344 279.289062 69.246094 268.398438 60.246094 258.222656 C 56.421875 253.878906 52.34375 249.730469 48.328125 245.648438 C 47.160156 244.414062 45.671875 243.507812 44.3125 242.472656 C 42.171875 240.851562 39.972656 239.359375 37.964844 237.609375 C 33.363281 233.71875 30.191406 228.859375 28.703125 222.960938 C 28.574219 222.441406 28.441406 221.859375 28.117188 221.46875 C 25.269531 218.359375 24.945312 214.664062 25.980469 210.902344 C 27.601562 205.199219 29.480469 199.496094 31.550781 193.921875 C 37.703125 177.199219 44.570312 160.667969 50.074219 143.6875 C 54.414062 130.269531 58.820312 116.851562 63.742188 103.695312 C 68.40625 91.3125 71.835938 78.609375 74.492188 65.644531 C 75.851562 59.164062 78.121094 53.007812 80.96875 46.976562 C 82.460938 43.738281 84.53125 40.949219 87.058594 38.421875 C 88.546875 36.929688 90.363281 36.152344 92.433594 36.152344 C 93.015625 36.152344 93.601562 36.476562 94.183594 36.671875 C 94.246094 37.125 94.246094 37.320312 94.246094 37.515625 Z M 94.246094 37.515625 " fill-opacity="1" fill-rule="nonzero"/></g><path fill="#959799" d="M 129.15625 156.457031 C 130.324219 149.066406 133.628906 143.039062 139.714844 138.957031 C 143.148438 136.621094 146.90625 134.871094 150.597656 132.925781 C 153.121094 131.566406 155.777344 130.527344 158.175781 129.101562 C 161.023438 127.417969 162.125 124.628906 161.414062 122.039062 C 160.828125 119.832031 159.273438 118.667969 157.136719 118.214844 C 152.34375 117.046875 146.0625 118.730469 144.121094 125.410156 C 143.472656 127.546875 143.40625 127.546875 141.203125 127.222656 C 133.628906 126.121094 125.984375 125.085938 118.40625 123.980469 C 117.886719 123.917969 117.371094 123.789062 116.789062 123.722656 C 118.082031 117.304688 120.347656 111.472656 124.949219 106.804688 C 132.65625 99.027344 142.242188 95.589844 152.929688 94.683594 C 161.800781 93.972656 170.351562 95.203125 178.1875 99.675781 C 184.921875 103.5 189.847656 108.878906 191.402344 116.65625 C 193.148438 125.796875 190.429688 133.707031 184.082031 140.382812 C 180.390625 144.269531 175.855469 146.992188 170.933594 149.003906 C 167.761719 150.296875 164.523438 151.53125 161.414062 152.828125 C 157.980469 154.316406 154.613281 155.808594 153.121094 159.699219 C 152.992188 159.957031 152.085938 160.085938 151.632812 160.023438 C 146.320312 159.242188 141.011719 158.335938 135.699219 157.492188 C 133.496094 157.105469 131.359375 156.78125 129.15625 156.457031 Z M 129.15625 156.457031 " fill-opacity="1" fill-rule="nonzero"/><path fill="#959799" d="M 263.035156 229.570312 C 260.183594 228.597656 257.917969 226.847656 257.011719 223.933594 C 256.167969 221.273438 255.261719 218.421875 255.199219 215.636719 C 254.808594 199.820312 258.824219 185.234375 267.828125 172.140625 C 269.445312 169.808594 271.648438 167.734375 273.914062 166.113281 C 278.773438 162.679688 283.824219 164.167969 285.960938 169.746094 C 287 172.464844 287.515625 175.382812 287.777344 178.300781 C 288.035156 181.867188 287.710938 185.496094 287.648438 189.125 C 287.648438 191.265625 287.710938 193.339844 287.777344 195.476562 C 287.777344 195.996094 287.90625 196.707031 288.230469 196.96875 C 289.394531 198.003906 288.8125 199.042969 288.425781 200.144531 C 286.480469 205.71875 284.539062 211.292969 282.59375 216.867188 C 282.464844 217.320312 282.269531 217.773438 282.078125 218.292969 C 279.9375 217.515625 278.386719 216.285156 277.414062 214.273438 C 276.054688 211.359375 275.664062 208.183594 275.601562 205.003906 C 275.535156 201.503906 275.601562 198.070312 275.535156 194.570312 C 275.535156 193.53125 275.339844 192.496094 275.015625 191.523438 C 274.5625 190.226562 273.460938 189.902344 272.296875 190.679688 C 271.585938 191.199219 270.9375 191.914062 270.546875 192.691406 C 269.1875 195.152344 268.476562 197.875 268.410156 200.726562 C 268.347656 202.800781 268.863281 204.550781 270.742188 205.785156 C 271 205.914062 271.195312 206.496094 271.066406 206.753906 C 268.476562 214.273438 265.882812 221.792969 263.292969 229.3125 C 263.230469 229.378906 263.164062 229.441406 263.035156 229.570312 Z M 263.035156 229.570312 " fill-opacity="1" fill-rule="nonzero"/><path fill="#959799" d="M 94.378906 79.839844 C 94.117188 80.878906 93.921875 81.914062 93.601562 82.953125 C 90.167969 94.8125 86.539062 106.546875 83.300781 118.472656 C 79.15625 133.769531 75.335938 149.132812 71.382812 164.492188 C 69.894531 170.328125 68.339844 176.097656 66.980469 181.996094 C 66.527344 183.941406 66.460938 186.015625 66.203125 188.089844 C 69.570312 188.671875 72.808594 189.253906 76.046875 189.773438 C 79.089844 190.292969 80.0625 191.328125 80 194.375 C 79.933594 198.457031 79.675781 202.605469 79.480469 206.691406 C 79.414062 207.46875 79.15625 208.246094 78.960938 209.152344 C 79.285156 209.21875 79.609375 209.347656 79.933594 209.347656 C 96.773438 210.0625 113.355469 212.523438 129.871094 215.441406 C 144.3125 217.96875 158.757812 220.625 173.199219 223.285156 C 175.53125 223.738281 177.863281 224.128906 180.390625 224.644531 C 180.519531 224.257812 180.648438 223.804688 180.777344 223.347656 C 181.492188 221.210938 182.140625 219.070312 183.046875 216.996094 C 183.628906 215.570312 184.921875 215.050781 185.960938 215.570312 C 186.996094 216.023438 187.320312 217.191406 186.800781 218.617188 C 185.765625 221.535156 184.730469 224.515625 183.691406 227.433594 C 182.722656 229.960938 180.261719 231.191406 177.667969 230.414062 C 158.5625 224.644531 139.261719 219.980469 119.570312 216.867188 C 107.785156 214.988281 95.867188 213.820312 84.015625 212.332031 C 82.007812 212.070312 80 211.746094 77.992188 211.550781 C 77.40625 211.488281 76.824219 211.488281 76.242188 211.550781 C 74.6875 211.746094 73.585938 211.226562 72.875 209.867188 C 71.96875 208.117188 72.097656 206.300781 72.613281 204.488281 C 73.457031 201.699219 74.105469 198.914062 74.945312 196.125 C 75.269531 195.023438 74.945312 194.632812 73.84375 194.375 C 69.960938 193.53125 66.074219 192.691406 62.1875 191.78125 C 61.410156 191.589844 60.566406 191.457031 59.921875 191.003906 C 59.46875 190.679688 59.207031 189.96875 59.078125 189.382812 C 59.011719 188.671875 59.144531 187.894531 59.273438 187.179688 C 59.335938 186.402344 59.402344 185.625 59.660156 184.910156 C 60.632812 181.800781 61.796875 178.6875 62.769531 175.511719 C 66.589844 163.066406 70.285156 150.558594 74.234375 138.046875 C 78.445312 124.695312 82.71875 111.34375 87.125 98.054688 C 89.066406 92.222656 91.203125 86.453125 93.277344 80.683594 C 93.40625 80.292969 93.664062 79.96875 93.859375 79.582031 C 94.054688 79.710938 94.246094 79.777344 94.378906 79.839844 Z M 94.378906 79.839844 " fill-opacity="1" fill-rule="nonzero"/><path fill="#959799" d="M 218.085938 248.371094 C 221.324219 245.972656 222.554688 242.601562 223.394531 238.96875 C 223.527344 238.324219 223.65625 237.609375 223.65625 236.960938 C 223.851562 232.683594 224.886719 228.597656 226.179688 224.515625 C 229.808594 213.367188 232.398438 201.960938 235.183594 190.617188 C 239.71875 172.273438 244.707031 154.058594 249.433594 135.777344 C 250.597656 131.242188 251.507812 126.640625 252.476562 122.039062 C 254.808594 111.667969 258.4375 101.878906 263.8125 92.738281 C 265.496094 89.953125 266.984375 87.101562 268.605469 84.25 C 269.964844 81.914062 270.222656 79.386719 269.511719 76.792969 C 269.121094 75.496094 268.667969 74.203125 268.347656 72.90625 C 268.023438 71.738281 267.761719 70.507812 269.121094 69.792969 C 270.09375 69.273438 271.195312 69.792969 272.167969 71.21875 C 274.628906 74.785156 275.40625 78.738281 274.433594 82.953125 C 274.175781 84.054688 273.914062 85.15625 273.527344 86.191406 C 269.835938 96.238281 266.015625 106.222656 262.453125 116.332031 C 257.722656 129.878906 253.125 143.492188 248.527344 157.105469 C 244.574219 168.707031 240.691406 180.375 237.839844 192.367188 C 235.3125 202.929688 232.917969 213.496094 230.585938 224.0625 C 229.875 227.238281 229.742188 230.609375 229.289062 233.851562 C 228.578125 238.90625 226.050781 242.988281 222.554688 246.488281 C 221.386719 247.65625 219.835938 248.304688 218.085938 248.371094 Z M 218.085938 248.371094 " fill-opacity="1" fill-rule="nonzero"/><path fill="#959799" d="M 136.28125 163.261719 C 141.464844 163.390625 145.867188 164.816406 149.429688 168.382812 C 154.613281 173.503906 155.257812 181.28125 150.984375 187.179688 C 145.542969 194.699219 134.46875 197.292969 126.179688 192.949219 C 116.074219 187.632812 114.777344 175.1875 123.652344 167.863281 C 127.34375 164.816406 131.683594 163.390625 136.28125 163.261719 Z M 136.28125 163.261719 " fill-opacity="1" fill-rule="nonzero"/><path fill="#959799" d="M 138.550781 268.980469 C 132.980469 268.140625 127.601562 267.296875 122.226562 266.453125 C 119.703125 266.066406 117.109375 265.742188 114.585938 265.222656 C 113.613281 265.027344 112.578125 264.507812 111.800781 263.859375 C 110.699219 262.890625 109.664062 261.785156 108.820312 260.554688 C 107.71875 258.871094 108.042969 257.3125 109.921875 256.535156 C 111.539062 255.824219 113.355469 255.433594 115.101562 255.238281 C 120.414062 254.65625 125.726562 255.238281 131.035156 256.082031 C 143.148438 257.960938 154.871094 261.203125 165.882812 266.714844 C 169.121094 268.332031 172.035156 270.539062 175.078125 272.613281 C 175.921875 273.195312 176.570312 274.039062 177.152344 274.878906 C 178.382812 276.695312 177.992188 278.378906 175.984375 279.222656 C 174.367188 279.9375 172.554688 280.261719 170.804688 280.714844 C 169.832031 280.972656 168.859375 281.101562 167.890625 281.425781 C 166.464844 281.878906 166.398438 282.269531 167.113281 283.695312 C 163.613281 283.242188 160.183594 282.722656 156.75 282.269531 C 153.769531 281.878906 150.789062 281.425781 147.8125 281.039062 C 145.933594 280.777344 142.824219 278.121094 142.304688 276.304688 C 141.980469 275.074219 142.433594 274.101562 143.472656 273.582031 C 144.765625 273 146.128906 272.546875 147.550781 272.09375 C 148.589844 271.769531 149.691406 271.574219 150.660156 271.25 C 151.113281 271.121094 151.503906 270.667969 151.957031 270.40625 C 151.632812 269.953125 151.4375 269.304688 150.984375 269.046875 C 149.367188 268.203125 147.746094 267.167969 145.996094 266.714844 C 143.667969 266.128906 141.203125 265.871094 138.808594 265.675781 C 138.226562 265.609375 137.578125 266.128906 136.929688 266.453125 C 137.253906 267.035156 137.511719 267.621094 137.835938 268.203125 C 137.964844 268.398438 138.226562 268.59375 138.550781 268.980469 Z M 138.550781 268.980469 " fill-opacity="1" fill-rule="nonzero"/><path fill="#959799" d="M 39.777344 223.804688 C 48.195312 226.332031 56.875 226.847656 65.8125 227.496094 C 64.066406 224.320312 63.351562 221.144531 63.613281 217.710938 C 63.613281 217.386719 63.675781 216.996094 63.804688 216.671875 C 63.871094 216.542969 64.066406 216.414062 64.324219 216.15625 C 64.582031 216.671875 64.777344 217.125 64.972656 217.515625 C 66.460938 220.820312 67.953125 224.0625 69.507812 227.367188 C 69.636719 227.691406 70.152344 227.953125 70.542969 228.015625 C 84.015625 229.636719 97.484375 231.386719 111.023438 232.878906 C 126.566406 234.5625 142.175781 236.117188 157.589844 239.101562 C 168.601562 241.238281 179.160156 245 189.714844 248.824219 C 192.695312 249.925781 195.871094 250.703125 198.980469 251.285156 C 200.792969 251.609375 202.734375 251.15625 204.613281 250.960938 C 205.972656 250.832031 207.269531 250.378906 208.628906 250.378906 C 209.210938 250.378906 210.054688 251.027344 210.25 251.546875 C 210.378906 251.933594 209.792969 253.035156 209.277344 253.164062 C 207.527344 253.75 205.648438 254.332031 203.769531 254.527344 C 198.007812 255.175781 192.242188 254.914062 186.542969 253.554688 C 185.117188 253.230469 183.757812 252.839844 182.398438 252.324219 C 169.25 247.332031 155.582031 244.285156 141.722656 242.148438 C 123.910156 239.425781 106.101562 236.703125 88.289062 233.980469 C 76.628906 232.230469 64.84375 230.671875 53.183594 228.730469 C 49.105469 228.082031 45.21875 226.460938 41.265625 225.230469 C 40.683594 225.035156 40.164062 224.582031 39.582031 224.257812 C 39.648438 224.191406 39.710938 223.996094 39.777344 223.804688 Z M 39.777344 223.804688 " fill-opacity="1" fill-rule="nonzero"/><path fill="#959799" d="M 237.320312 105.507812 C 234.019531 104.019531 231.363281 102.007812 229.03125 99.609375 C 228.382812 98.960938 227.867188 98.25 227.410156 97.472656 C 227.28125 97.210938 227.21875 96.695312 227.410156 96.5 C 227.605469 96.304688 228.058594 96.371094 228.382812 96.304688 C 228.511719 96.304688 228.640625 96.371094 228.773438 96.433594 C 233.371094 98.636719 238.097656 100.777344 242.632812 103.109375 C 243.472656 103.5625 244.1875 104.859375 244.25 105.832031 C 244.316406 107.195312 244.058594 108.816406 243.34375 109.980469 C 237.257812 120.222656 233.566406 131.5 229.289062 142.519531 C 224.238281 155.808594 220.546875 169.484375 216.855469 183.160156 C 214.523438 191.914062 211.738281 200.597656 209.148438 209.285156 C 208.695312 210.902344 207.785156 212.394531 208.109375 214.339844 C 208.371094 215.636719 207.140625 216.609375 205.910156 216.867188 C 204.613281 217.125 203.1875 217.257812 201.894531 217.125 C 198.070312 216.800781 194.25 216.347656 190.429688 215.832031 C 189.457031 215.699219 188.421875 215.507812 187.578125 215.050781 C 186.996094 214.792969 186.414062 214.082031 186.347656 213.496094 C 186.347656 212.914062 186.867188 212.007812 187.386719 211.8125 C 189.328125 211.164062 191.335938 210.578125 193.410156 210.386719 C 197.488281 210.0625 201.570312 209.738281 205.390625 210.710938 C 209.148438 192.625 214.394531 174.996094 219.121094 157.300781 C 223.785156 139.667969 230.519531 122.621094 237.320312 105.507812 Z M 237.320312 105.507812 " fill-opacity="1" fill-rule="nonzero"/><path fill="#959799" d="M 118.472656 61.300781 C 118.601562 64.671875 116.917969 67.007812 115.167969 69.339844 C 113.871094 71.027344 112.835938 72.90625 111.476562 74.527344 C 110.308594 75.953125 109.015625 77.378906 107.523438 78.480469 C 106.8125 79 105.515625 79 104.546875 78.804688 C 102.34375 78.480469 100.140625 77.894531 97.9375 77.441406 C 97.03125 77.25 96.125 77.183594 95.285156 76.988281 C 94.960938 76.925781 94.636719 76.664062 94.3125 76.535156 C 94.507812 76.210938 94.636719 75.757812 94.960938 75.628906 C 95.929688 75.238281 96.96875 74.71875 98.003906 74.65625 C 101.308594 74.527344 104.609375 74.460938 107.523438 75.304688 C 108.042969 72.515625 108.496094 69.664062 109.210938 66.878906 C 109.792969 64.542969 110.761719 62.339844 112.640625 60.65625 C 113.9375 59.488281 115.363281 58.773438 117.175781 59.617188 C 117.5 59.8125 117.953125 59.8125 118.339844 59.746094 C 127.601562 58.96875 136.734375 60.007812 145.867188 61.042969 C 155.195312 62.144531 164.523438 63.054688 173.847656 64.285156 C 189.132812 66.230469 204.289062 68.886719 218.992188 73.683594 C 221.257812 74.394531 223.589844 74.914062 225.921875 75.433594 C 230.714844 76.46875 231.882812 78.15625 230.910156 83.015625 C 230.195312 86.453125 229.417969 89.824219 228.644531 93.195312 C 228.511719 93.648438 228.382812 94.164062 228.125 94.621094 C 227.929688 94.945312 227.476562 95.398438 227.21875 95.398438 C 226.894531 95.398438 226.375 94.945312 226.3125 94.621094 C 225.921875 93.257812 225.597656 91.898438 225.46875 90.535156 C 225.273438 88.265625 225.273438 85.933594 225.273438 83.664062 C 225.273438 82.886719 225.015625 82.5625 224.304688 82.304688 C 209.210938 76.339844 193.472656 72.710938 177.539062 69.792969 C 163.746094 67.199219 149.882812 65.0625 136.023438 62.988281 C 130.386719 62.015625 124.496094 61.820312 118.472656 61.300781 Z M 118.472656 61.300781 " fill-opacity="1" fill-rule="nonzero"/><path fill="#959799" d="M 132.65625 300.871094 C 133.171875 300.871094 133.628906 300.742188 134.144531 300.808594 C 140.621094 301.648438 147.097656 302.429688 153.574219 303.398438 C 164.003906 304.890625 174.496094 305.992188 185.054688 306.578125 C 193.925781 307.03125 202.800781 307.871094 211.542969 309.492188 C 218.34375 310.789062 225.210938 311.179688 232.140625 311.242188 C 233.046875 311.242188 233.953125 311.179688 234.859375 311.371094 C 236.867188 311.761719 238.683594 311.890625 240.234375 309.945312 C 240.820312 309.167969 242.242188 309.039062 243.34375 308.519531 C 243.085938 308.195312 242.890625 307.871094 242.566406 307.613281 C 237.257812 302.621094 232.011719 297.5 226.570312 292.640625 C 218.796875 285.703125 211.933594 277.863281 205.003906 270.148438 C 204.355469 269.433594 203.769531 269.242188 202.800781 269.371094 C 201.308594 269.5 199.820312 269.433594 198.394531 269.242188 C 195.609375 268.917969 192.824219 268.59375 190.105469 268.140625 C 189.523438 268.074219 189.003906 267.621094 188.421875 267.296875 C 188.875 266.84375 189.261719 266.066406 189.847656 265.933594 C 191.53125 265.609375 193.214844 265.285156 194.898438 265.351562 C 197.746094 265.480469 200.664062 265.871094 203.511719 266.324219 C 204.160156 266.453125 204.808594 267.101562 205.390625 267.554688 C 205.648438 267.75 205.777344 268.140625 206.039062 268.398438 C 215.171875 276.695312 224.238281 284.992188 233.371094 293.289062 C 238.226562 297.695312 243.152344 302.105469 248.074219 306.511719 C 249.953125 308.132812 250.273438 309.296875 249.367188 311.371094 C 248.851562 312.539062 247.945312 312.992188 246.777344 313.253906 C 245.804688 313.445312 244.769531 313.769531 243.863281 314.160156 C 243.472656 314.289062 242.957031 314.9375 243.019531 315.199219 C 243.152344 315.714844 243.605469 316.234375 244.058594 316.492188 C 244.769531 316.882812 245.742188 317.011719 245.480469 318.113281 C 245.222656 319.152344 244.316406 319.152344 243.410156 319.28125 C 240.882812 319.667969 238.421875 318.828125 236.15625 318.050781 C 233.371094 317.078125 230.519531 316.558594 227.605469 316.105469 C 218.34375 314.679688 209.082031 313.253906 199.820312 311.695312 C 190.105469 310.078125 180.324219 309.167969 170.546875 308.003906 C 163.097656 307.09375 155.777344 305.605469 148.394531 304.371094 C 143.796875 303.59375 139.132812 302.816406 134.535156 301.972656 C 133.886719 301.84375 133.238281 301.585938 132.589844 301.390625 C 132.65625 301.261719 132.65625 301.066406 132.65625 300.871094 Z M 132.65625 300.871094 " fill-opacity="1" fill-rule="nonzero"/><path fill="#959799" d="M 277.929688 281.101562 C 277.089844 282.722656 276.3125 284.34375 275.46875 285.964844 C 274.433594 287.910156 273.332031 289.851562 272.230469 291.734375 C 272.167969 291.863281 272.101562 291.992188 272.039062 292.058594 C 271 294.457031 269.382812 294.972656 267.4375 293.09375 C 265.105469 290.824219 263.097656 288.234375 261.089844 285.769531 C 259.472656 283.761719 257.917969 281.621094 256.363281 279.546875 C 252.996094 275.140625 249.628906 270.730469 246.257812 266.324219 C 244.316406 263.730469 242.308594 261.136719 240.429688 258.546875 C 239.71875 257.574219 239.265625 256.535156 238.746094 255.433594 C 238.617188 255.109375 238.746094 254.398438 238.941406 254.269531 C 239.265625 254.074219 239.914062 254.007812 240.300781 254.203125 C 240.882812 254.527344 241.402344 255.109375 241.855469 255.628906 C 245.675781 260.359375 249.5 265.15625 253.382812 269.824219 C 255.714844 272.675781 258.113281 275.398438 260.445312 278.1875 C 261.675781 279.613281 262.777344 281.167969 263.941406 282.660156 C 265.625 284.734375 267.375 286.871094 269.121094 289.011719 C 269.382812 288.6875 269.511719 288.558594 269.578125 288.425781 C 271 285.445312 272.425781 282.464844 273.785156 279.480469 C 274.824219 277.34375 276.570312 276.4375 278.839844 276.4375 C 280.328125 276.4375 281.882812 276.695312 283.371094 276.953125 C 284.214844 277.148438 284.601562 277.019531 285.121094 276.304688 C 288.101562 272.417969 289.71875 267.878906 291.015625 263.277344 C 294.707031 250.378906 299.371094 237.804688 304.164062 225.292969 C 306.6875 218.8125 308.695312 212.136719 310.898438 205.589844 C 314.65625 194.441406 318.410156 183.226562 322.167969 172.078125 C 322.492188 171.105469 322.816406 170.132812 323.140625 169.160156 C 323.269531 169.160156 323.398438 169.160156 323.527344 169.226562 C 323.464844 169.9375 323.527344 170.714844 323.335938 171.429688 C 322.105469 175.96875 320.875 180.570312 319.449219 185.105469 C 314.851562 199.949219 310.25 214.792969 305.585938 229.636719 C 302.347656 240.074219 298.917969 250.445312 295.871094 260.945312 C 294.1875 266.714844 293.152344 272.613281 291.921875 278.511719 C 291.339844 281.296875 290.109375 282.335938 287.515625 283.113281 C 284.34375 284.085938 281.6875 283.175781 279.03125 281.621094 C 278.839844 281.492188 278.644531 281.425781 278.449219 281.296875 C 278.320312 281.167969 278.253906 281.167969 277.929688 281.101562 Z M 277.929688 281.101562 " fill-opacity="1" fill-rule="nonzero"/><path fill="#959799" d="M 271 118.019531 C 270.417969 119.832031 269.898438 121.714844 269.316406 123.527344 C 264.265625 140.121094 259.34375 156.714844 254.226562 173.308594 C 250.535156 185.234375 246.648438 197.03125 243.019531 208.960938 C 242.179688 211.8125 241.726562 214.792969 241.335938 217.710938 C 240.820312 221.144531 241.921875 224.386719 243.539062 227.304688 C 245.417969 230.738281 246.066406 234.175781 245.222656 238 C 244.25 242.082031 243.472656 246.230469 242.503906 250.3125 C 242.308594 251.027344 241.921875 251.738281 241.464844 252.324219 C 240.753906 253.164062 239.71875 253.425781 238.617188 253.035156 C 237.515625 252.582031 236.867188 251.738281 236.933594 250.507812 C 236.996094 249.796875 237.128906 249.082031 237.449219 248.433594 C 239.457031 244.414062 240.558594 240.074219 241.273438 235.664062 C 241.402344 234.953125 241.273438 234.109375 240.949219 233.460938 C 240.367188 232.035156 239.652344 230.671875 238.875 229.3125 C 237.386719 226.65625 236.542969 223.804688 236.15625 220.886719 C 235.960938 219.589844 235.960938 218.230469 236.351562 216.996094 C 240.300781 204.359375 244.121094 191.589844 248.460938 179.078125 C 254.875 160.539062 261.738281 142.132812 268.410156 123.660156 C 269.121094 121.714844 269.964844 119.832031 270.742188 117.953125 C 270.808594 117.953125 270.871094 118.019531 271 118.019531 Z M 271 118.019531 " fill-opacity="1" fill-rule="nonzero"/><path fill="#959799" d="M 319.578125 145.371094 C 317.179688 142.78125 314.65625 140.640625 312.84375 137.984375 C 307.140625 129.75 300.601562 122.230469 293.800781 114.90625 C 291.726562 112.640625 289.785156 110.242188 287.582031 107.582031 C 287.453125 107.777344 287.324219 108.167969 287.128906 108.425781 C 285.769531 110.304688 284.410156 112.183594 282.984375 113.933594 C 281.6875 115.554688 280.714844 115.816406 278.839844 115.101562 C 277.347656 114.582031 275.859375 114.128906 274.433594 113.417969 C 273.914062 113.15625 273.59375 112.445312 273.203125 111.992188 C 273.785156 111.667969 274.371094 111.082031 274.953125 111.019531 C 276.246094 110.890625 277.542969 111.082031 278.839844 111.019531 C 279.292969 111.019531 279.9375 110.695312 280.199219 110.304688 C 281.171875 108.816406 282.078125 107.195312 282.917969 105.636719 C 284.214844 103.242188 285.25 102.851562 287.648438 104.019531 C 288.359375 104.40625 289.265625 104.601562 289.847656 105.183594 C 295.679688 111.40625 301.507812 117.628906 307.273438 123.980469 C 309.472656 126.445312 311.351562 129.167969 313.554688 131.632812 C 315.691406 134.09375 317.894531 136.492188 320.097656 138.761719 C 321.390625 140.121094 322.816406 141.355469 322.039062 143.558594 C 321.972656 143.6875 322.039062 143.945312 322.105469 144.074219 C 323.464844 145.4375 322.816406 147.058594 322.492188 148.546875 C 322.039062 150.621094 321.519531 152.695312 320.9375 154.707031 C 320.613281 155.742188 320.679688 156.519531 321.457031 157.300781 C 322.296875 158.140625 323.074219 159.113281 323.851562 160.023438 C 324.433594 160.734375 325.019531 161.382812 325.535156 162.160156 C 326.507812 163.585938 326.3125 165.140625 325.210938 166.050781 C 324.046875 167.023438 322.234375 166.890625 321.195312 165.53125 C 319.511719 163.261719 317.828125 160.929688 316.46875 158.464844 C 316.015625 157.625 316.082031 156.261719 316.402344 155.226562 C 317.3125 151.984375 318.410156 148.871094 319.449219 145.695312 C 319.511719 145.503906 319.578125 145.242188 319.578125 145.371094 Z M 319.578125 145.371094 " fill-opacity="1" fill-rule="nonzero"/><path fill="#959799" d="M 76.242188 238.710938 C 77.082031 238.777344 77.992188 238.710938 78.832031 238.839844 C 93.277344 240.980469 107.65625 243.117188 122.097656 245.324219 C 132.460938 246.941406 142.890625 248.695312 153.25 250.445312 C 162.058594 251.933594 170.867188 253.554688 179.613281 255.109375 C 181.230469 255.371094 182.785156 255.695312 183.433594 257.636719 C 183.5625 258.09375 184.277344 258.285156 184.601562 258.742188 C 185.441406 259.972656 186.347656 261.136719 186.929688 262.433594 C 187.386719 263.601562 187.0625 264.832031 185.832031 265.480469 C 184.664062 266.128906 183.5625 265.675781 182.785156 264.769531 C 182.074219 263.992188 181.492188 263.019531 181.101562 262.046875 C 180.324219 260.296875 179.355469 259.257812 177.214844 258.871094 C 168.34375 257.25 159.535156 255.238281 150.660156 253.554688 C 139.261719 251.414062 127.863281 249.40625 116.464844 247.332031 C 105.839844 245.386719 95.285156 243.3125 84.660156 241.304688 C 82.265625 240.851562 79.933594 240.265625 77.539062 239.683594 C 77.082031 239.554688 76.628906 239.359375 76.242188 239.230469 C 76.175781 239.035156 76.175781 238.90625 76.242188 238.710938 Z M 76.242188 238.710938 " fill-opacity="1" fill-rule="nonzero"/><path fill="#959799" d="M 285.960938 219.914062 C 286.417969 212.589844 288.101562 206.753906 291.855469 201.636719 C 292.828125 200.339844 293.992188 199.171875 295.355469 198.265625 C 297.878906 196.578125 300.210938 197.355469 301.3125 200.210938 C 301.765625 201.3125 302.089844 202.476562 302.15625 203.578125 C 302.609375 211.226562 300.601562 218.164062 295.9375 224.191406 C 295.160156 225.230469 294.125 226.136719 293.023438 226.785156 C 290.496094 228.46875 288.101562 227.691406 287.0625 224.839844 C 286.351562 223.023438 286.15625 220.886719 285.960938 219.914062 Z M 285.960938 219.914062 " fill-opacity="1" fill-rule="nonzero"/><path fill="#959799" d="M 177.023438 297.5 C 168.277344 296.855469 160.3125 294.714844 152.929688 290.5 C 152.019531 289.984375 151.113281 289.398438 150.46875 288.621094 C 149.820312 287.910156 149.171875 286.871094 149.234375 285.964844 C 149.300781 284.734375 150.660156 284.410156 151.761719 284.34375 C 153.898438 284.214844 156.101562 284.019531 158.238281 284.277344 C 165.105469 285.058594 171.710938 287 177.800781 290.371094 C 179.222656 291.148438 180.519531 292.121094 181.683594 293.222656 C 183.371094 294.84375 182.980469 296.398438 180.714844 296.984375 C 179.417969 297.308594 177.992188 297.371094 177.023438 297.5 Z M 177.023438 297.5 " fill-opacity="1" fill-rule="nonzero"/><path fill="#959799" d="M 73.199219 242.859375 C 73.003906 242.148438 72.746094 241.5 72.746094 240.851562 C 72.746094 240.265625 72.875 239.554688 73.261719 239.164062 C 73.523438 238.90625 74.429688 238.777344 74.6875 239.035156 C 75.140625 239.359375 75.335938 240.007812 75.464844 240.589844 C 75.660156 241.304688 75.59375 242.082031 75.722656 242.859375 C 75.917969 244.285156 75.53125 245.0625 74.167969 245.453125 C 72.9375 245.777344 71.707031 245.839844 70.414062 245.972656 C 69.765625 246.035156 69.050781 245.972656 68.144531 245.972656 C 68.535156 246.488281 68.792969 246.878906 69.050781 247.265625 C 77.214844 257.769531 85.503906 268.074219 94.636719 277.730469 C 97.746094 281.039062 100.59375 284.667969 103.445312 288.167969 C 103.769531 288.558594 103.769531 289.269531 103.898438 289.789062 C 103.316406 289.59375 102.539062 289.660156 102.148438 289.269531 C 98.78125 285.769531 95.671875 282.011719 92.175781 278.769531 C 84.078125 271.316406 77.34375 262.757812 70.285156 254.398438 C 68.597656 252.386719 66.65625 250.507812 64.84375 248.5625 C 64.257812 247.914062 63.484375 247.265625 63.160156 246.488281 C 62.835938 245.710938 62.707031 244.609375 63.027344 244.027344 C 63.351562 243.507812 64.453125 243.3125 65.230469 243.25 C 67.5625 243.117188 69.894531 243.117188 72.226562 243.054688 C 72.550781 243.054688 72.808594 242.988281 73.199219 242.859375 Z M 73.199219 242.859375 " fill-opacity="1" fill-rule="nonzero"/><path fill="#959799" d="M 81.359375 182.125 C 81.617188 181.542969 81.8125 181.023438 82.070312 180.503906 C 87.898438 170.652344 95.476562 162.289062 104.417969 155.160156 C 105.0625 154.640625 105.777344 154.253906 106.488281 153.863281 C 106.746094 153.734375 107.203125 153.929688 107.589844 153.929688 C 107.523438 154.316406 107.523438 154.707031 107.394531 155.03125 C 107.332031 155.226562 107.136719 155.417969 106.941406 155.550781 C 99.039062 163.714844 91.914062 172.53125 84.855469 181.347656 C 84.402344 181.929688 83.882812 182.578125 83.238281 182.96875 C 82.914062 183.226562 82.265625 183.226562 81.875 183.03125 C 81.683594 183.03125 81.554688 182.511719 81.359375 182.125 Z M 81.359375 182.125 " fill-opacity="1" fill-rule="nonzero"/><path fill="#959799" d="M 109.855469 289.011719 C 112.769531 289.722656 115.363281 290.371094 118.019531 290.957031 C 118.664062 291.085938 119.378906 291.019531 120.027344 291.148438 C 120.933594 291.410156 122.097656 291.472656 122.746094 292.121094 C 125.402344 294.585938 127.925781 297.242188 130.453125 299.898438 C 130.710938 300.160156 130.972656 300.613281 131.035156 300.9375 C 131.101562 301.261719 131.035156 301.84375 130.84375 302.039062 C 130.648438 302.234375 130.066406 302.234375 129.742188 302.167969 C 129.351562 302.039062 128.964844 301.78125 128.574219 301.519531 C 125.660156 299.511719 122.746094 297.566406 119.894531 295.558594 C 119.570312 295.296875 119.117188 295.105469 118.988281 294.78125 C 118.40625 293.09375 116.980469 293.289062 115.6875 292.964844 C 113.613281 292.511719 111.539062 292.058594 109.53125 291.472656 C 109.144531 291.34375 108.625 290.5 108.691406 290.046875 C 108.691406 289.59375 109.46875 289.269531 109.855469 289.011719 Z M 109.855469 289.011719 " fill-opacity="1" fill-rule="nonzero"/><path fill="#959799" d="M 108.753906 140.640625 C 108.496094 140.964844 108.238281 141.289062 107.914062 141.613281 C 100.855469 148.613281 93.859375 155.613281 86.800781 162.613281 C 86.347656 163.066406 85.699219 163.261719 85.179688 163.585938 C 85.308594 162.9375 85.308594 162.160156 85.699219 161.707031 C 89.648438 156.390625 94.117188 151.53125 99.234375 147.316406 C 101.824219 145.179688 104.417969 143.105469 107.070312 141.09375 C 107.523438 140.769531 108.042969 140.574219 108.496094 140.316406 C 108.5625 140.382812 108.691406 140.511719 108.753906 140.640625 Z M 108.753906 140.640625 " fill-opacity="1" fill-rule="nonzero"/><path fill="#959799" d="M 291.339844 147.382812 C 293.992188 147.964844 296.648438 148.355469 299.242188 149.132812 C 302.347656 150.105469 305.394531 151.402344 308.503906 152.566406 C 309.148438 152.828125 309.796875 153.085938 310.25 153.539062 C 310.640625 153.929688 310.769531 154.578125 311.027344 155.09375 C 310.511719 155.226562 309.925781 155.613281 309.472656 155.484375 C 307.207031 154.835938 304.875 154.121094 302.609375 153.34375 C 298.59375 152.046875 294.578125 150.6875 290.5625 149.328125 C 290.238281 149.195312 289.914062 149.195312 289.65625 149.003906 C 289.332031 148.808594 289.136719 148.484375 288.878906 148.222656 C 289.203125 148.03125 289.523438 147.769531 289.847656 147.707031 C 290.300781 147.640625 290.753906 147.707031 291.210938 147.707031 C 291.339844 147.578125 291.339844 147.445312 291.339844 147.382812 Z M 291.339844 147.382812 " fill-opacity="1" fill-rule="nonzero"/><path fill="#959799" d="M 285.769531 136.296875 C 286.285156 136.167969 286.871094 135.972656 287.386719 136.039062 C 294.316406 136.167969 301.183594 136.945312 307.789062 139.085938 C 308.050781 139.148438 308.371094 139.214844 308.503906 139.410156 C 308.824219 139.796875 309.019531 140.25 309.28125 140.640625 C 308.890625 140.835938 308.4375 141.222656 308.050781 141.222656 C 307.140625 141.222656 306.234375 140.964844 305.394531 140.835938 C 299.109375 139.605469 292.828125 138.4375 286.546875 137.207031 C 286.285156 137.140625 286.027344 136.945312 285.769531 136.816406 C 285.769531 136.621094 285.769531 136.492188 285.769531 136.296875 Z M 285.769531 136.296875 " fill-opacity="1" fill-rule="nonzero"/><path fill="#959799" d="M 98.394531 181.476562 C 98.070312 182.191406 97.875 182.773438 97.550781 183.292969 C 95.21875 186.660156 92.886719 189.96875 90.554688 193.273438 C 90.101562 193.921875 89.453125 194.503906 88.613281 193.988281 C 87.769531 193.46875 88.03125 192.625 88.417969 191.914062 C 90.363281 187.894531 92.886719 184.199219 96.0625 180.957031 C 96.449219 180.570312 97.226562 180.4375 97.875 180.4375 C 97.9375 180.4375 98.132812 181.152344 98.394531 181.476562 Z M 98.394531 181.476562 " fill-opacity="1" fill-rule="nonzero"/><path fill="#959799" d="M 302.347656 164.949219 C 302.542969 165.011719 302.800781 164.949219 303.0625 165.140625 C 304.808594 166.308594 306.625 167.410156 308.308594 168.640625 C 308.695312 168.964844 308.695312 169.746094 308.890625 170.261719 C 308.242188 170.261719 307.59375 170.523438 307.078125 170.328125 C 305.585938 169.679688 304.164062 168.964844 302.738281 168.125 C 302.15625 167.800781 301.570312 167.214844 301.25 166.632812 C 300.730469 165.855469 301.3125 165.011719 302.347656 164.949219 Z M 302.347656 164.949219 " fill-opacity="1" fill-rule="nonzero"/><path fill="#959799" d="M 229.484375 66.746094 C 229.875 65.96875 230.132812 65.191406 230.519531 64.542969 C 231.621094 62.664062 233.304688 61.367188 235.3125 60.65625 C 235.636719 60.523438 236.089844 60.785156 236.542969 60.847656 C 236.414062 61.238281 236.480469 61.691406 236.21875 61.949219 C 234.601562 63.832031 232.980469 65.644531 231.296875 67.460938 C 231.039062 67.71875 230.457031 67.847656 230.132812 67.785156 C 229.875 67.65625 229.742188 67.136719 229.484375 66.746094 Z M 229.484375 66.746094 " fill-opacity="1" fill-rule="nonzero"/><path fill="#959799" d="M 251.828125 68.433594 C 251.375 69.082031 251.246094 69.339844 251.050781 69.535156 C 248.980469 71.089844 246.90625 72.710938 244.769531 74.203125 C 244.382812 74.460938 243.734375 74.332031 243.214844 74.332031 C 243.34375 73.8125 243.28125 73.164062 243.605469 72.90625 C 245.613281 71.285156 247.75 69.730469 249.886719 68.304688 C 250.210938 68.109375 250.921875 68.367188 251.828125 68.433594 Z M 251.828125 68.433594 " fill-opacity="1" fill-rule="nonzero"/><path fill="#959799" d="M 74.234375 220.171875 C 74.429688 219.914062 74.6875 219.460938 74.945312 219.007812 C 75.398438 219.265625 75.984375 219.460938 76.175781 219.914062 C 77.082031 221.730469 77.925781 223.542969 78.703125 225.421875 C 78.832031 225.8125 78.574219 226.394531 78.445312 226.914062 C 77.925781 226.785156 77.277344 226.847656 77.019531 226.589844 C 75.53125 224.773438 74.492188 222.765625 74.234375 220.171875 Z M 74.234375 220.171875 " fill-opacity="1" fill-rule="nonzero"/><path fill="#959799" d="M 55.0625 216.738281 C 55.0625 216.414062 55.0625 216.089844 55.128906 215.832031 C 55.257812 215.570312 55.453125 215.246094 55.710938 215.183594 C 55.90625 215.117188 56.359375 215.375 56.421875 215.570312 C 57.136719 217.839844 57.847656 220.109375 58.429688 222.378906 C 58.625 223.089844 58.042969 223.347656 57.394531 223.023438 C 57.070312 222.894531 56.8125 222.570312 56.683594 222.246094 C 56.035156 220.433594 55.386719 218.617188 54.738281 216.867188 C 54.933594 216.800781 54.996094 216.738281 55.0625 216.738281 Z M 55.0625 216.738281 " fill-opacity="1" fill-rule="nonzero"/></svg>