<svg xmlns="http://www.w3.org/2000/svg" xmlns:xlink="http://www.w3.org/1999/xlink" width="500" zoomAndPan="magnify" viewBox="0 0 375 374.999991" height="500" preserveAspectRatio="xMidYMid meet" version="1.0"><rect x="-37.5" width="450" fill="#ffffff" y="-37.499999" height="449.999989" fill-opacity="1"/><rect x="-37.5" width="450" fill="#ffde59" y="-37.499999" height="449.999989" fill-opacity="1"/><path fill="#959799" d="M 122.863281 256.019531 C 122.863281 256.019531 139.582031 321.414062 120.855469 326.097656 C 102.128906 330.777344 94.175781 321.414062 94.175781 321.414062 C 76.191406 304.027344 92.839844 292.730469 92.839844 292.730469 C 116.84375 270.730469 117.808594 254.160156 117.808594 254.160156 Z M 232.996094 192.105469 C 281.003906 241.898438 294.601562 199.316406 294.601562 199.316406 C 337.183594 174.867188 316.300781 59.898438 316.300781 59.898438 C 290.960938 13.75 230.46875 83.382812 230.46875 83.382812 Z M 123.160156 92.746094 C 123.160156 92.746094 62.742188 23.113281 37.328125 69.261719 C 37.328125 69.261719 16.519531 184.230469 59.027344 208.679688 C 59.027344 208.679688 72.625 251.261719 120.632812 201.46875 Z M 242.953125 245.984375 L 231.582031 262.039062 L 250.238281 313.464844 L 257.222656 313.390625 C 270.894531 311.976562 274.238281 306.179688 274.238281 306.179688 C 288.953125 290.128906 276.914062 275.488281 276.914062 275.488281 L 249.269531 251.410156 Z M 242.953125 245.984375 " fill-opacity="1" fill-rule="nonzero"/><path fill="#facee1" d="M 239.164062 95.125 C 239.164062 95.125 283.753906 43.773438 302.40625 77.808594 C 302.40625 77.808594 317.789062 162.605469 286.351562 180.589844 C 286.351562 180.589844 276.320312 211.949219 240.949219 175.238281 Z M 114.464844 104.488281 C 114.464844 104.488281 69.875 53.136719 51.222656 87.171875 C 51.222656 87.171875 35.839844 171.96875 67.277344 189.953125 C 67.277344 189.953125 77.308594 221.3125 112.679688 184.601562 Z M 114.464844 104.488281 " fill-opacity="1" fill-rule="nonzero"/><path fill="#7c848d" d="M 252.6875 137.410156 C 252.6875 178.953125 219.992188 212.691406 179.636719 212.691406 C 139.285156 212.691406 106.585938 179.027344 106.585938 137.410156 C 106.585938 95.792969 139.285156 62.128906 179.636719 62.128906 C 219.992188 62.128906 252.6875 95.867188 252.6875 137.410156 Z M 123.160156 206.597656 C 123.160156 206.597656 112.828125 243.382812 120.855469 305.4375 C 120.855469 305.4375 114.835938 332.117188 122.863281 336.796875 C 122.863281 336.796875 130.21875 344.824219 140.847656 341.480469 C 140.847656 341.480469 149.542969 345.492188 153.554688 340.8125 C 153.554688 340.8125 168.269531 347.5 172.875 332.785156 C 172.875 332.785156 175.550781 318.070312 166.1875 309.449219 C 166.1875 309.449219 160.835938 291.464844 162.175781 281.433594 C 162.175781 281.433594 184.171875 284.109375 204.234375 278.757812 L 204.234375 308.78125 C 204.234375 308.78125 200.222656 317.476562 207.582031 326.171875 C 207.582031 326.171875 214.269531 340.886719 228.910156 331.523438 C 228.910156 331.523438 236.265625 338.878906 248.230469 329.515625 C 248.230469 329.515625 258.929688 322.828125 257.59375 314.800781 C 257.59375 314.800781 256.925781 308.78125 246.222656 294.140625 L 244.515625 251.929688 L 134.605469 196.34375 Z M 123.160156 206.597656 " fill-opacity="1" fill-rule="nonzero"/><path fill="#ffffff" d="M 163.882812 213.660156 C 149.167969 219.007812 139.210938 213.660156 139.210938 213.660156 C 111.863281 209.644531 116.175781 179.621094 116.175781 179.621094 C 118.550781 150.9375 149.839844 179.621094 149.839844 179.621094 C 147.238281 182.964844 163.882812 213.660156 163.882812 213.660156 Z M 201.339844 204.964844 C 216.050781 210.3125 226.011719 204.964844 226.011719 204.964844 C 253.359375 200.949219 249.046875 170.925781 249.046875 170.925781 C 246.667969 142.242188 215.382812 170.925781 215.382812 170.925781 C 218.058594 174.269531 201.339844 204.964844 201.339844 204.964844 Z M 201.339844 204.964844 " fill-opacity="1" fill-rule="nonzero"/><path fill="#959799" d="M 149.914062 179.621094 C 149.914062 179.621094 181.273438 134.882812 215.976562 170.257812 C 215.976562 170.257812 205.945312 200.28125 237.304688 208.976562 C 237.304688 208.976562 267.328125 221.683594 262.648438 200.949219 C 262.648438 200.949219 260.640625 167.582031 278.03125 177.617188 C 278.03125 177.617188 292.074219 182.964844 290.738281 202.289062 C 290.738281 202.289062 294.75 239 261.382812 248.363281 C 261.382812 248.363281 216.648438 267.015625 170.644531 221.015625 C 170.570312 221.015625 156.527344 204.964844 149.914062 179.621094 Z M 149.914062 179.621094 " fill-opacity="1" fill-rule="nonzero"/><path fill="#1a1a1a" d="M 152.886719 155.914062 C 152.886719 160.375 150.0625 163.941406 146.570312 163.941406 C 143.074219 163.941406 140.25 160.375 140.25 155.914062 C 140.25 151.457031 143.074219 147.890625 146.570312 147.890625 C 150.0625 147.890625 152.886719 151.457031 152.886719 155.914062 Z M 217.984375 143.207031 C 214.492188 143.207031 211.667969 146.773438 211.667969 151.234375 C 211.667969 155.691406 214.492188 159.257812 217.984375 159.257812 C 221.476562 159.257812 224.300781 155.691406 224.300781 151.234375 C 224.300781 146.773438 221.476562 143.207031 217.984375 143.207031 Z M 217.984375 143.207031 " fill-opacity="1" fill-rule="nonzero"/></svg>