<svg xmlns="http://www.w3.org/2000/svg" xmlns:xlink="http://www.w3.org/1999/xlink" width="500" zoomAndPan="magnify" viewBox="0 0 375 374.999991" height="500" preserveAspectRatio="xMidYMid meet" version="1.0"><rect x="-37.5" width="450" fill="#ffffff" y="-37.499999" height="449.999989" fill-opacity="1"/><rect x="-37.5" width="450" fill="#ffffff" y="-37.499999" height="449.999989" fill-opacity="1"/><rect x="-37.5" width="450" fill="#7ed957" y="-37.499999" height="449.999989" fill-opacity="1"/><path fill="#6f813a" d="M 234.023438 300.9375 C 238.71875 301.792969 240.789062 300.878906 242.191406 304.722656 C 240 307.222656 235.183594 304.476562 233.535156 305.332031 C 232.132812 306.0625 239.023438 306.792969 238.597656 310.699219 C 238.472656 311.734375 226.644531 314.113281 226.644531 306.855469 C 226.644531 304.78125 221.648438 310.089844 219.332031 308.6875 C 218.597656 308.257812 223.535156 305.515625 224.390625 300.695312 C 225.488281 294.59375 222.746094 286.054688 223.050781 284.957031 C 225.488281 276.050781 232.074219 279.46875 234.023438 285.261719 C 236.097656 291.546875 233.414062 300.816406 234.023438 300.9375 Z M 234.023438 300.9375 " fill-opacity="1" fill-rule="evenodd"/><path fill="#96ba34" d="M 243.65625 166.320312 C 243.65625 166.320312 253.226562 170.652344 256.824219 173.394531 C 261.398438 176.933594 279.324219 185.535156 282.554688 180.59375 C 285.175781 176.628906 285.113281 174.3125 289.199219 174.496094 C 290.664062 177.484375 286.210938 180.898438 286.394531 182.730469 C 286.515625 184.316406 291.027344 184.375 294.441406 186.328125 C 295.355469 186.875 291.761719 192.550781 285.113281 189.683594 C 283.226562 188.890625 286.152344 195.597656 283.957031 197.125 C 282.433594 198.222656 278.652344 191.207031 271.824219 186.511719 C 267.617188 183.582031 250.910156 179.921875 243.535156 174.25 C 235.914062 168.394531 245.300781 167.601562 243.65625 166.320312 Z M 243.65625 166.320312 " fill-opacity="1" fill-rule="evenodd"/><path fill="#6d952c" d="M 234.695312 141.859375 C 272.921875 175.714844 263.835938 263.304688 217.441406 297.585938 C 151.472656 346.320312 37.585938 307.648438 43.984375 258.972656 C 58.070312 265.621094 83.003906 312.164062 116.660156 275.015625 C 125.074219 265.683594 115.683594 239.148438 122.695312 205.480469 C 134.949219 146.800781 185.1875 98.128906 234.695312 141.859375 Z M 234.695312 141.859375 " fill-opacity="1" fill-rule="evenodd"/><path fill="#6d952c" d="M 145.132812 172.664062 C 145.132812 172.664062 136.476562 178.703125 132.269531 180.351562 C 126.839844 182.484375 110.320312 193.402344 112.878906 198.710938 C 114.953125 202.980469 116.902344 204.136719 114.648438 207.554688 C 111.355469 207.308594 110.683594 201.699219 109.039062 200.90625 C 107.636719 200.234375 105.257812 204.015625 101.84375 205.96875 C 100.929688 206.515625 97.882812 200.480469 103.734375 196.207031 C 105.382812 194.988281 98.125 194.074219 97.941406 191.390625 C 97.820312 189.5 105.746094 189.867188 113.308594 186.449219 C 118 184.316406 129.707031 171.871094 138.363281 168.457031 C 147.386719 164.855469 143.242188 173.335938 145.132812 172.664062 Z M 145.132812 172.664062 " fill-opacity="1" fill-rule="evenodd"/><path fill="#83ae3d" d="M 183.175781 159.855469 C 187.382812 166.871094 184.152344 224.207031 182.078125 233.234375 C 168.789062 291.242188 133.121094 310.148438 99.953125 305.878906 C 70.386719 302.097656 49.230469 280.933594 46.851562 276.90625 C 66.605469 326.007812 167.996094 343.453125 223.84375 292.214844 C 233.351562 283.496094 240.730469 272.089844 247.007812 259.277344 C 260.484375 231.953125 261.703125 197.488281 253.59375 172.421875 C 243.046875 139.605469 216.648438 122.890625 183.175781 159.855469 Z M 183.175781 159.855469 " fill-opacity="1" fill-rule="evenodd"/><path fill="#759d35" d="M 202.320312 156.5 C 253.777344 170.222656 317.914062 130.273438 301.210938 106.542969 C 294.746094 97.394531 263.167969 100.078125 250.910156 100.6875 C 239.632812 46.035156 201.527344 19.320312 156.59375 37.3125 C 106.90625 57.257812 111.539062 118.253906 140.253906 145.824219 C 155.191406 160.097656 177.628906 163.453125 202.320312 156.5 Z M 202.320312 156.5 " fill-opacity="1" fill-rule="evenodd"/><path fill="#6f813a" d="M 301.574219 124.476562 C 268.105469 149.425781 216.527344 157.660156 197.871094 141.375 C 204.453125 160.34375 273.652344 152.292969 301.574219 124.476562 Z M 301.574219 124.476562 " fill-opacity="1" fill-rule="evenodd"/><path fill="#9fc243" d="M 287.738281 122.039062 C 287.675781 122.28125 284.628906 127.527344 288.832031 124.355469 C 291.457031 122.464844 288.589844 119.109375 287.738281 122.039062 Z M 287.738281 122.039062 " fill-opacity="1" fill-rule="evenodd"/><path fill="#9fc243" d="M 297.796875 111.300781 C 297.734375 111.546875 294.6875 116.792969 298.953125 113.621094 C 301.515625 111.667969 298.648438 108.3125 297.796875 111.300781 Z M 297.796875 111.300781 " fill-opacity="1" fill-rule="evenodd"/><path fill="#31302f" d="M 175.007812 131.859375 C 180.128906 133.566406 181.164062 125.085938 177.445312 123.746094 C 170.617188 121.304688 170.859375 130.453125 175.007812 131.859375 Z M 175.007812 131.859375 " fill-opacity="1" fill-rule="evenodd"/><path fill="#31302f" d="M 241.277344 98.25 C 244.875 100.6875 246.15625 93.308594 243.472656 91.480469 C 238.65625 88.125 238.351562 96.296875 241.277344 98.25 Z M 241.277344 98.25 " fill-opacity="1" fill-rule="evenodd"/><path fill="#f4afb3" d="M 181.042969 135.273438 C 176.714844 142.042969 188.785156 146.4375 192.136719 141.496094 C 198.113281 132.46875 184.515625 129.785156 181.042969 135.273438 Z M 181.042969 135.273438 " fill-opacity="1" fill-rule="evenodd"/><path fill="#6f813a" d="M 250.789062 99.894531 C 241.097656 100.871094 246.828125 100.261719 236.949219 101.726562 C 233.109375 102.273438 247.132812 100.75 252.375 100.628906 C 251.703125 100.445312 250.789062 99.894531 250.789062 99.894531 Z M 250.789062 99.894531 " fill-opacity="1" fill-rule="evenodd"/><path fill="#6f813a" d="M 175.25 320.945312 C 179.945312 321.800781 182.019531 320.886719 183.421875 324.726562 C 181.226562 327.226562 176.410156 324.484375 174.761719 325.335938 C 173.359375 326.070312 180.980469 327.351562 180.492188 331.253906 C 180.371094 332.292969 167.875 334.121094 167.875 326.863281 C 167.875 324.789062 160.375 327.898438 158.058594 326.496094 C 157.324219 326.070312 163.667969 323.8125 165.617188 320.703125 C 166.652344 317.285156 163.058594 309.90625 164.277344 304.964844 C 166.472656 296 173.300781 299.476562 175.25 305.269531 C 177.324219 311.550781 174.640625 320.824219 175.25 320.945312 Z M 175.25 320.945312 " fill-opacity="1" fill-rule="evenodd"/><path fill="#96ba34" d="M 218.964844 99.347656 C 219.878906 96.90625 219.574219 81.78125 214.390625 83.550781 C 213.113281 89.101562 217.011719 94.101562 216.832031 98.25 C 216.769531 99.53125 218.84375 99.652344 218.964844 99.347656 Z M 218.964844 99.347656 " fill-opacity="1" fill-rule="evenodd"/><path fill="#96ba34" d="M 212.320312 104.289062 C 216.953125 98.003906 213.78125 97.089844 211.222656 89.894531 C 210.550781 87.941406 207.867188 78.792969 205.917969 84.21875 C 203.785156 90.257812 209.757812 107.824219 212.320312 104.289062 Z M 212.320312 104.289062 " fill-opacity="1" fill-rule="evenodd"/><path fill="#96ba34" d="M 209.636719 105.8125 C 200.550781 116.609375 192.75 82.390625 200.308594 88 C 200.367188 88.0625 207.378906 108.433594 209.636719 105.8125 Z M 209.636719 105.8125 " fill-opacity="1" fill-rule="evenodd"/><path fill="#96ba34" d="M 194.394531 98.25 C 190.066406 97.089844 185.738281 93.125 185.917969 88.367188 C 185.917969 88.183594 190.25 84.464844 190.492188 84.769531 C 193.113281 87.878906 190.796875 91.355469 195.003906 96.90625 C 196.039062 98.25 195.246094 98.492188 194.394531 98.25 Z M 194.394531 98.25 " fill-opacity="1" fill-rule="evenodd"/><path fill="#96ba34" d="M 201.710938 85.441406 C 187.199219 81.65625 190.613281 68.484375 193.054688 68.542969 C 197.746094 68.605469 202.808594 77.449219 202.382812 84.097656 C 202.199219 85.804688 202.5625 85.683594 201.710938 85.441406 Z M 201.710938 85.441406 " fill-opacity="1" fill-rule="evenodd"/><path fill="#96ba34" d="M 211.34375 81.902344 C 214.269531 68.972656 203.171875 65.800781 202.199219 67.75 C 200.367188 71.472656 205.613281 78.488281 210.003906 81.839844 C 211.222656 82.757812 211.222656 82.695312 211.34375 81.902344 Z M 211.34375 81.902344 " fill-opacity="1" fill-rule="evenodd"/><path fill="#96ba34" d="M 188.296875 81.046875 C 180.980469 81.535156 180.25 75.191406 181.347656 74.828125 C 183.542969 74.15625 186.894531 77.632812 188.359375 80.316406 C 188.785156 81.046875 188.722656 80.988281 188.296875 81.046875 Z M 188.296875 81.046875 " fill-opacity="1" fill-rule="evenodd"/><path fill="#96ba34" d="M 187.625 74.949219 C 178.96875 71.65625 181.40625 63.910156 182.933594 64.152344 C 185.796875 64.519531 187.871094 70.3125 188.113281 74.15625 C 188.175781 75.191406 188.113281 75.132812 187.625 74.949219 Z M 187.625 74.949219 " fill-opacity="1" fill-rule="evenodd"/><path fill="#96ba34" d="M 197.136719 67.324219 C 192.992188 65.738281 189.210938 62.140625 188.847656 59.945312 C 188.417969 57.441406 192.382812 55.917969 193.113281 56.039062 C 195.980469 56.40625 199.578125 64.945312 199.820312 68.847656 C 199.882812 69.824219 197.6875 67.507812 197.136719 67.324219 Z M 197.136719 67.324219 " fill-opacity="1" fill-rule="evenodd"/><path fill="#96ba34" d="M 186.835938 63.359375 C 179.699219 61.652344 180.921875 55.367188 182.078125 55.367188 C 184.394531 55.367188 186.53125 59.699219 187.140625 62.6875 C 187.320312 63.480469 187.320312 63.480469 186.835938 63.359375 Z M 186.835938 63.359375 " fill-opacity="1" fill-rule="evenodd"/><path fill="#96ba34" d="M 200.308594 54.636719 C 206.832031 57.929688 204.332031 63.785156 203.171875 63.480469 C 200.917969 62.992188 199.757812 58.234375 199.882812 55.1875 C 199.941406 54.394531 199.941406 54.394531 200.308594 54.636719 Z M 200.308594 54.636719 " fill-opacity="1" fill-rule="evenodd"/><path fill="#96ba34" d="M 178.359375 67.507812 C 174.03125 66.347656 169.703125 62.382812 169.886719 57.625 C 169.886719 57.441406 174.214844 53.722656 174.457031 54.027344 C 177.078125 57.136719 174.761719 60.613281 178.96875 66.164062 C 180.003906 67.507812 179.273438 67.75 178.359375 67.507812 Z M 178.359375 67.507812 " fill-opacity="1" fill-rule="evenodd"/><path fill="#96ba34" d="M 185.675781 54.757812 C 171.164062 50.976562 174.578125 37.800781 177.019531 37.863281 C 181.714844 37.925781 186.773438 46.769531 186.347656 53.417969 C 186.222656 55.0625 186.589844 54.941406 185.675781 54.757812 Z M 185.675781 54.757812 " fill-opacity="1" fill-rule="evenodd"/><path fill="#96ba34" d="M 195.371094 51.160156 C 198.296875 38.230469 187.199219 35.058594 186.285156 37.007812 C 184.457031 40.730469 189.699219 47.746094 194.089844 51.097656 C 195.246094 52.015625 195.1875 51.953125 195.371094 51.160156 Z M 195.371094 51.160156 " fill-opacity="1" fill-rule="evenodd"/><path fill="#96ba34" d="M 173.117188 52.074219 C 165.800781 52.5625 165.070312 46.21875 166.167969 45.851562 C 168.359375 45.183594 171.714844 48.660156 173.175781 51.34375 C 173.605469 52.074219 173.605469 52.074219 173.117188 52.074219 Z M 173.117188 52.074219 " fill-opacity="1" fill-rule="evenodd"/><path fill="#96ba34" d="M 171.652344 44.207031 C 164.277344 41.402344 166.410156 34.875 167.628906 34.996094 C 170.066406 35.300781 171.835938 40.242188 172.019531 43.535156 C 172.140625 44.449219 172.140625 44.390625 171.652344 44.207031 Z M 171.652344 44.207031 " fill-opacity="1" fill-rule="evenodd"/><path fill="#96ba34" d="M 182.566406 37.496094 C 180.617188 36.765625 174.457031 35.972656 174.273438 34.933594 C 174.09375 33.777344 180.3125 32.191406 180.675781 32.191406 C 182.019531 32.375 183.726562 36.398438 183.847656 38.167969 C 183.847656 38.71875 182.808594 37.617188 182.566406 37.496094 Z M 182.566406 37.496094 " fill-opacity="1" fill-rule="evenodd"/><path fill="#96ba34" d="M 165.554688 61.222656 C 158.421875 59.515625 159.640625 53.234375 160.800781 53.234375 C 163.117188 53.234375 165.25 57.566406 165.859375 60.554688 C 166.042969 61.347656 165.984375 61.285156 165.554688 61.222656 Z M 165.554688 61.222656 " fill-opacity="1" fill-rule="evenodd"/><path fill="#96ba34" d="M 172.507812 67.996094 C 179.03125 71.289062 176.53125 77.144531 175.371094 76.839844 C 173.117188 76.351562 171.957031 71.65625 172.078125 68.542969 C 172.078125 67.75 172.140625 67.75 172.507812 67.996094 Z M 172.507812 67.996094 " fill-opacity="1" fill-rule="evenodd"/><path fill="#96ba34" d="M 159.765625 50.246094 C 155.375 50.125 150.558594 47.988281 149.460938 45.976562 C 148.242188 43.78125 151.472656 41.035156 152.203125 40.851562 C 155.070312 40.242188 161.226562 47.132812 162.75 50.671875 C 163.179688 51.710938 160.3125 50.246094 159.765625 50.246094 Z M 159.765625 50.246094 " fill-opacity="1" fill-rule="evenodd"/><path fill="#96ba34" d="M 151.472656 51.585938 C 144.21875 52.320312 143.242188 45.976562 144.339844 45.609375 C 146.472656 44.878906 150.007812 48.230469 151.535156 50.855469 C 151.960938 51.585938 151.898438 51.527344 151.472656 51.585938 Z M 151.472656 51.585938 " fill-opacity="1" fill-rule="evenodd"/><path fill="#96ba34" d="M 158.546875 37.191406 C 165.800781 38.105469 165.3125 44.511719 164.152344 44.632812 C 161.898438 44.878906 159.214844 40.851562 158.300781 37.925781 C 158.058594 37.070312 158.117188 37.132812 158.546875 37.191406 Z M 158.546875 37.191406 " fill-opacity="1" fill-rule="evenodd"/><path fill="#96ba34" d="M 212.195312 113.191406 C 208.234375 115.328125 206.222656 111.972656 206.769531 111.484375 C 207.808594 110.570312 210.550781 111.667969 212.074219 112.765625 C 212.5 113.070312 212.441406 113.070312 212.195312 113.191406 Z M 212.195312 113.191406 " fill-opacity="1" fill-rule="evenodd"/><path fill="#96ba34" d="M 223.71875 103.738281 C 219.757812 105.875 217.746094 102.519531 218.292969 102.03125 C 219.332031 101.117188 222.074219 102.214844 223.597656 103.3125 C 224.023438 103.617188 223.964844 103.554688 223.71875 103.738281 Z M 223.71875 103.738281 " fill-opacity="1" fill-rule="evenodd"/><path fill="#759d35" d="M 225.367188 212.3125 C 218.539062 209.6875 220.488281 203.648438 221.648438 203.773438 C 223.902344 204.078125 225.550781 208.652344 225.730469 211.703125 C 225.792969 212.496094 225.792969 212.433594 225.367188 212.3125 Z M 225.367188 212.3125 " fill-opacity="1" fill-rule="evenodd"/><path fill="#759d35" d="M 227.316406 206.457031 C 220.792969 199.808594 226.28125 193.828125 227.5625 194.621094 C 230 196.148438 229.511719 202.308594 228.109375 205.90625 C 227.683594 206.945312 227.683594 206.882812 227.316406 206.457031 Z M 227.316406 206.457031 " fill-opacity="1" fill-rule="evenodd"/><path fill="#759d35" d="M 239.144531 203.527344 C 236.035156 200.355469 234.085938 195.539062 234.695312 193.34375 C 235.363281 190.902344 239.570312 191.144531 240.242188 191.574219 C 242.679688 193.097656 242.375 202.371094 241.035156 205.96875 C 240.546875 206.945312 239.511719 203.894531 239.144531 203.527344 Z M 239.144531 203.527344 " fill-opacity="1" fill-rule="evenodd"/><path fill="#759d35" d="M 231.460938 195.597656 C 225.730469 191.085938 229.390625 185.839844 230.488281 186.328125 C 232.558594 187.304688 232.742188 192.121094 232.011719 195.109375 C 231.769531 195.902344 231.769531 195.902344 231.460938 195.597656 Z M 231.460938 195.597656 " fill-opacity="1" fill-rule="evenodd"/><path fill="#759d35" d="M 247.316406 193.28125 C 251.886719 198.953125 247.132812 203.222656 246.21875 202.492188 C 244.386719 201.089844 245.300781 196.332031 246.703125 193.585938 C 247.070312 192.914062 247.070312 192.914062 247.316406 193.28125 Z M 247.316406 193.28125 " fill-opacity="1" fill-rule="evenodd"/><path fill="#759d35" d="M 222.011719 195.902344 C 218.539062 193.035156 216.28125 187.609375 218.414062 183.398438 C 218.539062 183.214844 223.964844 181.628906 224.085938 182.058594 C 225.183594 185.960938 221.585938 188.15625 223.109375 194.929688 C 223.476562 196.574219 222.683594 196.453125 222.011719 195.902344 Z M 222.011719 195.902344 " fill-opacity="1" fill-rule="evenodd"/><path fill="#759d35" d="M 233.960938 187.304688 C 222.378906 177.847656 230.914062 167.296875 233.109375 168.332031 C 237.316406 170.347656 238.230469 180.53125 235.058594 186.328125 C 234.265625 187.792969 234.695312 187.851562 233.960938 187.304688 Z M 233.960938 187.304688 " fill-opacity="1" fill-rule="evenodd"/><path fill="#759d35" d="M 244.207031 188.097656 C 252.253906 177.605469 243.472656 170.101562 241.828125 171.445312 C 238.597656 174.066406 240.425781 182.605469 243.046875 187.488281 C 243.777344 188.828125 243.777344 188.707031 244.207031 188.097656 Z M 244.207031 188.097656 " fill-opacity="1" fill-rule="evenodd"/><path fill="#759d35" d="M 223.660156 179.679688 C 216.832031 177.054688 218.78125 171.015625 219.941406 171.140625 C 222.195312 171.445312 223.84375 176.019531 224.023438 179.070312 C 224.085938 179.863281 224.085938 179.800781 223.660156 179.679688 Z M 223.660156 179.679688 " fill-opacity="1" fill-rule="evenodd"/><path fill="#759d35" d="M 225.609375 171.871094 C 220.0625 166.257812 224.695312 161.195312 225.792969 161.867188 C 227.867188 163.148438 227.4375 168.394531 226.28125 171.445312 C 225.914062 172.296875 225.914062 172.238281 225.609375 171.871094 Z M 225.609375 171.871094 " fill-opacity="1" fill-rule="evenodd"/><path fill="#759d35" d="M 238.292969 170.347656 C 236.828125 168.882812 231.523438 165.589844 231.828125 164.550781 C 232.132812 163.394531 238.472656 164.550781 238.777344 164.734375 C 239.9375 165.46875 239.816406 169.796875 239.144531 171.503906 C 238.960938 171.933594 238.472656 170.53125 238.292969 170.347656 Z M 238.292969 170.347656 " fill-opacity="1" fill-rule="evenodd"/><path fill="#759d35" d="M 212.988281 184.800781 C 207.257812 180.289062 210.917969 175.042969 212.015625 175.53125 C 214.085938 176.507812 214.269531 181.324219 213.539062 184.316406 C 213.355469 185.109375 213.292969 185.046875 212.988281 184.800781 Z M 212.988281 184.800781 " fill-opacity="1" fill-rule="evenodd"/><path fill="#759d35" d="M 216.464844 193.828125 C 221.039062 199.5625 216.28125 203.773438 215.367188 203.039062 C 213.539062 201.636719 214.453125 196.878906 215.792969 194.136719 C 216.160156 193.464844 216.160156 193.464844 216.464844 193.828125 Z M 216.464844 193.828125 " fill-opacity="1" fill-rule="evenodd"/><path fill="#759d35" d="M 212.257812 172.421875 C 208.296875 170.46875 204.820312 166.503906 204.636719 164.246094 C 204.453125 161.746094 208.476562 160.585938 209.269531 160.769531 C 212.074219 161.378906 214.878906 170.222656 214.757812 174.128906 C 214.757812 175.164062 212.746094 172.664062 212.257812 172.421875 Z M 212.257812 172.421875 " fill-opacity="1" fill-rule="evenodd"/><path fill="#759d35" d="M 204.148438 170.164062 C 197.199219 167.785156 198.96875 161.625 200.1875 161.746094 C 202.441406 161.988281 204.210938 166.441406 204.515625 169.492188 C 204.574219 170.347656 204.574219 170.347656 204.148438 170.164062 Z M 204.148438 170.164062 " fill-opacity="1" fill-rule="evenodd"/><path fill="#759d35" d="M 216.585938 160.039062 C 222.804688 163.882812 219.695312 169.492188 218.597656 169.125 C 216.402344 168.394531 215.734375 163.636719 216.097656 160.585938 C 216.222656 159.734375 216.222656 159.792969 216.585938 160.039062 Z M 216.585938 160.039062 " fill-opacity="1" fill-rule="evenodd"/><path fill="#759d35" d="M 233.960938 231.707031 C 239.695312 227.195312 236.035156 221.949219 234.9375 222.4375 C 232.863281 223.414062 232.683594 228.230469 233.414062 231.21875 C 233.597656 232.074219 233.597656 232.011719 233.960938 231.707031 Z M 233.960938 231.707031 " fill-opacity="1" fill-rule="evenodd"/><path fill="#759d35" d="M 234.023438 210.726562 C 237.132812 214.570312 233.902344 217.496094 233.292969 217.007812 C 232.074219 216.09375 232.683594 212.859375 233.597656 210.96875 C 233.839844 210.421875 233.839844 210.480469 234.023438 210.726562 Z M 234.023438 210.726562 " fill-opacity="1" fill-rule="evenodd"/><path fill="#759d35" d="M 223.597656 235.0625 C 226.707031 238.90625 223.476562 241.832031 222.867188 241.347656 C 221.648438 240.429688 222.257812 237.199219 223.171875 235.308594 C 223.355469 234.820312 223.355469 234.878906 223.597656 235.0625 Z M 223.597656 235.0625 " fill-opacity="1" fill-rule="evenodd"/></svg>