<svg xmlns="http://www.w3.org/2000/svg" xmlns:xlink="http://www.w3.org/1999/xlink" width="500" zoomAndPan="magnify" viewBox="0 0 375 374.999991" height="500" preserveAspectRatio="xMidYMid meet" version="1.0"><rect x="-37.5" width="450" fill="#ffffff" y="-37.499999" height="449.999989" fill-opacity="1"/><rect x="-37.5" width="450" fill="#ff66c4" y="-37.499999" height="449.999989" fill-opacity="1"/><path fill="#efa895" d="M 347.296875 216.992188 C 346.546875 215.988281 345.167969 215.800781 344.164062 216.554688 C 343.164062 217.304688 342.976562 218.683594 343.726562 219.6875 C 347.550781 224.765625 348.675781 228.273438 345.417969 235.734375 C 345.292969 235.984375 345.167969 236.296875 345.042969 236.550781 C 344.542969 235.859375 343.976562 235.234375 343.476562 234.730469 C 339.78125 231.160156 333.640625 229.464844 330.570312 231.222656 C 327.875 232.726562 325.117188 236.425781 325.246094 240.121094 C 325.308594 242.816406 326.875 245.074219 329.691406 246.453125 C 332.886719 248.019531 336.585938 248.273438 339.96875 247.019531 C 340.96875 246.640625 341.972656 246.140625 342.851562 245.574219 C 342.597656 247.207031 342.035156 248.960938 341.03125 250.839844 C 334.015625 264.382812 317.289062 260.746094 316.535156 260.558594 C 316.472656 260.558594 316.410156 260.558594 316.285156 260.496094 C 317.476562 249.839844 316.472656 238.242188 312.398438 226.144531 C 299.554688 188.660156 273.929688 173.363281 258.140625 164.964844 C 248.242188 159.699219 240.285156 153.429688 235.710938 149.542969 C 235.460938 149.292969 235.148438 149.105469 234.960938 148.855469 C 234.835938 148.792969 234.773438 148.664062 234.648438 148.601562 C 244.796875 137.195312 249.996094 124.09375 248.179688 110.867188 C 246.738281 100.460938 241.164062 91.246094 232.578125 83.726562 C 232.515625 83.160156 232.453125 82.597656 232.390625 82.03125 C 231.890625 78.144531 230.636719 74.382812 228.820312 70.9375 C 235.335938 65.609375 241.226562 59.464844 242.355469 55.140625 C 244.796875 45.863281 234.019531 32.386719 211.527344 23.109375 C 189.035156 13.832031 172.496094 41.226562 172.433594 41.289062 C 163.410156 40.472656 153.824219 40.660156 143.925781 41.976562 C 133.648438 43.355469 123.9375 45.925781 115.167969 49.3125 C 115.292969 49.25 115.417969 49.183594 115.542969 49.183594 C 114.726562 48.433594 91.921875 27.433594 73 42.101562 C 53.828125 57.019531 47.0625 72.941406 51.886719 81.21875 C 54.203125 85.167969 61.785156 89.617188 69.679688 93.128906 C 68.929688 96.824219 68.804688 100.523438 69.304688 104.222656 C 69.367188 104.597656 69.429688 105.039062 69.492188 105.414062 C 62.914062 115.066406 59.84375 125.660156 61.285156 136.253906 C 63.039062 149.417969 71.496094 160.636719 84.214844 168.914062 C 84.214844 168.914062 82.210938 174.742188 80.144531 183.519531 C 76.824219 197.621094 73.3125 219.375 77.574219 236.988281 C 79.453125 244.886719 82.835938 252.785156 87.597656 260.433594 C 87.285156 264.820312 85.09375 294.21875 83.652344 310.203125 C 83.277344 314.027344 83.027344 317.097656 82.773438 318.855469 C 81.460938 328.695312 91.484375 323.304688 95.179688 318.855469 C 95.179688 318.855469 93.988281 331.703125 102.511719 321.800781 C 102.511719 321.800781 104.140625 331.140625 110.96875 322.300781 C 112.597656 320.234375 114.539062 317.285156 116.609375 313.964844 C 120.054688 308.449219 123.8125 301.992188 126.632812 297.101562 C 134.027344 301.238281 142.046875 304.8125 150.753906 307.507812 C 150.753906 307.507812 150.003906 312.523438 149.5 318.164062 C 148.9375 324.871094 148.75 332.394531 150.753906 333.207031 C 154.449219 334.714844 158.335938 332.707031 161.09375 330.765625 C 161.09375 330.765625 162.53125 339.664062 171.367188 330.261719 C 171.367188 330.261719 172.871094 340.605469 182.207031 329.261719 C 184.023438 327.003906 186.339844 323.554688 188.785156 319.480469 C 198.996094 302.679688 212.71875 274.976562 212.71875 274.976562 C 212.71875 274.976562 202.128906 296.414062 192.605469 312.960938 C 195.925781 313.273438 199.875 313.589844 204.136719 313.652344 C 203.757812 312.648438 203.445312 311.769531 203.257812 311.019531 C 204.949219 316.722656 210.589844 329.386719 223.558594 330.703125 C 226.1875 330.953125 229.507812 330.953125 233.269531 330.578125 C 250.121094 329.070312 276.0625 321.738281 290.160156 310.453125 C 299.746094 302.746094 309.519531 289.140625 314.09375 272.089844 C 351.808594 269.960938 347.359375 243.257812 347.359375 243.257812 C 347.359375 242.566406 347.234375 241.941406 347.109375 241.3125 C 347.988281 240.121094 348.738281 238.804688 349.429688 237.300781 C 353.0625 229.277344 352.5 223.949219 347.296875 216.992188 Z M 338.464844 242.816406 C 336.207031 243.632812 333.765625 243.507812 331.636719 242.441406 C 329.878906 241.5625 329.691406 240.625 329.628906 239.933594 C 329.566406 238.117188 331.257812 235.859375 332.761719 234.980469 C 332.886719 234.917969 333.136719 234.855469 333.515625 234.855469 C 335.082031 234.855469 338.277344 235.671875 340.65625 238.117188 C 341.347656 238.804688 341.847656 239.558594 342.222656 240.375 C 341.09375 241.5 339.84375 242.316406 338.464844 242.816406 Z M 93.988281 60.53125 C 93.988281 60.40625 93.988281 60.34375 93.988281 60.34375 L 94.367188 60.28125 C 94.429688 60.21875 94.492188 60.15625 94.617188 60.15625 C 94.367188 60.28125 94.179688 60.40625 93.988281 60.53125 Z M 184.964844 43.167969 C 184.964844 43.167969 184.898438 43.167969 184.964844 43.167969 C 184.898438 43.167969 184.898438 43.167969 184.964844 43.167969 Z M 106.769531 53.007812 C 106.898438 52.945312 107.023438 52.882812 107.210938 52.820312 C 107.085938 52.882812 106.960938 52.945312 106.769531 53.007812 Z M 109.652344 51.691406 C 109.839844 51.628906 109.964844 51.566406 110.15625 51.503906 C 109.964844 51.566406 109.777344 51.628906 109.652344 51.691406 Z M 101.570312 55.765625 C 101.695312 55.703125 101.820312 55.640625 101.945312 55.578125 C 101.820312 55.640625 101.695312 55.703125 101.570312 55.765625 Z M 96.683594 58.714844 C 96.746094 58.714844 96.746094 58.652344 96.808594 58.652344 C 96.746094 58.652344 96.683594 58.714844 96.683594 58.714844 Z M 99.003906 57.273438 C 99.066406 57.210938 99.191406 57.144531 99.253906 57.082031 C 99.191406 57.144531 99.066406 57.210938 99.003906 57.273438 Z M 213.15625 258.992188 C 213.15625 259.117188 213.15625 259.179688 213.15625 259.304688 C 213.15625 259.179688 213.15625 259.054688 213.15625 258.992188 Z M 220.300781 238.867188 Z M 219.921875 239.496094 C 219.859375 239.496094 219.859375 239.496094 219.921875 239.496094 C 219.859375 239.496094 219.859375 239.496094 219.921875 239.496094 Z M 219.484375 240.121094 C 219.484375 240.121094 219.421875 240.183594 219.421875 240.183594 C 219.484375 240.121094 219.484375 240.121094 219.484375 240.121094 Z M 219.046875 240.75 C 219.046875 240.75 218.984375 240.8125 218.984375 240.8125 C 219.046875 240.8125 219.046875 240.75 219.046875 240.75 Z M 218.671875 241.375 C 218.671875 241.4375 218.609375 241.4375 218.609375 241.5 C 218.609375 241.4375 218.671875 241.4375 218.671875 241.375 Z M 218.230469 242.066406 C 218.230469 242.128906 218.167969 242.128906 218.167969 242.191406 C 218.230469 242.128906 218.230469 242.128906 218.230469 242.066406 Z M 217.855469 242.753906 C 217.855469 242.816406 217.792969 242.878906 217.792969 242.878906 C 217.792969 242.878906 217.855469 242.816406 217.855469 242.753906 Z M 217.480469 243.445312 C 217.480469 243.507812 217.417969 243.570312 217.417969 243.632812 C 217.417969 243.570312 217.417969 243.507812 217.480469 243.445312 Z M 217.105469 244.195312 C 217.042969 244.257812 217.042969 244.324219 217.042969 244.386719 C 217.042969 244.324219 217.042969 244.257812 217.105469 244.195312 Z M 216.726562 244.949219 C 216.664062 245.011719 216.664062 245.074219 216.601562 245.136719 C 216.664062 245.074219 216.664062 245.011719 216.726562 244.949219 Z M 216.351562 245.703125 C 216.289062 245.765625 216.289062 245.828125 216.226562 245.890625 C 216.289062 245.828125 216.351562 245.765625 216.351562 245.703125 Z M 216.039062 246.515625 C 215.976562 246.578125 215.976562 246.640625 215.914062 246.765625 C 215.914062 246.640625 215.976562 246.578125 216.039062 246.515625 Z M 215.664062 247.269531 C 215.601562 247.332031 215.601562 247.457031 215.539062 247.519531 C 215.601562 247.457031 215.664062 247.394531 215.664062 247.269531 Z M 215.351562 248.082031 C 215.289062 248.144531 215.289062 248.273438 215.226562 248.335938 C 215.289062 248.273438 215.351562 248.207031 215.351562 248.082031 Z M 215.035156 248.898438 C 215.035156 248.960938 214.972656 249.085938 214.972656 249.148438 C 214.972656 249.085938 215.035156 249.023438 215.035156 248.898438 Z M 214.785156 249.777344 C 214.785156 249.839844 214.722656 249.964844 214.722656 250.027344 C 214.722656 249.964844 214.722656 249.839844 214.785156 249.777344 Z M 214.472656 250.652344 C 214.472656 250.714844 214.410156 250.839844 214.410156 250.902344 C 214.472656 250.839844 214.472656 250.714844 214.472656 250.652344 Z M 214.285156 251.46875 C 214.285156 251.59375 214.222656 251.65625 214.222656 251.78125 C 214.222656 251.65625 214.222656 251.59375 214.285156 251.46875 Z M 214.035156 252.410156 C 214.035156 252.535156 213.972656 252.597656 213.972656 252.722656 C 213.972656 252.597656 214.035156 252.472656 214.035156 252.410156 Z M 213.847656 253.285156 C 213.847656 253.410156 213.785156 253.472656 213.785156 253.601562 C 213.785156 253.472656 213.785156 253.410156 213.847656 253.285156 Z M 213.660156 254.226562 C 213.660156 254.351562 213.59375 254.414062 213.59375 254.539062 C 213.59375 254.414062 213.660156 254.289062 213.660156 254.226562 Z M 213.46875 255.105469 C 213.46875 255.230469 213.40625 255.292969 213.40625 255.417969 C 213.46875 255.355469 213.46875 255.230469 213.46875 255.105469 Z M 213.34375 256.042969 C 213.34375 256.167969 213.34375 256.234375 213.28125 256.359375 C 213.34375 256.296875 213.34375 256.167969 213.34375 256.042969 Z M 213.28125 257.046875 C 213.28125 257.171875 213.28125 257.234375 213.28125 257.359375 C 213.28125 257.234375 213.28125 257.109375 213.28125 257.046875 Z M 213.21875 257.988281 C 213.21875 258.113281 213.21875 258.175781 213.21875 258.300781 C 213.21875 258.175781 213.21875 258.113281 213.21875 257.988281 Z M 213.15625 259.929688 C 213.15625 260.054688 213.15625 260.117188 213.15625 260.246094 C 213.15625 260.179688 213.15625 260.054688 213.15625 259.929688 Z M 213.21875 260.996094 C 213.21875 261.121094 213.21875 261.183594 213.21875 261.308594 C 213.21875 261.183594 213.21875 261.058594 213.21875 260.996094 Z M 213.28125 262 C 213.28125 262.125 213.28125 262.1875 213.28125 262.3125 C 213.28125 262.1875 213.28125 262.0625 213.28125 262 Z M 213.34375 263.003906 C 213.34375 263.128906 213.34375 263.191406 213.40625 263.316406 C 213.40625 263.191406 213.34375 263.128906 213.34375 263.003906 Z M 213.46875 264.066406 C 213.46875 264.195312 213.46875 264.257812 213.53125 264.382812 C 213.53125 264.257812 213.53125 264.128906 213.46875 264.066406 Z M 213.660156 265.070312 C 213.660156 265.195312 213.722656 265.257812 213.722656 265.382812 C 213.722656 265.320312 213.722656 265.195312 213.660156 265.070312 Z M 213.910156 266.136719 C 213.910156 266.261719 213.972656 266.324219 213.972656 266.449219 C 213.910156 266.324219 213.910156 266.261719 213.910156 266.136719 Z M 214.160156 267.203125 C 214.160156 267.265625 214.222656 267.390625 214.222656 267.453125 C 214.222656 267.390625 214.160156 267.328125 214.160156 267.203125 Z M 214.472656 268.332031 C 214.472656 268.394531 214.535156 268.519531 214.535156 268.582031 C 214.535156 268.519531 214.472656 268.394531 214.472656 268.332031 Z M 214.785156 269.394531 C 214.785156 269.457031 214.847656 269.585938 214.847656 269.648438 C 214.847656 269.585938 214.847656 269.523438 214.785156 269.394531 Z M 215.226562 270.523438 C 215.226562 270.585938 215.289062 270.648438 215.289062 270.773438 C 215.289062 270.648438 215.226562 270.585938 215.226562 270.523438 Z M 215.664062 271.652344 C 215.664062 271.714844 215.726562 271.777344 215.726562 271.839844 C 215.726562 271.777344 215.664062 271.714844 215.664062 271.652344 Z M 216.164062 272.78125 C 216.164062 272.84375 216.226562 272.90625 216.226562 272.96875 C 216.226562 272.90625 216.164062 272.84375 216.164062 272.78125 Z M 196.304688 46.300781 Z M 112.472656 50.4375 C 112.535156 50.375 112.660156 50.375 112.722656 50.3125 C 112.660156 50.375 112.597656 50.4375 112.472656 50.4375 Z M 210.839844 250.527344 C 207.457031 262.8125 212.59375 274.472656 212.84375 275.039062 C 212.59375 274.472656 207.457031 262.8125 210.839844 250.527344 Z M 211.714844 247.769531 C 211.714844 247.832031 211.652344 247.894531 211.652344 247.957031 C 211.652344 247.894531 211.714844 247.832031 211.714844 247.769531 Z M 211.402344 248.648438 C 211.339844 248.835938 211.277344 248.960938 211.277344 249.148438 C 211.277344 248.960938 211.339844 248.835938 211.402344 248.648438 Z M 211.089844 249.585938 C 211.027344 249.839844 210.902344 250.152344 210.839844 250.402344 C 210.902344 250.152344 211.027344 249.839844 211.089844 249.585938 Z M 203.257812 310.644531 C 203.320312 310.769531 203.320312 310.957031 203.382812 311.082031 C 203.320312 310.957031 203.257812 310.769531 203.257812 310.644531 Z M 202.945312 309.578125 C 202.945312 309.703125 203.007812 309.828125 203.070312 310.015625 C 203.007812 309.890625 203.007812 309.703125 202.945312 309.578125 Z M 203.132812 310.203125 C 203.132812 310.328125 203.195312 310.390625 203.195312 310.515625 C 203.132812 310.390625 203.132812 310.265625 203.132812 310.203125 Z M 203.132812 310.203125 " fill-opacity="1" fill-rule="nonzero"/><path fill="#e89073" d="M 242.417969 55.203125 C 241.289062 59.527344 235.398438 65.671875 228.882812 71 C 221.300781 77.207031 212.90625 82.34375 209.898438 82.410156 C 204.324219 82.410156 196.304688 46.300781 196.304688 46.300781 C 189.035156 43.792969 181.015625 42.164062 172.433594 41.351562 C 172.433594 41.351562 189.035156 13.894531 211.527344 23.171875 C 234.082031 32.386719 244.859375 45.863281 242.417969 55.203125 Z M 242.417969 55.203125 " fill-opacity="1" fill-rule="nonzero"/><path fill="#e89073" d="M 94.304688 60.28125 L 93.925781 60.34375 C 93.925781 60.34375 93.925781 60.40625 93.925781 60.53125 C 94.050781 63.289062 95.617188 97.328125 90.480469 98.769531 C 87.660156 99.519531 78.453125 96.949219 69.742188 93.128906 C 61.847656 89.679688 54.203125 85.167969 51.949219 81.21875 C 47.0625 72.941406 53.890625 57.019531 73.125 42.101562 C 92.046875 27.433594 114.855469 48.433594 115.667969 49.183594 C 107.710938 52.257812 100.570312 56.019531 94.304688 60.28125 Z M 94.304688 60.28125 " fill-opacity="1" fill-rule="nonzero"/><path fill="#e89073" d="M 126.757812 297.226562 C 123.9375 302.179688 120.242188 308.574219 116.734375 314.089844 C 114.664062 317.351562 112.722656 320.296875 111.09375 322.425781 C 104.265625 331.328125 102.636719 321.925781 102.636719 321.925781 C 94.179688 331.765625 95.304688 318.980469 95.304688 318.980469 C 91.609375 323.429688 81.585938 328.820312 82.898438 318.980469 C 83.152344 317.222656 83.464844 314.152344 83.777344 310.328125 C 85.21875 294.28125 87.410156 264.945312 87.726562 260.558594 C 88.851562 262.375 90.042969 264.128906 91.296875 265.886719 C 91.609375 266.261719 91.859375 266.699219 92.171875 267.078125 C 92.800781 267.953125 93.488281 268.832031 94.179688 269.648438 C 94.492188 270.085938 94.867188 270.460938 95.179688 270.902344 C 95.492188 271.339844 95.871094 271.714844 96.246094 272.152344 C 96.496094 272.46875 96.746094 272.78125 96.996094 273.03125 C 97.4375 273.597656 97.9375 274.097656 98.375 274.597656 C 98.6875 274.976562 99.003906 275.289062 99.316406 275.664062 C 99.378906 275.726562 99.441406 275.851562 99.566406 275.914062 C 100.253906 276.667969 100.945312 277.355469 101.632812 278.046875 C 102.574219 278.988281 103.511719 279.925781 104.515625 280.867188 C 104.890625 281.242188 105.332031 281.621094 105.707031 281.996094 C 106.898438 283.0625 108.085938 284.128906 109.339844 285.191406 C 109.777344 285.570312 110.21875 285.945312 110.65625 286.320312 C 110.96875 286.570312 111.21875 286.824219 111.53125 287.011719 C 116.105469 290.644531 121.246094 294.09375 126.757812 297.226562 Z M 126.757812 297.226562 " fill-opacity="1" fill-rule="nonzero"/><path fill="#e89073" d="M 242.730469 296.789062 L 217.230469 308.636719 C 217.230469 308.636719 201.941406 305.1875 202.945312 309.640625 C 203.132812 310.578125 203.570312 312.085938 204.261719 313.777344 C 200 313.714844 196.050781 313.464844 192.730469 313.085938 C 202.253906 296.476562 212.84375 275.101562 212.84375 275.101562 C 212.84375 275.101562 199.5 246.015625 227.628906 230.71875 C 227.066406 231.160156 204.636719 250.277344 216.789062 274.160156 C 229.132812 298.230469 242.730469 296.789062 242.730469 296.789062 Z M 242.730469 296.789062 " fill-opacity="1" fill-rule="nonzero"/><path fill="#e89073" d="M 187.167969 113.105469 C 187.265625 113.835938 187.3125 114.570312 187.304688 115.308594 C 187.296875 116.046875 187.234375 116.789062 187.121094 117.53125 C 187.007812 118.273438 186.839844 119.015625 186.621094 119.753906 C 186.402344 120.496094 186.132812 121.230469 185.8125 121.957031 C 185.488281 122.6875 185.117188 123.40625 184.695312 124.117188 C 184.273438 124.828125 183.804688 125.527344 183.285156 126.214844 C 182.765625 126.902344 182.203125 127.574219 181.59375 128.230469 C 180.988281 128.886719 180.335938 129.523438 179.640625 130.140625 C 178.949219 130.757812 178.214844 131.355469 177.441406 131.929688 C 176.671875 132.507812 175.863281 133.058594 175.019531 133.582031 C 174.175781 134.109375 173.304688 134.609375 172.398438 135.082031 C 171.492188 135.554688 170.558594 135.996094 169.597656 136.410156 C 168.640625 136.824219 167.65625 137.207031 166.652344 137.558594 C 165.648438 137.910156 164.625 138.230469 163.585938 138.515625 C 162.546875 138.800781 161.492188 139.054688 160.429688 139.269531 C 159.363281 139.488281 158.292969 139.667969 157.210938 139.816406 C 156.132812 139.960938 155.050781 140.070312 153.964844 140.144531 C 152.882812 140.21875 151.800781 140.257812 150.722656 140.261719 C 149.644531 140.261719 148.574219 140.226562 147.511719 140.15625 C 146.449219 140.082031 145.402344 139.976562 144.367188 139.832031 C 143.332031 139.691406 142.3125 139.511719 141.316406 139.296875 C 140.316406 139.082031 139.339844 138.832031 138.386719 138.550781 C 137.4375 138.269531 136.511719 137.953125 135.613281 137.601562 C 134.714844 137.253906 133.851562 136.875 133.019531 136.460938 C 132.183594 136.050781 131.386719 135.609375 130.625 135.140625 C 129.863281 134.671875 129.144531 134.171875 128.460938 133.648438 C 127.78125 133.125 127.140625 132.574219 126.542969 132.003906 C 125.949219 131.429688 125.398438 130.835938 124.894531 130.21875 C 124.390625 129.601562 123.933594 128.964844 123.527344 128.308594 C 123.117188 127.65625 122.761719 126.984375 122.453125 126.300781 C 122.144531 125.613281 121.890625 124.917969 121.6875 124.207031 C 121.480469 123.496094 121.332031 122.777344 121.230469 122.046875 C 121.132812 121.320312 121.089844 120.585938 121.09375 119.847656 C 121.101562 119.105469 121.164062 118.367188 121.277344 117.625 C 121.390625 116.878906 121.558594 116.140625 121.777344 115.398438 C 121.996094 114.660156 122.265625 113.925781 122.589844 113.195312 C 122.910156 112.46875 123.28125 111.75 123.703125 111.035156 C 124.125 110.324219 124.597656 109.625 125.113281 108.941406 C 125.632812 108.253906 126.195312 107.582031 126.804688 106.925781 C 127.414062 106.269531 128.0625 105.632812 128.757812 105.015625 C 129.453125 104.394531 130.183594 103.796875 130.957031 103.222656 C 131.730469 102.648438 132.535156 102.097656 133.378906 101.570312 C 134.222656 101.042969 135.097656 100.546875 136.003906 100.074219 C 136.90625 99.601562 137.839844 99.15625 138.800781 98.742188 C 139.761719 98.328125 140.742188 97.945312 141.746094 97.59375 C 142.75 97.242188 143.773438 96.925781 144.8125 96.640625 C 145.851562 96.351562 146.90625 96.101562 147.96875 95.886719 C 149.035156 95.667969 150.109375 95.484375 151.1875 95.339844 C 152.265625 95.191406 153.347656 95.082031 154.433594 95.007812 C 155.519531 94.933594 156.597656 94.894531 157.675781 94.894531 C 158.753906 94.894531 159.824219 94.929688 160.886719 95 C 161.949219 95.070312 162.996094 95.179688 164.03125 95.320312 C 165.066406 95.464844 166.085938 95.644531 167.085938 95.859375 C 168.082031 96.074219 169.058594 96.320312 170.011719 96.605469 C 170.964844 96.886719 171.886719 97.203125 172.785156 97.550781 C 173.683594 97.902344 174.546875 98.28125 175.382812 98.691406 C 176.214844 99.101562 177.011719 99.542969 177.773438 100.015625 C 178.535156 100.484375 179.257812 100.980469 179.9375 101.507812 C 180.621094 102.03125 181.257812 102.578125 181.855469 103.152344 C 182.449219 103.726562 183 104.320312 183.503906 104.9375 C 184.007812 105.554688 184.464844 106.191406 184.875 106.84375 C 185.28125 107.5 185.640625 108.167969 185.945312 108.855469 C 186.253906 109.539062 186.507812 110.238281 186.714844 110.949219 C 186.917969 111.660156 187.070312 112.378906 187.167969 113.105469 Z M 187.167969 113.105469 " fill-opacity="1" fill-rule="nonzero"/><path fill="#e89073" d="M 215.296875 93.714844 C 215.359375 94.171875 215.34375 94.636719 215.246094 95.105469 C 215.148438 95.574219 214.972656 96.039062 214.71875 96.503906 C 214.464844 96.96875 214.136719 97.421875 213.738281 97.863281 C 213.339844 98.304688 212.875 98.722656 212.34375 99.125 C 211.816406 99.527344 211.230469 99.898438 210.589844 100.242188 C 209.949219 100.589844 209.265625 100.898438 208.542969 101.175781 C 207.816406 101.453125 207.0625 101.691406 206.277344 101.886719 C 205.492188 102.082031 204.695312 102.238281 203.886719 102.347656 C 203.074219 102.457031 202.265625 102.523438 201.457031 102.539062 C 200.648438 102.558594 199.859375 102.53125 199.085938 102.457031 C 198.3125 102.386719 197.570312 102.269531 196.863281 102.105469 C 196.152344 101.941406 195.488281 101.738281 194.871094 101.492188 C 194.253906 101.25 193.695312 100.96875 193.195312 100.648438 C 192.691406 100.328125 192.257812 99.980469 191.890625 99.601562 C 191.519531 99.21875 191.226562 98.816406 191.007812 98.390625 C 190.789062 97.964844 190.648438 97.523438 190.585938 97.066406 C 190.527344 96.609375 190.542969 96.144531 190.640625 95.675781 C 190.738281 95.207031 190.914062 94.738281 191.167969 94.277344 C 191.421875 93.8125 191.746094 93.359375 192.144531 92.917969 C 192.546875 92.476562 193.011719 92.054688 193.539062 91.65625 C 194.070312 91.253906 194.65625 90.882812 195.296875 90.535156 C 195.933594 90.191406 196.617188 89.878906 197.34375 89.605469 C 198.070312 89.328125 198.824219 89.089844 199.609375 88.894531 C 200.390625 88.695312 201.1875 88.542969 202 88.433594 C 202.8125 88.324219 203.621094 88.257812 204.429688 88.238281 C 205.238281 88.222656 206.027344 88.25 206.800781 88.320312 C 207.574219 88.394531 208.3125 88.511719 209.023438 88.675781 C 209.730469 88.835938 210.394531 89.039062 211.011719 89.285156 C 211.628906 89.53125 212.191406 89.8125 212.691406 90.132812 C 213.195312 90.449219 213.628906 90.800781 213.996094 91.179688 C 214.363281 91.558594 214.65625 91.964844 214.875 92.390625 C 215.09375 92.816406 215.234375 93.257812 215.296875 93.714844 Z M 215.296875 93.714844 " fill-opacity="1" fill-rule="nonzero"/><path fill="#e89073" d="M 113.671875 107.5 C 113.734375 107.957031 113.71875 108.417969 113.621094 108.886719 C 113.523438 109.359375 113.347656 109.824219 113.09375 110.289062 C 112.839844 110.753906 112.515625 111.207031 112.113281 111.644531 C 111.714844 112.085938 111.25 112.507812 110.722656 112.910156 C 110.191406 113.308594 109.605469 113.683594 108.964844 114.027344 C 108.324219 114.371094 107.644531 114.683594 106.917969 114.960938 C 106.191406 115.238281 105.4375 115.472656 104.652344 115.671875 C 103.871094 115.867188 103.070312 116.019531 102.261719 116.132812 C 101.449219 116.242188 100.640625 116.304688 99.832031 116.324219 C 99.023438 116.34375 98.234375 116.316406 97.460938 116.242188 C 96.6875 116.167969 95.945312 116.050781 95.238281 115.890625 C 94.527344 115.726562 93.867188 115.523438 93.25 115.277344 C 92.632812 115.03125 92.070312 114.75 91.570312 114.433594 C 91.066406 114.113281 90.632812 113.765625 90.265625 113.382812 C 89.898438 113.003906 89.601562 112.601562 89.382812 112.175781 C 89.164062 111.746094 89.023438 111.304688 88.964844 110.847656 C 88.902344 110.390625 88.917969 109.929688 89.015625 109.460938 C 89.113281 108.988281 89.289062 108.523438 89.542969 108.058594 C 89.796875 107.59375 90.121094 107.144531 90.523438 106.703125 C 90.921875 106.261719 91.386719 105.839844 91.914062 105.4375 C 92.445312 105.039062 93.03125 104.664062 93.671875 104.320312 C 94.3125 103.976562 94.992188 103.664062 95.71875 103.386719 C 96.445312 103.109375 97.199219 102.875 97.984375 102.675781 C 98.765625 102.480469 99.566406 102.328125 100.375 102.21875 C 101.1875 102.105469 101.996094 102.042969 102.804688 102.023438 C 103.613281 102.003906 104.402344 102.03125 105.175781 102.105469 C 105.949219 102.179688 106.691406 102.296875 107.398438 102.457031 C 108.109375 102.621094 108.769531 102.824219 109.386719 103.070312 C 110.003906 103.316406 110.566406 103.597656 111.066406 103.914062 C 111.570312 104.234375 112.003906 104.582031 112.371094 104.964844 C 112.738281 105.34375 113.035156 105.746094 113.253906 106.171875 C 113.472656 106.601562 113.613281 107.042969 113.671875 107.5 Z M 113.671875 107.5 " fill-opacity="1" fill-rule="nonzero"/><path fill="#e89073" d="M 235.773438 149.605469 C 223.933594 169.164062 181.703125 221.128906 82.023438 184.207031 C 81.460938 183.957031 80.832031 183.769531 80.269531 183.582031 C 82.335938 174.804688 84.339844 168.976562 84.339844 168.976562 C 103.324219 181.324219 132.019531 187.089844 162.847656 182.890625 C 193.671875 178.691406 219.671875 165.527344 234.710938 148.664062 C 235.023438 148.917969 235.398438 149.292969 235.773438 149.605469 Z M 235.773438 149.605469 " fill-opacity="1" fill-rule="nonzero"/><path fill="#75392c" d="M 167.894531 111.722656 C 168.058594 112.179688 168.195312 112.644531 168.296875 113.113281 C 168.402344 113.582031 168.476562 114.046875 168.515625 114.507812 C 168.558594 114.972656 168.566406 115.421875 168.539062 115.859375 C 168.515625 116.296875 168.457031 116.714844 168.371094 117.113281 C 168.28125 117.507812 168.160156 117.878906 168.011719 118.21875 C 167.859375 118.558594 167.683594 118.867188 167.476562 119.136719 C 167.273438 119.410156 167.042969 119.640625 166.789062 119.832031 C 166.539062 120.023438 166.265625 120.171875 165.976562 120.277344 C 165.6875 120.378906 165.382812 120.4375 165.066406 120.453125 C 164.75 120.464844 164.425781 120.433594 164.09375 120.355469 C 163.761719 120.277344 163.429688 120.152344 163.097656 119.988281 C 162.765625 119.820312 162.4375 119.613281 162.117188 119.363281 C 161.796875 119.113281 161.484375 118.828125 161.1875 118.503906 C 160.890625 118.183594 160.609375 117.832031 160.347656 117.449219 C 160.082031 117.066406 159.84375 116.660156 159.625 116.234375 C 159.40625 115.804688 159.214844 115.363281 159.050781 114.90625 C 158.886719 114.449219 158.753906 113.988281 158.648438 113.519531 C 158.542969 113.050781 158.472656 112.585938 158.429688 112.121094 C 158.390625 111.660156 158.382812 111.210938 158.40625 110.773438 C 158.429688 110.332031 158.488281 109.917969 158.578125 109.519531 C 158.667969 109.121094 158.785156 108.753906 158.9375 108.414062 C 159.085938 108.070312 159.265625 107.765625 159.46875 107.496094 C 159.675781 107.222656 159.902344 106.992188 160.15625 106.800781 C 160.410156 106.609375 160.679688 106.460938 160.972656 106.355469 C 161.261719 106.25 161.566406 106.191406 161.882812 106.179688 C 162.199219 106.164062 162.523438 106.199219 162.855469 106.277344 C 163.183594 106.355469 163.515625 106.476562 163.847656 106.644531 C 164.183594 106.8125 164.507812 107.019531 164.832031 107.269531 C 165.152344 107.519531 165.460938 107.804688 165.757812 108.125 C 166.058594 108.449219 166.339844 108.800781 166.601562 109.183594 C 166.863281 109.5625 167.105469 109.96875 167.320312 110.398438 C 167.539062 110.824219 167.730469 111.265625 167.894531 111.722656 Z M 167.894531 111.722656 " fill-opacity="1" fill-rule="nonzero"/><path fill="#75392c" d="M 144.683594 108.585938 C 144.992188 108.609375 145.292969 108.679688 145.585938 108.796875 C 145.882812 108.914062 146.164062 109.078125 146.433594 109.285156 C 146.703125 109.492188 146.957031 109.738281 147.191406 110.027344 C 147.429688 110.316406 147.640625 110.640625 147.832031 110.996094 C 148.023438 111.355469 148.191406 111.746094 148.332031 112.160156 C 148.472656 112.574219 148.582031 113.011719 148.667969 113.46875 C 148.75 113.925781 148.804688 114.390625 148.828125 114.871094 C 148.851562 115.351562 148.847656 115.832031 148.808594 116.316406 C 148.773438 116.800781 148.707031 117.277344 148.609375 117.75 C 148.515625 118.21875 148.390625 118.675781 148.238281 119.113281 C 148.085938 119.550781 147.910156 119.964844 147.707031 120.355469 C 147.507812 120.746094 147.285156 121.101562 147.042969 121.429688 C 146.796875 121.753906 146.539062 122.042969 146.261719 122.292969 C 145.984375 122.542969 145.699219 122.746094 145.398438 122.910156 C 145.101562 123.074219 144.796875 123.191406 144.488281 123.265625 C 144.179688 123.335938 143.871094 123.359375 143.5625 123.335938 C 143.257812 123.3125 142.957031 123.242188 142.660156 123.125 C 142.367188 123.007812 142.082031 122.847656 141.8125 122.640625 C 141.542969 122.433594 141.289062 122.183594 141.054688 121.894531 C 140.820312 121.605469 140.605469 121.285156 140.414062 120.925781 C 140.222656 120.566406 140.058594 120.179688 139.917969 119.761719 C 139.777344 119.347656 139.664062 118.910156 139.582031 118.453125 C 139.496094 118 139.445312 117.53125 139.417969 117.050781 C 139.394531 116.570312 139.402344 116.089844 139.4375 115.605469 C 139.476562 115.121094 139.542969 114.644531 139.636719 114.171875 C 139.734375 113.703125 139.859375 113.25 140.011719 112.808594 C 140.160156 112.371094 140.339844 111.957031 140.539062 111.566406 C 140.742188 111.179688 140.964844 110.820312 141.207031 110.496094 C 141.449219 110.167969 141.710938 109.878906 141.988281 109.632812 C 142.261719 109.382812 142.550781 109.175781 142.847656 109.011719 C 143.148438 108.847656 143.449219 108.730469 143.757812 108.65625 C 144.070312 108.585938 144.375 108.5625 144.683594 108.585938 Z M 144.683594 108.585938 " fill-opacity="1" fill-rule="nonzero"/><path fill="#75392c" d="M 196.304688 46.300781 C 191.542969 44.671875 186.402344 43.355469 181.015625 42.476562 C 181.015625 42.476562 190.476562 31.757812 193.046875 35.394531 C 195.238281 38.402344 196.304688 46.300781 196.304688 46.300781 Z M 196.304688 46.300781 " fill-opacity="1" fill-rule="nonzero"/><path fill="#75392c" d="M 93.925781 60.34375 C 98.125 57.523438 102.699219 54.890625 107.648438 52.570312 C 107.648438 52.570312 95.683594 44.796875 94.179688 48.933594 C 92.863281 52.507812 93.925781 60.34375 93.925781 60.34375 Z M 93.925781 60.34375 " fill-opacity="1" fill-rule="nonzero"/><path fill="#75392c" d="M 116.796875 314.089844 C 114.726562 317.351562 112.785156 320.296875 111.15625 322.425781 C 104.328125 331.328125 102.699219 321.925781 102.699219 321.925781 C 94.242188 331.765625 95.367188 318.980469 95.367188 318.980469 C 91.671875 323.429688 81.648438 328.820312 82.964844 318.980469 C 83.214844 317.222656 83.527344 314.152344 83.839844 310.328125 C 88.976562 312.523438 98.8125 314.71875 116.796875 314.089844 Z M 116.796875 314.089844 " fill-opacity="1" fill-rule="nonzero"/><path fill="#75392c" d="M 188.910156 319.542969 C 186.402344 323.617188 184.148438 327.128906 182.332031 329.324219 C 173.058594 340.667969 171.492188 330.324219 171.492188 330.324219 C 162.722656 339.726562 161.21875 330.828125 161.21875 330.828125 C 158.460938 332.769531 154.636719 334.777344 150.878906 333.273438 C 148.875 332.457031 149 324.933594 149.625 318.226562 C 157.332031 319.730469 172.183594 321.800781 188.910156 319.542969 Z M 188.910156 319.542969 " fill-opacity="1" fill-rule="nonzero"/><path fill="#75392c" d="M 233.394531 330.703125 C 229.636719 331.015625 226.3125 331.078125 223.683594 330.828125 C 209.398438 329.324219 203.945312 314.027344 202.945312 309.578125 C 201.941406 305.125 217.230469 308.574219 217.230469 308.574219 C 217.230469 308.574219 222.929688 322.238281 233.394531 330.703125 Z M 233.394531 330.703125 " fill-opacity="1" fill-rule="nonzero"/><path fill="#75392c" d="M 188.472656 81.65625 C 188.472656 82.058594 188.433594 82.457031 188.355469 82.855469 C 188.273438 83.25 188.160156 83.632812 188.003906 84.007812 C 187.851562 84.378906 187.660156 84.734375 187.4375 85.070312 C 187.210938 85.40625 186.957031 85.714844 186.671875 86 C 186.386719 86.285156 186.078125 86.539062 185.742188 86.765625 C 185.40625 86.988281 185.054688 87.175781 184.679688 87.332031 C 184.308594 87.484375 183.925781 87.601562 183.53125 87.679688 C 183.132812 87.761719 182.734375 87.800781 182.332031 87.800781 C 181.929688 87.800781 181.527344 87.761719 181.132812 87.679688 C 180.738281 87.601562 180.355469 87.484375 179.980469 87.332031 C 179.609375 87.175781 179.253906 86.988281 178.921875 86.765625 C 178.585938 86.539062 178.273438 86.285156 177.988281 86 C 177.703125 85.714844 177.449219 85.40625 177.226562 85.070312 C 177.003906 84.734375 176.8125 84.378906 176.660156 84.007812 C 176.503906 83.632812 176.386719 83.25 176.308594 82.855469 C 176.230469 82.457031 176.191406 82.058594 176.191406 81.65625 C 176.191406 81.253906 176.230469 80.851562 176.308594 80.457031 C 176.386719 80.0625 176.503906 79.679688 176.660156 79.304688 C 176.8125 78.933594 177.003906 78.578125 177.226562 78.242188 C 177.449219 77.90625 177.703125 77.597656 177.988281 77.3125 C 178.273438 77.027344 178.585938 76.773438 178.921875 76.546875 C 179.253906 76.324219 179.609375 76.136719 179.980469 75.980469 C 180.355469 75.828125 180.738281 75.710938 181.132812 75.632812 C 181.527344 75.550781 181.929688 75.511719 182.332031 75.511719 C 182.734375 75.511719 183.132812 75.550781 183.53125 75.632812 C 183.925781 75.710938 184.308594 75.828125 184.679688 75.980469 C 185.054688 76.136719 185.40625 76.324219 185.742188 76.546875 C 186.078125 76.773438 186.386719 77.027344 186.671875 77.3125 C 186.957031 77.597656 187.210938 77.90625 187.4375 78.242188 C 187.660156 78.578125 187.851562 78.933594 188.003906 79.304688 C 188.160156 79.679688 188.273438 80.0625 188.355469 80.457031 C 188.433594 80.851562 188.472656 81.253906 188.472656 81.65625 Z M 188.472656 81.65625 " fill-opacity="1" fill-rule="nonzero"/><path fill="#75392c" d="M 123.6875 90.433594 C 123.6875 90.835938 123.648438 91.234375 123.570312 91.628906 C 123.492188 92.027344 123.375 92.410156 123.21875 92.78125 C 123.066406 93.15625 122.878906 93.507812 122.652344 93.84375 C 122.429688 94.179688 122.175781 94.492188 121.890625 94.777344 C 121.605469 95.0625 121.292969 95.316406 120.957031 95.539062 C 120.625 95.765625 120.269531 95.953125 119.898438 96.105469 C 119.523438 96.261719 119.140625 96.378906 118.746094 96.457031 C 118.351562 96.535156 117.949219 96.574219 117.546875 96.574219 C 117.144531 96.574219 116.746094 96.535156 116.351562 96.457031 C 115.953125 96.378906 115.570312 96.261719 115.199219 96.105469 C 114.824219 95.953125 114.472656 95.765625 114.136719 95.539062 C 113.800781 95.316406 113.492188 95.0625 113.207031 94.777344 C 112.921875 94.492188 112.667969 94.179688 112.441406 93.84375 C 112.21875 93.507812 112.03125 93.15625 111.875 92.78125 C 111.722656 92.410156 111.605469 92.027344 111.527344 91.628906 C 111.445312 91.234375 111.40625 90.835938 111.40625 90.433594 C 111.40625 90.027344 111.445312 89.628906 111.527344 89.234375 C 111.605469 88.835938 111.722656 88.453125 111.875 88.082031 C 112.03125 87.707031 112.21875 87.355469 112.441406 87.019531 C 112.667969 86.683594 112.921875 86.375 113.207031 86.089844 C 113.492188 85.804688 113.800781 85.546875 114.136719 85.324219 C 114.472656 85.101562 114.824219 84.910156 115.199219 84.757812 C 115.570312 84.601562 115.953125 84.484375 116.351562 84.40625 C 116.746094 84.328125 117.144531 84.289062 117.546875 84.289062 C 117.949219 84.289062 118.351562 84.328125 118.746094 84.40625 C 119.140625 84.484375 119.523438 84.601562 119.898438 84.757812 C 120.269531 84.910156 120.625 85.101562 120.957031 85.324219 C 121.292969 85.546875 121.605469 85.804688 121.890625 86.089844 C 122.175781 86.375 122.429688 86.683594 122.652344 87.019531 C 122.878906 87.355469 123.066406 87.707031 123.21875 88.082031 C 123.375 88.453125 123.492188 88.835938 123.570312 89.234375 C 123.648438 89.628906 123.6875 90.027344 123.6875 90.433594 Z M 123.6875 90.433594 " fill-opacity="1" fill-rule="nonzero"/><path fill="#75392c" d="M 161.21875 139.828125 C 160.839844 139.828125 160.527344 139.578125 160.464844 139.199219 C 160.402344 138.824219 160.714844 138.449219 161.09375 138.386719 C 161.34375 138.324219 187.21875 134.5625 194.359375 117.824219 L 192.792969 116.949219 C 192.417969 116.757812 192.292969 116.320312 192.542969 115.945312 C 192.730469 115.570312 193.171875 115.441406 193.546875 115.695312 L 195.675781 116.886719 C 195.988281 117.074219 196.117188 117.449219 195.988281 117.824219 C 188.910156 135.878906 162.40625 139.765625 161.28125 139.890625 C 161.28125 139.828125 161.28125 139.828125 161.21875 139.828125 Z M 161.21875 139.828125 " fill-opacity="1" fill-rule="nonzero"/></svg>