<svg xmlns="http://www.w3.org/2000/svg" xmlns:xlink="http://www.w3.org/1999/xlink" width="500" zoomAndPan="magnify" viewBox="0 0 375 374.999991" height="500" preserveAspectRatio="xMidYMid meet" version="1.0"><defs><clipPath id="18dfed5857"><path d="M 20.804688 98.296875 L 354.476562 98.296875 L 354.476562 276.796875 L 20.804688 276.796875 Z M 20.804688 98.296875 " clip-rule="nonzero"/></clipPath></defs><g clip-path="url(#18dfed5857)"><path fill="#000000" d="M 354.355469 176.617188 C 354.089844 174.472656 353.398438 172.429688 352 170.753906 C 350.320312 168.738281 347.917969 167.832031 345.390625 167.441406 C 342.425781 166.984375 339.453125 166.679688 336.503906 166.113281 C 333.53125 165.550781 330.582031 164.835938 327.6875 163.933594 C 322.007812 162.171875 316.558594 159.675781 311.671875 156.273438 C 309.359375 154.667969 307.191406 152.851562 305.210938 150.84375 C 303.675781 149.289062 302.398438 147.574219 301.109375 145.816406 C 298.773438 142.609375 296.007812 139.0625 291.75 138.679688 C 290.503906 138.566406 289.292969 138.816406 288.089844 139.125 C 286.984375 139.410156 285.105469 139.9375 284.234375 138.847656 C 283.898438 138.433594 284.050781 137.882812 284.148438 137.410156 C 284.292969 136.664062 284.429688 135.910156 284.515625 135.152344 C 284.683594 133.589844 284.667969 131.984375 284.640625 130.417969 C 284.535156 124.6875 283.390625 118.683594 279.847656 114.027344 C 276.726562 109.933594 271.828125 107.113281 266.574219 107.578125 C 261.246094 108.042969 256.558594 111.324219 253.636719 115.695312 C 252.335938 117.636719 251.386719 119.804688 250.796875 122.070312 C 250.730469 122.308594 250.675781 122.554688 250.621094 122.800781 C 249.363281 122.308594 248.082031 121.878906 246.777344 121.535156 C 245.652344 121.25 244.523438 121.011719 243.375 120.84375 C 242.765625 120.753906 242.152344 120.683594 241.539062 120.636719 C 241.171875 120.609375 240.832031 120.566406 240.488281 120.601562 C 240.484375 120.601562 240.472656 120.601562 240.46875 120.601562 C 240.441406 120.367188 240.429688 120.128906 240.398438 119.894531 C 240.160156 118.046875 239.726562 116.234375 239.078125 114.496094 C 236.851562 108.539062 232.382812 103.386719 226.238281 101.378906 C 219.632812 99.226562 211.992188 100.339844 206.273438 104.265625 C 201.109375 107.800781 197.242188 113.011719 195.390625 118.988281 C 193.921875 119.214844 192.464844 119.695312 191.066406 120.164062 C 189.453125 120.703125 187.871094 121.332031 186.324219 122.054688 C 183.246094 123.484375 180.339844 125.265625 177.65625 127.339844 C 177.175781 127.707031 176.707031 128.097656 176.242188 128.484375 C 171.480469 126.40625 166.753906 124.046875 162.667969 120.816406 C 162.144531 120.398438 161.46875 120.542969 161.234375 121.195312 C 159.105469 127.023438 157.808594 133.0625 157.386719 139.242188 C 152.644531 136.898438 148.296875 133.910156 144.4375 130.261719 C 143.996094 129.839844 143.09375 129.96875 142.964844 130.652344 C 141.976562 135.894531 141.539062 141.226562 141.675781 146.5625 C 137.222656 144.332031 132.957031 141.730469 128.976562 138.738281 C 128.410156 138.308594 127.726562 138.902344 127.683594 139.476562 C 127.421875 143.320312 126.734375 147.09375 125.613281 150.773438 C 122.941406 148.40625 120.257812 146.054688 117.585938 143.691406 C 117.132812 143.292969 116.292969 143.402344 116.152344 144.070312 C 115.507812 146.984375 114.515625 149.78125 113.164062 152.429688 C 111.226562 150.019531 109.710938 147.292969 108.71875 144.355469 C 108.488281 143.6875 107.535156 143.480469 107.15625 144.152344 C 105.882812 146.417969 104.199219 148.449219 102.191406 150.101562 C 101.453125 148.480469 100.710938 146.859375 99.953125 145.242188 C 99.707031 144.710938 99.027344 144.773438 98.648438 145.078125 C 96.339844 146.917969 93.660156 148.027344 90.871094 148.882812 C 89.472656 147.042969 88.785156 144.707031 88.828125 142.390625 C 88.890625 139.292969 90.175781 136.328125 91.910156 133.796875 C 94.9375 129.386719 99.523438 126.214844 104.433594 124.222656 C 110.003906 121.960938 115.957031 121.125 121.933594 120.953125 C 128.894531 120.753906 135.832031 121.460938 142.789062 121.457031 C 144.382812 121.449219 146.566406 120.859375 146.492188 118.902344 C 146.449219 117.777344 145.644531 116.777344 144.921875 115.988281 C 142.703125 113.550781 139.769531 111.683594 137.007812 109.925781 C 134.320312 108.21875 131.558594 106.613281 128.738281 105.136719 C 124.648438 102.996094 120.167969 101.53125 115.707031 100.425781 C 103.644531 97.433594 90.898438 97.652344 78.871094 100.71875 C 67.480469 103.632812 56.734375 109.101562 47.777344 116.730469 C 39.957031 123.386719 33.496094 131.679688 28.847656 140.832031 C 28.390625 141.730469 27.957031 142.636719 27.535156 143.546875 C 27.488281 143.589844 27.4375 143.644531 27.40625 143.714844 C 26.9375 144.695312 26.53125 145.699219 26.160156 146.710938 C 23.113281 154.167969 21.234375 162.097656 20.867188 170.15625 C 20.691406 174.078125 20.886719 178.007812 21.46875 181.875 C 21.476562 181.914062 21.476562 181.949219 21.480469 181.988281 C 21.484375 182 21.492188 182.003906 21.492188 182.007812 C 22.441406 188.238281 24.367188 194.308594 27.304688 199.925781 C 27.757812 200.789062 28.246094 201.640625 28.742188 202.484375 C 28.800781 202.613281 28.871094 202.730469 28.949219 202.832031 C 34.070312 211.339844 41.433594 218.464844 50.039062 223.410156 C 52.382812 224.753906 54.832031 225.898438 57.332031 226.921875 C 57.359375 226.933594 57.386719 226.933594 57.414062 226.9375 C 59.277344 230.363281 61.730469 233.445312 64.675781 236 C 64.125 236.011719 63.582031 236.070312 63 236.175781 C 61.878906 236.386719 60.785156 236.722656 59.734375 237.164062 C 57.601562 238.054688 55.636719 239.378906 54.0625 241.074219 C 52.511719 242.753906 51.246094 244.945312 51.234375 247.285156 C 51.230469 249.699219 52.730469 251.523438 54.542969 252.933594 C 56.703125 254.617188 58.988281 256.15625 61.210938 257.746094 C 63.539062 259.414062 65.863281 261.082031 68.195312 262.742188 C 72.550781 265.859375 76.855469 269.082031 81.433594 271.863281 C 83.679688 273.230469 85.996094 274.46875 88.410156 275.496094 C 90.691406 276.46875 93.253906 277.417969 95.652344 276.273438 C 97.8125 275.246094 98.566406 272.882812 97.523438 270.765625 C 97 269.695312 96.136719 268.863281 95.277344 268.054688 C 94.59375 267.410156 93.332031 266.433594 93.296875 265.402344 C 93.28125 264.960938 93.640625 265.011719 93.996094 265.027344 C 94.679688 265.058594 95.359375 265.160156 96.023438 265.28125 C 97.363281 265.523438 98.675781 265.894531 99.945312 266.371094 C 102.132812 267.191406 104.488281 268.484375 106.855469 267.535156 C 108.863281 266.726562 110.15625 264.578125 108.96875 262.542969 C 108.414062 261.589844 107.484375 260.929688 106.550781 260.398438 C 105.671875 259.894531 104.480469 259.421875 103.992188 258.464844 C 103.5625 257.632812 103.730469 256.636719 104.816406 256.617188 C 105.984375 256.59375 107.160156 257.203125 108.257812 257.550781 C 110.125 258.144531 112.46875 258.183594 113.828125 256.515625 C 114.449219 255.757812 114.597656 254.726562 114.246094 253.816406 C 113.855469 252.792969 112.984375 252.09375 112.128906 251.464844 C 109.847656 249.800781 107.539062 248.179688 105.222656 246.574219 C 104.507812 246.078125 103.789062 245.585938 103.074219 245.09375 C 104.671875 245.734375 106.34375 246.242188 107.976562 246.757812 C 110.097656 247.429688 112.234375 248.050781 114.382812 248.613281 C 118.722656 249.757812 123.117188 250.695312 127.546875 251.429688 C 136.433594 252.910156 145.460938 253.585938 154.472656 253.414062 C 156.980469 253.367188 159.492188 253.253906 161.996094 253.074219 C 164.238281 252.914062 166.53125 252.785156 168.757812 252.429688 C 171.800781 256.382812 175.210938 260.046875 179.015625 263.234375 C 185.566406 268.722656 193.457031 272.851562 202.066406 273.667969 C 209.902344 274.410156 218.214844 272.449219 224.402344 267.457031 C 225.855469 266.289062 227.109375 264.972656 228.207031 263.554688 C 241.773438 268.269531 257.046875 268.457031 270.828125 264.578125 C 274.292969 263.601562 277.769531 262.402344 281.011719 260.800781 C 284.050781 259.304688 286.917969 257.207031 288.667969 254.242188 C 292.433594 247.847656 288.730469 240.113281 284.078125 235.300781 C 281.324219 232.445312 278.53125 229.695312 276.109375 226.539062 C 273.867188 223.617188 271.984375 220.496094 270.121094 217.332031 C 281.972656 219.265625 293.84375 221.128906 305.867188 221.328125 C 309.773438 221.394531 313.960938 221.128906 317.410156 219.089844 C 319.96875 217.574219 322.011719 215.15625 322.601562 212.234375 C 322.632812 212.113281 322.652344 211.984375 322.675781 211.855469 C 325.164062 212.5 327.714844 212.828125 330.375 212.4375 C 335.714844 211.648438 340.425781 208.320312 344.011719 204.421875 C 347.8125 200.28125 350.664062 195.316406 352.417969 189.988281 C 353.144531 187.785156 353.6875 185.503906 354.0625 183.210938 C 354.421875 181.039062 354.621094 178.808594 354.355469 176.617188 " fill-opacity="1" fill-rule="nonzero"/></g><path fill="#66cc99" d="M 99.652344 112.453125 C 99.894531 112.371094 99.945312 111.96875 99.652344 111.910156 C 99.242188 111.828125 98.832031 111.777344 98.421875 111.742188 C 98.675781 110.117188 98.9375 108.488281 99.195312 106.863281 C 99.296875 106.210938 98.605469 105.40625 97.929688 105.894531 C 96.6875 106.789062 95.453125 107.699219 94.222656 108.613281 C 93.5 109.144531 92.78125 109.679688 92.066406 110.21875 C 92.027344 110.25 91.984375 110.277344 91.945312 110.308594 C 91.570312 109.710938 91.1875 109.121094 90.816406 108.523438 C 90.464844 107.945312 90.125 107.359375 89.796875 106.765625 C 89.671875 106.53125 89.546875 106.304688 89.425781 106.070312 C 89.410156 106.03125 89.386719 106.003906 89.367188 105.984375 C 89.367188 105.976562 89.371094 105.972656 89.371094 105.96875 C 89.371094 105.960938 89.371094 105.960938 89.371094 105.960938 C 89.339844 105.300781 88.464844 104.832031 87.878906 105.375 C 84.949219 108.113281 82.269531 111.082031 79.789062 114.222656 C 78.527344 112.644531 77.265625 111.066406 75.996094 109.488281 C 75.671875 109.078125 74.832031 109.179688 74.621094 109.664062 C 72.308594 114.976562 70.640625 120.527344 69.652344 126.230469 C 67.808594 125.796875 65.960938 125.382812 64.125 124.929688 C 63.347656 124.738281 62.871094 125.515625 63.160156 126.175781 C 65.25 130.914062 67.386719 135.617188 69.554688 140.3125 C 69.925781 141.105469 71.027344 140.628906 71.082031 139.898438 C 71.109375 139.488281 71.152344 139.082031 71.195312 138.679688 C 71.242188 138.511719 71.28125 138.34375 71.328125 138.167969 C 71.503906 137.46875 71.652344 136.769531 71.839844 136.070312 C 72.179688 134.746094 72.617188 133.453125 73.132812 132.183594 C 74.171875 129.617188 75.5625 127.183594 77.238281 124.980469 C 80.621094 120.539062 85.273438 117.089844 90.488281 115.089844 C 93.46875 113.945312 96.636719 113.488281 99.652344 112.453125 Z M 163.667969 173.015625 C 163.980469 172.765625 163.71875 172.214844 163.347656 172.234375 C 162.714844 172.257812 162.121094 172.359375 161.527344 172.5 C 155.042969 168.316406 148.128906 164.738281 141.027344 161.730469 C 140.269531 161.410156 139.546875 161.933594 139.683594 162.765625 C 140.386719 166.929688 140.460938 171.1875 139.933594 175.378906 C 132.875 171.25 125.460938 167.835938 117.699219 165.238281 C 117.183594 165.070312 116.464844 165.539062 116.539062 166.121094 C 117.019531 169.753906 117.101562 173.425781 116.855469 177.082031 C 112.078125 172.941406 107.332031 168.769531 102.566406 164.621094 C 102.089844 164.207031 101.167969 164.296875 101.035156 165.027344 C 100.492188 167.90625 99.980469 170.796875 99.449219 173.683594 C 96.453125 169.980469 93.464844 166.269531 90.460938 162.566406 C 90.101562 162.125 89.261719 162.257812 89.019531 162.753906 C 87.824219 165.191406 86.628906 167.625 85.332031 170.007812 C 84.421875 167.847656 83.828125 165.542969 83.582031 163.222656 C 83.515625 162.589844 83.058594 162.253906 82.429688 162.347656 C 78.695312 162.925781 74.957031 163.375 71.183594 162.941406 C 71.097656 162.9375 71.019531 162.945312 70.9375 162.96875 C 70.117188 162.199219 69.300781 161.441406 68.371094 160.800781 C 68.101562 160.609375 67.808594 160.972656 67.945312 161.230469 C 68.675781 162.582031 69.722656 163.675781 70.808594 164.765625 C 71.910156 165.851562 73.050781 166.894531 74.246094 167.878906 C 76.640625 169.847656 79.191406 171.609375 81.871094 173.160156 C 87.269531 176.300781 93.132812 178.632812 99.171875 180.195312 C 112.589844 183.664062 126.671875 183.203125 140.179688 180.476562 C 144.214844 179.667969 148.203125 178.648438 152.140625 177.46875 C 154.160156 176.867188 156.152344 176.222656 158.144531 175.542969 C 159.097656 175.21875 160.050781 174.882812 160.992188 174.527344 C 162.007812 174.148438 162.824219 173.6875 163.667969 173.015625 Z M 182.3125 183.898438 C 183.695312 183.023438 184.726562 181.570312 184.644531 179.878906 C 184.558594 178.078125 183.433594 176.410156 181.726562 175.773438 C 179.960938 175.125 178.066406 175.921875 177.019531 177.410156 C 175.875 179.03125 175.808594 181.847656 177.613281 183.011719 C 177.617188 183.03125 177.625 183.054688 177.632812 183.074219 C 177.652344 183.113281 177.664062 183.128906 177.671875 183.140625 C 177.660156 183.21875 177.628906 183.378906 177.675781 183.203125 C 177.617188 183.4375 177.664062 183.714844 177.851562 183.882812 C 178.472656 184.441406 179.21875 184.707031 180.054688 184.648438 C 180.863281 184.597656 181.636719 184.328125 182.3125 183.898438 Z M 204.738281 149.207031 C 205.019531 148.972656 205.042969 148.652344 204.914062 148.386719 C 205.253906 147.824219 204.570312 146.941406 203.804688 147.292969 C 195.949219 150.871094 187.027344 155.96875 185.273438 165.238281 C 184.859375 167.4375 185.03125 169.789062 186.566406 171.535156 C 187.9375 173.085938 190.054688 173.476562 191.921875 172.648438 C 196.03125 170.835938 197.335938 165.515625 198.367188 161.597656 C 198.988281 159.246094 199.546875 156.855469 200.542969 154.632812 C 201.023438 153.570312 201.585938 152.535156 202.285156 151.601562 C 202.976562 150.671875 203.839844 149.933594 204.738281 149.207031 Z M 228.847656 146.246094 C 233.460938 140.429688 233.359375 131.957031 230.566406 125.371094 C 230.378906 124.929688 230.175781 124.492188 229.957031 124.0625 C 229.953125 123.84375 229.867188 123.644531 229.667969 123.503906 C 228.410156 121.152344 226.742188 119.007812 224.648438 117.355469 C 221.980469 115.242188 218.59375 113.75 215.125 114.117188 C 208.570312 114.804688 204.746094 121.207031 203.753906 127.171875 C 203.148438 130.855469 203.285156 134.667969 204.273438 138.273438 C 205.234375 141.765625 207.042969 145.324219 209.898438 147.640625 C 210.398438 148.042969 210.957031 148.359375 211.539062 148.625 C 211.550781 148.867188 211.65625 149.101562 211.902344 149.277344 C 217.359375 153.105469 224.839844 151.292969 228.847656 146.246094 Z M 329.574219 180.117188 C 329.648438 178.316406 329.597656 176.503906 329.414062 174.710938 C 329.273438 173.378906 329.082031 171.773438 327.828125 170.988281 C 326.6875 170.273438 325.335938 170.679688 324.238281 171.265625 C 323.085938 171.875 322.007812 172.667969 320.898438 173.351562 C 319.761719 174.050781 318.679688 174.847656 317.664062 175.71875 C 316.453125 174.460938 314.890625 173.496094 313.390625 172.660156 C 311.484375 171.59375 309.488281 170.722656 307.503906 169.84375 C 302.84375 167.773438 298.238281 165.597656 293.570312 163.554688 C 283.820312 159.296875 273.964844 155.296875 264.070312 151.394531 C 261.457031 150.363281 258.75 148.992188 255.902344 148.816406 C 253.769531 148.691406 251.230469 149.488281 250.203125 151.511719 C 249.855469 152.203125 250.820312 153.09375 251.359375 152.402344 C 254.382812 148.503906 259.820312 151.539062 263.375 152.933594 C 268.109375 154.800781 272.839844 156.691406 277.546875 158.621094 C 286.890625 162.449219 296.09375 166.566406 305.28125 170.753906 C 307.414062 171.726562 309.578125 172.628906 311.652344 173.71875 C 312.65625 174.25 313.640625 174.820312 314.574219 175.464844 C 315.210938 175.902344 315.808594 176.394531 316.40625 176.882812 C 315.25 178.058594 314.367188 179.539062 315.34375 181.117188 C 315.554688 181.464844 316.101562 181.242188 315.992188 180.847656 C 315.855469 180.308594 316.175781 179.855469 316.460938 179.421875 C 316.8125 178.867188 317.277344 178.394531 317.746094 177.941406 C 317.820312 177.863281 317.898438 177.796875 317.976562 177.722656 C 318.171875 177.640625 318.347656 177.476562 318.445312 177.277344 C 319.1875 176.617188 319.964844 175.996094 320.78125 175.441406 C 321.695312 174.820312 322.664062 174.300781 323.578125 173.679688 C 324.34375 173.15625 325.210938 172.46875 326.152344 172.300781 C 327.167969 172.125 327.492188 173.0625 327.648438 173.898438 C 327.894531 175.230469 327.945312 176.628906 327.984375 177.976562 C 328.019531 179.363281 327.984375 180.75 327.855469 182.125 C 327.765625 183.074219 327.695312 184.5625 326.375 184.253906 C 325.160156 183.964844 324.269531 182.78125 323.707031 181.746094 C 323.027344 180.511719 322.957031 179.199219 322.542969 177.878906 C 322.371094 177.34375 321.675781 177.390625 321.492188 177.878906 C 320.949219 179.289062 321.5 181.007812 322.136719 182.300781 C 322.765625 183.59375 323.816406 184.882812 325.132812 185.519531 C 326.386719 186.121094 327.976562 186.101562 328.808594 184.824219 C 329.171875 184.261719 329.292969 183.597656 329.371094 182.949219 C 329.484375 182.007812 329.535156 181.058594 329.574219 180.117188 Z M 144.59375 119.164062 C 144.578125 119.164062 144.5625 119.171875 144.550781 119.183594 C 144.554688 119.183594 144.566406 119.171875 144.59375 119.164062 Z M 144.597656 119.15625 C 144.609375 119.152344 144.609375 119.152344 144.613281 119.152344 L 144.613281 119.15625 C 144.601562 119.164062 144.59375 119.171875 144.554688 119.199219 C 144.285156 119.382812 144.085938 119.488281 143.753906 119.546875 C 143.039062 119.679688 142.265625 119.601562 141.546875 119.589844 C 139.800781 119.550781 138.058594 119.488281 136.3125 119.417969 C 132.914062 119.28125 129.511719 119.113281 126.105469 119.078125 C 119.894531 119.011719 113.605469 119.386719 107.617188 121.164062 C 102.566406 122.660156 97.707031 125.097656 93.855469 128.742188 C 89.765625 132.597656 86.449219 138.246094 87.183594 144.050781 C 87.441406 146.054688 88.15625 147.964844 89.367188 149.546875 C 87.789062 149.589844 86.242188 149.921875 84.664062 150.050781 C 83.050781 150.179688 81.523438 150.019531 80.140625 149.121094 C 78.929688 148.34375 77.878906 147.179688 77.292969 145.863281 C 77.132812 145.5 76.464844 145.671875 76.519531 146.078125 C 76.679688 147.339844 77.132812 148.597656 77.992188 149.558594 C 78.882812 150.554688 80.074219 151.285156 81.359375 151.660156 C 84.507812 152.578125 87.738281 151.117188 90.941406 151.480469 C 93.988281 151.824219 96.71875 153.449219 99.492188 154.621094 C 102.503906 155.894531 105.605469 156.988281 108.765625 157.804688 C 121.171875 161.019531 134.113281 158.339844 145.613281 153.246094 C 148.816406 151.824219 151.933594 150.214844 154.96875 148.460938 C 157.519531 146.984375 160.570312 144.75 163.582031 145.921875 C 163.3125 146.566406 163.0625 147.210938 162.828125 147.867188 C 162.214844 149.574219 161.441406 151.484375 161.597656 153.324219 C 161.628906 153.734375 162.160156 153.925781 162.398438 153.542969 C 163.203125 152.1875 163.511719 150.582031 164.023438 149.105469 C 164.382812 148.085938 164.777344 147.085938 165.207031 146.09375 C 165.339844 145.953125 165.425781 145.773438 165.433594 145.585938 C 165.578125 145.269531 165.71875 144.949219 165.871094 144.640625 C 167.261719 141.75 168.96875 138.988281 170.949219 136.464844 C 174.945312 131.359375 180.066406 127.210938 185.859375 124.308594 C 187.503906 123.488281 189.195312 122.769531 190.929688 122.160156 C 192.210938 121.707031 193.535156 121.386719 194.839844 121.019531 C 194.035156 124.511719 193.878906 128.15625 194.316406 131.707031 C 194.570312 133.78125 194.984375 135.851562 195.628906 137.839844 C 196.285156 139.867188 197.183594 141.664062 198.484375 143.363281 C 198.710938 143.65625 199.257812 143.503906 199.128906 143.085938 C 198.601562 141.402344 198.078125 139.722656 197.535156 138.039062 C 197.011719 136.417969 196.578125 134.765625 196.285156 133.082031 C 195.695312 129.664062 195.664062 126.101562 196.285156 122.683594 C 197.402344 116.609375 200.601562 111.09375 205.371094 107.15625 C 210.46875 102.941406 217.222656 101.1875 223.714844 102.558594 C 226.414062 103.136719 228.980469 104.265625 231.117188 106.035156 C 233.460938 107.984375 235.3125 110.515625 236.644531 113.257812 C 237.480469 114.996094 238.082031 116.851562 238.460938 118.753906 C 238.859375 120.734375 238.878906 122.714844 238.910156 124.730469 C 238.949219 126.90625 239.023438 129.082031 239.039062 131.257812 C 239.046875 133.53125 238.921875 135.796875 238.914062 138.070312 C 238.910156 138.753906 240 138.941406 240.132812 138.234375 C 240.902344 134.175781 240.691406 129.890625 240.632812 125.777344 C 240.617188 124.542969 240.625 123.316406 240.570312 122.089844 C 240.75 122.117188 240.9375 122.140625 241.136719 122.160156 C 241.675781 122.21875 242.207031 122.304688 242.742188 122.382812 C 243.71875 122.535156 244.683594 122.726562 245.636719 122.964844 C 247.582031 123.445312 249.484375 124.101562 251.304688 124.933594 C 254.917969 126.59375 258.246094 128.871094 261.058594 131.679688 C 261.851562 132.476562 262.59375 133.316406 263.316406 134.175781 C 264.027344 135.023438 264.757812 135.863281 265.714844 136.449219 C 265.972656 136.613281 266.214844 136.347656 266.179688 136.089844 C 265.867188 134.03125 264.210938 132.363281 262.824219 130.921875 C 261.378906 129.425781 259.789062 128.070312 258.097656 126.855469 C 256.21875 125.503906 254.195312 124.359375 252.085938 123.414062 C 252.152344 123.089844 252.234375 122.757812 252.324219 122.4375 C 253.636719 117.578125 256.761719 113.265625 261.253906 110.878906 C 263.507812 109.683594 266.058594 109.039062 268.613281 109.226562 C 271.140625 109.40625 273.558594 110.480469 275.546875 112.019531 C 279.886719 115.386719 281.976562 120.785156 282.644531 126.089844 C 282.835938 127.617188 282.921875 129.15625 282.9375 130.695312 C 282.953125 132.265625 282.980469 133.882812 282.769531 135.445312 C 282.613281 136.597656 282.074219 137.910156 282.4375 139.074219 C 282.820312 140.292969 284.070312 140.976562 285.269531 141.144531 C 287.726562 141.484375 289.984375 139.953125 292.460938 140.519531 C 294.351562 140.949219 295.875 142.199219 297.160156 143.597656 C 298.496094 145.050781 299.609375 146.691406 300.777344 148.277344 C 302.160156 150.15625 303.703125 151.859375 305.410156 153.449219 C 313.949219 161.390625 325.101562 165.757812 336.4375 167.878906 C 339.289062 168.417969 342.175781 168.703125 345.039062 169.160156 C 347.46875 169.550781 349.746094 170.425781 351.148438 172.550781 C 353.445312 176.023438 352.808594 180.730469 352.003906 184.570312 C 350.921875 189.742188 348.988281 194.644531 346.011719 199.023438 C 343.039062 203.398438 339.027344 207.421875 334.097656 209.515625 C 331.671875 210.542969 329.050781 210.988281 326.421875 210.75 C 323.777344 210.515625 321.234375 209.640625 318.757812 208.730469 C 318.832031 206.890625 318.792969 205.046875 318.820312 203.210938 C 318.847656 201.222656 318.890625 199.230469 318.890625 197.242188 C 318.890625 196.445312 317.929688 196.332031 317.515625 196.875 C 316.882812 197.707031 316.140625 198.472656 315.476562 199.289062 C 314.820312 200.089844 314.183594 200.894531 313.550781 201.710938 C 312.917969 202.539062 312.273438 203.359375 311.648438 204.195312 C 311.335938 204.617188 311.03125 205.046875 310.746094 205.476562 C 310.644531 205.632812 310.539062 205.792969 310.429688 205.953125 C 310.367188 205.9375 310.300781 205.917969 310.234375 205.902344 C 307.46875 205.300781 304.632812 205.109375 301.808594 205.046875 C 296.171875 204.917969 290.355469 205.363281 284.890625 203.691406 C 282.613281 202.992188 280.570312 201.796875 278.535156 200.574219 C 279.378906 195.636719 279.65625 190.640625 279.085938 185.652344 C 279.042969 185.292969 278.753906 184.996094 278.371094 185.101562 C 277.777344 185.269531 277.445312 185.78125 277.0625 186.226562 C 276.652344 186.71875 276.253906 187.21875 275.863281 187.726562 C 275.089844 188.730469 274.40625 189.792969 273.703125 190.839844 C 272.988281 191.910156 272.277344 192.980469 271.609375 194.078125 C 271.105469 194.914062 270.484375 195.785156 270.136719 196.722656 C 267.78125 196.285156 265.425781 196.601562 263.105469 197.242188 C 260.566406 197.945312 258.03125 199.011719 255.371094 199.144531 C 249.820312 199.429688 246.226562 194.738281 243.324219 190.675781 C 241.632812 188.308594 239.945312 185.972656 237.601562 184.207031 C 235.351562 182.515625 232.984375 180.941406 230.386719 179.84375 C 225.238281 177.652344 219.457031 177.242188 214.054688 178.722656 C 212.742188 179.085938 211.460938 179.566406 210.222656 180.136719 C 208.9375 180.734375 207.996094 181.6875 206.84375 182.46875 C 206.285156 182.839844 206.8125 183.753906 207.375 183.375 C 208.542969 182.585938 210.078125 182.148438 211.371094 181.59375 C 212.667969 181.042969 214.015625 180.605469 215.386719 180.285156 C 218.171875 179.628906 221.089844 179.480469 223.921875 179.902344 C 226.730469 180.316406 229.449219 181.25 231.933594 182.632812 C 233.203125 183.34375 234.390625 184.183594 235.589844 185.015625 C 236.796875 185.847656 237.914062 186.746094 238.878906 187.855469 C 239.84375 188.957031 240.730469 190.164062 241.605469 191.378906 C 241.257812 192.3125 241.011719 193.300781 240.746094 194.253906 C 240.417969 195.40625 240.105469 196.5625 239.808594 197.722656 C 239.203125 200.042969 238.636719 202.371094 238.121094 204.714844 C 237.976562 205.378906 238.675781 205.996094 239.304688 205.621094 C 241.058594 204.582031 242.710938 203.285156 244.378906 202.113281 C 245.199219 201.53125 246.027344 200.949219 246.851562 200.375 C 247.386719 199.992188 248.183594 199.613281 248.65625 199.082031 C 249.078125 199.355469 249.515625 199.609375 249.980469 199.839844 C 252.429688 201.050781 255.050781 201.199219 257.699219 200.667969 C 260.371094 200.132812 262.890625 199.039062 265.570312 198.53125 C 268.242188 198.03125 270.785156 198.523438 273.214844 199.695312 C 275.628906 200.859375 277.820312 202.414062 280.179688 203.675781 C 284.007812 205.710938 288.148438 206.4375 292.375 206.691406 C 292.257812 207.15625 292.269531 207.675781 292.273438 208.132812 C 292.289062 208.933594 292.332031 209.734375 292.414062 210.527344 C 292.5 211.339844 292.605469 212.148438 292.734375 212.953125 C 292.847656 213.636719 292.910156 214.421875 293.386719 214.960938 C 294.566406 216.289062 296.140625 214.960938 297.070312 214.070312 C 298.109375 213.070312 299.070312 212.003906 299.960938 210.875 C 300.484375 210.214844 300.988281 209.539062 301.457031 208.84375 C 301.679688 208.515625 301.898438 208.179688 302.113281 207.84375 C 302.296875 207.542969 302.460938 207.179688 302.683594 206.890625 C 303.621094 206.921875 304.554688 206.964844 305.496094 207.039062 C 308.414062 207.28125 311.214844 207.917969 313.976562 208.886719 C 316.359375 209.722656 318.734375 210.6875 321.144531 211.429688 C 321.121094 211.601562 321.089844 211.765625 321.054688 211.929688 C 320.519531 214.40625 318.636719 216.4375 316.464844 217.667969 C 313.492188 219.355469 309.933594 219.578125 306.59375 219.535156 C 299.007812 219.441406 291.417969 218.644531 283.910156 217.628906 C 276.386719 216.601562 268.894531 215.3125 261.40625 214.082031 C 257.871094 213.5 254.300781 212.945312 250.714844 213.007812 C 247.042969 213.070312 243.632812 213.945312 240.308594 215.476562 C 236.742188 217.121094 233.234375 219.339844 229.25 219.769531 C 226.140625 220.105469 222.644531 219.148438 221.019531 216.261719 C 221 216.222656 220.972656 216.1875 220.945312 216.15625 C 220.84375 215.324219 220.871094 214.570312 221.203125 213.695312 C 221.625 212.601562 222.296875 211.621094 222.988281 210.6875 C 224.351562 208.835938 225.851562 206.644531 225.519531 204.222656 C 224.953125 200.070312 219.980469 199.195312 216.625 200.195312 C 214.746094 200.757812 213.144531 201.824219 211.855469 203.203125 C 209.667969 200.019531 204.785156 199.199219 201.425781 200.863281 C 200.117188 201.515625 199.042969 202.441406 198.203125 203.546875 C 197.160156 202.667969 195.445312 202.601562 194.128906 202.773438 C 192.246094 203.011719 190.445312 203.875 189.109375 205.230469 C 186.300781 208.078125 185.824219 212.207031 186.734375 215.945312 C 187.675781 219.796875 189.816406 223.332031 192.171875 226.476562 C 194.648438 229.777344 197.539062 232.707031 200.859375 235.164062 C 200.457031 235.386719 200.082031 235.671875 199.777344 235.910156 C 199.042969 236.492188 198.4375 237.207031 197.898438 237.96875 C 196.734375 239.605469 195.878906 241.484375 195.070312 243.3125 C 194.195312 245.296875 193.417969 247.332031 192.78125 249.40625 C 192.449219 250.480469 192.160156 251.574219 191.90625 252.679688 C 191.664062 253.703125 191.296875 254.828125 191.570312 255.878906 C 191.699219 256.347656 192.296875 256.367188 192.546875 256.003906 C 193.132812 255.171875 193.214844 254.070312 193.449219 253.101562 C 193.671875 252.160156 193.929688 251.230469 194.210938 250.300781 C 194.804688 248.316406 195.5 246.363281 196.328125 244.46875 C 197.085938 242.738281 197.925781 240.992188 198.960938 239.410156 C 199.414062 238.710938 199.925781 238.054688 200.539062 237.496094 C 200.820312 237.246094 201.121094 237.015625 201.453125 236.828125 C 201.785156 236.628906 202.1875 236.527344 202.519531 236.332031 C 204.054688 237.355469 205.667969 238.273438 207.339844 239.050781 C 208.472656 239.582031 209.628906 240.058594 210.808594 240.476562 C 211.976562 240.886719 213.152344 241.292969 214.398438 241.335938 C 214.960938 241.355469 215.195312 240.53125 214.6875 240.273438 C 213.808594 239.816406 212.867188 239.542969 211.933594 239.207031 C 210.992188 238.871094 210.0625 238.492188 209.144531 238.082031 C 207.324219 237.253906 205.558594 236.289062 203.882812 235.203125 C 200.507812 233.015625 197.503906 230.292969 194.949219 227.195312 C 192.726562 224.496094 190.683594 221.542969 189.335938 218.304688 C 188.046875 215.222656 187.324219 211.546875 188.941406 208.441406 C 189.835938 206.722656 191.261719 205.375 193.132812 204.789062 C 194.003906 204.515625 194.9375 204.398438 195.847656 204.515625 C 196.292969 204.574219 196.703125 204.722656 197.128906 204.847656 C 197.195312 204.871094 197.261719 204.886719 197.332031 204.894531 C 196.050781 207.273438 195.667969 210.160156 196.28125 212.8125 C 196.601562 214.207031 197.175781 215.550781 197.929688 216.773438 C 198.46875 217.644531 199.464844 219.46875 200.710938 219.214844 C 200.808594 219.195312 200.902344 219.09375 200.929688 219 C 201.152344 218.058594 200.15625 217.207031 199.691406 216.496094 C 199.097656 215.59375 198.601562 214.625 198.253906 213.601562 C 197.582031 211.640625 197.4375 209.535156 198.035156 207.542969 C 199.097656 204.011719 202.46875 201.136719 206.300781 201.839844 C 208.199219 202.191406 209.59375 203.183594 210.660156 204.691406 C 208.777344 207.441406 207.902344 210.960938 208.296875 214.234375 C 208.5 215.886719 208.960938 217.488281 209.773438 218.945312 C 210.191406 219.6875 210.691406 220.382812 211.277344 220.996094 C 211.578125 221.308594 211.929688 221.601562 212.3125 221.804688 C 212.675781 222 213.109375 222.042969 213.5 222.183594 C 213.851562 222.308594 214.027344 221.851562 213.828125 221.613281 C 213.609375 221.34375 213.53125 221.054688 213.34375 220.773438 C 213.144531 220.464844 212.894531 220.179688 212.667969 219.902344 C 212.261719 219.417969 211.875 218.921875 211.546875 218.382812 C 210.894531 217.300781 210.46875 216.113281 210.234375 214.875 C 209.757812 212.40625 210.046875 209.710938 211.101562 207.429688 C 212.144531 205.15625 213.894531 203.167969 216.238281 202.203125 C 217.558594 201.664062 219.089844 201.375 220.503906 201.648438 C 222.089844 201.957031 223.683594 202.910156 223.828125 204.671875 C 224.035156 207.136719 221.816406 209.195312 220.617188 211.121094 C 219.691406 212.597656 218.691406 214.875 219.351562 216.640625 C 219.335938 216.804688 219.367188 216.988281 219.46875 217.171875 C 220.96875 219.851562 223.871094 221.285156 226.84375 221.601562 C 230.410156 221.972656 233.914062 220.582031 237.070312 219.078125 C 240.058594 217.652344 242.949219 216.089844 246.171875 215.351562 C 247.03125 223.003906 244.09375 230.828125 238.574219 236.175781 C 236.980469 237.71875 235.1875 239.019531 233.226562 240.058594 C 232.960938 240.203125 232.785156 240.523438 232.792969 240.824219 C 232.933594 247.976562 231.664062 255.597656 227.480469 261.488281 C 227.09375 261.582031 226.855469 261.957031 226.84375 262.347656 C 226.269531 263.082031 225.664062 263.785156 224.988281 264.453125 C 219.597656 269.785156 211.855469 272.148438 204.378906 271.960938 C 196.148438 271.757812 188.394531 268.242188 181.945312 263.277344 C 177.523438 259.875 173.632812 255.800781 170.207031 251.367188 C 170.171875 251.03125 169.972656 250.71875 169.636719 250.621094 C 167.945312 248.375 166.367188 246.039062 164.902344 243.660156 C 160.082031 235.820312 156.597656 227.300781 154.277344 218.40625 C 153.988281 217.289062 153.710938 216.164062 153.449219 215.046875 C 153.21875 214.082031 151.816406 214.5 151.988281 215.445312 C 152.125 216.234375 152.28125 217.019531 152.453125 217.804688 C 149.8125 218.164062 147.183594 218.636719 144.539062 218.953125 C 141.65625 219.308594 138.761719 219.578125 135.863281 219.777344 C 130.023438 220.171875 124.15625 220.261719 118.304688 220.042969 C 116.703125 219.980469 115.097656 219.902344 113.5 219.804688 C 112.675781 219.753906 111.855469 219.691406 111.035156 219.632812 C 110.515625 219.601562 110.003906 219.5625 109.492188 219.578125 C 108.285156 213.839844 105.3125 208.46875 101.003906 204.394531 C 99.101562 202.597656 96.964844 201.042969 94.675781 199.78125 C 93.511719 199.136719 92.3125 198.570312 91.078125 198.074219 C 89.882812 197.589844 88.621094 197.019531 87.308594 197.085938 C 86.757812 197.113281 86.585938 197.789062 87.03125 198.09375 C 87.953125 198.726562 89.042969 198.980469 90.070312 199.390625 C 91.109375 199.800781 92.121094 200.277344 93.105469 200.804688 C 95.074219 201.851562 96.925781 203.109375 98.625 204.558594 C 102.042969 207.492188 104.789062 211.207031 106.433594 215.414062 C 108.152344 219.804688 108.78125 224.671875 107.988281 229.335938 C 107.265625 233.558594 105.441406 237.5 102.90625 240.941406 C 100.015625 244.867188 96.117188 247.671875 92.472656 250.828125 C 92.214844 251.050781 92.480469 251.511719 92.804688 251.398438 C 96.089844 250.269531 98.921875 248.085938 101.332031 245.570312 C 101.628906 245.792969 101.921875 246.019531 102.21875 246.230469 C 103.96875 247.558594 105.726562 248.871094 107.492188 250.171875 C 108.542969 250.953125 109.601562 251.71875 110.660156 252.488281 C 111.371094 253 112.457031 253.613281 112.699219 254.523438 C 112.894531 255.289062 112.25 255.914062 111.582031 256.15625 C 110.648438 256.5 109.726562 256.269531 108.8125 255.953125 C 107.003906 255.335938 104.300781 253.933594 102.6875 255.734375 C 101.269531 257.324219 102.359375 259.585938 103.808594 260.691406 C 104.933594 261.550781 108.417969 262.71875 107.652344 264.691406 C 107.351562 265.46875 106.476562 265.949219 105.691406 266.09375 C 104.59375 266.296875 103.441406 265.875 102.4375 265.476562 C 101.300781 265.023438 100.195312 264.503906 99.027344 264.148438 C 97.808594 263.773438 96.554688 263.523438 95.289062 263.363281 C 94.292969 263.234375 93.078125 263.019531 92.230469 263.71875 C 91.40625 264.398438 91.382812 265.535156 91.761719 266.460938 C 92.609375 268.53125 94.898438 269.5 95.917969 271.445312 C 97.058594 273.609375 95.054688 275.128906 93 275.027344 C 91.761719 274.96875 90.5625 274.472656 89.4375 273.996094 C 88.316406 273.523438 87.222656 273 86.144531 272.441406 C 81.789062 270.195312 77.773438 267.363281 73.792969 264.519531 C 69.4375 261.40625 65.085938 258.289062 60.738281 255.171875 C 58.785156 253.769531 56.644531 252.464844 54.875 250.832031 C 54.132812 250.152344 53.476562 249.355469 53.210938 248.371094 C 52.933594 247.339844 53.097656 246.273438 53.464844 245.292969 C 54.949219 241.320312 59.394531 238.699219 63.367188 237.917969 C 64.382812 237.71875 65.410156 237.570312 66.429688 237.414062 C 67.347656 238.101562 68.296875 238.746094 69.289062 239.335938 C 71.121094 240.417969 73.0625 241.3125 75.0625 242.023438 C 76.035156 242.371094 77.0625 242.683594 78.085938 242.816406 C 79.148438 242.957031 80.195312 242.898438 81.257812 242.945312 C 81.585938 242.957031 81.652344 242.453125 81.332031 242.371094 C 80.5 242.15625 79.714844 241.777344 78.902344 241.480469 C 78.023438 241.160156 77.132812 240.871094 76.253906 240.5625 C 74.621094 239.984375 73.035156 239.339844 71.507812 238.527344 C 68.394531 236.871094 65.566406 234.722656 63.179688 232.117188 C 58.441406 226.957031 55.417969 219.925781 55.160156 212.902344 C 55.09375 211.0625 55.210938 209.214844 55.675781 207.429688 C 56.160156 205.550781 57.078125 204.046875 58.222656 202.511719 C 58.582031 202.03125 57.855469 201.632812 57.472656 201.929688 C 55.328125 203.589844 54.269531 206.425781 53.824219 209.140625 C 44.214844 206.863281 38.167969 197.972656 33.703125 189.808594 C 28.847656 180.949219 25.476562 171.082031 25.410156 160.898438 C 25.390625 157.441406 25.765625 154.027344 26.507812 150.691406 C 26.902344 149.574219 27.316406 148.472656 27.757812 147.382812 C 31.554688 138.066406 37.257812 129.484375 44.332031 122.335938 C 52.222656 114.375 61.917969 108.292969 72.480469 104.542969 C 83.714844 100.558594 95.898438 99.136719 107.726562 100.75 C 114.046875 101.613281 120.375 103.300781 126.195312 105.929688 C 128.324219 106.894531 130.363281 108.101562 132.378906 109.273438 C 135.390625 111.027344 138.398438 112.875 141.128906 115.039062 C 142.171875 115.867188 143.230469 116.753906 144.054688 117.808594 C 144.074219 117.84375 144.199219 118.003906 144.214844 118.03125 C 144.285156 118.136719 144.347656 118.238281 144.410156 118.347656 C 144.453125 118.425781 144.496094 118.507812 144.539062 118.585938 C 144.539062 118.597656 144.542969 118.597656 144.542969 118.601562 C 144.566406 118.65625 144.585938 118.714844 144.601562 118.769531 C 144.609375 118.789062 144.625 118.863281 144.636719 118.917969 C 144.640625 118.964844 144.644531 119.027344 144.644531 119.054688 C 144.644531 119.078125 144.640625 119.097656 144.628906 119.097656 C 144.628906 119.097656 144.625 119.109375 144.625 119.125 C 144.613281 119.136719 144.601562 119.148438 144.597656 119.15625 " fill-opacity="1" fill-rule="nonzero"/><path fill="#ffffff" d="M 317.355469 199.199219 C 317.320312 200.53125 317.292969 201.871094 317.257812 203.210938 C 317.222656 204.84375 317.132812 206.480469 317.109375 208.113281 C 315.4375 207.484375 313.761719 206.859375 312.039062 206.367188 C 312.324219 205.957031 312.578125 205.53125 312.839844 205.15625 C 313.441406 204.296875 314.03125 203.445312 314.660156 202.613281 C 315.523438 201.476562 316.410156 200.296875 317.355469 199.199219 " fill-opacity="1" fill-rule="nonzero"/><path fill="#ffffff" d="M 300.859375 206.847656 C 300.816406 206.910156 300.769531 206.976562 300.730469 207.035156 C 300.535156 207.347656 300.328125 207.664062 300.117188 207.96875 C 299.671875 208.613281 299.210938 209.242188 298.714844 209.855469 C 297.726562 211.070312 296.648438 212.21875 295.496094 213.285156 C 295.289062 213.476562 294.996094 213.796875 294.695312 213.839844 C 294.636719 213.851562 294.632812 213.859375 294.632812 213.867188 C 294.558594 213.8125 294.546875 213.636719 294.527344 213.558594 C 294.328125 212.746094 294.242188 211.886719 294.144531 211.0625 C 294.042969 210.175781 293.957031 209.285156 293.890625 208.398438 C 293.855469 207.882812 293.855469 207.289062 293.714844 206.757812 C 294.75 206.800781 295.789062 206.816406 296.824219 206.820312 C 298.171875 206.832031 299.515625 206.828125 300.859375 206.847656 " fill-opacity="1" fill-rule="nonzero"/><path fill="#66cc99" d="M 286.382812 241.160156 C 288.035156 244.273438 289.167969 248.003906 288.023438 251.46875 C 287.007812 254.519531 284.472656 256.796875 281.769531 258.371094 C 278.710938 260.140625 275.296875 261.335938 271.929688 262.367188 C 265.210938 264.417969 258.203125 265.449219 251.175781 265.441406 C 243.726562 265.433594 236.421875 264.207031 229.335938 261.972656 C 232.742188 256.796875 234.246094 250.445312 234.515625 244.21875 C 234.554688 243.253906 234.5625 242.289062 234.550781 241.328125 C 234.894531 241.136719 235.226562 240.949219 235.554688 240.742188 C 235.898438 240.605469 236.242188 240.449219 236.605469 240.304688 C 237.597656 239.910156 238.613281 239.558594 239.628906 239.25 C 241.679688 238.632812 243.785156 238.195312 245.914062 237.96875 C 246.949219 237.855469 247.984375 237.796875 249.023438 237.78125 C 249.109375 237.816406 249.207031 237.820312 249.316406 237.789062 C 249.324219 237.78125 249.324219 237.78125 249.328125 237.78125 C 250.328125 237.777344 251.332031 237.808594 252.328125 237.890625 C 253.390625 237.972656 254.457031 238.101562 255.507812 238.269531 C 255.992188 238.34375 256.476562 238.421875 256.976562 238.460938 C 257.535156 238.503906 258.078125 238.414062 258.644531 238.421875 C 258.964844 238.429688 259.09375 237.96875 258.808594 237.808594 C 258.296875 237.527344 257.839844 237.191406 257.285156 236.984375 C 256.78125 236.792969 256.265625 236.679688 255.738281 236.578125 C 254.6875 236.378906 253.625 236.246094 252.550781 236.160156 C 252.238281 236.136719 251.921875 236.125 251.605469 236.109375 C 251.945312 235.878906 252.285156 235.664062 252.640625 235.472656 C 253.214844 235.167969 253.8125 234.929688 254.433594 234.75 C 254.757812 234.652344 255.082031 234.578125 255.410156 234.507812 C 255.597656 234.472656 255.785156 234.433594 255.957031 234.351562 C 256.117188 234.273438 256.234375 234.144531 256.378906 234.054688 C 256.714844 233.851562 256.617188 233.394531 256.277344 233.265625 C 256.109375 233.203125 255.964844 233.109375 255.789062 233.078125 C 255.554688 233.03125 255.316406 233.066406 255.082031 233.105469 C 254.734375 233.164062 254.386719 233.25 254.046875 233.34375 C 253.324219 233.554688 252.621094 233.835938 251.949219 234.175781 C 251.296875 234.519531 250.683594 234.925781 250.109375 235.378906 C 249.863281 235.570312 249.582031 235.804688 249.324219 236.058594 C 248.152344 236.082031 246.96875 236.152344 245.804688 236.285156 C 243.742188 236.511719 241.710938 236.90625 239.726562 237.480469 C 244.015625 233.359375 246.933594 227.789062 247.804688 221.90625 C 248.132812 219.625 248.1875 217.332031 247.898438 215.050781 C 251.519531 214.578125 255.226562 214.980469 258.808594 215.527344 C 261.988281 216.011719 265.171875 216.527344 268.355469 217.046875 C 268.355469 217.050781 268.355469 217.054688 268.355469 217.0625 C 269.757812 220.25 271.671875 223.238281 273.710938 226.058594 C 275.734375 228.855469 277.960938 231.5 280.375 233.964844 C 282.582031 236.210938 284.890625 238.34375 286.382812 241.160156 " fill-opacity="1" fill-rule="nonzero"/><path fill="#ffffff" d="M 277.980469 187.40625 C 278.007812 191.519531 277.753906 195.648438 277.082031 199.707031 C 275.3125 198.65625 273.515625 197.679688 271.546875 197.078125 C 272.070312 196.378906 272.472656 195.566406 272.910156 194.84375 C 273.535156 193.808594 274.144531 192.773438 274.796875 191.757812 C 275.441406 190.746094 276.160156 189.78125 276.886719 188.820312 C 277.242188 188.34375 277.609375 187.871094 277.980469 187.40625 " fill-opacity="1" fill-rule="nonzero"/><path fill="#ffffff" d="M 247.203125 198.003906 C 247.148438 198.042969 247.101562 198.074219 247.046875 198.117188 C 246.625 198.425781 246.191406 198.726562 245.765625 199.027344 C 244.9375 199.609375 244.117188 200.195312 243.296875 200.777344 C 242.261719 201.515625 241.1875 202.226562 240.144531 202.976562 C 240.496094 201.398438 240.855469 199.824219 241.257812 198.253906 C 241.539062 197.136719 241.839844 196.019531 242.148438 194.90625 C 242.332031 194.253906 242.542969 193.597656 242.734375 192.941406 C 244.074219 194.785156 245.484375 196.5625 247.203125 198.003906 " fill-opacity="1" fill-rule="nonzero"/><path fill="#ffffff" d="M 228.386719 125.03125 C 230.308594 128.949219 231.144531 133.691406 230.410156 138.066406 C 230.375 137.691406 230.320312 137.320312 230.261719 136.96875 C 229.96875 135.296875 229.160156 133.648438 228.074219 132.359375 C 226.097656 130.019531 222.742188 128.699219 219.738281 129.570312 C 217.070312 130.347656 215.164062 132.625 214.121094 135.117188 C 212.878906 138.09375 212.847656 141.515625 214.023438 144.523438 C 214.71875 146.296875 215.769531 148.054688 217.269531 149.265625 C 217.367188 149.339844 217.464844 149.421875 217.578125 149.496094 C 215.890625 149.335938 214.242188 148.777344 212.734375 147.859375 C 212.496094 147.714844 212.269531 147.703125 212.078125 147.769531 C 209.933594 145.507812 207.949219 142.957031 206.785156 140.054688 C 206.320312 138.902344 205.964844 137.714844 205.707031 136.503906 C 209.667969 130.597656 215.992188 126.503906 223.003906 125.296875 C 224.011719 125.121094 225.03125 125.027344 226.058594 124.984375 C 226.824219 124.949219 227.613281 125.03125 228.386719 125.03125 " fill-opacity="1" fill-rule="nonzero"/><path fill="#66cc99" d="M 227.371094 123.199219 C 227.0625 123.207031 226.75 123.210938 226.453125 123.222656 C 225.476562 123.253906 224.503906 123.34375 223.539062 123.476562 C 221.65625 123.742188 219.804688 124.203125 218.019531 124.855469 C 214.394531 126.175781 211.050781 128.207031 208.25 130.867188 C 207.171875 131.890625 206.210938 133.007812 205.339844 134.207031 C 205.191406 132.878906 205.148438 131.542969 205.214844 130.214844 C 205.480469 124.890625 207.730469 118.292969 213.269531 116.355469 C 218.914062 114.382812 224.453125 118.582031 227.371094 123.199219 " fill-opacity="1" fill-rule="nonzero"/><path fill="#ffffff" d="M 226.902344 136.539062 C 226.921875 136.175781 226.804688 135.753906 226.699219 135.410156 C 226.582031 135.035156 226.382812 134.636719 226.179688 134.292969 C 225.765625 133.578125 225.101562 133.003906 224.335938 132.703125 C 222.710938 132.066406 220.863281 133.074219 220.023438 134.492188 C 219.214844 135.855469 219.1875 137.761719 220.105469 139.089844 C 221.089844 140.515625 222.863281 141.257812 224.570312 141.019531 C 225.515625 140.886719 226.472656 140.421875 227.007812 139.613281 C 227.652344 138.636719 227.347656 137.519531 226.902344 136.539062 " fill-opacity="1" fill-rule="nonzero"/><path fill="#99ccff" d="M 201.097656 150.390625 C 199.523438 152.414062 198.527344 154.988281 197.816406 157.316406 C 196.625 161.230469 196.050781 165.65625 193.570312 169.03125 C 192.582031 170.367188 190.847656 171.84375 189.074219 171.207031 C 187.140625 170.519531 186.652344 168.210938 186.804688 166.410156 C 187.125 162.515625 189.558594 158.953125 192.304688 156.316406 C 194.878906 153.851562 197.941406 152.023438 201.097656 150.390625 " fill-opacity="1" fill-rule="nonzero"/><path fill="#99ccff" d="M 182.992188 179.703125 C 183 179.847656 183.007812 180 183 180.140625 C 182.996094 180.378906 183 180.34375 182.957031 180.53125 C 182.933594 180.664062 182.890625 180.792969 182.851562 180.921875 C 182.847656 180.941406 182.839844 180.953125 182.839844 180.964844 C 182.835938 180.972656 182.832031 180.980469 182.820312 180.996094 C 182.773438 181.085938 182.730469 181.175781 182.679688 181.261719 C 182.503906 181.5625 182.472656 181.59375 182.234375 181.84375 C 182.136719 181.945312 182.042969 182.035156 181.941406 182.125 C 181.757812 182.285156 181.800781 182.253906 181.613281 182.378906 C 181.46875 182.476562 181.316406 182.570312 181.15625 182.65625 C 181.085938 182.691406 181.011719 182.722656 180.9375 182.761719 C 180.910156 182.773438 180.898438 182.78125 180.890625 182.789062 C 180.878906 182.789062 180.867188 182.792969 180.835938 182.804688 C 180.660156 182.875 180.484375 182.933594 180.300781 182.976562 C 180.253906 182.992188 180.199219 183 180.148438 183.011719 C 180.113281 183.015625 180.082031 183.023438 180.050781 183.027344 C 180.039062 183.027344 180.019531 183.027344 179.980469 183.035156 C 179.832031 183.039062 179.683594 183.042969 179.527344 183.035156 C 179.519531 183.035156 179.425781 183.015625 179.394531 183.011719 C 179.316406 183 179.234375 182.984375 179.152344 182.957031 C 178.8125 182.855469 178.511719 182.617188 178.128906 182.734375 C 178.121094 182.734375 178.109375 182.734375 178.097656 182.738281 C 178.097656 182.734375 178.097656 182.730469 178.09375 182.722656 C 178.082031 182.71875 178.070312 182.714844 178.0625 182.707031 C 177.910156 181.964844 177.863281 181.199219 177.824219 180.441406 C 177.789062 179.769531 177.878906 179.183594 178.167969 178.644531 C 178.464844 178.089844 178.839844 177.695312 179.390625 177.410156 C 179.851562 177.171875 180.429688 177.109375 180.996094 177.257812 C 182.070312 177.539062 182.890625 178.660156 182.992188 179.703125 " fill-opacity="1" fill-rule="nonzero"/><path fill="#d5f2b8" d="M 174.800781 129.746094 C 170.804688 133.410156 167.496094 137.792969 165.0625 142.648438 C 164.765625 143.234375 164.488281 143.832031 164.222656 144.429688 C 162.007812 143.296875 159.273438 144.070312 157.128906 145.195312 C 154.371094 146.640625 151.746094 148.316406 148.960938 149.71875 C 143.382812 152.523438 137.5 154.785156 131.390625 156.128906 C 125.363281 157.460938 119.066406 157.84375 112.960938 156.824219 C 109.777344 156.289062 106.683594 155.367188 103.660156 154.28125 C 100.683594 153.207031 97.886719 151.734375 94.9375 150.609375 C 94.207031 150.328125 93.453125 150.09375 92.695312 149.917969 C 94.914062 149.328125 97.023438 148.253906 98.902344 146.929688 C 99.636719 148.582031 100.378906 150.238281 101.125 151.886719 C 101.300781 152.28125 101.957031 152.449219 102.304688 152.195312 C 104.4375 150.609375 106.257812 148.699219 107.714844 146.503906 C 108.925781 149.441406 110.601562 152.167969 112.714844 154.566406 C 113.078125 154.984375 113.8125 154.855469 114.070312 154.390625 C 115.5625 151.714844 116.710938 148.859375 117.476562 145.894531 C 120.125 148.238281 122.765625 150.582031 125.421875 152.914062 C 125.917969 153.351562 126.660156 153.175781 126.867188 152.53125 C 128.085938 148.8125 128.902344 144.957031 129.273438 141.0625 C 133.34375 143.992188 137.632812 146.589844 142.152344 148.769531 C 142.722656 149.046875 143.515625 148.726562 143.488281 148.007812 C 143.265625 142.855469 143.566406 137.699219 144.410156 132.609375 C 148.394531 136.160156 152.898438 139.167969 157.738281 141.414062 C 158.367188 141.707031 159.0625 141.363281 159.09375 140.640625 C 159.375 134.59375 160.519531 128.542969 162.492188 122.8125 C 166.28125 125.636719 170.484375 127.824219 174.800781 129.746094 " fill-opacity="1" fill-rule="nonzero"/><path fill="#d5f2b8" d="M 167.480469 250.738281 C 165.902344 250.886719 164.316406 251.089844 162.738281 251.214844 C 160.519531 251.382812 158.296875 251.507812 156.078125 251.574219 C 153.335938 251.660156 150.59375 251.660156 147.855469 251.589844 C 144.035156 243.960938 142.601562 235.265625 143.53125 226.796875 C 143.664062 225.613281 143.839844 224.433594 144.058594 223.257812 C 144.164062 222.695312 144.257812 222.121094 144.359375 221.558594 C 144.410156 221.269531 144.464844 221.003906 144.464844 220.738281 C 147.253906 220.421875 150.085938 220.101562 152.839844 219.542969 C 154.714844 227.425781 157.902344 235.070312 161.894531 242.078125 C 163.585938 245.046875 165.449219 247.953125 167.480469 250.738281 " fill-opacity="1" fill-rule="nonzero"/><path fill="#d5f2b8" d="M 159.398438 173.132812 C 158.976562 173.285156 158.554688 173.433594 158.121094 173.582031 C 156.457031 174.152344 154.777344 174.703125 153.089844 175.21875 C 149.640625 176.285156 146.148438 177.230469 142.632812 178.035156 C 142.0625 178.164062 141.492188 178.292969 140.917969 178.414062 L 140.746094 177.613281 C 141.082031 177.566406 141.390625 177.347656 141.445312 177 C 142.113281 172.691406 142.179688 168.332031 141.679688 164.011719 C 147.757812 166.726562 153.640625 169.796875 159.398438 173.132812 " fill-opacity="1" fill-rule="nonzero"/><path fill="#1d1d1b" d="M 144.59375 119.164062 C 144.566406 119.171875 144.554688 119.183594 144.550781 119.183594 C 144.5625 119.171875 144.578125 119.164062 144.59375 119.164062 " fill-opacity="1" fill-rule="nonzero"/><path fill="#d5f2b8" d="M 145.894531 251.539062 C 144.886719 251.496094 143.878906 251.453125 142.867188 251.394531 C 137.378906 251.070312 131.910156 250.429688 126.496094 249.484375 C 122.550781 242.882812 120.9375 235.070312 121.730469 227.429688 C 121.84375 226.320312 122.035156 225.234375 122.226562 224.132812 C 122.359375 223.371094 122.585938 222.609375 122.734375 221.839844 C 123.773438 221.851562 124.8125 221.871094 125.847656 221.867188 C 131.632812 221.835938 137.410156 221.503906 143.15625 220.875 C 142.925781 221.417969 142.8125 222.042969 142.6875 222.523438 C 142.414062 223.59375 142.21875 224.695312 142.050781 225.789062 C 141.730469 227.980469 141.5625 230.1875 141.566406 232.40625 C 141.589844 236.839844 142.246094 241.289062 143.546875 245.527344 C 144.183594 247.585938 144.976562 249.589844 145.894531 251.539062 " fill-opacity="1" fill-rule="nonzero"/><path fill="#d5f2b8" d="M 140.746094 177.613281 L 140.917969 178.414062 C 134.460938 179.800781 127.886719 180.675781 121.277344 180.824219 C 120.035156 180.851562 118.789062 180.855469 117.546875 180.832031 L 117.570312 179.726562 C 118.007812 179.726562 118.394531 179.382812 118.449219 178.867188 C 118.839844 175.066406 118.828125 171.25 118.492188 167.449219 C 126.03125 170.054688 133.339844 173.417969 140.175781 177.511719 C 140.339844 177.609375 140.542969 177.640625 140.746094 177.613281 " fill-opacity="1" fill-rule="nonzero"/><path fill="#d5f2b8" d="M 122.132812 244.460938 C 122.722656 246.039062 123.417969 247.574219 124.21875 249.058594 C 121.675781 248.574219 119.148438 248.027344 116.640625 247.40625 C 114.203125 246.800781 111.773438 246.140625 109.375 245.421875 C 107.308594 244.800781 105.277344 244.050781 103.207031 243.457031 C 103.265625 243.382812 103.328125 243.304688 103.394531 243.226562 C 106.230469 239.722656 108.40625 235.648438 109.425781 231.234375 C 110.195312 227.882812 110.28125 224.453125 109.773438 221.117188 C 110.703125 221.292969 111.683594 221.308594 112.589844 221.375 C 114.0625 221.5 115.53125 221.601562 117.007812 221.671875 C 118.4375 221.738281 119.867188 221.792969 121.296875 221.824219 C 121.113281 222.382812 120.972656 222.972656 120.816406 223.519531 C 120.558594 224.476562 120.386719 225.46875 120.242188 226.449219 C 119.941406 228.460938 119.808594 230.492188 119.859375 232.523438 C 119.949219 236.589844 120.710938 240.648438 122.132812 244.460938 " fill-opacity="1" fill-rule="nonzero"/><path fill="#d5f2b8" d="M 117.570312 179.726562 L 117.546875 180.832031 C 106.199219 180.601562 94.871094 178.101562 84.773438 172.820312 L 84.816406 172.734375 C 85.222656 172.953125 85.792969 172.824219 86.03125 172.410156 C 87.433594 169.945312 88.742188 167.433594 90 164.894531 C 93.117188 168.710938 96.242188 172.527344 99.347656 176.355469 C 99.757812 176.855469 100.714844 176.585938 100.828125 175.964844 C 101.386719 172.972656 101.964844 169.988281 102.523438 166.996094 C 107.335938 171.160156 112.164062 175.304688 116.960938 179.484375 C 117.152344 179.652344 117.367188 179.726562 117.570312 179.726562 " fill-opacity="1" fill-rule="nonzero"/><path fill="#1d1d1b" d="M 92.421875 112.136719 C 92.441406 112.128906 92.449219 112.117188 92.464844 112.105469 C 92.363281 112.335938 92.300781 112.273438 92.355469 112.195312 C 92.363281 112.1875 92.375 112.175781 92.382812 112.164062 C 92.390625 112.152344 92.40625 112.144531 92.421875 112.136719 " fill-opacity="1" fill-rule="nonzero"/><path fill="#d5f2b8" d="M 91.960938 112.261719 C 92.230469 112.234375 92.519531 112.109375 92.832031 111.867188 C 94.535156 110.527344 96.160156 109.082031 97.683594 107.539062 C 97.542969 109.105469 97.398438 110.671875 97.257812 112.242188 C 92.074219 112.453125 87.363281 114.097656 83.117188 117.054688 C 78.300781 120.417969 74.453125 125.078125 72.082031 130.449219 C 71.40625 131.964844 70.847656 133.519531 70.414062 135.121094 C 70.234375 135.804688 70.074219 136.492188 69.953125 137.183594 C 68.453125 133.777344 66.929688 130.375 65.382812 126.980469 C 66.964844 127.367188 68.539062 127.761719 70.117188 128.140625 C 70.539062 128.242188 71.113281 128.007812 71.195312 127.527344 C 72.070312 122.132812 73.554688 116.847656 75.621094 111.796875 C 76.808594 113.265625 77.996094 114.730469 79.179688 116.203125 C 79.570312 116.6875 80.238281 116.421875 80.535156 116.03125 C 82.867188 112.992188 85.457031 110.148438 88.214844 107.488281 C 88.480469 107.96875 88.769531 108.441406 89.050781 108.910156 C 89.726562 110.03125 90.574219 112.40625 91.960938 112.261719 " fill-opacity="1" fill-rule="nonzero"/><path fill="#d5f2b8" d="M 84.816406 172.734375 L 84.773438 172.820312 L 84.765625 172.820312 C 81.773438 171.25 78.914062 169.4375 76.203125 167.410156 C 75.132812 166.609375 74.097656 165.757812 73.082031 164.882812 C 76.035156 165.011719 78.96875 164.679688 81.898438 164.25 C 82.308594 167.105469 83.183594 169.820312 84.5 172.410156 C 84.574219 172.550781 84.6875 172.664062 84.816406 172.734375 " fill-opacity="1" fill-rule="nonzero"/><path fill="#d5f2b8" d="M 55.289062 222.183594 C 55.578125 222.988281 55.894531 223.777344 56.238281 224.554688 C 52.992188 223.117188 49.875 221.367188 46.941406 219.34375 C 46.664062 218.8125 46.394531 218.261719 46.167969 217.707031 C 45.65625 216.480469 45.253906 215.222656 45.03125 213.910156 C 44.640625 211.59375 44.773438 209.296875 45.351562 207.054688 C 47.824219 208.84375 50.59375 210.195312 53.613281 210.863281 C 53.605469 210.996094 53.59375 211.132812 53.582031 211.261719 C 53.351562 214.917969 54.078125 218.742188 55.289062 222.183594 " fill-opacity="1" fill-rule="nonzero"/><path fill="#d5f2b8" d="M 43.738281 214.492188 C 43.9375 215.550781 44.199219 216.59375 44.558594 217.605469 C 40.007812 214.121094 35.964844 209.972656 32.667969 205.304688 C 31.71875 203.957031 30.832031 202.558594 30.011719 201.136719 C 29.996094 200.761719 29.972656 200.382812 29.980469 200.007812 C 29.984375 198.847656 30.113281 197.683594 30.378906 196.546875 C 30.628906 195.445312 31 194.367188 31.496094 193.347656 C 31.75 192.820312 32.035156 192.3125 32.351562 191.828125 C 32.464844 191.652344 32.59375 191.488281 32.722656 191.320312 C 34.808594 195.085938 37.15625 198.761719 39.945312 202.019531 C 41.171875 203.449219 42.515625 204.789062 43.980469 205.988281 C 43.28125 208.746094 43.222656 211.703125 43.738281 214.492188 " fill-opacity="1" fill-rule="nonzero"/><path fill="#d5f2b8" d="M 31.484375 189.035156 C 31.621094 189.292969 31.765625 189.554688 31.90625 189.824219 C 31.222656 190.542969 30.714844 191.566406 30.28125 192.398438 C 29.691406 193.554688 29.226562 194.785156 28.917969 196.042969 C 28.730469 196.808594 28.597656 197.59375 28.523438 198.382812 C 25.65625 192.707031 23.789062 186.558594 23 180.238281 C 23.027344 180.136719 23.046875 180.03125 23.074219 179.929688 C 23.292969 179.257812 23.601562 178.621094 23.972656 178.019531 C 24.527344 177.097656 25.203125 176.28125 26.003906 175.59375 C 27.355469 180.242188 29.242188 184.738281 31.484375 189.035156 " fill-opacity="1" fill-rule="nonzero"/><path fill="#d5f2b8" d="M 23.816406 160.476562 C 23.800781 165.046875 24.441406 169.628906 25.566406 173.980469 C 24.398438 174.855469 23.394531 175.996094 22.710938 177.273438 C 22.695312 177.082031 22.675781 176.886719 22.664062 176.695312 C 22.332031 171.257812 22.761719 165.804688 23.816406 160.476562 " fill-opacity="1" fill-rule="nonzero"/></svg>