<svg xmlns="http://www.w3.org/2000/svg" xmlns:xlink="http://www.w3.org/1999/xlink" width="500" zoomAndPan="magnify" viewBox="0 0 375 187.499995" height="250" preserveAspectRatio="xMidYMid meet" version="1.0"><defs><g/><clipPath id="8871c4455c"><path d="M 0.5 0 L 374.5 0 L 374.5 187 L 0.5 187 Z M 0.5 0 " clip-rule="nonzero"/></clipPath></defs><g clip-path="url(#8871c4455c)"><path fill="#ffffff" d="M 0.5 0 L 374.5 0 L 374.5 381.484375 L 0.5 381.484375 Z M 0.5 0 " fill-opacity="1" fill-rule="nonzero"/><path fill="#ffffff" d="M 0.5 0 L 374.5 0 L 374.5 187 L 0.5 187 Z M 0.5 0 " fill-opacity="1" fill-rule="nonzero"/><path fill="#ffffff" d="M 0.5 0 L 374.5 0 L 374.5 187 L 0.5 187 Z M 0.5 0 " fill-opacity="1" fill-rule="nonzero"/></g><g fill="#303030" fill-opacity="1"><g transform="translate(135.773171, 83.450121)"><g><path d="M 22.191406 -0.0429688 L 21.171875 -5.613281 C 21.171875 -5.613281 18.949219 -4.488281 16.078125 -4.578125 C 10.425781 -4.757812 8.066406 -8.789062 8.171875 -12.109375 C 8.277344 -15.398438 10.886719 -19.269531 16.539062 -19.089844 C 19.414062 -18.996094 21.558594 -17.730469 21.558594 -17.730469 L 22.933594 -23.226562 C 22.933594 -23.226562 21.207031 -24.480469 15.851562 -24.652344 C 8.847656 -24.875 2.292969 -19.332031 2.066406 -12.242188 C 1.84375 -5.183594 8.0625 0.707031 15.035156 0.929688 C 20.390625 1.097656 22.191406 -0.0429688 22.191406 -0.0429688 Z M 22.191406 -0.0429688 "/></g></g></g><g fill="#303030" fill-opacity="1"><g transform="translate(159.958836, 84.187538)"><g><path d="M 1.691406 -24.710938 L 1.914062 -0.015625 L 7.542969 -0.0664062 L 7.460938 -9.226562 C 7.96875 -9.230469 8.566406 -9.238281 9.257812 -9.273438 L 15.386719 -0.140625 L 21.582031 -0.195312 L 14.691406 -10.460938 C 17.167969 -11.5 19.214844 -13.496094 19.183594 -17.265625 C 19.148438 -21.039062 16.660156 -24.695312 10.703125 -24.792969 Z M 7.417969 -13.71875 L 7.359375 -20.273438 C 10.625 -20.300781 13.230469 -19.757812 13.257812 -17.03125 C 13.28125 -14.128906 10.171875 -13.800781 7.417969 -13.71875 Z M 7.417969 -13.71875 "/></g></g></g><g fill="#303030" fill-opacity="1"><g transform="translate(181.586721, 84.065562)"><g><path d="M 6.714844 -12.742188 C 6.507812 -16.570312 9.355469 -19.929688 13.179688 -20.136719 C 17.003906 -20.34375 20.167969 -17.308594 20.375 -13.484375 C 20.582031 -9.65625 17.765625 -6.265625 13.941406 -6.058594 C 10.117188 -5.851562 6.921875 -8.917969 6.714844 -12.742188 Z M 1.125 -12.441406 C 1.5 -5.507812 7.316406 0.0546875 14.25 -0.320312 C 21.1875 -0.695312 26.339844 -6.851562 25.964844 -13.785156 C 25.589844 -20.71875 19.804688 -26.253906 12.867188 -25.878906 C 5.933594 -25.5 0.75 -19.375 1.125 -12.441406 Z M 1.125 -12.441406 "/></g></g></g><g fill="#303030" fill-opacity="1"><g transform="translate(210.367708, 82.445529)"><g><path d="M 21.992188 -2.992188 L 20.238281 -8.378906 C 20.238281 -8.378906 18.1875 -6.964844 15.328125 -6.675781 C 9.699219 -6.101562 6.828125 -9.78125 6.492188 -13.085938 C 6.15625 -16.363281 8.230469 -20.546875 13.855469 -21.117188 C 16.714844 -21.410156 19.011719 -20.4375 19.011719 -20.4375 L 19.640625 -26.070312 C 19.640625 -26.070312 17.761719 -27.082031 12.433594 -26.539062 C 5.464844 -25.832031 -0.296875 -19.46875 0.421875 -12.410156 C 1.136719 -5.382812 8.085938 -0.371094 15.023438 -1.078125 C 20.355469 -1.621094 21.992188 -2.992188 21.992188 -2.992188 Z M 21.992188 -2.992188 "/></g></g></g><g fill="#303030" fill-opacity="1"><g transform="translate(234.497638, 80.035179)"><g><path d="M 5.480469 -13.320312 C 4.910156 -17.109375 7.425781 -20.726562 11.214844 -21.296875 C 15.003906 -21.863281 18.4375 -19.140625 19.007812 -15.351562 C 19.574219 -11.5625 17.09375 -7.921875 13.304688 -7.351562 C 9.515625 -6.785156 6.046875 -9.53125 5.480469 -13.320312 Z M -0.0585938 -12.492188 C 0.972656 -5.625 7.289062 -0.640625 14.15625 -1.667969 C 21.023438 -2.699219 25.574219 -9.3125 24.542969 -16.179688 C 23.511719 -23.046875 17.230469 -28.007812 10.363281 -26.980469 C 3.496094 -25.949219 -1.085938 -19.359375 -0.0585938 -12.492188 Z M -0.0585938 -12.492188 "/></g></g></g><g fill="#303030" fill-opacity="1"><g transform="translate(262.994273, 75.696532)"><g><path d="M 12.925781 -15.140625 C 13.761719 -10.910156 12.496094 -7.609375 6.535156 -6.425781 L 3.6875 -20.78125 C 9.644531 -21.964844 12.085938 -19.367188 12.925781 -15.140625 Z M -2.8125 -24.617188 L 1.996094 -0.394531 L 9.042969 -1.796875 C 15.707031 -3.121094 20.222656 -9.265625 18.820312 -16.339844 C 17.421875 -23.386719 10.867188 -27.335938 4.234375 -26.019531 Z M -2.8125 -24.617188 "/></g></g></g><g fill="#303030" fill-opacity="1"><g transform="translate(286.42171, 70.935081)"><g><path d="M 2.121094 -25.832031 L -3.359375 -24.566406 L 2.1875 -0.503906 L 7.671875 -1.769531 Z M 2.121094 -25.832031 "/></g></g></g><g fill="#303030" fill-opacity="1"><g transform="translate(296.480558, 68.665364)"><g><path d="M 1.203125 -25.8125 L -4.246094 -24.40625 L 1.914062 -0.492188 L 15.59375 -4.019531 L 14.363281 -8.800781 L 6.128906 -6.679688 Z M 1.203125 -25.8125 "/></g></g></g><g fill="#303030" fill-opacity="1"><g transform="translate(314.230171, 64.090706)"><g><path d="M 8.621094 -28.261719 L -4.933594 -24.289062 L 2.011719 -0.589844 L 15.570312 -4.5625 L 14.179688 -9.304688 L 6.023438 -6.910156 L 4.625 -11.679688 L 12.4375 -13.96875 L 11.046875 -18.710938 L 3.234375 -16.417969 L 1.855469 -21.128906 L 10.011719 -23.523438 Z M 8.621094 -28.261719 "/></g></g></g></svg>