<?xml version="1.0" encoding="utf-8"?>
<!-- Generator: Adobe Illustrator 27.5.0, SVG Export Plug-In . SVG Version: 6.00 Build 0)  -->
<svg version="1.1" xmlns="http://www.w3.org/2000/svg" xmlns:xlink="http://www.w3.org/1999/xlink" x="0px" y="0px"
	 viewBox="0 0 750 500" style="enable-background:new 0 0 750 500;" xml:space="preserve">
<g id="BACKGROUND">
	<rect style="fill:#D1CD84;" width="750" height="500"/>
</g>
<g id="OBJECTS">
	<g>
		<defs>
			<rect id="SVGID_1_" width="750" height="500"/>
		</defs>
		<clipPath id="SVGID_00000094614877416613539650000010240942626219795111_">
			<use xlink:href="#SVGID_1_"  style="overflow:visible;"/>
		</clipPath>
		<g style="clip-path:url(#SVGID_00000094614877416613539650000010240942626219795111_);">
			<g>
				<path style="fill:#B5B16D;" d="M569.531,342.069c-22.225,0-40.306-18.081-40.306-40.306V-39.189h14v340.953
					c0,14.505,11.801,26.306,26.306,26.306V342.069z"/>
			</g>
			<g>
				<path style="fill:#B5B16D;" d="M584.679,247.86v-14c14.505,0,26.306-11.801,26.306-26.306V-15.875h14v223.429
					C624.985,229.779,606.904,247.86,584.679,247.86z"/>
			</g>
			<rect x="562.503" y="-49.093" style="fill:#B5B16D;" width="27.148" height="516.917"/>
		</g>
		<path style="clip-path:url(#SVGID_00000094614877416613539650000010240942626219795111_);fill:#ABA867;" d="M611.557,319.999
			c-2.506-2.956-3.68-6.572-3.615-10.158c3.516-0.019,7.056,1.363,9.659,4.327c1.126,1.281,1.977,2.749,2.548,4.314
			c0.228-4.473,0.304-8.959,0.225-13.449c-3.103-0.217-6.146-1.565-8.608-3.94c-2.791-2.701-4.323-6.195-4.622-9.79
			c3.496-0.373,7.158,0.653,10.047,3.354c1.249,1.167,2.243,2.548,2.97,4.055c-0.132-2.66-0.319-5.319-0.56-7.978
			c-1.996-2.34-3.379-5.295-3.84-8.642c-0.557-4.066,0.344-7.977,2.296-11.142c2.991,2.197,5.212,5.78,5.794,10.03
			c0.482,3.494-0.227,6.843-1.769,9.529c0.435,4.795,0.694,9.594,0.78,14.389c0.623-1.569,1.483-3.061,2.594-4.409
			c2.561-3.108,5.975-4.866,9.495-5.037c0.3,4.131-0.903,8.348-3.569,11.454c-2.351,2.746-5.41,4.161-8.508,4.388
			c-0.064,4.541-0.284,9.074-0.658,13.591c0.777-1.493,1.782-2.886,3.022-4.111c2.86-2.824,6.433-4.221,9.952-4.039
			c-0.116,4.122-1.735,8.182-4.698,10.995c-2.614,2.488-5.799,3.586-8.904,3.5c-0.518,4.5-1.189,8.981-2.012,13.433
			c0.922-1.406,2.062-2.69,3.418-3.782c3.127-2.519,6.822-3.548,10.305-3.014c-0.527,4.081-2.543,7.954-5.773,10.455
			c-2.849,2.212-6.128,2.986-9.209,2.59c-0.966,4.425-2.082,8.819-3.349,13.173c1.059-1.309,2.322-2.474,3.781-3.426
			c3.364-2.196,7.144-2.85,10.556-1.97c-0.933,4.01-3.329,7.667-6.794,9.836c-3.058,1.92-6.399,2.365-9.424,1.663
			c-4.428,13.579-10.334,26.732-17.675,39.214c-0.716-0.421-1.431-0.842-2.147-1.263c8.315-14.137,14.766-29.147,19.287-44.663
			c-2.899-1.127-5.407-3.313-7.056-6.302c-1.867-3.395-2.299-7.168-1.523-10.659c3.449,0.683,6.643,2.738,8.605,6.155
			c0.849,1.478,1.39,3.083,1.639,4.729c1.114-4.334,2.079-8.704,2.894-13.1c-2.998-0.83-5.712-2.752-7.653-5.559
			c-2.198-3.189-3.005-6.897-2.582-10.449c3.5,0.334,6.883,2.059,9.178,5.263c0.992,1.385,1.692,2.927,2.105,4.54
			c0.674-4.421,1.197-8.865,1.568-13.325C616.662,324.242,613.769,322.6,611.557,319.999z"/>
		<g style="clip-path:url(#SVGID_00000094614877416613539650000010240942626219795111_);">
			<g>
				<path style="fill:#C4C17C;" d="M-82.351,209.4c-1.424,20.435,13.51,38.54,34.059,40.844c4.933,0.553,9.748,0.136,14.267-1.081
					c5.986,6.155,14.059,10.354,23.258,11.385c12.983,1.456,25.172-3.742,33.185-12.867c14.795,0.322,27.655-10.694,29.335-25.685
					c0.262-2.336,0.231-4.636-0.052-6.869c9.655-1.899,17.394-9.858,18.548-20.156c0.832-7.422-1.944-14.414-6.924-19.236
					c0.378-1.421,0.658-2.886,0.827-4.391c1.837-16.383-9.955-31.153-26.338-32.989c-1.73-0.194-3.44-0.227-5.12-0.128
					c-3.945-6.706-10.887-11.538-19.214-12.472c-10.161-1.139-19.594,3.84-24.632,11.998c-5.986-6.152-14.057-10.349-23.253-11.38
					c-17.88-2.005-34.264,8.6-40.286,24.723c-9.424,6.035-16.149,16.109-17.493,28.097C-93.47,190.657-89.564,201.502-82.351,209.4z
					"/>
				<path style="fill:#C4C17C;" d="M29.904,188.724c-1.889,27.11,17.923,51.13,45.185,54.186c6.544,0.734,12.932,0.18,18.927-1.435
					c7.941,8.166,18.652,13.736,30.855,15.104c17.224,1.931,33.395-4.964,44.024-17.07c19.628,0.428,36.688-14.188,38.917-34.075
					c0.347-3.099,0.306-6.15-0.069-9.113c12.809-2.519,23.075-13.078,24.607-26.74c1.104-9.846-2.578-19.122-9.185-25.519
					c0.502-1.884,0.873-3.828,1.097-5.825c2.437-21.734-13.207-41.328-34.941-43.765c-2.295-0.257-4.563-0.301-6.793-0.17
					c-5.233-8.897-14.444-15.307-25.491-16.545c-13.48-1.511-25.994,5.094-32.678,15.916c-7.941-8.162-18.649-13.73-30.848-15.098
					c-23.721-2.659-45.456,11.409-53.445,32.798c-12.503,8.006-21.425,21.37-23.207,37.274
					C15.154,163.858,20.335,178.245,29.904,188.724z"/>
			</g>
			<g>
				<path style="fill:#C4C17C;" d="M157.676,92.669c-1.423,20.435,13.51,38.54,34.059,40.844c4.933,0.553,9.748,0.136,14.267-1.081
					c5.986,6.155,14.059,10.354,23.258,11.385c12.983,1.455,25.172-3.742,33.185-12.867c14.795,0.322,27.655-10.694,29.335-25.685
					c0.262-2.336,0.23-4.636-0.052-6.869c9.655-1.899,17.394-9.858,18.548-20.156c0.832-7.422-1.944-14.414-6.924-19.236
					c0.378-1.421,0.658-2.886,0.827-4.391c1.837-16.383-9.955-31.153-26.338-32.989c-1.73-0.194-3.44-0.227-5.12-0.128
					c-3.945-6.706-10.887-11.538-19.214-12.472c-10.161-1.139-19.594,3.84-24.632,11.998c-5.986-6.152-14.057-10.349-23.253-11.38
					c-17.88-2.005-34.264,8.6-40.286,24.723c-9.424,6.035-16.149,16.109-17.493,28.097C146.558,73.926,150.463,84.77,157.676,92.669
					z"/>
				<path style="fill:#C4C17C;" d="M269.931,71.992c-1.888,27.11,17.923,51.13,45.185,54.186c6.544,0.734,12.932,0.18,18.927-1.435
					c7.941,8.166,18.652,13.736,30.855,15.104c17.224,1.931,33.395-4.964,44.024-17.07c19.628,0.428,36.688-14.188,38.918-34.075
					c0.347-3.099,0.306-6.15-0.069-9.113c12.809-2.519,23.075-13.078,24.607-26.74c1.104-9.847-2.578-19.122-9.186-25.519
					c0.502-1.884,0.873-3.828,1.097-5.825c2.436-21.734-13.207-41.328-34.942-43.765c-2.295-0.257-4.563-0.301-6.792-0.17
					c-5.233-8.897-14.444-15.307-25.491-16.545c-13.48-1.511-25.995,5.094-32.678,15.917c-7.941-8.162-18.648-13.73-30.848-15.098
					c-23.721-2.659-45.456,11.409-53.445,32.798c-12.503,8.006-21.424,21.37-23.207,37.274
					C255.181,47.126,260.362,61.513,269.931,71.992z"/>
			</g>
		</g>
		<g style="clip-path:url(#SVGID_00000094614877416613539650000010240942626219795111_);">
			<g>
				<rect x="51.514" y="-21.604" style="fill:#ABA867;" width="36.75" height="442.475"/>
			</g>
			<g>
				<path style="fill:#ABA867;" d="M51.514,188.718c-23.879,0-43.306-19.427-43.306-43.305V-21.604h20v167.017
					c0,12.851,10.455,23.305,23.306,23.305V188.718z"/>
			</g>
		</g>
		<g style="clip-path:url(#SVGID_00000094614877416613539650000010240942626219795111_);">
			<g>
				<rect x="697.888" y="-57.907" style="fill:#ABA867;" width="36.75" height="564.59"/>
			</g>
			<g>
				<path style="fill:#ABA867;" d="M697.888,274.53c-23.879,0-43.306-19.427-43.306-43.305V-57.907h20v289.131
					c0,12.851,10.455,23.305,23.306,23.305V274.53z"/>
			</g>
		</g>
		
			<path style="clip-path:url(#SVGID_00000094614877416613539650000010240942626219795111_);fill:none;stroke:#435E31;stroke-width:7;stroke-miterlimit:10;" d="
			M671.971,190.466L671.971,190.466c-71.895,0-130.176-58.282-130.176-130.176V-7.227h260.352V60.29
			C802.147,132.184,743.865,190.466,671.971,190.466z"/>
		<g style="clip-path:url(#SVGID_00000094614877416613539650000010240942626219795111_);">
			<g>
				<path style="fill:#B5B16D;" d="M174.246,251.642c-22.225,0-40.306-18.081-40.306-40.305v-223.43h14v223.43
					c0,14.505,11.8,26.305,26.305,26.305L174.246,251.642z"/>
			</g>
			<g>
				<path style="fill:#B5B16D;" d="M189.394,176.227v-14c14.505,0,26.305-11.8,26.305-26.305v-223.43h14v223.43
					C229.699,158.146,211.618,176.227,189.394,176.227z"/>
			</g>
			<g>
				<rect x="167.218" y="-20.523" style="fill:#B5B16D;" width="27.148" height="442.475"/>
			</g>
		</g>
		<g style="clip-path:url(#SVGID_00000094614877416613539650000010240942626219795111_);">
			<g>
				<path style="fill:#B5B16D;" d="M453.458,231.14c22.225,0,40.306-18.081,40.306-40.305v-223.43h-14v223.43
					c0,14.505-11.8,26.305-26.305,26.305L453.458,231.14z"/>
			</g>
			<g>
				<path style="fill:#B5B16D;" d="M438.31,155.725v-14c-14.505,0-26.305-11.8-26.305-26.305v-223.43h-14v223.43
					C398.005,137.644,416.086,155.725,438.31,155.725z"/>
			</g>
			<g>
				
					<rect x="433.338" y="-41.025" transform="matrix(-1 -1.224647e-16 1.224647e-16 -1 893.824 360.4245)" style="fill:#B5B16D;" width="27.148" height="442.475"/>
			</g>
		</g>
		<g style="clip-path:url(#SVGID_00000094614877416613539650000010240942626219795111_);">
			<g>
				<path style="fill:#B5B16D;" d="M294.938,342.069c-22.225,0-40.306-18.081-40.306-40.306V-39.189h14v340.953
					c0,14.505,11.801,26.306,26.306,26.306V342.069z"/>
			</g>
			<g>
				<path style="fill:#B5B16D;" d="M310.086,247.86v-14c14.505,0,26.306-11.801,26.306-26.306V-15.875h14v223.429
					C350.392,229.779,332.311,247.86,310.086,247.86z"/>
			</g>
			<rect x="287.91" y="-49.093" style="fill:#B5B16D;" width="27.148" height="516.917"/>
		</g>
		<path style="clip-path:url(#SVGID_00000094614877416613539650000010240942626219795111_);fill:#ABA867;" d="M351.041,409.254
			c-1.567-10.928-10.652-19.602-22.098-20.243c-4.583-0.257-8.92,0.83-12.668,2.885c-5.536-12.238-17.826-20.769-32.131-20.769
			c-4.458,0-8.707,0.862-12.634,2.371c-9.773-18.275-29.035-30.712-51.207-30.712c-22.188,0-41.46,12.455-51.227,30.75
			c-6.147-5.111-14.046-8.187-22.665-8.187c-4.617,0-9.024,0.892-13.069,2.496c-6.007-23.859-27.599-41.523-53.322-41.523
			c-10.788,0-20.843,3.119-29.334,8.487C39.27,310.91,14.88,294.397-13.371,294.397c-32.269,0-59.489,21.55-68.099,51.037
			c-21.925,3.361-38.718,22.303-38.718,45.169c0,6.646,1.43,12.954,3.981,18.651H351.041z"/>
		<path style="clip-path:url(#SVGID_00000094614877416613539650000010240942626219795111_);fill:#ABA867;" d="M487.139,334.753
			c-4.78-3.692-7.743-8.822-8.81-14.31c5.353-1.17,11.197-0.214,16.128,3.458c2.132,1.587,3.905,3.548,5.285,5.748
			c-1.105-6.893-2.447-13.754-4.024-20.572c-4.8,0.677-9.877-0.389-14.401-3.211c-5.131-3.21-8.601-8.039-10.224-13.421
			c5.208-1.704,11.122-1.329,16.404,1.849c2.283,1.374,4.247,3.156,5.844,5.216c-1.065-4.011-2.213-8.004-3.444-11.978
			c-3.802-2.919-6.87-6.974-8.66-11.925c-2.17-6.017-2.066-12.27-0.119-17.729c5.272,2.377,9.821,7.117,12.088,13.407
			c1.868,5.169,1.876,10.503,0.399,15.099c2.219,7.168,4.174,14.399,5.862,21.679c0.441-2.593,1.267-5.147,2.522-7.562
			c2.894-5.569,7.527-9.357,12.836-10.761c1.799,6.199,1.335,13.018-1.72,18.617c-2.692,4.949-6.895,8.1-11.543,9.451
			c1.376,6.942,2.513,13.923,3.411,20.929c0.699-2.528,1.779-4.978,3.272-7.247c3.442-5.232,8.434-8.523,13.857-9.388
			c1.162,6.32,0.013,13.035-3.59,18.285c-3.176,4.641-7.674,7.349-12.434,8.226c0.672,7.028,1.104,14.075,1.295,21.129
			c0.949-2.443,2.269-4.769,3.981-6.875c3.949-4.855,9.246-7.624,14.729-7.941c0.522,6.392-1.294,12.95-5.404,17.811
			c-3.625,4.297-8.371,6.541-13.195,6.938c-0.035,7.058-0.31,14.118-0.827,21.167c1.189-2.339,2.736-4.525,4.65-6.45
			c4.415-4.44,9.963-6.664,15.45-6.431c-0.12,6.415-2.584,12.767-7.161,17.199c-4.037,3.92-8.985,5.683-13.825,5.594
			c-2.339,22.135-7.07,44.102-14.207,65.51c-1.227-0.409-2.455-0.818-3.682-1.228c8.084-24.248,13.042-49.221,14.895-74.339
			c-4.785-0.776-9.318-3.294-12.802-7.315c-3.949-4.569-5.831-10.178-5.782-15.752c5.479-0.079,11.015,2.016,15.115,6.587
			c1.773,1.977,3.12,4.247,4.034,6.676c0.29-6.968,0.342-13.941,0.156-20.908c-4.839-0.292-9.6-2.34-13.47-5.988
			c-4.386-4.146-6.82-9.536-7.329-15.088c5.443-0.628,11.161,0.904,15.699,5.041c1.962,1.789,3.529,3.913,4.682,6.236
			c-0.409-6.957-1.055-13.901-1.937-20.82C496.297,339.563,491.354,338,487.139,334.753z"/>
		<path style="clip-path:url(#SVGID_00000094614877416613539650000010240942626219795111_);fill:#ABA867;" d="M375,409.254
			c1.689-11.779,11.482-21.13,23.82-21.821c4.94-0.277,9.615,0.895,13.656,3.111c5.968-13.192,19.215-22.388,34.636-22.388
			c4.806,0,9.385,0.929,13.619,2.555c10.535-19.699,31.298-33.105,55.198-33.105c23.917,0,44.691,13.425,55.219,33.147
			c6.626-5.509,15.141-8.825,24.432-8.825c4.977,0,9.727,0.961,14.088,2.691c6.475-25.718,29.75-44.76,57.478-44.76
			c11.629,0,22.467,3.362,31.62,9.148c12.305-25.761,38.595-43.562,69.048-43.562c34.784,0,64.125,23.229,73.406,55.016
			c23.634,3.622,41.736,24.042,41.736,48.689c0,7.164-1.542,13.964-4.292,20.105H375z"/>
		<path style="clip-path:url(#SVGID_00000094614877416613539650000010240942626219795111_);fill:#4E6E39;" d="M488.371,409.254
			c-0.526-3.667-3.575-6.578-7.415-6.793c-1.538-0.086-2.993,0.279-4.251,0.968c-1.858-4.107-5.982-6.969-10.782-6.969
			c-1.496,0-2.922,0.289-4.24,0.796c-3.28-6.133-9.743-10.306-17.184-10.306c-7.446,0-13.913,4.179-17.19,10.319
			c-2.063-1.715-4.713-2.747-7.606-2.747c-1.549,0-3.028,0.299-4.386,0.838c-2.016-8.006-9.262-13.934-17.893-13.934
			c-3.62,0-6.994,1.047-9.844,2.848c-3.831-8.02-12.015-13.561-21.495-13.561c-10.829,0-19.963,7.232-22.852,17.127
			c-7.358,1.128-12.993,7.484-12.993,15.157c0,2.23,0.48,4.347,1.336,6.259H488.371z"/>
		<path style="clip-path:url(#SVGID_00000094614877416613539650000010240942626219795111_);fill:#4E6E39;" d="M331.018,346.005
			c4.242-1.063,7.696-3.607,9.995-6.939c-3.212-2.329-7.367-3.389-11.703-2.383c-1.875,0.435-3.62,1.221-5.173,2.281
			c2.732-4.253,5.612-8.416,8.636-12.482c2.988,1.841,6.666,2.606,10.486,2.046c4.335-0.642,8.038-2.84,10.675-5.94
			c-2.961-2.641-6.994-4.107-11.419-3.53c-1.914,0.249-3.733,0.862-5.39,1.766c1.87-2.352,3.789-4.669,5.758-6.948
			c3.369-0.834,6.581-2.634,9.204-5.401c3.184-3.363,4.929-7.542,5.22-11.728c-4.187,0.048-8.58,1.874-11.908,5.39
			c-2.739,2.888-4.291,6.425-4.643,9.902c-3.551,4.112-6.945,8.343-10.176,12.684c0.46-1.848,0.652-3.782,0.52-5.749
			c-0.305-4.534-2.281-8.391-5.396-10.862c-2.991,3.591-4.661,8.25-4.258,12.851c0.351,4.064,2.226,7.373,4.918,9.618
			c-2.927,4.207-5.705,8.509-8.332,12.897c0.269-1.88,0.263-3.819-0.069-5.757c-0.766-4.47-3.124-8.101-6.472-10.247
			c-2.603,3.856-3.788,8.645-2.92,13.173c0.761,4,2.96,7.101,5.864,9.064c-2.484,4.468-4.814,9.018-6.986,13.643
			c0.079-1.896-0.122-3.822-0.648-5.716c-1.212-4.366-3.924-7.74-7.469-9.539c-2.2,4.089-2.897,8.967-1.579,13.384
			c1.159,3.902,3.657,6.768,6.743,8.429c-2.024,4.693-3.888,9.457-5.589,14.284c-0.111-1.897-0.503-3.795-1.215-5.628
			c-1.642-4.226-4.678-7.311-8.385-8.747c-1.78,4.291-1.988,9.22-0.236,13.488c1.542,3.772,4.314,6.376,7.55,7.721
			c-4.867,15.364-8.098,31.311-9.571,47.584c0.933,0.084,1.866,0.169,2.799,0.253c1.668-18.432,5.621-36.439,11.675-53.642
			c3.4,0.873,7.137,0.516,10.615-1.141c3.945-1.886,6.82-5.062,8.404-8.774c-3.612-1.642-7.892-1.857-11.939-0.013
			c-1.75,0.797-3.302,1.913-4.613,3.26c1.828-4.707,3.816-9.349,5.959-13.917c3.295,1.209,7.048,1.231,10.673-0.067
			c4.113-1.479,7.29-4.349,9.238-7.885c-3.43-1.995-7.667-2.637-11.878-1.208c-1.82,0.618-3.476,1.572-4.915,2.779
			c2.288-4.497,4.731-8.917,7.323-13.252C323.547,346.54,327.279,346.937,331.018,346.005z"/>
		<path style="clip-path:url(#SVGID_00000094614877416613539650000010240942626219795111_);fill:#3A522B;" d="M351.115,400.665
			l27.584-9.286c-0.224-0.71-0.463-1.414-0.713-2.112l-14.243,1.295l12.685-5.199c-2.656-6.023-6.285-11.519-10.688-16.291
			l-19.677,12.109l17.106-14.73c-0.601-0.576-1.216-1.138-1.841-1.688l-12.018,6.676l8.785-9.328
			c-6.031-4.602-12.97-8.073-20.503-10.097l-8.488,12.569l3.038-13.76c-0.855-0.145-1.715-0.273-2.581-0.381l-7.386,17.749
			l2.016-18.169c-0.669-0.022-1.341-0.038-2.016-0.038c-8.356,0-16.307,1.733-23.517,4.853c-0.876,6.964-1.666,13.431-1.666,14.075
			c0,0.7-1.274-5.48-2.586-12.029c-0.649,0.345-1.293,0.7-1.927,1.069l1.266,21.667l-5.423-19.016
			c-6.223,4.339-11.574,9.839-15.739,16.189l3.121,13.77l-5.692-9.469c-1.187,2.195-2.238,4.474-3.146,6.825l11.364,12.746
			l-13.093-7.57c-1.452,5.137-2.23,10.557-2.23,16.159h118.539c0-4.72-0.555-9.309-1.597-13.71L351.115,400.665z"/>
		<path style="clip-path:url(#SVGID_00000094614877416613539650000010240942626219795111_);fill:#4E6E39;" d="M256.223,362.921
			c3.37-0.845,6.113-2.865,7.939-5.512c-2.552-1.85-5.852-2.692-9.296-1.892c-1.489,0.345-2.875,0.97-4.109,1.812
			c2.17-3.378,4.457-6.685,6.859-9.914c2.374,1.462,5.294,2.07,8.328,1.625c3.443-0.51,6.384-2.255,8.479-4.718
			c-2.352-2.098-5.555-3.262-9.07-2.804c-1.52,0.198-2.965,0.685-4.281,1.402c1.485-1.868,3.01-3.708,4.574-5.519
			c2.676-0.662,5.227-2.092,7.31-4.29c2.529-2.671,3.915-5.99,4.146-9.315c-3.326,0.038-6.815,1.489-9.458,4.281
			c-2.175,2.294-3.408,5.103-3.688,7.865c-2.821,3.266-5.516,6.627-8.083,10.074c0.365-1.468,0.518-3.004,0.413-4.566
			c-0.242-3.602-1.812-6.665-4.286-8.627c-2.376,2.852-3.702,6.553-3.382,10.207c0.279,3.228,1.768,5.857,3.906,7.639
			c-2.324,3.342-4.532,6.758-6.618,10.244c0.214-1.493,0.209-3.033-0.055-4.573c-0.609-3.55-2.482-6.434-5.14-8.139
			c-2.068,3.063-3.009,6.866-2.319,10.463c0.605,3.177,2.351,5.641,4.658,7.199c-1.973,3.549-3.824,7.163-5.549,10.836
			c0.063-1.506-0.097-3.036-0.514-4.54c-0.963-3.468-3.117-6.147-5.933-7.577c-1.747,3.248-2.301,7.122-1.254,10.631
			c0.921,3.099,2.905,5.375,5.356,6.695c-1.607,3.728-3.088,7.512-4.439,11.345c-0.088-1.507-0.399-3.014-0.965-4.47
			c-1.304-3.357-3.715-5.807-6.66-6.948c-1.414,3.408-1.579,7.323-0.188,10.713c1.225,2.996,3.426,5.064,5.997,6.133
			c-3.866,12.204-6.432,24.869-7.602,37.795c0.741,0.067,1.482,0.134,2.223,0.201c1.325-14.64,4.464-28.943,9.273-42.606
			c2.7,0.693,5.669,0.41,8.431-0.906c3.133-1.498,5.417-4.021,6.675-6.969c-2.869-1.304-6.269-1.475-9.483-0.01
			c-1.39,0.633-2.622,1.52-3.664,2.589c1.452-3.739,3.031-7.426,4.733-11.054c2.617,0.96,5.598,0.978,8.477-0.053
			c3.267-1.175,5.791-3.454,7.338-6.263c-2.724-1.585-6.09-2.095-9.434-0.959c-1.446,0.491-2.761,1.249-3.904,2.208
			c1.818-3.572,3.758-7.083,5.816-10.526C250.289,363.346,253.253,363.661,256.223,362.921z"/>
		<path style="clip-path:url(#SVGID_00000094614877416613539650000010240942626219795111_);fill:#4E6E39;" d="M434.423,360.946
			c-4.242-1.063-7.696-3.607-9.995-6.939c3.212-2.329,7.367-3.389,11.703-2.383c1.875,0.435,3.62,1.221,5.173,2.281
			c-2.732-4.253-5.612-8.416-8.636-12.482c-2.988,1.841-6.666,2.606-10.486,2.046c-4.335-0.642-8.038-2.84-10.675-5.94
			c2.961-2.641,6.994-4.107,11.419-3.53c1.913,0.249,3.733,0.862,5.39,1.766c-1.87-2.352-3.789-4.669-5.758-6.948
			c-3.369-0.834-6.581-2.634-9.204-5.401c-3.184-3.363-4.929-7.542-5.22-11.728c4.187,0.048,8.58,1.874,11.908,5.39
			c2.739,2.888,4.291,6.425,4.643,9.902c3.551,4.112,6.945,8.343,10.176,12.684c-0.46-1.848-0.652-3.782-0.52-5.749
			c0.305-4.534,2.281-8.391,5.396-10.862c2.991,3.591,4.661,8.25,4.257,12.851c-0.351,4.064-2.226,7.373-4.918,9.618
			c2.927,4.207,5.705,8.509,8.332,12.897c-0.269-1.88-0.263-3.819,0.069-5.757c0.766-4.47,3.124-8.101,6.472-10.247
			c2.604,3.856,3.788,8.645,2.92,13.173c-0.762,4-2.96,7.101-5.864,9.064c2.484,4.468,4.814,9.018,6.986,13.643
			c-0.079-1.896,0.122-3.822,0.648-5.716c1.212-4.366,3.924-7.74,7.469-9.539c2.2,4.089,2.897,8.967,1.579,13.384
			c-1.159,3.902-3.657,6.767-6.743,8.429c2.024,4.693,3.888,9.457,5.589,14.284c0.111-1.897,0.503-3.795,1.215-5.628
			c1.642-4.226,4.678-7.311,8.386-8.747c1.78,4.291,1.988,9.22,0.236,13.488c-1.542,3.772-4.314,6.376-7.55,7.721
			c4.867,15.364,8.098,31.311,9.571,47.584c-0.933,0.084-1.866,0.169-2.799,0.253c-1.668-18.432-5.621-36.439-11.675-53.642
			c-3.4,0.873-7.137,0.516-10.615-1.141c-3.945-1.886-6.82-5.062-8.404-8.774c3.612-1.642,7.892-1.857,11.939-0.013
			c1.75,0.797,3.302,1.913,4.613,3.26c-1.828-4.707-3.816-9.349-5.959-13.917c-3.295,1.209-7.048,1.231-10.673-0.067
			c-4.113-1.479-7.29-4.349-9.238-7.885c3.43-1.995,7.667-2.637,11.878-1.208c1.82,0.618,3.476,1.572,4.915,2.779
			c-2.288-4.497-4.731-8.917-7.323-13.252C441.895,361.482,438.162,361.878,434.423,360.946z"/>
		<path style="clip-path:url(#SVGID_00000094614877416613539650000010240942626219795111_);fill:#4E6E39;" d="M577.656,362.921
			c-3.37-0.845-6.112-2.865-7.938-5.512c2.552-1.85,5.851-2.692,9.296-1.892c1.489,0.345,2.875,0.97,4.109,1.812
			c-2.17-3.378-4.457-6.685-6.859-9.914c-2.374,1.462-5.294,2.07-8.328,1.625c-3.443-0.51-6.384-2.255-8.479-4.718
			c2.352-2.098,5.555-3.262,9.07-2.804c1.52,0.198,2.965,0.685,4.281,1.402c-1.485-1.868-3.01-3.708-4.574-5.519
			c-2.676-0.662-5.227-2.092-7.31-4.29c-2.529-2.671-3.915-5.99-4.146-9.315c3.326,0.038,6.815,1.489,9.458,4.281
			c2.175,2.294,3.408,5.103,3.688,7.865c2.821,3.266,5.516,6.627,8.083,10.074c-0.365-1.468-0.518-3.004-0.413-4.566
			c0.242-3.602,1.812-6.665,4.286-8.627c2.376,2.852,3.702,6.553,3.382,10.207c-0.279,3.228-1.768,5.857-3.906,7.639
			c2.324,3.342,4.531,6.758,6.618,10.244c-0.214-1.493-0.209-3.033,0.055-4.573c0.609-3.55,2.482-6.434,5.14-8.139
			c2.068,3.063,3.009,6.866,2.32,10.463c-0.605,3.177-2.351,5.641-4.658,7.199c1.973,3.549,3.823,7.163,5.549,10.836
			c-0.063-1.506,0.097-3.036,0.514-4.54c0.963-3.468,3.117-6.147,5.933-7.577c1.747,3.248,2.301,7.122,1.254,10.631
			c-0.921,3.099-2.905,5.375-5.356,6.695c1.607,3.728,3.088,7.512,4.44,11.345c0.088-1.507,0.399-3.014,0.965-4.47
			c1.304-3.357,3.715-5.807,6.66-6.948c1.414,3.408,1.579,7.323,0.188,10.713c-1.225,2.996-3.426,5.064-5.997,6.133
			c3.866,12.204,6.432,24.869,7.602,37.795c-0.741,0.067-1.482,0.134-2.223,0.201c-1.325-14.64-4.465-28.943-9.273-42.606
			c-2.7,0.693-5.669,0.41-8.431-0.906c-3.133-1.498-5.417-4.021-6.675-6.969c2.869-1.304,6.269-1.475,9.483-0.01
			c1.39,0.633,2.622,1.52,3.664,2.589c-1.452-3.739-3.031-7.426-4.733-11.054c-2.617,0.96-5.598,0.978-8.478-0.053
			c-3.267-1.175-5.791-3.454-7.338-6.263c2.724-1.585,6.09-2.095,9.434-0.959c1.446,0.491,2.761,1.249,3.904,2.208
			c-1.818-3.572-3.758-7.083-5.816-10.526C583.591,363.346,580.626,363.661,577.656,362.921z"/>
		<path style="clip-path:url(#SVGID_00000094614877416613539650000010240942626219795111_);fill:#4E6E39;" d="M268.169,403.663
			l17.954-6.044c-0.146-0.462-0.301-0.92-0.464-1.375l-9.271,0.843l8.257-3.384c-1.729-3.92-4.091-7.498-6.957-10.604l-12.807,7.881
			l11.134-9.588c-0.391-0.375-0.792-0.74-1.198-1.099l-7.822,4.346l5.718-6.071c-3.925-2.996-8.442-5.254-13.345-6.572l-5.525,8.181
			l1.977-8.956c-0.556-0.094-1.116-0.178-1.68-0.248l-4.808,11.553l1.312-11.826c-0.436-0.014-0.873-0.025-1.312-0.025
			c-5.439,0-10.614,1.128-15.307,3.159c-0.57,4.533-1.085,8.742-1.085,9.161c0,0.456-0.829-3.567-1.683-7.83
			c-0.423,0.225-0.841,0.456-1.255,0.695l0.824,14.103l-3.53-12.377c-4.05,2.824-7.533,6.404-10.244,10.538l2.032,8.962
			l-3.705-6.163c-0.773,1.429-1.457,2.912-2.047,4.442l7.396,8.296l-8.522-4.927c-0.945,3.344-1.452,6.871-1.452,10.518h77.155
			c0-3.072-0.361-6.059-1.039-8.924L268.169,403.663z"/>
		<path style="clip-path:url(#SVGID_00000094614877416613539650000010240942626219795111_);fill:#3A522B;" d="M486.684,403.663
			l17.954-6.044c-0.146-0.462-0.301-0.92-0.464-1.375l-9.271,0.843l8.256-3.384c-1.729-3.92-4.091-7.498-6.957-10.604l-12.807,7.881
			l11.134-9.588c-0.391-0.375-0.792-0.74-1.198-1.099l-7.822,4.346l5.718-6.071c-3.925-2.996-8.442-5.254-13.345-6.572l-5.525,8.181
			l1.977-8.956c-0.556-0.094-1.116-0.178-1.68-0.248l-4.808,11.553l1.312-11.826c-0.436-0.014-0.873-0.025-1.312-0.025
			c-5.439,0-10.614,1.128-15.307,3.159c-0.57,4.533-1.085,8.742-1.085,9.161c0,0.456-0.829-3.567-1.683-7.83
			c-0.423,0.225-0.841,0.456-1.254,0.695l0.824,14.103l-3.53-12.377c-4.051,2.824-7.533,6.404-10.244,10.538l2.031,8.962
			l-3.705-6.163c-0.773,1.429-1.457,2.912-2.047,4.442l7.396,8.296l-8.522-4.927c-0.945,3.344-1.452,6.871-1.452,10.518h77.155
			c0-3.072-0.361-6.059-1.039-8.924L486.684,403.663z"/>
		<path style="clip-path:url(#SVGID_00000094614877416613539650000010240942626219795111_);fill:#4E6E39;" d="M546.745,401.571
			l24.672-8.306c-0.201-0.635-0.414-1.264-0.637-1.889l-12.74,1.158l11.346-4.65c-2.376-5.387-5.621-10.303-9.56-14.572
			l-17.6,10.831l15.301-13.176c-0.538-0.515-1.088-1.018-1.647-1.51l-10.749,5.972l7.858-8.343
			c-5.394-4.116-11.601-7.22-18.338-9.031l-7.592,11.242l2.717-12.307c-0.764-0.13-1.534-0.245-2.309-0.341l-6.607,15.875
			l1.803-16.251c-0.599-0.02-1.199-0.034-1.803-0.034c-7.474,0-14.585,1.55-21.034,4.341c-0.783,6.228-1.491,12.013-1.491,12.59
			c0,0.626-1.14-4.902-2.313-10.759c-0.581,0.309-1.156,0.626-1.724,0.956l1.132,19.38l-4.851-17.009
			c-5.566,3.881-10.352,8.801-14.077,14.48l2.792,12.316l-5.091-8.469c-1.062,1.963-2.002,4.002-2.814,6.105l10.164,11.401
			l-11.711-6.771c-1.299,4.595-1.995,9.442-1.995,14.453h106.026c0-4.221-0.496-8.326-1.428-12.263L546.745,401.571z"/>
		<path style="clip-path:url(#SVGID_00000094614877416613539650000010240942626219795111_);fill:#8FA647;" d="M6.132,275.048
			c5.434-1.362,9.858-4.621,12.803-8.889c-4.115-2.983-9.437-4.341-14.992-3.052c-2.402,0.557-4.637,1.564-6.627,2.922
			c3.499-5.448,7.189-10.781,11.062-15.989c3.828,2.358,8.539,3.338,13.432,2.621c5.553-0.822,10.297-3.638,13.675-7.608
			c-3.793-3.383-8.959-5.261-14.628-4.522c-2.451,0.319-4.782,1.104-6.904,2.262c2.395-3.013,4.854-5.981,7.376-8.901
			c4.316-1.068,8.43-3.375,11.79-6.918c4.079-4.308,6.314-9.661,6.687-15.024c-5.364,0.062-10.991,2.401-15.255,6.904
			c-3.508,3.699-5.496,8.23-5.947,12.684c-4.549,5.267-8.896,10.687-13.035,16.248c0.589-2.368,0.835-4.845,0.666-7.364
			c-0.391-5.809-2.922-10.748-6.912-13.914c-3.832,4.6-5.97,10.568-5.454,16.462c0.449,5.206,2.851,9.445,6.3,12.32
			c-3.749,5.389-7.308,10.9-10.673,16.521c0.345-2.409,0.337-4.892-0.089-7.375c-0.981-5.726-4.002-10.377-8.29-13.126
			c-3.335,4.94-4.853,11.074-3.741,16.874c0.976,5.124,3.792,9.097,7.512,11.611c-3.182,5.723-6.166,11.552-8.95,17.477
			c0.101-2.429-0.157-4.897-0.83-7.322c-1.552-5.593-5.027-9.914-9.568-12.22c-2.818,5.238-3.711,11.487-2.023,17.145
			c1.485,4.999,4.684,8.669,8.638,10.798c-2.592,6.012-4.981,12.115-7.16,18.297c-0.142-2.43-0.644-4.862-1.556-7.209
			c-2.103-5.413-5.992-9.365-10.742-11.205c-2.281,5.497-2.546,11.81-0.303,17.278c1.975,4.831,5.526,8.168,9.672,9.891
			c-6.234,19.682-10.374,40.109-12.26,60.955c1.195,0.108,2.39,0.216,3.585,0.324c2.137-23.612,7.2-46.678,14.956-68.715
			c4.355,1.118,9.143,0.661,13.598-1.461c5.053-2.416,8.737-6.485,10.766-11.24c-4.627-2.103-10.11-2.379-15.294-0.016
			c-2.241,1.021-4.229,2.451-5.909,4.176c2.342-6.03,4.888-11.976,7.634-17.828c4.221,1.549,9.029,1.577,13.672-0.086
			c5.268-1.895,9.339-5.571,11.834-10.101c-4.393-2.556-9.821-3.378-15.215-1.547c-2.332,0.791-4.453,2.014-6.296,3.561
			c2.932-5.761,6.06-11.423,9.38-16.975C-3.439,275.734,1.343,276.242,6.132,275.048z"/>
		<path style="clip-path:url(#SVGID_00000094614877416613539650000010240942626219795111_);fill:#ABA867;" d="M120.133,327.212
			c5.859-1.469,10.628-4.982,13.803-9.584c-4.436-3.216-10.174-4.68-16.163-3.291c-2.589,0.601-4.999,1.687-7.145,3.15
			c3.773-5.873,7.75-11.623,11.926-17.238c4.127,2.543,9.206,3.599,14.481,2.826c5.987-0.886,11.101-3.922,14.743-8.203
			c-4.09-3.647-9.659-5.672-15.771-4.875c-2.643,0.344-5.155,1.191-7.444,2.439c2.582-3.248,5.234-6.448,7.952-9.596
			c4.653-1.152,9.088-3.638,12.711-7.459c4.398-4.644,6.807-10.416,7.21-16.197c-5.783,0.067-11.849,2.588-16.446,7.444
			c-3.782,3.988-5.926,8.873-6.412,13.675c-4.904,5.679-9.591,11.522-14.054,17.517c0.635-2.553,0.9-5.224,0.718-7.939
			c-0.422-6.262-3.15-11.588-7.452-15.001c-4.131,4.959-6.437,11.394-5.88,17.748c0.484,5.613,3.074,10.183,6.792,13.283
			c-4.042,5.81-7.879,11.751-11.507,17.811c0.372-2.597,0.363-5.274-0.096-7.951c-1.058-6.173-4.315-11.188-8.938-14.152
			c-3.596,5.325-5.232,11.939-4.033,18.192c1.052,5.524,4.089,9.808,8.099,12.518c-3.43,6.17-6.648,12.454-9.649,18.842
			c0.109-2.618-0.169-5.279-0.894-7.894c-1.674-6.03-5.419-10.689-10.316-13.175c-3.038,5.648-4.001,12.384-2.181,18.484
			c1.601,5.389,5.05,9.346,9.312,11.642c-2.795,6.482-5.37,13.061-7.719,19.727c-0.153-2.62-0.694-5.241-1.677-7.773
			c-2.267-5.836-6.46-10.097-11.581-12.08c-2.459,5.926-2.745,12.733-0.326,18.628c2.13,5.209,5.957,8.806,10.427,10.663
			c-6.722,21.219-11.184,43.242-13.218,65.717c1.289,0.116,2.577,0.233,3.866,0.35c2.304-25.456,7.763-50.325,16.124-74.083
			c4.695,1.206,9.857,0.713,14.66-1.575c5.448-2.605,9.419-6.991,11.607-12.118c-4.989-2.267-10.9-2.564-16.488-0.018
			c-2.416,1.101-4.56,2.642-6.37,4.502c2.525-6.501,5.27-12.911,8.23-19.22c4.551,1.67,9.734,1.701,14.74-0.092
			c5.68-2.042,10.069-6.007,12.758-10.89c-4.736-2.755-10.589-3.642-16.404-1.668c-2.514,0.853-4.801,2.172-6.788,3.839
			c3.16-6.211,6.533-12.315,10.113-18.301C109.815,327.952,114.97,328.499,120.133,327.212z"/>
		<path style="clip-path:url(#SVGID_00000094614877416613539650000010240942626219795111_);fill:#ABA867;" d="M228.589,316.194
			c4.045-2.66,6.724-6.579,7.91-10.9c-4.207-1.261-8.935-0.852-13.099,1.783c-1.8,1.139-3.337,2.598-4.573,4.272
			c1.302-5.441,2.791-10.842,4.467-16.195c3.795,0.833,7.916,0.29,11.703-1.69c4.296-2.253,7.362-5.901,8.986-10.103
			c-4.058-1.678-8.807-1.738-13.221,0.48c-1.908,0.959-3.586,2.264-4.987,3.813c1.095-3.14,2.255-6.262,3.48-9.362
			c3.216-2.101,5.914-5.155,7.645-9.003c2.1-4.676,2.397-9.68,1.173-14.16c-4.357,1.579-8.281,5.09-10.475,9.979
			c-1.808,4.017-2.138,8.28-1.236,12.042c-2.21,5.593-4.211,11.253-6.003,16.968c-0.194-2.099-0.7-4.19-1.556-6.197
			c-1.974-4.626-5.446-7.935-9.604-9.38c-1.814,4.844-1.858,10.322,0.243,14.982c1.85,4.118,5.017,6.892,8.649,8.254
			c-1.522,5.464-2.855,10.973-3.998,16.518c-0.405-2.063-1.119-4.086-2.174-5.99c-2.432-4.391-6.222-7.324-10.503-8.344
			c-1.313,4.98-0.803,10.415,1.757,14.83c2.256,3.902,5.686,6.34,9.436,7.33c-0.964,5.575-1.738,11.18-2.32,16.806
			c-0.61-2.01-1.523-3.949-2.763-5.736c-2.86-4.12-6.925-6.655-11.287-7.241c-0.806,5.076,0.246,10.427,3.236,14.561
			c2.635,3.654,6.292,5.736,10.123,6.346c-0.401,5.643-0.611,11.301-0.626,16.965c-0.808-1.942-1.911-3.782-3.324-5.437
			c-3.258-3.816-7.556-5.932-11.955-6.079c-0.294,5.133,1.289,10.359,4.677,14.18c2.988,3.378,6.835,5.088,10.708,5.311
			c0.523,17.831,2.968,35.672,7.37,53.214c1.006-0.252,2.011-0.505,3.017-0.757c-4.986-19.869-7.429-40.127-7.383-60.312
			c3.871-0.329,7.646-2.066,10.675-5.067c3.433-3.411,5.279-7.779,5.579-12.236c-4.374-0.397-8.925,0.941-12.48,4.345
			c-1.537,1.472-2.752,3.204-3.63,5.09c0.192-5.586,0.574-11.162,1.146-16.717c3.885,0.061,7.814-1.286,11.128-3.966
			c3.757-3.047,6.03-7.206,6.774-11.612c-4.312-0.832-8.974,0.043-12.852,3.074c-1.677,1.31-3.058,2.912-4.121,4.699
			c0.75-5.535,1.688-11.045,2.814-16.52C220.978,319.481,225.022,318.532,228.589,316.194z"/>
		<path style="clip-path:url(#SVGID_00000094614877416613539650000010240942626219795111_);fill:#ABA867;" d="M386.537,376.352
			c-4.31-2.205-7.399-5.809-9.047-9.976c4.045-1.71,8.789-1.817,13.215,0.349c1.913,0.937,3.599,2.22,5.01,3.75
			c-1.885-5.267-3.953-10.475-6.2-15.614c-3.682,1.24-7.838,1.148-11.817-0.409c-4.515-1.773-7.96-5.067-10.03-9.067
			c3.852-2.109,8.566-2.685,13.195-0.959c2.001,0.746,3.811,1.861,5.372,3.248c-1.43-3.003-2.922-5.98-4.477-8.929
			c-3.425-1.739-6.439-4.482-8.578-8.119c-2.595-4.42-3.434-9.362-2.705-13.949c4.503,1.096,8.785,4.161,11.497,8.782
			c2.233,3.797,3.024,7.998,2.537,11.836c2.804,5.32,5.408,10.729,7.81,16.215c-0.035-2.108,0.24-4.241,0.873-6.329
			c1.46-4.814,4.552-8.479,8.528-10.367c2.33,4.618,2.968,10.059,1.386,14.92c-1.392,4.295-4.239,7.396-7.702,9.145
			c2.107,5.267,4.03,10.598,5.769,15.986c0.179-2.095,0.669-4.184,1.51-6.191c1.941-4.629,5.389-7.956,9.534-9.436
			c1.846,4.807,1.929,10.267-0.136,14.933c-1.819,4.124-4.963,6.92-8.584,8.312c1.564,5.437,2.942,10.925,4.131,16.455
			c0.388-2.064,1.085-4.091,2.124-6.002c2.396-4.406,6.162-7.367,10.434-8.424c1.352,4.958,0.888,10.393-1.635,14.827
			c-2.223,3.919-5.631,6.386-9.373,7.408c1.012,5.566,1.835,11.168,2.465,16.797c0.592-2.018,1.489-3.967,2.713-5.766
			c2.824-4.148,6.867-6.717,11.224-7.341c0.85,5.071-0.156,10.438-3.109,14.604c-2.603,3.683-6.242,5.8-10.067,6.443
			c1.417,17.782,0.924,35.784-1.546,53.7c-1.027-0.142-2.054-0.283-3.081-0.425c2.798-20.293,3.026-40.696,0.788-60.757
			c-3.884,0.093-7.825-1.223-11.162-3.877c-3.784-3.018-6.092-7.16-6.875-11.557c4.305-0.869,8.974-0.034,12.878,2.964
			c1.688,1.296,3.083,2.887,4.161,4.665c-0.797-5.532-1.783-11.033-2.955-16.494c-3.855,0.482-7.908-0.43-11.493-2.734
			c-4.066-2.62-6.777-6.508-7.996-10.807c4.196-1.296,8.925-0.931,13.11,1.66c1.809,1.12,3.356,2.563,4.607,4.223
			c-1.346-5.42-2.878-10.796-4.592-16.116C394.46,378.793,390.336,378.289,386.537,376.352z"/>
		<g style="clip-path:url(#SVGID_00000094614877416613539650000010240942626219795111_);">
			<g>
				<path style="fill:#3A522B;" d="M52.282,328.658c-12.206,30.344-17.628,60.847-16.896,88.039
					c19.357-19.111,36.567-44.872,48.773-75.216s17.628-60.847,16.896-88.039C81.698,272.553,64.488,298.314,52.282,328.658z"/>
				<path style="fill:#486635;" d="M101.055,253.441L35.387,416.697c19.357-19.111,36.567-44.872,48.773-75.216
					C96.365,311.136,101.787,280.633,101.055,253.441z"/>
			</g>
			<g>
				<path style="fill:#3A522B;" d="M73.721,360.477c-13.953,23.118-22.399,47.262-25.392,69.519
					c18.298-13.02,35.725-31.742,49.679-54.861c13.953-23.119,22.399-47.262,25.392-69.519
					C105.101,318.636,87.674,337.359,73.721,360.477z"/>
				<path style="fill:#486635;" d="M123.4,305.616l-75.071,124.38c18.298-13.02,35.725-31.742,49.679-54.861
					C111.961,352.017,120.407,327.874,123.4,305.616z"/>
			</g>
			<g>
				<path style="fill:#3A522B;" d="M31.352,302.984c-5.011,32.321-3.38,63.259,3.496,89.577
					c14.522-23.001,25.446-51.992,30.458-84.313c5.011-32.321,3.38-63.259-3.496-89.577
					C47.288,241.672,36.364,270.663,31.352,302.984z"/>
				<path style="fill:#486635;" d="M61.81,218.671l-26.962,173.89c14.522-23.001,25.446-51.992,30.458-84.313
					C70.317,275.928,68.685,244.99,61.81,218.671z"/>
			</g>
			<g>
				<path style="fill:#3A522B;" d="M6.862,335.571c0.955,27.03,7.09,51.904,16.766,72.211c8.219-20.939,12.584-46.184,11.629-73.214
					c-0.955-27.03-7.09-51.904-16.766-72.211C10.272,283.296,5.907,308.541,6.862,335.571z"/>
				<path style="fill:#486635;" d="M18.491,262.357l5.137,145.424c8.219-20.939,12.584-46.184,11.629-73.214
					C34.303,307.538,28.167,282.664,18.491,262.357z"/>
			</g>
		</g>
		<path style="clip-path:url(#SVGID_00000094614877416613539650000010240942626219795111_);fill:#8FA647;" d="M716.258,223.732
			c-4.985-2.557-8.556-6.732-10.459-11.556c4.684-1.974,10.175-2.093,15.294,0.42c2.213,1.086,4.163,2.573,5.794,4.346
			c-2.176-6.098-4.562-12.128-7.156-18.078c-4.263,1.431-9.073,1.319-13.677-0.487c-5.223-2.058-9.206-5.874-11.598-10.506
			c4.461-2.437,9.918-3.097,15.272-1.094c2.315,0.866,4.408,2.158,6.213,3.766c-1.651-3.477-3.375-6.924-5.17-10.339
			c-3.962-2.017-7.447-5.195-9.918-9.407c-2.998-5.119-3.963-10.84-3.113-16.147c5.21,1.274,10.162,4.826,13.296,10.178
			c2.58,4.397,3.491,9.261,2.922,13.701c3.239,6.16,6.246,12.424,9.02,18.776c-0.038-2.44,0.283-4.908,1.018-7.324
			c1.695-5.569,5.279-9.808,9.882-11.988c2.691,5.348,3.423,11.645,1.586,17.269c-1.616,4.969-4.915,8.555-8.925,10.574
			c2.432,6.098,4.652,12.271,6.657,18.508c0.209-2.424,0.779-4.841,1.755-7.163c2.252-5.355,6.247-9.202,11.046-10.909
			c2.13,5.566,2.221,11.885-0.175,17.283c-2.11,4.77-5.753,8.003-9.945,9.609c1.804,6.295,3.392,12.648,4.762,19.049
			c0.451-2.389,1.261-4.734,2.465-6.944c2.778-5.097,7.14-8.519,12.086-9.737c1.559,5.74,1.015,12.029-1.91,17.158
			c-2.577,4.533-6.525,7.384-10.857,8.563c1.164,6.443,2.11,12.928,2.833,19.443c0.688-2.335,1.728-4.59,3.147-6.67
			c3.274-4.797,7.956-7.766,12.999-8.483c0.977,5.87-0.193,12.08-3.616,16.898c-3.017,4.259-7.231,6.705-11.659,7.445
			c1.618,20.582,1.027,41.416-1.854,62.149c-1.189-0.165-2.377-0.33-3.566-0.495c3.263-23.483,3.552-47.097,0.985-70.317
			c-4.495,0.103-9.055-1.425-12.914-4.501c-4.375-3.497-7.043-8.294-7.942-13.384c4.983-1.001,10.386-0.029,14.901,3.446
			c1.952,1.502,3.565,3.345,4.81,5.405c-0.916-6.404-2.051-12.772-3.4-19.093c-4.462,0.553-9.151-0.507-13.298-3.178
			c-4.703-3.038-7.836-7.54-9.241-12.517c4.858-1.495,10.331-1.067,15.171,1.937c2.092,1.299,3.881,2.97,5.326,4.893
			c-1.552-6.275-3.317-12.498-5.295-18.658C725.425,226.566,720.652,225.978,716.258,223.732z"/>
		<g style="clip-path:url(#SVGID_00000094614877416613539650000010240942626219795111_);">
			<g>
				<path style="fill:#3A522B;" d="M706.96,315.241c18.956,26.654,31.353,55.046,36.992,81.657
					c-23.286-14.061-46.037-35.09-64.993-61.743c-18.956-26.654-31.353-55.047-36.992-81.657
					C665.253,267.559,688.005,288.588,706.96,315.241z"/>
				<path style="fill:#486635;" d="M641.968,253.498l101.985,143.4c-23.286-14.061-46.037-35.09-64.993-61.743
					C660.004,308.501,647.607,280.108,641.968,253.498z"/>
			</g>
			<g>
				<path style="fill:#3A522B;" d="M693.547,351.188c18.967,19.22,32.819,40.723,40.928,61.665
					c-20.834-8.385-42.151-22.52-61.119-41.74c-18.967-19.22-32.819-40.722-40.928-61.665
					C653.262,317.834,674.58,331.968,693.547,351.188z"/>
				<path style="fill:#486635;" d="M632.428,309.448l102.047,103.405c-20.834-8.385-42.151-22.52-61.119-41.74
					C654.389,351.894,640.538,330.391,632.428,309.448z"/>
			</g>
			<g>
				<path style="fill:#3A522B;" d="M721.315,285.388c12.422,30.256,18.062,60.72,17.524,87.916
					c-19.493-18.972-36.887-44.61-49.309-74.866c-12.422-30.256-18.062-60.719-17.524-87.916
					C691.499,229.495,708.892,255.132,721.315,285.388z"/>
				<path style="fill:#486635;" d="M672.006,210.523l66.834,162.782c-19.493-18.972-36.887-44.61-49.309-74.866
					C677.108,268.182,671.468,237.719,672.006,210.523z"/>
			</g>
			<g>
				<path style="fill:#3A522B;" d="M752.739,311.353c5.385,26.505,5.23,52.124,0.565,74.13
					c-12.883-18.44-23.024-41.967-28.409-68.472c-5.385-26.505-5.23-52.124-0.565-74.129
					C737.213,261.321,747.354,284.848,752.739,311.353z"/>
				<path style="fill:#486635;" d="M724.33,242.881l28.974,142.601c-12.883-18.44-23.024-41.967-28.409-68.472
					C719.51,290.505,719.665,264.887,724.33,242.881z"/>
			</g>
		</g>
		<path style="clip-path:url(#SVGID_00000094614877416613539650000010240942626219795111_);fill:#3A522B;" d="M253.528,409.254
			c-0.792-5.521-5.382-9.905-11.165-10.228c-2.315-0.13-4.507,0.42-6.401,1.458c-2.797-6.184-9.007-10.494-16.235-10.494
			c-2.253,0-4.399,0.435-6.384,1.198c-4.938-9.234-14.67-15.518-25.873-15.518c-11.211,0-20.949,6.293-25.883,15.537
			c-3.106-2.582-7.097-4.137-11.452-4.137c-2.333,0-4.559,0.451-6.604,1.261c-3.035-12.055-13.945-20.981-26.942-20.981
			c-5.451,0-10.531,1.576-14.821,4.288c-5.768-12.075-18.091-20.419-32.365-20.419c-16.305,0-30.058,10.889-34.408,25.788
			c-11.078,1.698-19.563,11.269-19.563,22.822c0,3.358,0.723,6.545,2.012,9.424H253.528z"/>
		<path style="clip-path:url(#SVGID_00000094614877416613539650000010240942626219795111_);fill:#3A522B;" d="M516.657,409.254
			c0.792-5.521,5.382-9.905,11.166-10.228c2.315-0.13,4.507,0.42,6.401,1.458c2.797-6.184,9.007-10.494,16.235-10.494
			c2.253,0,4.399,0.435,6.383,1.198c4.938-9.234,14.67-15.518,25.873-15.518c11.211,0,20.949,6.293,25.883,15.537
			c3.106-2.582,7.097-4.137,11.452-4.137c2.333,0,4.559,0.451,6.604,1.261c3.035-12.055,13.945-20.981,26.942-20.981
			c5.451,0,10.531,1.576,14.822,4.288c5.768-12.075,18.091-20.419,32.365-20.419c16.305,0,30.058,10.889,34.408,25.788
			c11.078,1.698,19.563,11.269,19.563,22.822c0,3.358-0.723,6.545-2.012,9.424H516.657z"/>
		<path style="clip-path:url(#SVGID_00000094614877416613539650000010240942626219795111_);fill:#4E6E39;" d="M752.334,399.243
			l32.15-10.823c-0.261-0.828-0.539-1.648-0.831-2.461l-16.6,1.509l14.784-6.059c-3.096-7.02-7.325-13.426-12.457-18.988
			l-22.933,14.113l19.938-17.168c-0.701-0.671-1.417-1.326-2.146-1.968l-14.007,7.782l10.239-10.872
			c-7.029-5.364-15.117-9.409-23.896-11.768l-9.893,14.649l3.541-16.037c-0.996-0.169-1.998-0.319-3.008-0.444l-8.609,20.687
			l2.349-21.176c-0.78-0.026-1.563-0.044-2.349-0.044c-9.739,0-19.006,2.02-27.409,5.656c-1.021,8.116-1.942,15.654-1.942,16.405
			c0,0.816-1.485-6.387-3.014-14.02c-0.757,0.402-1.507,0.816-2.246,1.245l1.476,25.253l-6.321-22.164
			c-7.253,5.056-13.489,11.468-18.343,18.869l3.638,16.048l-6.634-11.036c-1.384,2.558-2.609,5.215-3.666,7.955l13.244,14.856
			l-15.26-8.822c-1.693,5.987-2.599,12.304-2.599,18.833h138.158c0-5.501-0.646-10.85-1.861-15.979L752.334,399.243z"/>
		<path style="clip-path:url(#SVGID_00000094614877416613539650000010240942626219795111_);fill:#4E6E39;" d="M51.938,399.243
			l32.15-10.823c-0.262-0.828-0.539-1.648-0.831-2.461l-16.6,1.509l14.784-6.059c-3.096-7.02-7.325-13.426-12.457-18.988
			L46.05,376.534l19.938-17.168c-0.701-0.671-1.417-1.326-2.146-1.968l-14.007,7.782l10.239-10.872
			c-7.029-5.364-15.116-9.409-23.896-11.768l-9.893,14.649l3.541-16.037c-0.996-0.169-1.998-0.319-3.008-0.444l-8.609,20.687
			l2.349-21.176c-0.78-0.026-1.563-0.044-2.349-0.044c-9.739,0-19.006,2.02-27.409,5.656c-1.021,8.116-1.942,15.654-1.942,16.405
			c0,0.816-1.485-6.387-3.014-14.02c-0.757,0.402-1.507,0.816-2.246,1.245l1.476,25.253l-6.321-22.164
			c-7.253,5.056-13.489,11.468-18.343,18.869l3.638,16.048l-6.634-11.036c-1.384,2.558-2.609,5.215-3.666,7.955l13.244,14.856
			l-15.26-8.822c-1.693,5.987-2.599,12.304-2.599,18.833H87.288c0-5.501-0.647-10.85-1.861-15.979L51.938,399.243z"/>
		
			<rect x="-17.738" y="409.254" style="clip-path:url(#SVGID_00000094614877416613539650000010240942626219795111_);fill:#8FA647;" width="782.897" height="117.142"/>
		<path style="clip-path:url(#SVGID_00000094614877416613539650000010240942626219795111_);fill:#8FA647;" d="M464.818,412.227
			c-2.72-2.582-5.855-4.727-9.248-6.326c2.846,0.027,5.688,0.501,8.39,1.399c-1.643-1.98-3.286-3.959-4.929-5.939
			c2.873,1.103,5.61,2.56,8.128,4.329c-1.201-3.163-2.932-6.124-5.099-8.722c3.728,1.438,7.004,4.026,9.265,7.321
			c-0.148-3.284,0.385-6.596,1.554-9.668c0.541,2.561,1.082,5.122,1.623,7.684c1.23-2.227,3.081-4.107,5.289-5.372
			c-0.694,2.848-1.388,5.696-2.082,8.544c1.981-1.948,4.553-3.287,7.286-3.79c-1.311,2.233-2.622,4.465-3.934,6.698
			c2.595-1.363,5.599-1.934,8.513-1.618c-3.571,1.849-6.72,4.508-9.14,7.719C475.173,413.591,470.08,413.12,464.818,412.227z"/>
		<g style="clip-path:url(#SVGID_00000094614877416613539650000010240942626219795111_);">
			<polygon style="fill:#A0BA50;" points="765.159,526.396 765.159,451.277 -17.738,480.82 -17.738,482.639 698.325,482.639 
				382.794,526.396 			"/>
			<polygon style="fill:#A0BA50;" points="-17.738,425.74 554.784,425.74 -17.738,446.106 -17.738,449.017 765.159,449.017 
				765.159,409.254 -17.738,422.951 			"/>
		</g>
		
			<path style="clip-path:url(#SVGID_00000094614877416613539650000010240942626219795111_);fill:none;stroke:#ABA867;stroke-width:20;stroke-miterlimit:10;" d="
			M76.344,125.024L76.344,125.024c32.107,0,58.135-26.028,58.135-58.135v-95.987"/>
		<path style="clip-path:url(#SVGID_00000094614877416613539650000010240942626219795111_);fill:#A0BA50;" d="M89.079,478.393
			c-3.746-3.556-8.063-6.509-12.735-8.712c3.92,0.037,7.833,0.69,11.553,1.926c-2.262-2.726-4.525-5.452-6.787-8.178
			c3.956,1.518,7.725,3.526,11.192,5.962c-1.653-4.356-4.037-8.433-7.022-12.011c5.134,1.98,9.644,5.544,12.758,10.081
			c-0.203-4.522,0.53-9.083,2.14-13.314c0.745,3.527,1.49,7.054,2.235,10.581c1.694-3.067,4.243-5.656,7.283-7.397
			c-0.955,3.922-1.911,7.843-2.866,11.765c2.727-2.683,6.27-4.526,10.033-5.219c-1.805,3.074-3.611,6.149-5.416,9.223
			c3.573-1.877,7.71-2.663,11.723-2.228c-4.918,2.546-9.253,6.208-12.586,10.63C103.337,480.271,96.325,479.623,89.079,478.393z"/>
		<path style="clip-path:url(#SVGID_00000094614877416613539650000010240942626219795111_);fill:#8FA647;" d="M110.191,412.27
			c-2.668-2.533-5.743-4.636-9.071-6.205c2.792,0.026,5.579,0.491,8.229,1.372c-1.611-1.942-3.223-3.883-4.834-5.825
			c2.818,1.082,5.502,2.511,7.972,4.246c-1.178-3.102-2.876-6.007-5.001-8.555c3.657,1.41,6.869,3.949,9.088,7.18
			c-0.145-3.221,0.378-6.47,1.524-9.483c0.531,2.512,1.061,5.024,1.592,7.536c1.207-2.185,3.022-4.029,5.187-5.269
			c-0.68,2.793-1.361,5.587-2.042,8.38c1.943-1.911,4.466-3.224,7.146-3.718c-1.286,2.19-2.572,4.38-3.858,6.57
			c2.545-1.337,5.492-1.897,8.35-1.587c-3.503,1.813-6.591,4.422-8.965,7.571C120.347,413.608,115.352,413.147,110.191,412.27z"/>
		<path style="clip-path:url(#SVGID_00000094614877416613539650000010240942626219795111_);fill:#8FA647;" d="M178.015,413.058
			c-1.719-1.632-3.701-2.987-5.844-3.998c1.799,0.017,3.595,0.316,5.302,0.884c-1.038-1.251-2.077-2.502-3.115-3.753
			c1.816,0.697,3.545,1.618,5.137,2.736c-0.759-1.999-1.853-3.87-3.223-5.512c2.356,0.909,4.426,2.544,5.855,4.626
			c-0.093-2.075,0.243-4.169,0.982-6.11c0.342,1.619,0.684,3.237,1.026,4.856c0.777-1.408,1.947-2.596,3.342-3.395
			c-0.438,1.8-0.877,3.6-1.316,5.399c1.252-1.231,2.878-2.077,4.605-2.395c-0.829,1.411-1.657,2.822-2.486,4.233
			c1.64-0.862,3.539-1.222,5.38-1.022c-2.257,1.168-4.247,2.849-5.776,4.878C184.559,413.919,181.341,413.622,178.015,413.058z"/>
		<path style="clip-path:url(#SVGID_00000094614877416613539650000010240942626219795111_);fill:#A0BA50;" d="M660.52,412.8
			c-3.746-3.556-8.063-6.509-12.735-8.712c3.92,0.037,7.833,0.69,11.553,1.926c-2.262-2.726-4.525-5.452-6.787-8.178
			c3.956,1.518,7.725,3.526,11.192,5.962c-1.653-4.356-4.037-8.433-7.022-12.011c5.134,1.98,9.644,5.544,12.758,10.081
			c-0.203-4.522,0.53-9.083,2.14-13.313c0.745,3.527,1.49,7.054,2.235,10.581c1.694-3.067,4.243-5.656,7.283-7.397
			c-0.956,3.922-1.911,7.843-2.866,11.765c2.727-2.683,6.27-4.526,10.033-5.219c-1.805,3.074-3.611,6.149-5.417,9.223
			c3.573-1.877,7.71-2.663,11.723-2.228c-4.918,2.546-9.253,6.207-12.586,10.63C674.778,414.678,667.766,414.03,660.52,412.8z"/>
		<path style="clip-path:url(#SVGID_00000094614877416613539650000010240942626219795111_);fill:#A0BA50;" d="M379.791,472.1
			c-3.566-3.385-7.676-6.197-12.124-8.294c3.732,0.035,7.458,0.656,10.999,1.834c-2.154-2.595-4.308-5.191-6.462-7.786
			c3.767,1.446,7.354,3.357,10.656,5.676c-1.574-4.147-3.844-8.029-6.685-11.435c4.888,1.885,9.182,5.278,12.147,9.597
			c-0.194-4.305,0.504-8.648,2.037-12.675c0.709,3.358,1.419,6.716,2.128,10.073c1.613-2.92,4.039-5.385,6.934-7.043
			c-0.91,3.734-1.819,7.467-2.729,11.201c2.597-2.555,5.97-4.309,9.552-4.969c-1.719,2.927-3.438,5.854-5.157,8.781
			c3.402-1.787,7.341-2.536,11.161-2.121c-4.682,2.424-8.81,5.91-11.982,10.12C393.366,473.888,386.69,473.271,379.791,472.1z"/>
		<path style="clip-path:url(#SVGID_00000094614877416613539650000010240942626219795111_);fill:#8FA647;" d="M574.513,452.178
			c-3.566-3.385-7.676-6.197-12.124-8.294c3.732,0.035,7.457,0.656,10.999,1.834c-2.154-2.595-4.308-5.191-6.462-7.786
			c3.767,1.446,7.354,3.357,10.656,5.676c-1.574-4.147-3.844-8.029-6.685-11.435c4.888,1.885,9.182,5.278,12.147,9.597
			c-0.194-4.305,0.505-8.648,2.037-12.675c0.709,3.358,1.419,6.716,2.128,10.073c1.613-2.92,4.039-5.385,6.934-7.043
			c-0.91,3.734-1.819,7.467-2.729,11.201c2.597-2.554,5.969-4.309,9.552-4.969c-1.719,2.927-3.438,5.854-5.157,8.781
			c3.402-1.787,7.341-2.536,11.161-2.121c-4.682,2.424-8.81,5.91-11.982,10.12C588.088,453.966,581.412,453.35,574.513,452.178z"/>
		<path style="clip-path:url(#SVGID_00000094614877416613539650000010240942626219795111_);fill:#8FA647;" d="M527.992,488.375
			c-4.292-4.074-9.239-7.458-14.591-9.982c4.491,0.042,8.975,0.79,13.237,2.207c-2.592-3.124-5.184-6.247-7.776-9.371
			c4.533,1.74,8.851,4.04,12.824,6.831c-1.894-4.991-4.626-9.663-8.046-13.762c5.882,2.269,11.051,6.352,14.619,11.55
			c-0.233-5.181,0.607-10.408,2.452-15.255c0.854,4.041,1.707,8.082,2.561,12.124c1.941-3.514,4.861-6.48,8.345-8.476
			c-1.095,4.493-2.189,8.987-3.284,13.48c3.125-3.074,7.184-5.186,11.496-5.98c-2.069,3.523-4.138,7.046-6.206,10.568
			c4.094-2.151,8.835-3.052,13.432-2.553c-5.635,2.917-10.602,7.113-14.421,12.18C544.33,490.527,536.295,489.785,527.992,488.375z"
			/>
		<path style="clip-path:url(#SVGID_00000094614877416613539650000010240942626219795111_);fill:#8FA647;" d="M439.137,452
			c-3.057-2.902-6.58-5.312-10.393-7.11c3.199,0.03,6.393,0.563,9.428,1.572c-1.846-2.225-3.693-4.45-5.539-6.674
			c3.229,1.239,6.304,2.878,9.134,4.866c-1.349-3.555-3.295-6.883-5.731-9.802c4.19,1.616,7.871,4.525,10.412,8.227
			c-0.166-3.69,0.433-7.413,1.747-10.866c0.608,2.878,1.216,5.757,1.824,8.635c1.382-2.503,3.462-4.616,5.944-6.037
			c-0.78,3.201-1.56,6.401-2.339,9.602c2.226-2.19,5.117-3.694,8.188-4.26c-1.474,2.509-2.947,5.018-4.421,7.527
			c2.916-1.532,6.293-2.174,9.567-1.818c-4.013,2.078-7.552,5.066-10.272,8.675C450.774,453.533,445.05,453.004,439.137,452z"/>
		
			<path style="clip-path:url(#SVGID_00000094614877416613539650000010240942626219795111_);fill:none;stroke:#435E31;stroke-width:7;stroke-miterlimit:10;" d="
			M191.316,218.671L191.316,218.671c-86.987,0-157.504-70.517-157.504-157.504v-81.691H348.82v81.691
			C348.82,148.154,278.304,218.671,191.316,218.671z"/>
		
			<path style="clip-path:url(#SVGID_00000094614877416613539650000010240942626219795111_);fill:none;stroke:#435E31;stroke-width:7;stroke-miterlimit:10;" d="
			M467.848,165.845L467.848,165.845c-86.987,0-157.504-70.517-157.504-157.504v-81.691h315.008V8.341
			C625.352,95.328,554.835,165.845,467.848,165.845z"/>
		
			<path style="clip-path:url(#SVGID_00000094614877416613539650000010240942626219795111_);fill:none;stroke:#435E31;stroke-width:7;stroke-miterlimit:10;" d="
			M39.806,197.468L39.806,197.468c-64.847,0-117.416-52.569-117.416-117.416V19.154h234.831v60.898
			C157.221,144.9,104.653,197.468,39.806,197.468z"/>
		<g style="clip-path:url(#SVGID_00000094614877416613539650000010240942626219795111_);">
			<path style="fill:#435E31;" d="M368.282-53.295c2.125-30.508-20.169-57.538-50.848-60.977
				c-7.364-0.826-14.553-0.203-21.299,1.614c-8.937-9.189-20.99-15.458-34.723-16.997c-19.382-2.173-37.58,5.586-49.542,19.209
				c-22.088-0.481-41.286,15.966-43.795,38.346c-0.391,3.487-0.344,6.921,0.077,10.255c-14.414,2.835-25.968,14.717-27.691,30.092
				c-1.242,11.081,2.902,21.518,10.337,28.718c-0.565,2.121-0.982,4.308-1.234,6.555c-2.742,24.458,14.863,46.509,39.321,49.251
				c2.582,0.29,5.135,0.339,7.644,0.191c5.889,10.012,16.254,17.225,28.686,18.619c15.169,1.701,29.253-5.732,36.773-17.911
				c8.936,9.185,20.986,15.451,34.715,16.99c26.694,2.993,51.154-12.839,60.144-36.909c14.07-9.01,24.11-24.049,26.116-41.946
				C384.881-25.313,379.05-41.503,368.282-53.295z"/>
			<g>
				<path style="fill:#4E6E39;" d="M200.693-22.426c2.819-40.473-26.757-76.333-67.457-80.896
					c-9.77-1.095-19.306-0.269-28.257,2.142c-11.856-12.191-27.846-20.507-46.064-22.549c-25.714-2.883-49.856,7.411-65.725,25.484
					c-29.303-0.638-54.772,21.181-58.101,50.872c-0.519,4.626-0.457,9.182,0.102,13.605c-19.123,3.761-34.45,19.525-36.736,39.921
					c-1.648,14.7,3.849,28.547,13.713,38.098c-0.749,2.813-1.303,5.716-1.637,8.696c-3.638,32.448,19.717,61.701,52.165,65.338
					c3.426,0.384,6.812,0.45,10.141,0.253c7.813,13.282,21.563,22.852,38.056,24.701c20.124,2.256,38.808-7.605,48.785-23.762
					c11.855,12.186,27.841,20.498,46.054,22.54c35.413,3.97,67.863-17.032,79.79-48.965c18.666-11.953,31.985-31.904,34.647-55.647
					C222.714,14.696,214.979-6.782,200.693-22.426z"/>
				<path style="fill:#5D8243;" d="M180.48-11.002c14.02,5.37,23.262,21.098,21.13,35.959
					c-2.132,14.861-15.422,27.357-30.386,28.569c1.085,3.597-0.002,7.634-2.956,9.956s-7.347,2.617-10.585,0.712
					c0.327,5.464-6.49,7.716-11.36,5.217c-0.285,3.277-1.89,5.885-4.883,7.249c-2.994,1.364-6.709,0.988-9.368-0.948
					c-5.046,11.459-14.686,19.538-27.115,21.045c-12.43,1.507-25.476-3.962-33.115-13.882c-1.219,6.917-11.723,10.257-17.722,6.604
					c-1.095,3.959-3.104,7.643-7.163,8.271c-4.06,0.628-8.404-1.314-10.643-4.758c-4.689,8.625-13.128,16.481-22.926,17.09
					s-19.533-2.945-27.652-8.464c-8.119-5.518-14.785-12.911-20.858-20.624C-49.754,62.41-57.81,42.623-52.3,19.622
					c5.51-23.001,22.129-43.069,43.7-52.77c21.568-9.7,46.36-9.074,69.737-5.495s46.399,9.926,70.019,11.101
					c9.715,0.483,19.543,0.094,29.072,2.043C169.758-23.549,175.392-19.292,180.48-11.002z"/>
				<path style="fill:#54783D;" d="M122.424,119.136c-3.285-2.885-7.441-4.137-11.481-3.828c0.215,4.046,1.994,8.006,5.279,10.89
					c3.285,2.885,7.441,4.137,11.481,3.828C127.488,125.98,125.709,122.021,122.424,119.136z"/>
				<path style="fill:#54783D;" d="M187.223,60.249c-3.878,2.02-6.548,5.442-7.721,9.32c3.85,1.263,8.185,1.036,12.062-0.984
					s6.548-5.441,7.721-9.32C195.435,58.002,191.101,58.229,187.223,60.249z"/>
				<path style="fill:#628A47;" d="M133.761,45.909c-4.262-0.975-8.513-0.099-11.92,2.095c2.114,3.457,5.562,6.093,9.824,7.068
					c4.262,0.975,8.513,0.099,11.92-2.095C141.472,49.52,138.023,46.883,133.761,45.909z"/>
				<path style="fill:#628A47;" d="M109.977,69.236c-1.036-4.247-3.721-7.657-7.208-9.722c-2.145,3.438-2.959,7.701-1.923,11.948
					c1.036,4.247,3.722,7.657,7.208,9.722C110.198,77.747,111.013,73.483,109.977,69.236z"/>
				<path style="fill:#628A47;" d="M174.106,16.423c-4.37,0.13-8.264,2.048-11.008,5.029c2.916,2.813,6.917,4.496,11.287,4.366
					c4.37-0.13,8.264-2.048,11.008-5.028C182.477,17.976,178.476,16.293,174.106,16.423z"/>
				<path style="fill:#628A47;" d="M30.7,84.002c2.621-3.499,3.548-7.739,2.926-11.743c-4.017,0.528-7.827,2.609-10.448,6.108
					c-2.621,3.499-3.548,7.74-2.926,11.743C24.269,89.582,28.079,87.501,30.7,84.002z"/>
				<path style="fill:#54783D;" d="M72.912,109.171c3.347-2.812,5.212-6.732,5.516-10.772c-4.032-0.398-8.215,0.764-11.562,3.576
					c-3.347,2.812-5.212,6.732-5.516,10.772C65.383,113.145,69.565,111.983,72.912,109.171z"/>
				<path style="fill:#54783D;" d="M101.273,111.555c-0.758-4.306-3.217-7.882-6.563-10.168c-2.363,3.291-3.452,7.493-2.694,11.799
					c0.758,4.306,3.217,7.882,6.563,10.168C100.942,120.062,102.031,115.86,101.273,111.555z"/>
				<path style="fill:#54783D;" d="M156.41,83.557c-4.372,0.026-8.31,1.85-11.125,4.765c2.848,2.882,6.808,4.66,11.18,4.634
					c4.372-0.026,8.31-1.85,11.125-4.765C164.742,85.31,160.782,83.531,156.41,83.557z"/>
				<path style="fill:#54783D;" d="M134.313,100.888c-4.358-0.347-8.438,1.136-11.49,3.801c2.593,3.114,6.387,5.222,10.745,5.569
					c4.358,0.347,8.438-1.136,11.49-3.801C142.465,103.343,138.671,101.235,134.313,100.888z"/>
				<path style="fill:#54783D;" d="M33.45,122.809c2.822-3.339,3.996-7.518,3.611-11.551c-4.041,0.291-7.966,2.144-10.789,5.483
					c-2.822,3.339-3.996,7.518-3.611,11.551C26.703,128.001,30.628,126.147,33.45,122.809z"/>
			</g>
		</g>
		<g style="clip-path:url(#SVGID_00000094614877416613539650000010240942626219795111_);">
			<path style="fill:#435E31;" d="M372.753-62.514c-2.125-30.508,20.169-57.538,50.848-60.977
				c7.364-0.826,14.552-0.203,21.299,1.614c8.937-9.189,20.99-15.458,34.722-16.997c19.383-2.173,37.58,5.586,49.542,19.209
				c22.088-0.481,41.286,15.966,43.795,38.346c0.391,3.487,0.344,6.921-0.077,10.255c14.414,2.835,25.968,14.717,27.691,30.092
				c1.242,11.081-2.902,21.518-10.337,28.718c0.565,2.121,0.982,4.308,1.234,6.555c2.742,24.458-14.863,46.509-39.321,49.251
				c-2.582,0.289-5.135,0.339-7.644,0.191c-5.889,10.012-16.254,17.225-28.686,18.619c-15.169,1.701-29.253-5.732-36.773-17.911
				c-8.936,9.185-20.986,15.451-34.715,16.99c-26.694,2.993-51.154-12.839-60.144-36.909c-14.07-9.01-24.11-24.049-26.116-41.946
				C356.154-34.532,361.985-50.722,372.753-62.514z"/>
			<g>
				<path style="fill:#4E6E39;" d="M540.343-31.645c-2.819-40.473,26.757-76.333,67.457-80.896
					c9.77-1.095,19.306-0.269,28.257,2.142c11.856-12.191,27.846-20.507,46.064-22.549c25.714-2.883,49.856,7.411,65.725,25.484
					c29.303-0.638,54.772,21.181,58.101,50.872c0.519,4.626,0.457,9.182-0.102,13.605c19.123,3.761,34.45,19.525,36.736,39.921
					c1.648,14.7-3.849,28.547-13.713,38.098c0.749,2.813,1.303,5.716,1.638,8.696c3.638,32.448-19.718,61.701-52.165,65.338
					c-3.426,0.384-6.812,0.45-10.141,0.253c-7.813,13.282-21.563,22.852-38.056,24.701c-20.124,2.256-38.808-7.605-48.785-23.762
					c-11.855,12.186-27.841,20.498-46.055,22.54c-35.413,3.97-67.863-17.032-79.79-48.965
					c-18.666-11.953-31.985-31.904-34.647-55.648C518.322,5.478,526.057-16.001,540.343-31.645z"/>
				<path style="fill:#5D8243;" d="M560.556-20.22c-14.019,5.37-23.262,21.098-21.13,35.959
					c2.132,14.861,15.422,27.357,30.386,28.569c-1.085,3.597,0.002,7.634,2.956,9.956c2.954,2.321,7.347,2.617,10.585,0.713
					c-0.327,5.464,6.49,7.716,11.36,5.217c0.285,3.277,1.89,5.885,4.883,7.249s6.709,0.988,9.368-0.949
					c5.046,11.459,14.686,19.538,27.115,21.045c12.43,1.508,25.476-3.962,33.115-13.882c1.22,6.916,11.723,10.257,17.722,6.604
					c1.095,3.959,3.104,7.643,7.163,8.271c4.06,0.628,8.404-1.314,10.643-4.758c4.689,8.625,13.128,16.481,22.926,17.09
					c9.798,0.608,19.533-2.946,27.652-8.464c8.119-5.518,14.785-12.911,20.858-20.624c14.63-18.583,22.686-38.371,17.176-61.371
					c-5.51-23.001-22.129-43.069-43.7-52.77c-21.568-9.7-46.36-9.074-69.737-5.495c-23.377,3.579-46.399,9.926-70.019,11.101
					c-9.715,0.483-19.543,0.094-29.072,2.043C571.278-32.768,565.643-28.511,560.556-20.22z"/>
				<path style="fill:#54783D;" d="M618.611,109.917c3.285-2.885,7.441-4.137,11.481-3.827c-0.215,4.046-1.994,8.005-5.279,10.89
					c-3.285,2.885-7.441,4.137-11.481,3.828C613.547,116.761,615.326,112.802,618.611,109.917z"/>
				<path style="fill:#54783D;" d="M553.812,51.03c3.878,2.02,6.548,5.441,7.721,9.32c-3.85,1.262-8.185,1.036-12.062-0.984
					c-3.878-2.02-6.548-5.441-7.721-9.32C545.6,48.784,549.935,49.01,553.812,51.03z"/>
				<path style="fill:#628A47;" d="M607.274,36.69c4.262-0.975,8.513-0.099,11.92,2.095c-2.114,3.457-5.562,6.093-9.824,7.068
					c-4.262,0.975-8.513,0.099-11.92-2.095C599.564,40.301,603.012,37.665,607.274,36.69z"/>
				<path style="fill:#628A47;" d="M631.058,60.017c1.036-4.247,3.721-7.657,7.208-9.722c2.145,3.438,2.959,7.701,1.923,11.948
					c-1.036,4.247-3.721,7.657-7.208,9.722C630.837,68.528,630.022,64.265,631.058,60.017z"/>
				<path style="fill:#628A47;" d="M566.929,7.204c4.37,0.13,8.264,2.048,11.008,5.028c-2.916,2.813-6.917,4.496-11.287,4.367
					c-4.37-0.13-8.264-2.048-11.008-5.029C558.558,8.758,562.559,7.074,566.929,7.204z"/>
				<path style="fill:#628A47;" d="M710.335,74.784c-2.621-3.499-3.547-7.74-2.926-11.743c4.017,0.528,7.827,2.609,10.448,6.108
					c2.621,3.499,3.547,7.739,2.926,11.743C716.766,80.363,712.956,78.282,710.335,74.784z"/>
				<path style="fill:#54783D;" d="M668.123,99.952c-3.347-2.812-5.212-6.732-5.516-10.772c4.032-0.398,8.215,0.764,11.562,3.576
					c3.347,2.812,5.212,6.732,5.516,10.772C675.653,103.926,671.47,102.764,668.123,99.952z"/>
				<path style="fill:#54783D;" d="M639.762,102.336c0.758-4.305,3.218-7.882,6.563-10.168c2.363,3.291,3.452,7.493,2.694,11.799
					c-0.758,4.305-3.217,7.882-6.563,10.168C640.093,110.843,639.004,106.642,639.762,102.336z"/>
				<path style="fill:#54783D;" d="M584.625,74.338c4.372,0.026,8.31,1.85,11.125,4.765c-2.848,2.882-6.808,4.66-11.18,4.634
					c-4.372-0.026-8.31-1.85-11.125-4.765C576.294,76.091,580.254,74.313,584.625,74.338z"/>
				<path style="fill:#54783D;" d="M606.723,91.669c4.358-0.346,8.438,1.136,11.49,3.801c-2.593,3.113-6.387,5.222-10.745,5.569
					c-4.358,0.347-8.438-1.136-11.49-3.801C598.571,94.125,602.365,92.016,606.723,91.669z"/>
				<path style="fill:#54783D;" d="M707.585,113.59c-2.822-3.339-3.996-7.518-3.611-11.551c4.041,0.291,7.966,2.144,10.789,5.483
					c2.822,3.339,3.996,7.518,3.611,11.551C714.333,118.782,710.407,116.928,707.585,113.59z"/>
			</g>
		</g>
		<path style="clip-path:url(#SVGID_00000094614877416613539650000010240942626219795111_);fill:#4E6E39;" d="M260.57,533.505
			c-4.564-17.347-12.41-33.624-20.209-49.776c10.594,8.542,19.788,18.816,27.104,30.29c-0.174-21.624-4.705-43.499-9.723-64.534
			c8.836,18.625,16.19,36.453,21.628,56.338c3.577-22.223,5.848-42.71,4.582-65.183c6.269,21.319,10.213,42.778,10.259,64.999
			c9.121-22.323,16.509-43.739,25.63-66.062c-1.986,19.879-5.341,40.737-10.81,59.952c12.041-12.485,24.266-25.949,36.307-38.434
			c-6.28,14.831-14.218,30.082-24.039,42.847c11.95-8.449,23.343-15.62,35.294-24.068c-7.304,11.804-15.593,24.941-25.298,34.865
			c10.905-3.875,22.068-6.528,32.973-10.403c-12.474,8.883-24.011,19.515-35.865,29.211c-9.294,7.602-22.485,11.613-34.38,9.975
			C282.128,541.883,263.625,545.117,260.57,533.505z"/>
		<path style="clip-path:url(#SVGID_00000094614877416613539650000010240942626219795111_);fill:#3A522B;" d="M324.754,535.556
			c-1.275-8.89-8.666-15.947-17.978-16.469c-3.728-0.209-7.257,0.676-10.306,2.348c-4.504-9.956-14.502-16.896-26.14-16.896
			c-3.627,0-7.083,0.701-10.278,1.928c-7.951-14.867-23.621-24.985-41.658-24.985c-18.05,0-33.729,10.132-41.674,25.016
			c-5.001-4.158-11.427-6.66-18.439-6.66c-3.756,0-7.341,0.725-10.632,2.031c-4.887-19.41-22.453-33.78-43.379-33.78
			c-8.777,0-16.956,2.537-23.864,6.904c-9.286-19.442-29.128-32.876-52.111-32.876c-26.252,0-48.396,17.531-55.4,41.521
			c-17.837,2.734-31.499,18.144-31.499,36.746c0,5.407,1.164,10.539,3.239,15.173H324.754z"/>
		<path style="clip-path:url(#SVGID_00000094614877416613539650000010240942626219795111_);fill:#3A522B;" d="M516.223,520.893
			c1.275-8.89,8.666-15.947,17.977-16.469c3.728-0.209,7.257,0.676,10.306,2.348c4.504-9.956,14.502-16.896,26.14-16.896
			c3.627,0,7.083,0.701,10.278,1.928c7.951-14.867,23.621-24.985,41.659-24.985c18.05,0,33.729,10.132,41.674,25.016
			c5.001-4.158,11.427-6.66,18.439-6.66c3.756,0,7.341,0.725,10.632,2.031c4.887-19.41,22.453-33.781,43.379-33.781
			c8.777,0,16.956,2.537,23.864,6.904c9.286-19.442,29.128-32.876,52.111-32.876c26.252,0,48.396,17.531,55.4,41.521
			c17.837,2.734,31.499,18.144,31.499,36.746c0,5.407-1.164,10.538-3.239,15.173H516.223z"/>
	</g>
</g>
</svg>
