<svg xmlns="http://www.w3.org/2000/svg" xmlns:xlink="http://www.w3.org/1999/xlink" width="500" zoomAndPan="magnify" viewBox="0 0 375 374.999991" height="500" preserveAspectRatio="xMidYMid meet" version="1.0"><defs><clipPath id="51325513ad"><path d="M 12.835938 120 L 97 120 L 97 151 L 12.835938 151 Z M 12.835938 120 " clip-rule="nonzero"/></clipPath><clipPath id="28976e18bd"><path d="M 153 120 L 236.335938 120 L 236.335938 151 L 153 151 Z M 153 120 " clip-rule="nonzero"/></clipPath><clipPath id="0dd89808bb"><path d="M 166.148438 172 L 367.898438 172 L 367.898438 249 L 166.148438 249 Z M 166.148438 172 " clip-rule="nonzero"/></clipPath><clipPath id="5df38a851d"><path d="M 210 129.007812 L 316 129.007812 L 316 212 L 210 212 Z M 210 129.007812 " clip-rule="nonzero"/></clipPath></defs><path fill="#ffd98e" d="M 201.503906 249.320312 C 193.183594 245.003906 184.261719 241.726562 175.503906 238.421875 C 173.363281 237.617188 170.546875 237.027344 168.546875 235.945312 C 166.230469 234.691406 164.878906 231.769531 163.082031 229.832031 C 160.925781 227.507812 158.433594 225.460938 155.550781 224.105469 C 151.085938 222.007812 145.953125 221.667969 141.054688 222.292969 C 136.160156 222.921875 131.4375 224.464844 126.746094 226 C 124.738281 226.660156 122.59375 227.414062 121.367188 229.132812 C 120.914062 229.765625 120.972656 230.058594 121.265625 230.230469 C 120.476562 230.574219 119.796875 230.796875 119.328125 230.785156 C 116.003906 230.691406 112.675781 230.734375 109.355469 230.917969 C 105.648438 231.117188 101.457031 231.765625 99.378906 234.835938 C 97.976562 236.902344 97.914062 239.578125 98.03125 242.074219 C 98.296875 247.851562 99.269531 253.59375 100.898438 259.144531 C 102.476562 264.53125 104.867188 269.363281 107.324219 274.375 C 108.839844 277.46875 110.027344 280.757812 111.496094 283.882812 C 114.148438 289.53125 118.691406 296.378906 121.816406 301.789062 C 122.558594 303.074219 137.300781 299.339844 137.367188 296.085938 C 137.542969 287.042969 135.34375 265.160156 134.652344 258.527344 C 136.117188 260.292969 137.824219 261.761719 139.886719 262.75 C 144.332031 264.894531 149.253906 265.75 154.148438 266.035156 C 158.546875 266.296875 195.0625 267.144531 197.902344 266.960938 C 199.382812 266.867188 204.394531 250.824219 201.503906 249.320312 Z M 201.503906 249.320312 " fill-opacity="1" fill-rule="nonzero"/><g clip-path="url(#51325513ad)"><path fill="#ffd98e" d="M 93.382812 141.28125 C 93.746094 136.460938 93.503906 131.597656 92.667969 126.835938 C 92.492188 125.859375 92.273438 124.835938 91.613281 124.097656 C 90.519531 122.878906 90.691406 123.363281 89.363281 122.964844 C 88.644531 122.75 88.199219 122.199219 87.519531 121.949219 C 86.566406 121.59375 85.261719 121.777344 84.257812 121.75 C 79.230469 121.605469 74.203125 121.507812 69.171875 121.546875 C 63.308594 121.59375 53.292969 122.621094 44.15625 124.007812 C 40.371094 123.027344 36.582031 122.050781 32.792969 121.070312 C 31.492188 120.734375 30.148438 120.398438 28.820312 120.609375 C 28.003906 120.738281 27.222656 121.160156 26.664062 121.753906 C 25.125 121.65625 23.578125 121.601562 22.039062 121.621094 C 21.433594 121.632812 20.8125 121.652344 20.257812 121.890625 C 19.703125 122.132812 19.226562 122.648438 19.210938 123.25 C 19.191406 124.164062 20.136719 124.757812 20.964844 125.140625 C 21.585938 125.429688 22.222656 125.683594 22.851562 125.953125 C 21.730469 125.96875 20.609375 125.953125 19.488281 125.988281 C 17.972656 126.039062 16.453125 126.113281 14.96875 126.421875 C 14.089844 126.609375 13.066406 127.0625 12.984375 127.953125 C 12.941406 128.449219 13.226562 128.929688 13.613281 129.238281 C 14 129.550781 14.480469 129.726562 14.949219 129.890625 C 17.421875 130.75 19.949219 131.429688 22.503906 132 C 21.605469 132.035156 20.703125 132.070312 19.800781 132.109375 C 18.308594 132.167969 16.765625 132.238281 15.414062 132.882812 C 14.648438 133.25 13.914062 133.882812 13.808594 134.722656 C 13.699219 135.609375 14.339844 136.453125 15.132812 136.867188 C 15.925781 137.277344 16.84375 137.351562 17.734375 137.417969 C 20.878906 137.652344 24.019531 137.886719 27.164062 138.121094 C 27.121094 138.152344 27.074219 138.183594 27.03125 138.21875 C 25.148438 139.664062 23.261719 141.109375 21.375 142.554688 C 20.734375 143.042969 20.015625 143.796875 20.34375 144.535156 C 20.660156 145.253906 21.664062 145.261719 22.429688 145.113281 C 25.714844 144.492188 28.816406 143.160156 31.996094 142.125 C 33.363281 141.683594 34.753906 141.292969 36.167969 141.039062 C 36.171875 141.039062 36.175781 141.039062 36.179688 141.039062 C 47.28125 144.027344 58.441406 146.90625 69.8125 148.71875 C 75.65625 149.652344 81.554688 150.296875 87.472656 150.519531 C 90.042969 150.617188 97.71875 151.851562 95.792969 146.914062 C 95.074219 145.070312 93.226562 143.402344 93.382812 141.28125 Z M 93.382812 141.28125 " fill-opacity="1" fill-rule="nonzero"/></g><g clip-path="url(#28976e18bd)"><path fill="#ffd98e" d="M 235.894531 129.238281 C 236.28125 128.929688 236.570312 128.449219 236.523438 127.953125 C 236.441406 127.0625 235.417969 126.609375 234.539062 126.421875 C 233.054688 126.113281 231.535156 126.039062 230.019531 125.988281 C 228.898438 125.953125 227.777344 125.96875 226.65625 125.953125 C 227.285156 125.683594 227.921875 125.429688 228.542969 125.140625 C 229.371094 124.757812 230.316406 124.164062 230.296875 123.25 C 230.28125 122.648438 229.804688 122.132812 229.25 121.890625 C 228.695312 121.652344 228.074219 121.632812 227.46875 121.621094 C 225.929688 121.601562 224.382812 121.65625 222.84375 121.753906 C 222.285156 121.160156 221.503906 120.738281 220.6875 120.609375 C 219.359375 120.398438 218.015625 120.734375 216.714844 121.070312 C 212.925781 122.050781 209.136719 123.027344 205.351562 124.007812 C 196.214844 122.621094 186.199219 121.59375 180.335938 121.546875 C 175.308594 121.507812 170.277344 121.605469 165.25 121.75 C 164.246094 121.777344 162.941406 121.59375 161.988281 121.949219 C 161.308594 122.199219 160.863281 122.75 160.144531 122.964844 C 158.816406 123.363281 158.988281 122.878906 157.898438 124.097656 C 157.234375 124.835938 157.015625 125.859375 156.84375 126.835938 C 156.003906 131.597656 155.761719 136.460938 156.125 141.28125 C 156.28125 143.402344 154.433594 145.070312 153.714844 146.914062 C 151.789062 151.851562 159.464844 150.617188 162.035156 150.519531 C 167.953125 150.296875 173.851562 149.648438 179.695312 148.71875 C 191.066406 146.90625 202.226562 144.027344 213.332031 141.039062 C 213.332031 141.039062 213.335938 141.039062 213.339844 141.039062 C 214.757812 141.292969 216.144531 141.683594 217.511719 142.125 C 220.691406 143.160156 223.792969 144.492188 227.078125 145.113281 C 227.84375 145.261719 228.847656 145.253906 229.164062 144.535156 C 229.492188 143.796875 228.773438 143.042969 228.132812 142.554688 C 226.246094 141.109375 224.359375 139.664062 222.476562 138.21875 C 222.433594 138.183594 222.386719 138.152344 222.34375 138.121094 C 225.488281 137.886719 228.628906 137.652344 231.773438 137.417969 C 232.664062 137.351562 233.582031 137.277344 234.375 136.867188 C 235.167969 136.453125 235.808594 135.609375 235.699219 134.722656 C 235.59375 133.882812 234.859375 133.25 234.09375 132.882812 C 232.742188 132.238281 231.199219 132.167969 229.707031 132.109375 C 228.804688 132.070312 227.90625 132.035156 227.003906 132 C 229.558594 131.429688 232.089844 130.75 234.558594 129.890625 C 235.027344 129.726562 235.507812 129.550781 235.894531 129.238281 Z M 235.894531 129.238281 " fill-opacity="1" fill-rule="nonzero"/></g><path fill="#473732" d="M 143.601562 300.910156 C 143.824219 301.445312 143.972656 302.007812 144.027344 302.605469 C 144.191406 304.351562 143.503906 306.0625 142.742188 307.644531 C 140.3125 312.703125 137.039062 317.308594 133.785156 321.882812 C 132.800781 323.265625 131.753906 324.703125 130.222656 325.441406 C 128.605469 326.222656 126.289062 325.859375 125.550781 324.222656 C 124.734375 322.40625 125.46875 319.847656 125.355469 317.914062 C 125.191406 315.101562 125.03125 312.292969 124.867188 309.484375 C 124.828125 308.839844 124.792969 308.179688 125.003906 307.570312 C 125.21875 306.953125 125.664062 306.445312 126.101562 305.957031 C 129.015625 302.710938 131.929688 299.460938 134.84375 296.210938 C 135.894531 295.039062 136.421875 294.316406 137.976562 295.09375 C 138.996094 295.605469 139.921875 296.410156 140.753906 297.183594 C 141.894531 298.242188 143.003906 299.46875 143.601562 300.910156 Z M 202.601562 248.808594 C 202.414062 249.757812 198.160156 267.777344 198.554688 268.316406 C 201.363281 272.125 200.960938 279.917969 206.273438 280.132812 C 207.015625 280.160156 207.675781 279.707031 207.835938 279.011719 C 209.019531 273.964844 214.191406 251.769531 213.960938 251.292969 C 213.722656 250.808594 213.230469 250.632812 212.777344 250.492188 C 210.808594 250.0625 202.929688 247.167969 202.601562 248.808594 Z M 202.601562 248.808594 " fill-opacity="1" fill-rule="nonzero"/><path fill="#509b9e" d="M 192.03125 247.695312 C 192.15625 247.273438 191.941406 246.832031 191.855469 246.398438 C 191.632812 245.292969 192.378906 244.082031 193.464844 243.78125 C 194.105469 243.605469 194.804688 243.757812 195.34375 244.128906 C 195.980469 244.558594 196.066406 245.199219 196.507812 245.761719 C 196.9375 246.316406 203.054688 248.867188 203.042969 249.375 C 202.996094 251.09375 202.757812 252.808594 202.492188 254.503906 C 201.925781 258.144531 201.191406 261.792969 200.144531 265.328125 C 199.882812 266.203125 199.652344 267.429688 199.042969 268.148438 C 198.585938 268.683594 194.300781 268.40625 192.808594 268.226562 C 192.550781 268.195312 192.285156 268.167969 192.039062 268.246094 C 191.695312 268.359375 191.457031 268.664062 191.183594 268.894531 C 190.511719 269.464844 189.515625 269.625 188.699219 269.292969 C 187.882812 268.960938 187.28125 268.15625 187.195312 267.277344 C 187.046875 265.707031 188.679688 265.019531 188.875 263.601562 C 188.925781 263.207031 188.78125 262.816406 188.699219 262.425781 C 188.519531 261.554688 188.65625 260.621094 189.085938 259.839844 C 189.351562 259.355469 189.722656 258.929688 189.976562 258.441406 C 190.398438 257.632812 190.113281 257.1875 189.945312 256.410156 C 189.78125 255.664062 189.90625 254.761719 190.28125 254.097656 C 190.546875 253.632812 191.132812 253.109375 191.148438 252.546875 C 191.164062 251.960938 190.710938 251.292969 190.648438 250.683594 C 190.570312 249.980469 190.714844 249.222656 191.1875 248.695312 C 191.480469 248.367188 191.898438 248.121094 192.03125 247.695312 Z M 133.644531 286.496094 C 132.960938 286.304688 132.214844 286.515625 131.617188 286.894531 C 131.101562 287.222656 130.703125 287.925781 130.171875 288.171875 C 129.65625 288.410156 128.929688 288.117188 128.394531 288.085938 C 127.632812 288.039062 126.765625 288.328125 126.167969 288.808594 C 125.550781 289.304688 125.273438 289.757812 124.363281 289.738281 C 123.808594 289.726562 123.265625 289.582031 122.710938 289.558594 C 121.824219 289.523438 120.921875 289.8125 120.222656 290.363281 C 119.90625 290.609375 119.621094 290.910156 119.242188 291.039062 C 117.886719 291.496094 116.546875 290.335938 115.203125 291.167969 C 114.453125 291.632812 113.996094 292.527344 114.0625 293.40625 C 114.105469 293.992188 114.378906 294.550781 114.792969 294.960938 C 115.257812 295.417969 115.847656 295.4375 116.363281 295.792969 C 117.558594 296.621094 118.535156 297.765625 119.335938 298.96875 C 120.292969 300.394531 121.027344 301.957031 121.757812 303.507812 C 122.679688 305.476562 123.605469 307.445312 124.53125 309.414062 C 124.734375 309.847656 124.957031 310.304688 125.371094 310.546875 C 126.042969 310.9375 126.894531 310.601562 127.5625 310.210938 C 130.785156 308.316406 133.105469 305.238281 135.332031 302.242188 C 136.175781 301.113281 137.019531 299.972656 137.664062 298.710938 C 138.371094 297.324219 138.519531 296.085938 138.523438 294.542969 C 138.523438 293.300781 138.074219 291.113281 138.632812 289.957031 C 138.941406 289.316406 139.476562 288.953125 139.582031 288.195312 C 139.675781 287.546875 139.5 286.851562 139.0625 286.359375 C 138.308594 285.519531 136.890625 285.386719 135.996094 286.078125 C 135.648438 286.347656 135.347656 286.734375 134.910156 286.808594 C 134.472656 286.878906 134.066406 286.613281 133.644531 286.496094 Z M 133.644531 286.496094 " fill-opacity="1" fill-rule="nonzero"/><path fill="#f484c4" d="M 170.230469 227 C 170.085938 226.195312 169.980469 225.375 169.890625 224.554688 C 169.785156 223.511719 169.707031 222.46875 169.65625 221.429688 C 169.5625 219.839844 169.5 218.25 169.394531 216.664062 C 168.875 208.800781 167.972656 200.949219 166.59375 193.1875 C 164.726562 182.6875 162.261719 172.402344 159.660156 163.175781 C 159.820312 163.160156 159.980469 163.148438 160.144531 163.136719 C 161.503906 163.019531 162.847656 162.769531 164.132812 162.304688 C 167.714844 161.019531 169.117188 147.578125 169.296875 145.8125 C 169.71875 141.660156 169.875 137.472656 169.625 133.304688 C 169.441406 130.214844 169.039062 127.140625 168.355469 124.121094 C 168.167969 123.285156 168.125 121.816406 167.464844 121.207031 C 167.203125 120.964844 166.839844 120.804688 166.429688 120.699219 C 165.351562 120.421875 163.925781 120.515625 163.078125 120.515625 C 152.90625 120.515625 142.832031 121.273438 132.746094 122.40625 C 132.746094 122.40625 132.507812 122.789062 132.089844 123.40625 C 127.347656 122.863281 121.984375 122.5625 116.871094 122.578125 C 116.804688 122.476562 116.761719 122.40625 116.761719 122.40625 C 106.675781 121.273438 96.601562 120.515625 86.429688 120.515625 C 85.582031 120.515625 84.15625 120.421875 83.078125 120.699219 C 82.667969 120.804688 82.304688 120.964844 82.042969 121.207031 C 81.382812 121.816406 81.339844 123.285156 81.152344 124.121094 C 80.46875 127.140625 80.066406 130.214844 79.882812 133.304688 C 79.632812 137.472656 79.789062 141.660156 80.210938 145.8125 C 80.390625 147.578125 81.792969 161.019531 85.375 162.304688 C 86.660156 162.769531 88.003906 163.019531 89.367188 163.136719 C 90.332031 163.21875 91.300781 163.296875 92.269531 163.375 C 89.988281 169.644531 88.703125 176.421875 87.355469 182.847656 C 85.101562 193.550781 83.261719 204.359375 81.816406 215.203125 C 81.074219 220.855469 81.230469 227.105469 79.925781 232.625 C 79.824219 233.082031 79.707031 233.550781 79.613281 234.019531 C 79.355469 235.21875 79.132812 236.429688 79.015625 237.652344 C 78.714844 240.609375 79.027344 243.5625 80.890625 246.15625 C 83.261719 249.449219 87.695312 250.699219 91.746094 250.414062 C 98.511719 249.945312 104.453125 245.945312 110.878906 243.785156 C 119.898438 240.765625 129.671875 241.429688 139.199219 241.390625 C 148.710938 241.335938 158.800781 240.335938 166.449219 234.671875 C 166.65625 234.515625 166.855469 234.359375 167.0625 234.203125 C 169.421875 232.289062 170.777344 230.074219 170.230469 227 Z M 170.230469 227 " fill-opacity="1" fill-rule="nonzero"/><path fill="#f7f7df" d="M 137.804688 132.144531 C 138.394531 134.695312 138.648438 137.425781 137.769531 139.890625 C 136.480469 143.527344 132.695312 146.042969 128.832031 146.105469 C 124.972656 146.167969 121.226562 143.921875 119.207031 140.632812 C 117.1875 142.644531 114.5625 144.175781 111.71875 144.378906 C 108.875 144.578125 105.839844 143.246094 104.5 140.734375 C 103.632812 139.109375 103.53125 137.15625 103.921875 135.359375 C 104.675781 131.90625 107.082031 129.082031 109.40625 126.417969 C 110.789062 124.835938 112.1875 123.238281 113.890625 122 C 115.59375 120.765625 117.648438 119.910156 119.75 120.011719 C 122.199219 120.128906 124.429688 121.515625 126.867188 121.765625 C 128.066406 121.890625 129.277344 121.734375 130.484375 121.796875 C 135.4375 122.050781 136.867188 128.113281 137.804688 132.144531 Z M 169.65625 221.429688 C 168.925781 221.960938 168.207031 222.507812 167.53125 223.09375 C 164.832031 225.453125 162.238281 227.496094 158.96875 229.019531 C 152.257812 232.132812 144.996094 233.65625 137.636719 233.941406 C 130.257812 234.242188 122.855469 233.695312 115.503906 234.488281 C 112.105469 234.851562 108.832031 235.398438 105.746094 236.921875 C 102.578125 238.472656 99.644531 240.269531 96.191406 241.140625 C 92.582031 242.054688 88.800781 242.105469 85.53125 240.164062 C 83.027344 238.695312 81.140625 236.441406 79.613281 234.019531 C 79.355469 235.21875 79.132812 236.429688 79.015625 237.652344 C 81.867188 241.273438 85.675781 244.046875 90.511719 244.34375 C 94.160156 244.578125 97.820312 243.589844 101.144531 242.183594 C 104.53125 240.738281 107.503906 238.5 111.152344 237.757812 C 118.867188 236.167969 126.832031 236.742188 134.636719 236.625 C 142.523438 236.507812 150.003906 235.375 157.367188 232.496094 C 161.132812 231.039062 164.613281 229.148438 167.660156 226.46875 C 168.402344 225.816406 169.148438 225.179688 169.890625 224.554688 C 169.785156 223.511719 169.707031 222.46875 169.65625 221.429688 Z M 169.65625 221.429688 " fill-opacity="1" fill-rule="nonzero"/><path fill="#ffd98e" d="M 131.738281 114.050781 C 133.066406 117.332031 134.730469 120.898438 134.199219 124.492188 C 133.132812 131.714844 127.824219 135.871094 125.011719 136.617188 C 122.597656 137.257812 120.023438 137.152344 117.597656 136.554688 C 115.84375 136.125 114.058594 135.367188 113.007812 133.898438 C 111.664062 132.019531 111.84375 129.46875 112.359375 127.21875 C 113.066406 124.136719 117.15625 114.5625 118.910156 113.742188 C 119.863281 113.300781 131.488281 113.003906 131.738281 114.050781 Z M 131.738281 114.050781 " fill-opacity="1" fill-rule="nonzero"/><path fill="#509b9e" d="M 183.910156 86.054688 C 183.1875 84.769531 182.101562 83.726562 180.988281 82.761719 C 176.566406 78.929688 171.480469 75.957031 166.226562 73.429688 C 165.367188 73.015625 164.496094 72.628906 163.628906 72.238281 C 164.601562 72.46875 165.578125 72.695312 166.558594 72.902344 C 167.722656 73.148438 165.488281 69.328125 165.15625 67.785156 C 164.328125 63.964844 169.023438 60.472656 167.878906 56.683594 C 165.808594 49.75 162.875 43.199219 157.8125 38.148438 C 150.1875 30.546875 141.941406 28.128906 130.082031 26.371094 C 101.042969 22.066406 90.835938 39.195312 86.871094 46.730469 C 86.171875 48.039062 85.664062 49.070312 85.289062 49.628906 C 83.699219 51.980469 80.886719 55.734375 82.453125 58.378906 C 79.324219 58.96875 76.175781 59.410156 73.050781 58.9375 L 71.0625 59.789062 C 68.757812 62.148438 68.875 66.125 70.535156 68.972656 C 72.191406 71.820312 75.046875 73.746094 77.917969 75.359375 C 87.257812 80.601562 97.695312 83.519531 108.015625 86.386719 C 113.835938 88 119.488281 90.472656 125.261719 92.339844 C 131.316406 94.296875 137.472656 95.980469 143.753906 97.050781 C 155.800781 99.105469 168.523438 98.820312 179.8125 94.152344 C 181.726562 93.359375 184.011719 91.769531 184.703125 89.820312 C 185.195312 88.429688 184.632812 87.34375 183.910156 86.054688 Z M 183.910156 86.054688 " fill-opacity="1" fill-rule="nonzero"/><path fill="#473732" d="M 172.285156 109.019531 C 171.242188 103.804688 170.199219 98.59375 169.15625 93.378906 C 168.523438 90.210938 167.84375 86.933594 165.953125 84.3125 C 165.058594 83.078125 163.914062 82.019531 162.675781 81.035156 C 163.089844 80.386719 163.5 79.738281 163.894531 79.085938 C 165.261719 76.839844 83.871094 53.261719 83.191406 55.566406 C 83.191406 56.414062 82.683594 57.484375 82.519531 58.335938 C 82.34375 59.265625 82.207031 60.207031 82.117188 61.152344 C 81.941406 63.046875 81.941406 64.953125 82.125 66.847656 C 82.191406 67.503906 82.300781 68.15625 82.429688 68.804688 C 82.074219 71.59375 82.316406 74.710938 82.023438 77.605469 C 81.425781 83.507812 79.46875 89.261719 76.226562 94.238281 C 74.355469 97.109375 71.976562 100.085938 72.285156 103.496094 C 72.5625 106.546875 74.957031 108.964844 77.449219 110.753906 C 77.628906 110.882812 77.8125 111.011719 77.996094 111.136719 C 87.300781 117.542969 98.96875 118.925781 109.96875 119.480469 C 112.382812 119.601562 114.246094 119.214844 116.5625 118.828125 C 119.480469 118.339844 122.734375 118.941406 125.671875 119.105469 C 132.3125 119.484375 138.949219 119.863281 145.589844 120.242188 C 149.976562 120.492188 154.410156 120.738281 158.730469 119.949219 C 162.707031 119.222656 166.523438 117.609375 169.816406 115.265625 C 170.925781 114.476562 172.035156 113.523438 172.410156 112.214844 C 172.703125 111.179688 172.496094 110.074219 172.285156 109.019531 Z M 172.285156 109.019531 " fill-opacity="1" fill-rule="nonzero"/><path fill="#f484c4" d="M 169.980469 78.726562 C 169.039062 79.460938 167.722656 73.148438 166.558594 72.902344 C 148.339844 69.046875 130.988281 60.660156 112.390625 59.804688 C 104.835938 59.457031 97.285156 60.367188 89.730469 60.71875 C 87.835938 60.808594 85.84375 60.84375 84.179688 59.945312 C 79.578125 57.457031 83.347656 52.5 85.289062 49.628906 C 85.664062 49.070312 86.171875 48.039062 86.871094 46.730469 C 93.402344 44.910156 98.773438 43.964844 105.058594 43.3125 C 119.015625 41.855469 133.28125 43.160156 146.699219 47.28125 C 154.097656 49.558594 161.242188 52.695312 167.878906 56.683594 C 170.355469 64.636719 171.238281 77.761719 169.980469 78.726562 Z M 169.980469 78.726562 " fill-opacity="1" fill-rule="nonzero"/><path fill="#509b9e" d="M 120.257812 63.257812 C 122.148438 63.492188 124.011719 63.804688 125.828125 64.207031 C 134.941406 66.234375 143.683594 69.859375 151.59375 74.804688 C 156.128906 77.640625 160.390625 80.910156 164.292969 84.566406 C 166.246094 86.394531 168.105469 88.316406 169.867188 90.328125 C 171.777344 92.515625 172.59375 93.242188 175.527344 93.636719 C 179.03125 94.105469 183.117188 92.980469 184.703125 89.820312 C 186.203125 86.832031 176.703125 73.402344 151.753906 60.273438 C 137.464844 52.757812 116.996094 47.230469 89.636719 52.097656 C 85.097656 52.90625 80.710938 54.429688 76.40625 56.074219 C 73.191406 57.300781 69.492188 59.582031 69.804688 63.007812 C 70.019531 65.40625 72.335938 67.183594 74.707031 67.609375 C 78.417969 68.273438 81.316406 66.414062 84.746094 65.652344 C 88.667969 64.785156 92.636719 64.097656 96.625 63.617188 C 104.210938 62.695312 112.476562 62.300781 120.257812 63.257812 Z M 120.257812 63.257812 " fill-opacity="1" fill-rule="nonzero"/><path fill="#ffd98e" d="M 163.988281 93.273438 C 162.136719 89.628906 157.921875 87.457031 153.835938 87.652344 C 151.84375 87.75 149.921875 88.367188 148.191406 89.355469 C 147.511719 88.046875 146.621094 86.835938 145.632812 85.769531 C 143.460938 83.421875 140.855469 81.476562 138.871094 78.972656 C 136.882812 76.46875 135.542969 73.125 136.484375 70.070312 C 131.0625 72.160156 124.398438 71.636719 118.734375 71.101562 C 113.171875 70.574219 107.574219 69.804688 102.023438 70.441406 C 95.257812 71.21875 89.84375 74.59375 85.953125 79.882812 C 85.277344 87.875 85.347656 95.960938 87.582031 103.628906 C 89.558594 110.414062 93.523438 117.003906 99.8125 120.246094 C 103.445312 122.117188 107.582031 122.75 111.652344 123.128906 C 120.746094 123.984375 130.28125 123.640625 138.457031 119.582031 C 141.28125 118.183594 143.8125 116.273438 145.957031 113.972656 C 148.859375 115.867188 152.957031 116.132812 156.175781 114.601562 C 160.636719 112.480469 163.429688 107.804688 164.589844 103.007812 C 165.367188 99.78125 165.492188 96.234375 163.988281 93.273438 Z M 163.988281 93.273438 " fill-opacity="1" fill-rule="nonzero"/><path fill="#f09ea0" d="M 131.945312 100.304688 C 132.65625 100.453125 133.441406 100.808594 133.742188 101.707031 C 133.917969 102.222656 133.890625 102.855469 133.671875 103.339844 C 133.25 104.277344 132.039062 104.703125 131.3125 104.878906 C 130.222656 105.136719 129.097656 105.039062 128.023438 104.695312 C 127.582031 104.554688 127.136719 104.367188 126.78125 103.976562 C 126.425781 103.585938 126.164062 102.949219 126.261719 102.335938 C 126.691406 99.683594 130.851562 100.082031 131.945312 100.304688 Z M 97.355469 100.304688 C 96.648438 100.453125 95.863281 100.808594 95.558594 101.707031 C 95.386719 102.222656 95.414062 102.855469 95.632812 103.339844 C 96.054688 104.277344 97.261719 104.703125 97.992188 104.878906 C 99.082031 105.136719 100.207031 105.039062 101.277344 104.695312 C 101.71875 104.554688 102.167969 104.367188 102.523438 103.976562 C 102.875 103.585938 103.140625 102.949219 103.042969 102.335938 C 102.613281 99.683594 98.449219 100.082031 97.355469 100.304688 Z M 116.867188 109.460938 C 117.664062 109.617188 118.601562 109.230469 119.347656 108.992188 C 120.28125 108.695312 121.191406 108.324219 122.066406 107.882812 C 122.46875 107.679688 122.882812 107.449219 123.125 107.070312 C 123.433594 106.589844 123.410156 105.964844 123.296875 105.40625 C 123.132812 104.566406 122.777344 103.738281 122.140625 103.167969 C 121.183594 102.304688 119.6875 102.179688 118.511719 102.707031 C 117.335938 103.234375 116.476562 104.335938 116.054688 105.554688 C 115.660156 106.699219 115.164062 109.128906 116.867188 109.460938 Z M 116.867188 109.460938 " fill-opacity="1" fill-rule="nonzero"/><path fill="#473732" d="M 102.21875 92.023438 C 103.125 92.648438 103.65625 93.730469 103.765625 94.828125 C 103.847656 95.65625 103.699219 96.523438 103.234375 97.214844 C 102.507812 98.300781 101.011719 98.78125 99.773438 98.367188 C 98.53125 97.953125 97.636719 96.703125 97.59375 95.398438 C 97.523438 93.058594 99.898438 90.429688 102.21875 92.023438 Z M 126.8125 92.023438 C 125.902344 92.648438 125.371094 93.730469 125.261719 94.828125 C 125.179688 95.65625 125.328125 96.523438 125.792969 97.214844 C 126.523438 98.300781 128.015625 98.78125 129.257812 98.367188 C 130.496094 97.953125 131.394531 96.703125 131.433594 95.398438 C 131.503906 93.058594 129.128906 90.429688 126.8125 92.023438 Z M 124.546875 74.804688 C 126.300781 74.078125 128.421875 74.417969 130.164062 75.011719 C 131.117188 75.335938 131.992188 75.789062 132.816406 76.363281 C 133.601562 76.910156 134.265625 77.589844 134.972656 78.222656 C 135.332031 78.539062 135.878906 78.230469 135.773438 77.757812 C 135.269531 75.523438 132.675781 74.109375 130.664062 73.464844 C 128.515625 72.777344 126.160156 72.789062 124.148438 73.863281 C 123.644531 74.132812 124 75.035156 124.546875 74.804688 Z M 106.597656 74.464844 C 104.695312 73.179688 102.335938 72.980469 100.121094 73.441406 C 98.03125 73.878906 95.414062 75.046875 94.664062 77.210938 C 94.535156 77.585938 95.03125 77.996094 95.363281 77.75 C 96.972656 76.570312 98.5 75.5 100.484375 75.027344 C 102.242188 74.609375 104.429688 74.460938 106.078125 75.355469 C 106.667969 75.671875 107.144531 74.832031 106.597656 74.464844 Z M 123.863281 106.652344 C 123.242188 106.746094 122.640625 107.007812 122.035156 107.179688 C 121.453125 107.34375 120.867188 107.453125 120.273438 107.566406 C 118.925781 107.816406 117.582031 108.019531 116.207031 108.09375 C 115.117188 108.152344 114.035156 108.085938 112.945312 108.035156 C 111.871094 107.984375 110.71875 107.929688 109.769531 107.363281 C 109.433594 107.164062 109.039062 107.644531 109.34375 107.914062 C 111.242188 109.585938 113.605469 110.0625 116.074219 110.003906 C 118.882812 109.941406 122.242188 109.4375 124.222656 107.261719 C 124.484375 106.976562 124.21875 106.597656 123.863281 106.652344 Z M 123.863281 106.652344 " fill-opacity="1" fill-rule="nonzero"/><path fill="#473732" d="M 287.941406 359.226562 C 288.984375 360.152344 292.488281 362.316406 295.777344 361.664062 C 297.441406 361.332031 299.125 360.640625 300.171875 359.300781 C 301.0625 358.167969 301.394531 356.667969 301.316406 355.230469 C 301.242188 353.792969 300.726562 352.421875 300.230469 351.070312 C 297.214844 342.867188 288.730469 334.347656 287.320312 333.980469 C 285.855469 333.597656 277.492188 331.894531 278.125 332.988281 C 279.597656 335.523438 281.582031 340.425781 281.910156 343.371094 C 282.269531 346.632812 282.660156 349.65625 280.792969 354.863281 C 280.386719 355.996094 284.625 356.296875 287.941406 359.226562 Z M 287.941406 359.226562 " fill-opacity="1" fill-rule="nonzero"/><g clip-path="url(#0dd89808bb)"><path fill="#ffb08e" d="M 367.851562 186.414062 C 367.964844 187.910156 366.960938 189.234375 366.007812 190.390625 C 363.152344 193.867188 360.296875 197.34375 357.445312 200.820312 C 356.9375 201.667969 356.34375 202.464844 355.75 203.242188 C 354.972656 204.253906 354.195312 205.265625 353.417969 206.277344 C 353.332031 206.390625 353.238281 206.492188 353.148438 206.601562 C 350.796875 214.394531 343.742188 230.96875 326.097656 247.976562 C 324.476562 249.539062 320.316406 246.4375 318.125 245.921875 C 316.257812 245.484375 315.175781 243.578125 314.320312 241.859375 C 312.820312 238.847656 311.324219 235.839844 309.824219 232.828125 C 308.585938 230.339844 306.917969 226.738281 308.566406 224.03125 C 309.777344 222.046875 313.234375 221.160156 314.773438 219.539062 C 322.597656 211.300781 332.851562 202.746094 339.675781 197.75 C 338.78125 195.765625 337.769531 193.871094 337.371094 191.675781 C 336.886719 188.992188 337.023438 186.222656 337.453125 183.542969 C 337.601562 182.613281 337.871094 181.566406 338.699219 181.125 C 339.703125 180.589844 340.984375 181.292969 341.585938 182.261719 C 342.1875 183.230469 342.347656 184.402344 342.734375 185.476562 C 343.007812 186.230469 343.394531 186.925781 343.816406 187.609375 C 344.140625 186.988281 344.480469 186.371094 344.832031 185.761719 C 345.746094 183.351562 346.851562 180.964844 348.046875 178.714844 C 348.917969 177.082031 349.871094 175.496094 350.90625 173.964844 C 351.09375 173.691406 351.304688 173.40625 351.617188 173.308594 C 352.035156 173.175781 352.496094 173.453125 352.71875 173.832031 C 352.9375 174.210938 352.972656 174.667969 352.992188 175.105469 C 353.09375 177.476562 352.824219 179.828125 352.371094 182.15625 C 353.59375 179.933594 354.816406 177.714844 356.039062 175.496094 C 356.394531 174.847656 356.769531 174.179688 357.355469 173.726562 C 357.941406 173.277344 358.804688 173.09375 359.421875 173.5 C 359.90625 173.8125 360.140625 174.410156 360.160156 174.984375 C 360.179688 175.558594 360.011719 176.121094 359.839844 176.667969 C 358.878906 179.734375 357.671875 182.722656 356.289062 185.621094 C 356.386719 185.664062 356.476562 185.703125 356.566406 185.757812 C 358.207031 183.714844 359.976562 181.777344 361.890625 179.992188 C 362.296875 179.613281 362.722656 179.234375 363.234375 179.027344 C 363.75 178.816406 364.382812 178.8125 364.824219 179.152344 C 365.300781 179.519531 365.441406 180.199219 365.324219 180.789062 C 365.203125 181.378906 364.875 181.902344 364.550781 182.410156 C 363.007812 184.832031 361.460938 187.25 359.914062 189.671875 C 359.960938 189.75 360 189.832031 360.042969 189.914062 C 361.890625 188.351562 363.84375 186.917969 365.902344 185.640625 C 366.308594 185.390625 366.804688 185.136719 367.246094 185.328125 C 367.644531 185.5 367.820312 185.980469 367.851562 186.414062 Z M 219.269531 218.96875 C 211.449219 210.730469 201.195312 202.175781 194.367188 197.179688 C 195.265625 195.195312 196.273438 193.300781 196.671875 191.105469 C 197.160156 188.421875 197.023438 185.652344 196.59375 182.96875 C 196.441406 182.039062 196.175781 180.996094 195.347656 180.554688 C 194.339844 180.019531 193.0625 180.722656 192.460938 181.691406 C 191.859375 182.660156 191.699219 183.832031 191.3125 184.90625 C 191.039062 185.65625 190.648438 186.355469 190.226562 187.035156 C 189.90625 186.414062 189.566406 185.800781 189.214844 185.191406 C 188.300781 182.777344 187.195312 180.390625 185.996094 178.144531 C 185.128906 176.511719 184.175781 174.925781 183.136719 173.394531 C 182.953125 173.121094 182.742188 172.832031 182.425781 172.734375 C 182.007812 172.605469 181.546875 172.882812 181.328125 173.261719 C 181.105469 173.640625 181.070312 174.097656 181.050781 174.535156 C 180.953125 176.90625 181.222656 179.253906 181.671875 181.582031 C 180.449219 179.363281 179.230469 177.144531 178.007812 174.925781 C 177.648438 174.277344 177.277344 173.609375 176.691406 173.15625 C 176.105469 172.703125 175.242188 172.523438 174.621094 172.925781 C 174.140625 173.238281 173.90625 173.839844 173.886719 174.414062 C 173.867188 174.988281 174.035156 175.550781 174.207031 176.097656 C 175.167969 179.164062 176.371094 182.148438 177.757812 185.050781 C 177.660156 185.089844 177.566406 185.132812 177.476562 185.183594 C 175.839844 183.144531 174.070312 181.207031 172.15625 179.421875 C 171.75 179.042969 171.324219 178.664062 170.808594 178.453125 C 170.292969 178.246094 169.664062 178.242188 169.222656 178.578125 C 168.746094 178.945312 168.605469 179.628906 168.722656 180.21875 C 168.839844 180.808594 169.171875 181.332031 169.492188 181.839844 C 171.039062 184.257812 172.585938 186.679688 174.128906 189.101562 C 174.082031 189.179688 174.042969 189.261719 174.003906 189.339844 C 172.15625 187.78125 170.199219 186.347656 168.144531 185.070312 C 167.734375 184.820312 167.238281 184.5625 166.800781 184.753906 C 166.398438 184.929688 166.226562 185.40625 166.191406 185.84375 C 166.078125 187.339844 167.085938 188.660156 168.039062 189.820312 C 170.890625 193.296875 173.746094 196.773438 176.601562 200.25 C 177.105469 201.09375 177.699219 201.894531 178.296875 202.667969 C 179.074219 203.683594 179.851562 204.695312 180.628906 205.707031 C 180.714844 205.816406 180.808594 205.921875 180.894531 206.03125 C 183.25 213.820312 190.304688 230.398438 207.949219 247.40625 C 209.566406 248.964844 213.730469 245.867188 215.917969 245.351562 C 217.789062 244.914062 218.867188 243.007812 219.726562 241.285156 C 221.222656 238.277344 222.722656 235.265625 224.222656 232.257812 C 225.457031 229.769531 227.125 226.167969 225.476562 223.460938 C 224.269531 221.476562 220.8125 220.589844 219.269531 218.96875 Z M 219.269531 218.96875 " fill-opacity="1" fill-rule="nonzero"/></g><path fill="#509b9e" d="M 327.710938 307.765625 C 323.261719 305.074219 317.945312 303.628906 312.746094 303.675781 C 307.945312 303.71875 303.210938 304.804688 298.589844 306.125 C 292.863281 307.761719 287.230469 309.769531 281.8125 312.242188 C 279.511719 313.289062 277.257812 314.449219 275.042969 315.671875 C 274.757812 315.617188 274.476562 315.554688 274.195312 315.503906 C 267.507812 314.359375 260.734375 313.53125 253.949219 313.1875 C 245.339844 312.753906 236.714844 313.089844 228.21875 314.53125 C 221.066406 315.742188 213.453125 318.132812 209.347656 324.117188 C 207.097656 327.394531 206.164062 331.480469 206.371094 335.449219 C 206.828125 344.089844 211.324219 351.269531 220.035156 353.113281 C 224.019531 353.957031 228.136719 353.769531 232.199219 353.582031 C 238.929688 353.269531 245.65625 352.898438 252.386719 352.648438 C 254.875 352.554688 257.09375 353.332031 259.578125 352.972656 C 262.390625 352.566406 265.109375 351.582031 267.425781 349.914062 C 267.988281 349.503906 268.492188 349.019531 269 348.546875 C 273.070312 351.171875 278.226562 351.800781 283.046875 351.136719 C 286.878906 350.605469 290.757812 350.394531 294.597656 349.925781 C 300.71875 349.175781 306.894531 347.539062 312.667969 345.304688 C 317.820312 343.308594 322.75 340.523438 326.613281 336.566406 C 330.476562 332.609375 333.214844 327.394531 333.550781 321.871094 C 333.835938 317.160156 332.058594 310.394531 327.710938 307.765625 Z M 327.710938 307.765625 " fill-opacity="1" fill-rule="nonzero"/><path fill="#ee7558" d="M 314.15625 218.378906 C 282.726562 231.558594 290.445312 229.03125 273.121094 231.066406 L 273.851562 232.070312 C 268.132812 232.070312 261.113281 232.070312 257.027344 232.070312 C 248.960938 231.242188 249.042969 230.820312 223.71875 220.203125 C 222.074219 219.515625 204.492188 253.398438 206.128906 254.75 C 211.664062 259.320312 223.375 269.15625 231.527344 275.441406 C 230.433594 280.546875 229.574219 285.695312 228.914062 290.875 C 228.117188 297.113281 227.960938 303.292969 227.824219 309.636719 C 227.796875 310.867188 227.785156 312.164062 228.332031 313.265625 C 228.347656 313.300781 228.367188 313.339844 228.386719 313.378906 C 229.5 315.445312 232.167969 315.976562 234.496094 316.28125 C 238.335938 316.785156 242.175781 317.285156 246.015625 317.789062 C 250.582031 318.386719 255.164062 318.984375 259.773438 318.996094 C 273.828125 319.039062 287.273438 313.683594 300.304688 308.414062 C 302.316406 307.601562 305.488281 306.710938 307.003906 305.070312 C 308.3125 303.65625 307.808594 301.898438 307.648438 300.105469 C 307.351562 296.761719 306.96875 293.421875 306.496094 290.097656 C 305.859375 285.632812 304.992188 281.203125 304.003906 276.800781 C 312.4375 269.894531 325.847656 257.796875 331.746094 252.925781 C 333.382812 251.574219 315.800781 217.691406 314.15625 218.378906 Z M 314.15625 218.378906 " fill-opacity="1" fill-rule="nonzero"/><path fill="#ffb08e" d="M 330.628906 325.109375 C 330.761719 329.347656 329.160156 333.632812 326.730469 337.164062 C 325.207031 339.371094 321.515625 342.761719 315.230469 345.4375 C 298.136719 352.714844 279.011719 352.988281 269.972656 353.902344 C 269.875 353.914062 269.757812 353.851562 269.632812 353.761719 C 259.800781 355.9375 245.65625 358.738281 231.4375 357.222656 C 224.648438 356.5 220.128906 354.335938 218.03125 352.664062 C 214.675781 350 211.902344 346.367188 210.792969 342.273438 C 210.539062 341.332031 210.371094 340.363281 210.308594 339.375 C 209.890625 332.996094 213.789062 328.984375 219.164062 326.558594 C 223.886719 324.429688 229.136719 324.300781 234.210938 324.589844 C 239.261719 324.878906 244.28125 325.585938 249.25 326.507812 C 256.644531 327.882812 263.941406 329.726562 271.28125 331.363281 C 277.246094 327.949219 283.15625 324.429688 289.253906 321.257812 C 293.742188 318.921875 298.335938 316.78125 303.082031 315.03125 C 307.851562 313.269531 312.914062 311.859375 318.050781 312.519531 C 323.898438 313.269531 328.792969 315.96875 330.25 322.195312 C 330.476562 323.160156 330.597656 324.132812 330.628906 325.109375 Z M 260.101562 245.496094 C 262.3125 246.042969 264.667969 246.136719 266.871094 245.550781 C 269.441406 244.867188 274.285156 241.0625 275.257812 234.453125 C 275.746094 231.160156 274.222656 227.894531 273.011719 224.890625 C 272.785156 223.933594 262.167969 224.203125 261.300781 224.609375 C 259.695312 225.355469 255.960938 234.125 255.316406 236.949219 C 254.84375 239.003906 254.683594 241.34375 255.90625 243.0625 C 256.867188 244.40625 258.496094 245.097656 260.101562 245.496094 Z M 260.101562 245.496094 " fill-opacity="1" fill-rule="nonzero"/><path fill="#473732" d="M 261.765625 363.851562 C 261.035156 365.039062 258.3125 368.132812 254.976562 368.46875 C 253.289062 368.636719 251.476562 368.46875 250.082031 367.496094 C 248.902344 366.667969 248.148438 365.332031 247.804688 363.933594 C 247.460938 362.535156 247.554688 361.074219 247.636719 359.636719 C 247.824219 356.28125 248.777344 352.644531 249.945312 349.394531 C 251.445312 343.304688 253.527344 336.121094 254.289062 335.652344 C 255.578125 334.859375 265.351562 330.761719 265.0625 331.992188 C 264.390625 334.847656 268.976562 342.433594 269.523438 345.347656 C 270.125 348.574219 269.09375 352.089844 267.332031 357.589844 C 268.050781 358.554688 264.082031 360.078125 261.765625 363.851562 Z M 261.765625 363.851562 " fill-opacity="1" fill-rule="nonzero"/><path fill="#f7f7df" d="M 287.964844 321.730469 C 287.820312 320.511719 278.890625 325.832031 271.082031 330.808594 C 261.808594 328.183594 250.390625 325.300781 250.625 326.585938 C 251.78125 332.972656 251.058594 342.453125 249.949219 349.398438 C 251.820312 344.199219 254.25 339.988281 255.011719 339.515625 C 256.242188 338.757812 263.148438 335.015625 263.496094 335.765625 C 263.511719 335.800781 263.53125 335.828125 263.519531 335.882812 C 262.847656 338.738281 262.375 344.007812 262.917969 346.921875 C 263.476562 349.898438 263.980469 352.703125 266.644531 356.601562 C 266.867188 356.925781 267.074219 357.246094 267.328125 357.585938 C 271.101562 357.628906 299.976562 351.261719 299.304688 350.425781 C 296.449219 346.863281 289.105469 331.503906 287.964844 321.730469 Z M 287.964844 321.730469 " fill-opacity="1" fill-rule="nonzero"/><g clip-path="url(#5df38a851d)"><path fill="#473732" d="M 315.640625 172.539062 C 315.835938 171.074219 315.875 169.554688 315.894531 168.140625 C 316.023438 159.222656 312.925781 150.234375 307.105469 143.453125 C 302.183594 137.714844 295.402344 133.671875 288.09375 131.828125 C 281.589844 130.1875 275.199219 130.867188 268.628906 131.609375 C 267.316406 131.757812 259.71875 130.242188 257.476562 130.023438 C 252.648438 129.542969 247.746094 129.859375 243.007812 130.894531 C 233.527344 132.957031 224.632812 137.902344 218.125 145.140625 C 215.105469 148.5 212.546875 152.367188 211.230469 156.691406 C 210.277344 159.832031 210.007812 163.226562 210.675781 166.449219 C 211.304688 169.476562 214.214844 179.625 216.464844 179.699219 C 216.605469 179.703125 216.9375 179.746094 217.390625 179.800781 C 219.785156 180.105469 296.105469 210.847656 299.558594 211.511719 C 301.394531 209.765625 303.707031 207.183594 304.542969 204.746094 C 305.703125 201.363281 305.972656 197.511719 306.953125 194.042969 C 308.367188 189.0625 309.992188 183.597656 312.582031 179.089844 C 313.472656 177.542969 314.683594 176.46875 315.195312 174.714844 C 315.398438 174.019531 315.539062 173.285156 315.640625 172.539062 Z M 315.640625 172.539062 " fill-opacity="1" fill-rule="nonzero"/></g><path fill="#ffb08e" d="M 311.296875 197.578125 C 309.066406 193.171875 303.984375 190.546875 299.058594 190.785156 C 295.949219 190.933594 292.964844 192.136719 290.46875 194.015625 C 290.0625 193.039062 289.652344 192.0625 289.246094 191.082031 C 288.753906 189.90625 286.074219 183.597656 284.695312 182.820312 C 282.742188 181.71875 278.335938 183.089844 277.351562 180.820312 C 276.746094 179.417969 276.65625 177.378906 276.421875 175.863281 C 276.148438 174.089844 275.953125 172.300781 275.84375 170.511719 C 275.746094 172.289062 275.003906 179.421875 273.375 180.136719 C 272.285156 180.613281 260.324219 180.480469 254.695312 180.507812 C 253.960938 180.511719 253.328125 180.003906 253.164062 179.285156 L 251.617188 172.4375 L 250.15625 178.847656 C 249.992188 179.5625 249.386719 180.105469 248.65625 180.171875 C 243.039062 180.675781 237.363281 180.535156 231.777344 179.746094 C 231.199219 179.667969 230.6875 179.292969 230.453125 178.757812 C 229.664062 176.949219 229.125 175.03125 228.859375 173.074219 C 228.523438 175.097656 229.414062 177.820312 227.851562 179.152344 C 225.832031 180.878906 219.785156 180.105469 217.390625 179.800781 C 216.433594 189.972656 216.382812 200.3125 219.222656 210.085938 C 221.609375 218.285156 226.386719 226.246094 233.960938 230.160156 C 238.339844 232.425781 243.324219 233.1875 248.230469 233.648438 C 259.1875 234.675781 270.675781 234.265625 280.53125 229.363281 C 284.042969 227.613281 287.03125 225.289062 289.527344 222.589844 C 293.023438 224.894531 297.992188 225.199219 301.878906 223.34375 C 307.253906 220.78125 310.617188 215.132812 312.015625 209.332031 C 312.957031 205.433594 313.105469 201.152344 311.296875 197.578125 Z M 311.296875 197.578125 " fill-opacity="1" fill-rule="nonzero"/><path fill="#ee7558" d="M 269.691406 203.652344 C 270.496094 203.816406 271.382812 204.222656 271.726562 205.242188 C 271.921875 205.824219 271.890625 206.542969 271.644531 207.089844 C 271.164062 208.15625 269.796875 208.636719 268.972656 208.835938 C 267.742188 209.128906 266.46875 209.015625 265.257812 208.628906 C 264.757812 208.46875 264.25 208.253906 263.851562 207.8125 C 263.449219 207.371094 263.152344 206.648438 263.265625 205.953125 C 263.746094 202.945312 268.453125 203.394531 269.691406 203.652344 Z M 230.574219 203.652344 C 229.769531 203.816406 228.882812 204.222656 228.542969 205.242188 C 228.34375 205.824219 228.375 206.542969 228.621094 207.089844 C 229.101562 208.15625 230.46875 208.636719 231.292969 208.835938 C 232.523438 209.128906 233.796875 209.015625 235.007812 208.628906 C 235.507812 208.46875 236.015625 208.253906 236.414062 207.8125 C 236.816406 207.371094 237.113281 206.648438 237.003906 205.953125 C 236.519531 202.945312 231.8125 203.394531 230.574219 203.652344 Z M 230.574219 203.652344 " fill-opacity="1" fill-rule="nonzero"/><path fill="#473732" d="M 268.566406 196.609375 C 266.988281 195.929688 265.28125 195.671875 263.582031 196.019531 C 261.957031 196.351562 260.53125 197.203125 259.410156 198.410156 C 259.140625 198.703125 259.507812 199.253906 259.859375 198.992188 C 261.023438 198.132812 262.496094 197.859375 263.914062 197.925781 C 264.640625 197.960938 265.398438 197.953125 266.109375 198.113281 C 266.921875 198.292969 267.632812 198.773438 268.433594 198.960938 C 269.03125 199.105469 270.390625 199.125 270.316406 198.191406 C 270.25 197.394531 269.207031 196.882812 268.566406 196.609375 Z M 230.484375 197.742188 C 230.402344 198.703125 231.804688 198.683594 232.421875 198.539062 C 233.246094 198.339844 233.976562 197.847656 234.816406 197.660156 C 235.550781 197.5 236.328125 197.503906 237.074219 197.46875 C 238.539062 197.398438 240.054688 197.679688 241.253906 198.570312 C 241.617188 198.839844 241.996094 198.269531 241.714844 197.96875 C 240.566406 196.722656 239.09375 195.847656 237.421875 195.503906 C 235.667969 195.148438 233.910156 195.410156 232.28125 196.113281 C 231.625 196.394531 230.550781 196.921875 230.484375 197.742188 Z M 257.753906 211.417969 C 256.410156 211.976562 255.304688 212.976562 254.039062 213.691406 C 252.746094 214.417969 251.332031 214.804688 249.84375 214.710938 C 248.65625 214.632812 247.472656 214.273438 246.367188 213.839844 C 245.28125 213.414062 243.929688 212.714844 243.433594 211.601562 C 243.253906 211.195312 242.640625 211.492188 242.738281 211.894531 C 243.515625 215.035156 246.566406 216.574219 249.59375 216.863281 C 251.367188 217.03125 253.1875 216.628906 254.738281 215.757812 C 256.230469 214.917969 257.75 213.59375 258.234375 211.898438 C 258.308594 211.636719 258.039062 211.296875 257.753906 211.417969 Z M 257.753906 211.417969 " fill-opacity="1" fill-rule="nonzero"/></svg>